<svg version="1.1" x="0" y="0" width="100%" height="100%" viewBox="0 0 44032 302182.4" xmlns="http://www.w3.org/2000/svg">
  <path d="M 35954.25 21415.35 L 16419 21415.35 L 16419 18944.35 L 25450.75 18944.35 Q 24339.5 16506.6 22619.25 14464.35 L 24840 13496.6 Q 26847.25 15682.35 27850 17868.1 L 25520.75 18944.35 L 35950.75 18944.35 L 35950.75 21415.35 L 35954.25 21415.35 Z M 29608.75 22169.6 Q 34017 26327.6 35880.75 29517.85 L 33908.5 31164.6 Q 32081.5 27797.6 27778.25 23567.85 L 29607 22169.6 L 29608.75 22169.6 Z M 23552 23424.35 Q 20864 28119.6 17173.25 31381.6 Q 16527.5 30662.35 15309.5 29766.35 Q 18893.5 26828.1 21152.75 22348.1 L 23553.75 23424.35 L 23552 23424.35 Z M 14124.75 34176.35 Q 13661 32956.6 11510.25 28656.85 L 11510.25 46396.6 L 9074.25 46396.6 L 9074.25 29050.6 Q 7065.25 36218.6 4664.25 39874.35 Q 4127 38511.1 3231 37328.1 Q 6780 32491.1 8572 23746.35 L 4414 23746.35 L 4414 21238.6 L 9074.25 21238.6 L 9074.25 13676.85 L 11510.25 13676.85 L 11510.25 21238.6 L 15523 21238.6 L 15523 23746.35 L 11510.25 23746.35 L 11510.25 25179.6 Q 12873.5 27116.85 15741.75 32169.1 L 14126.5 34178.1 L 14124.75 34176.35 Z M 31796.25 29265.85 Q 30361.25 34354.85 27423 38262.6 Q 31329 42133.6 36524.75 43888.85 Q 35558.75 44678.1 34732.75 46183.1 Q 29537 44284.35 25702.75 40271.6 Q 22047 44070.85 16742.75 46471.85 Q 15916.75 45182.1 15057.5 44466.35 Q 20396.75 42137.1 24017.5 38301.1 Q 21077.5 34536.85 19250.5 29412.85 L 21544.75 28767.1 Q 23049.75 32996.85 25666 36293.85 Q 28067 32925.1 29250 28625.35 L 31796.25 29269.35 L 31796.25 29265.85 Z M 8964 69698 L 8964 76724.25 Q 8964 89231.5 5490.25 95361.75 Q 4449 94324 3231 93891.75 Q 6312.75 88409 6312.75 76726 L 6312.75 67157 L 20720.5 67157 Q 19859.5 65365 18461.25 63608 L 20755.5 62677 Q 22689.25 64862.75 23730.5 67157 L 35987.5 67157 L 35987.5 69699.75 L 8962.25 69699.75 L 8964 69698 Z M 23732.25 79125.25 Q 27853.5 89123 36384.75 92887.25 Q 35273.5 93855 34484.25 95179.75 Q 26994.25 91415.5 22477.5 82420.5 Q 19647.75 91415.5 11261.75 95323.25 Q 10651 94210.25 9504.75 93279.25 Q 18358 89445 20613.75 79121.75 L 10974.75 79121.75 L 10974.75 76614 L 21007.5 76614 Q 21259.5 74785.25 21581.5 70807.5 L 24376.25 70807.5 Q 24126 74141.25 23767.25 76614 L 35343.5 76614 L 35343.5 79121.75 L 23732.25 79121.75 L 23732.25 79125.25 Z M 31831.25 119342.15 Q 30291.25 116976.15 27029.25 113929.4 L 28893 112604.65 Q 32153.25 115579.65 33803.5 117873.9 L 31831.25 119343.9 L 31831.25 119342.15 Z M 14376.75 112531.15 Q 12871.75 116582.4 10612.5 120703.65 L 10612.5 144393.4 L 8066.25 144393.4 L 8066.25 124788.15 Q 6668 126797.15 5056.25 128589.15 Q 4412.25 127190.9 3516.25 125971.15 Q 8820.5 120418.4 11867.25 111780.4 L 14375 112531.15 L 14376.75 112531.15 Z M 23049.75 122674.15 Q 21901.75 138445.15 13948 144249.9 Q 13228.75 143173.65 11975.75 142312.65 Q 19394 137116.9 20435.25 122674.15 L 12548 122674.15 L 12548 120131.4 L 20612 120131.4 Q 20757.25 116582.4 20757.25 112137.4 L 23373.5 112137.4 Q 23373.5 116797.65 23193.25 120131.4 L 35989.25 120131.4 L 35989.25 122674.15 L 23051.5 122674.15 L 23049.75 122674.15 Z M 32331.75 140989.65 Q 33121 140989.65 33373 139986.9 Q 33623.25 138984.15 33695 135471.9 Q 34556 136152.65 36061 136616.4 Q 35880.75 140667.65 35165 142030.9 Q 34484.25 143429.15 32547 143429.15 L 28390.75 143429.15 Q 26311.75 143429.15 25557.5 142639.9 Q 24841.75 141850.65 24841.75 139664.9 L 24841.75 125470.65 L 27458 125470.65 L 27458 139664.9 Q 27458 140489.15 27673.25 140741.15 Q 27925.25 140991.4 28714.5 140991.4 L 32333.5 140991.4 L 32331.75 140989.65 Z M 21116 180132.05 Q 23371.75 180132.05 27958.5 180060.3 Q 26812.25 179381.3 24983.5 178592.05 L 26633.75 177372.3 L 21116 177372.3 L 21116 180132.05 Z M 18428 175578.55 L 18428 173214.3 L 9860 173214.3 L 9860 175578.55 L 18428 175578.55 Z M 9860 171494.05 L 18428 171494.05 L 18428 169164.8 L 9860 169164.8 L 9860 171494.05 Z M 21116 169164.8 L 21116 171494.05 L 29930.75 171494.05 L 29930.75 169164.8 L 21116 169164.8 Z M 29930.75 173216.05 L 21116 173216.05 L 21116 175580.3 L 29930.75 175580.3 L 29930.75 173216.05 Z M 4842.75 180203.8 Q 8285 180238.8 18428 180168.8 L 18428 177370.55 L 7317.25 177370.55 L 7317.25 167372.8 L 18428 167372.8 L 18428 165078.55 L 4877.75 165078.55 L 4877.75 162892.8 L 18428 162892.8 L 18428 160742.05 L 21116 160742.05 L 21116 162892.8 L 35058.25 162892.8 L 35058.25 165078.55 L 21116 165078.55 L 21116 167372.8 L 32547 167372.8 L 32547 177370.55 L 26920.75 177370.55 Q 31974.75 179414.55 35341.75 182569.8 L 33514.75 184109.8 Q 32977.5 183500.8 31148.75 182102.55 Q 15594.75 182461.3 4988 182568.05 L 4842.75 180202.05 L 4842.75 180203.8 Z M 22549.25 188232.8 Q 20542 186153.8 16636 184144.8 L 18317.75 182711.55 Q 22188.75 184538.55 24374.5 186617.55 L 22547.5 188232.8 L 22549.25 188232.8 Z M 4020.25 191062.55 Q 5884 188876.8 7389 184431.8 L 9644.75 185327.8 Q 7959.5 190201.55 6312.75 192317.3 L 4018.5 191062.55 L 4020.25 191062.55 Z M 24589.75 190668.8 Q 25879.5 190668.8 26273.25 190059.8 Q 26667 189414.05 26812.25 187084.8 Q 27850 187765.55 29178.25 188015.8 Q 28891.25 190990.8 28065.25 191958.55 Q 27169.25 192926.3 24768.25 192926.3 L 16669.25 192926.3 Q 13622.5 192926.3 12584.75 192245.55 Q 11543.5 191599.8 11543.5 189631.05 L 11543.5 184577.05 L 14161.5 184577.05 L 14161.5 189594.3 Q 14161.5 190275.05 14625.25 190490.3 Q 15127.5 190670.55 16812.75 190670.55 L 24589.75 190670.55 L 24589.75 190668.8 Z M 31257.25 184468.55 Q 34447.5 188194.3 35523.75 191169.3 L 33122.75 192030.3 Q 32011.5 189018.55 29001.5 185257.8 L 31257.25 184468.55 Z M 12045.75 215977.45 Q 9896.75 214472.45 5416.75 212034.7 L 6886.75 210135.95 Q 10934.5 212073.2 13587.5 213828.45 L 12045.75 215979.2 L 12045.75 215977.45 Z M 10253.75 225689.95 Q 7676 223932.95 3659.75 221818.95 L 5129.75 219881.7 Q 9538 222067.45 11762.25 223502.45 L 10255.5 225688.2 L 10253.75 225689.95 Z M 4520.75 240134.45 Q 7602.5 235831.2 11293.25 228663.2 L 13227 230420.2 Q 10217 236511.95 6739.75 241924.7 L 4519 240132.7 L 4520.75 240134.45 Z M 31329 231029.2 L 18569.75 231029.2 L 18569.75 238412.45 L 31329 238412.45 L 31329 231029.2 Z M 26381.75 222678.2 L 26381.75 228556.45 L 33873.5 228556.45 L 33873.5 242213.45 L 31327.25 242213.45 L 31327.25 240885.2 L 18568 240885.2 L 18568 242390.2 L 16130.25 242390.2 L 16130.25 228556.45 L 23837.25 228556.45 L 23837.25 222678.2 L 13514 222678.2 L 13514 220096.95 L 23837.25 220096.95 L 23837.25 214292.2 Q 20181.5 214831.2 15953.5 215259.95 Q 15808.25 214398.95 15234.25 213000.7 Q 27206 211747.7 32582 209810.45 L 34696 211889.45 Q 31292.25 213037.45 26380 213896.7 L 26380 220096.95 L 36201 220096.95 L 36201 222678.2 L 26380 222678.2 L 26381.75 222678.2 Z M 19143.75 264006.35 L 5380 264006.35 L 5380 261605.35 L 19143.75 261605.35 L 19143.75 264006.35 Z M 18034.25 286264.6 L 17388.5 283933.6 Q 6494.75 286336.35 5381.75 287015.35 L 5381.75 286873.6 Q 5346.75 286908.6 5346.75 286980.35 Q 5166.5 286012.6 4522.5 284507.6 Q 5131.5 284365.85 6134.25 282071.6 Q 7854.5 278020.35 9037.5 272537.6 L 4093.75 272537.6 L 4093.75 270101.6 L 19754.5 270101.6 L 19754.5 272537.6 L 11797.25 272537.6 Q 10364 278342.35 8139.75 283468.1 L 16636 281676.1 Q 15488 278379.1 14557 276228.35 L 16742.75 275619.35 Q 19285.5 281424.1 20396.75 285510.35 L 18032.5 286264.6 L 18034.25 286264.6 Z M 35809 266909.6 L 35774 268237.85 Q 35165 287591.1 33660 289528.35 Q 32727.25 290674.6 31080.5 290889.85 Q 29503.75 291035.1 26135 290854.85 Q 25989.75 289349.85 25310.75 288238.6 Q 27318 288415.35 29969.25 288415.35 Q 30865.25 288452.1 31332.5 287878.1 Q 32622.25 286444.85 33159.5 269455.85 L 27820.25 269455.85 Q 26924.25 285296.85 20580.5 291388.6 Q 19684.5 290135.6 18501.5 289454.85 Q 24451.5 284007.1 25205.75 269455.85 L 20223.5 269455.85 L 20223.5 266909.6 L 25312.5 266909.6 Q 25419.25 264401.85 25419.25 259277.85 L 28035.5 259277.85 Q 28035.5 263148.85 27928.75 266909.6 L 35812.5 266909.6 L 35809 266909.6 Z " fill-rule="nonzero" style="fill:#000000;;fill-opacity:1;"/>
</svg>