<svg version="1.1" x="0" y="0" width="100%" height="100%" viewBox="0 0 60006.4 40550.4" xmlns="http://www.w3.org/2000/svg">
  <path d="M 26907.2 20934.8 L 26907.2 25726.4 L 33075.2 25726.4 L 33075.2 20934.8 L 26907.2 20934.8 Z M 26907.2 27372.8 L 26907.2 29118.8 L 25235.6 29118.8 L 25235.6 19288.4 L 34772 19288.4 L 34772 27372.8 L 26908.4 27372.8 L 26907.2 27372.8 Z M 39906.8 30052.4 Q 39906.8 31772 38777.6 32165.6 Q 37817.6 32483.6 34180.4 32483.6 Q 33983.6 31476.8 33516.8 30616.4 Q 36196.4 30740 37498.4 30666.8 Q 38087.6 30641.6 38087.6 30052.4 L 38087.6 16044.8 L 22016 16044.8 L 22016 32484.8 L 20222 32484.8 L 20222 14274.8 L 26931.2 14274.8 Q 28012.4 11964.8 28503.2 9998 L 30740 10391.6 Q 29855.6 12552.8 28947.2 14274.8 L 39906.8 14274.8 L 39906.8 30052.4 Z " fill-rule="nonzero" style="fill:#000000;;fill-opacity:1;"/>
</svg>