<svg version="1.1" x="0" y="0" width="100%" height="100%" viewBox="0 0 397875.2 186368" xmlns="http://www.w3.org/2000/svg">
  <path d="M 16425.2 13538 Q 14188.4 15332 11902.4 16389.2 Q 11510 15872 10722.8 15208.4 Q 15220.4 13365.2 17432 10072.4 L 19275.2 10613.6 Q 18710 11351.6 18071.6 12039.2 L 23355.2 12039.2 L 23675.6 11966 L 24855.2 12604.4 Q 21759.2 19191.2 11805.2 21426.8 Q 11411.6 20518.4 10896.8 19977.2 Q 14189.6 19313.6 16744.4 18084.8 Q 15909.2 16881.2 14459.6 15676.4 L 15812 14890.4 Q 17212.4 15995.6 18196.4 17273.6 Q 20898.8 15675.2 22324.4 13538 L 16426.4 13538 L 16425.2 13538 Z M 7750.4 10096.4 L 9518 10096.4 L 9518 32484.8 L 7750.4 32484.8 L 7750.4 23810 Q 5661.2 25850 4088 27226.4 L 3080 25703.6 Q 4826 24327.2 7750.4 21648.8 L 7750.4 17421.2 L 6472.4 18477.2 Q 5513.6 16584.8 3203.6 14373.2 L 4481.6 13390.4 Q 6790.4 15578 7750.4 17248.4 L 7750.4 10096.4 Z M 13894.4 24400.4 Q 16179.2 26685.2 17187.2 28701.2 L 15614 29609.6 Q 14679.2 27569.6 12442.4 25211.6 L 13893.2 24400.4 L 13894.4 24400.4 Z M 25322 23686.4 L 22347.2 23686.4 L 22347.2 30323.6 Q 22347.2 31797.2 21340.4 32190.8 Q 20504 32484.8 17358.8 32484.8 Q 17235.2 31749.2 16769.6 30741.2 Q 18268.4 30790.4 20038.4 30790.4 Q 20553.2 30765.2 20553.2 30298.4 L 20553.2 23687.6 L 10673.6 23687.6 L 10673.6 21993.2 L 20553.2 21993.2 L 20553.2 18969.2 L 22347.2 18969.2 L 22347.2 21993.2 L 25322 21993.2 L 25322 23687.6 L 25322 23686.4 Z M 41099.6 22630.4 Q 44835.2 27642.8 50291.6 29979.2 Q 49504.4 30714.8 49013.6 31526 Q 43778 28920.8 39846.8 23588 L 39846.8 32483.6 L 37954.4 32483.6 L 37954.4 23637.2 Q 34170.8 28797.2 28862 31427.6 Q 28320.8 30616.4 27582.8 29928.8 Q 33039.2 27568.4 36725.6 22629.2 L 28100 22629.2 L 28100 20883.2 L 37954.4 20883.2 L 37954.4 14764.4 L 29255.6 14764.4 L 29255.6 13018.4 L 37954.4 13018.4 L 37954.4 10070 L 39846.8 10070 L 39846.8 13018.4 L 48742.4 13018.4 L 48742.4 14764.4 L 39846.8 14764.4 L 39846.8 20883.2 L 49774.4 20883.2 L 49774.4 22629.2 L 41099.6 22629.2 L 41099.6 22630.4 Z M 32841.2 15330.8 Q 34635.2 17936 35176.4 19926.8 L 33456.8 20590.4 Q 32891.6 18378.8 31245.2 15945.2 L 32842.4 15330.8 L 32841.2 15330.8 Z M 42695.6 20123.6 Q 44146.4 17838.8 45178.4 15233.6 L 47045.6 15822.8 Q 45375.2 19067.6 44219.6 20640.8 L 42694.4 20123.6 L 42695.6 20123.6 Z M 53484.8 22336.4 L 73662.8 22336.4 L 73662.8 24106.4 L 62948 24106.4 Q 60366.8 27522.8 57934.4 29684 L 69090.8 28848.8 Q 67764.8 27299.6 66239.6 25899.2 L 67788.8 25064 Q 71622.8 28528.4 73368.8 31479.2 L 71746.4 32486 Q 71156 31479.2 70394 30471.2 Q 55992.8 31650.8 55133.6 31971.2 Q 54690.8 30521.6 54519.2 30078.8 Q 55133.6 29955.2 56337.2 28799.6 Q 58083.2 27350 60467.6 24106.4 L 53487.2 24106.4 L 53487.2 22336.4 L 53484.8 22336.4 Z M 65331.2 10833.2 Q 65010.8 11250.8 64618.4 11817.2 Q 68819.6 16118 74792 18156.8 Q 74078 18771.2 73512.8 19779.2 Q 67934 17518.4 63560 13046 Q 61250 15576.8 58030.4 17640.8 L 69383.6 17640.8 L 69383.6 19336.4 L 57710 19336.4 L 57710 17837.6 Q 55719.2 19090.4 53655.2 20025.2 Q 53090 19116.8 52328 18477.2 Q 60239.6 15084.8 63581.6 10072.4 L 65327.6 10834.4 L 65331.2 10833.2 Z M 91677.2 20369.6 L 91677.2 13414.4 L 84845.6 13414.4 L 84845.6 20369.6 L 91677.2 20369.6 Z M 98999.6 22139.6 L 93543.2 22139.6 L 93543.2 32535.2 L 91676 32535.2 L 91676 22139.6 L 84770 22139.6 Q 84130.4 29168 78674 32608.4 Q 77962.4 31749.2 77224.4 31256 Q 82287.2 28160 82901.6 22139.6 L 77151.2 22139.6 L 77151.2 20369.6 L 82974.8 20369.6 Q 83000 20000 83000 19312.4 L 83000 13414.4 L 78059.6 13414.4 L 78059.6 11668.4 L 98237.6 11668.4 L 98237.6 13414.4 L 93543.2 13414.4 L 93543.2 20369.6 L 98999.6 20369.6 L 98999.6 22139.6 Z M 105708.8 12824 L 105708.8 15330.8 L 120333.2 15330.8 L 120333.2 12824 L 105708.8 12824 Z M 105708.8 16928 L 105708.8 18378.8 Q 105708.8 27939.2 102833.6 32534 Q 102071.6 31870.4 101236.4 31600.4 Q 103890.8 27423.2 103890.8 18380 L 103890.8 11228 L 122150 11228 L 122150 16929.2 L 105708.8 16929.2 L 105708.8 16928 Z M 111902 23538.8 L 116793.2 23538.8 L 116793.2 20960 L 111902 20960 L 111902 23538.8 Z M 122322.8 26219.6 Q 120576.8 27545.6 118415.6 28701.2 Q 120651.2 30347.6 123896 31011.2 Q 123232.4 31600.4 122765.6 32535.2 Q 116154.8 30864.8 113624 25138.4 L 110234 25138.4 L 110234 30150.8 L 115517.6 28971.2 Q 115370 29906 115443.2 30495.2 Q 108587.6 32166.8 108046.4 32535.2 Q 107922.8 31823.6 107332.4 30987.2 Q 108513.2 30324.8 108513.2 29120 L 108513.2 25139.6 L 105858.8 25139.6 L 105858.8 23541.2 L 110183.6 23541.2 L 110183.6 20962.4 L 106521.2 20962.4 L 106521.2 19388 L 110183.6 19388 L 110183.6 17176.4 L 111903.2 17176.4 L 111903.2 19388 L 116794.4 19388 L 116794.4 17176.4 L 118514 17176.4 L 118514 19388 L 122643.2 19388 L 122643.2 20962.4 L 118514 20962.4 L 118514 23541.2 L 123626 23541.2 L 123626 25139.6 L 115318.4 25139.6 Q 116153.6 26662.4 117285.2 27743.6 Q 119718.8 26294 120947.6 25286 L 122324 26220.8 L 122322.8 26219.6 Z M 136380.8 22998.8 Q 136428.8 22508 136428.8 21500 L 136428.8 20517.2 L 130581.2 20517.2 L 130581.2 22998.8 L 136380.8 22998.8 Z M 130581.2 19067.6 L 136428.8 19067.6 L 136428.8 16610 L 130581.2 16610 L 130581.2 19067.6 Z M 138297.2 16610 L 138297.2 19067.6 L 144490.4 19067.6 L 144490.4 16610 L 138297.2 16610 Z M 144491.6 20517.2 L 138298.4 20517.2 L 138298.4 21525.2 Q 138298.4 22066.4 138249.2 22998.8 L 144492.8 22998.8 L 144492.8 20517.2 L 144491.6 20517.2 Z M 138027.2 24522.8 Q 137560.4 26955.2 135840.8 28701.2 Q 139527.2 30371.6 148619.6 30617.6 Q 148029.2 31452.8 147857.6 32411.6 Q 138420.8 31994 134364.8 29856.8 Q 131759.6 31576.4 127238 32511.2 Q 126820.4 31600.4 126156.8 30912.8 Q 130433.6 30077.6 132669.2 28799.6 Q 130851.2 27399.2 129646.4 25335.2 L 131169.2 24720.8 Q 132423.2 26637.2 134142.8 27766.4 Q 135641.6 26489.6 136132.4 24522.8 L 128832.8 24522.8 L 128832.8 15084.8 L 136426.4 15084.8 L 136426.4 13020.8 L 126596 13020.8 L 126596 11374.4 L 147831.2 11374.4 L 147831.2 13020.8 L 138294.8 13020.8 L 138294.8 15084.8 L 146282 15084.8 L 146282 24522.8 L 138024.8 24522.8 L 138027.2 24522.8 Z M 168992 12849.2 Q 166830.8 16659.2 161915.6 19410.8 Q 157664 21795.2 152379.2 22900.4 Q 152109.2 21965.6 151520 21254 Q 155942 20466.8 159752 18623.6 Q 158450 17444 156876.8 16535.6 L 158202.8 15600.8 Q 160046 16658 161350.4 17811.2 Q 164495.6 15993.2 166190 13829.6 L 159260 13829.6 Q 156802.4 15869.6 153557.6 17344.4 Q 153116 16656.8 152328.8 16066.4 Q 157834.4 13756.4 160734.8 10020.8 L 162725.6 10438.4 Q 162159.2 11152.4 161127.2 12184.4 L 167493.2 12184.4 L 167811.2 12111.2 L 168990.8 12849.2 L 168992 12849.2 Z M 172630.4 21450.8 Q 168280.4 30641.6 152182.4 32558 Q 151912.4 31452.8 151445.6 30790.4 Q 158450 30126.8 163168.4 27939.2 Q 161939.6 26758.4 160293.2 25481.6 L 161792 24621.2 Q 163414.4 25800.8 164840 27105.2 Q 168156.8 25186.4 169902.8 22458.8 L 163268 22458.8 Q 159999.2 25089.2 155625.2 26808.8 Q 155132 25924.4 154469.6 25457.6 Q 161424.8 22952 164717.6 18527.6 L 166732.4 18969.2 Q 165824 20100.8 165112.4 20788.4 L 171034.4 20788.4 L 171404 20691.2 L 172632.8 21453.2 L 172630.4 21450.8 Z M 192438.8 19434.8 L 182190.8 19434.8 L 182190.8 21917.6 L 192438.8 21917.6 L 192438.8 19434.8 Z M 192438.8 26070.8 L 192438.8 23516 L 182190.8 23516 L 182190.8 26070.8 L 192438.8 26070.8 Z M 183886.4 14937.2 Q 183002 16756.4 182387.6 17788.4 L 194232.8 17788.4 L 194232.8 30200 Q 194232.8 31749.2 193200.8 32141.6 Q 192316.4 32462 188924 32462 Q 188826.8 31674.8 188336 30668 Q 189417.2 30716 191874.8 30716 Q 192440 30692 192440 30201.2 L 192440 27644 L 182192 27644 L 182192 32486 L 180398 32486 L 180398 20640.8 Q 178554.8 22950.8 176292.8 24524 Q 175851.2 23786 175137.2 23122.4 Q 179290.4 20320.4 181895.6 14938.4 L 175727.6 14938.4 L 175727.6 13218.8 L 182658.8 13218.8 Q 183321.2 11523.2 183738.8 10049.6 L 185558 10491.2 Q 184943.6 12434 184599.2 13220 L 197108 13220 L 197108 14939.6 L 183887.6 14939.6 L 183886.4 14937.2 Z M 221561.6 16486.4 L 200302.4 16486.4 L 200302.4 14840 L 206619.2 14840 Q 205832 12873.2 204161.6 10784 L 205708.4 10096.4 Q 207503.6 12333.2 208313.6 14176.4 L 207011.6 14840 L 214901.6 14840 L 213599.6 14349.2 Q 215122.4 12358.4 216154.4 10072.4 L 217973.6 10637.6 Q 216278 13464.8 215148.8 14841.2 L 221562.8 14841.2 L 221562.8 16487.6 L 221561.6 16486.4 Z M 220601.6 22286 Q 217605.2 20566.4 213180.8 18944 L 214065.2 17642 Q 218414 19164.8 221535.2 20811.2 L 220600.4 22286 L 220601.6 22286 Z M 208437.2 18453.2 Q 205734.8 20787.2 201531.2 22778 Q 200966 21869.6 200424.8 21352.4 Q 204701.6 19731.2 207183.2 17567.6 L 208436 18452 L 208437.2 18453.2 Z M 204676.4 30100.4 L 207748.4 30100.4 L 207748.4 24080 L 204676.4 24080 L 204676.4 30100.4 Z M 209421.2 24080 L 209421.2 30100.4 L 212517.2 30100.4 L 212517.2 24080 L 209421.2 24080 Z M 214188.8 24080 L 214188.8 30100.4 L 217308.8 30100.4 L 217308.8 24080 L 214188.8 24080 Z M 222052.4 30100.4 L 222052.4 31748 L 199860.8 31748 L 199860.8 30100.4 L 203030 30100.4 L 203030 22482.8 L 219028.4 22482.8 L 219028.4 30100.4 L 222052.4 30100.4 Z M 246406.4 21598.4 L 236699.6 21598.4 L 236699.6 29830.4 Q 236699.6 31625.6 235422.8 32043.2 Q 234438.8 32387.6 230432 32387.6 Q 230211.2 31503.2 229646 30495.2 Q 232865.6 30568.4 234094.4 30520.4 Q 234808.4 30495.2 234808.4 29831.6 L 234808.4 21599.6 L 224657.6 21599.6 L 224657.6 19805.6 L 234808.4 19805.6 L 234808.4 13612.4 L 226354.4 13612.4 L 226354.4 11818.4 L 244686.8 11818.4 L 244686.8 13612.4 L 236699.6 13612.4 L 236699.6 19805.6 L 246406.4 19805.6 L 246406.4 21599.6 L 246406.4 21598.4 Z M 254393.6 23490.8 L 254393.6 30370.4 Q 254393.6 31772 253461.2 32116.4 Q 252699.2 32436.8 249897.2 32436.8 Q 249724.4 31600.4 249257.6 30790.4 Q 251370.8 30863.6 252132.8 30814.4 Q 252626 30790.4 252626 30347.6 L 252626 24080 L 249233.6 25185.2 L 248840 23342 Q 251618 22556 252626 22235.6 L 252626 17763.2 Q 254026.4 15968 255182 13413.2 L 249406.4 13413.2 L 249406.4 11693.6 L 256190 11693.6 L 256558.4 11594 L 257738 12454.4 Q 256337.6 15305.6 254394.8 17886.8 L 254394.8 21694.4 L 257393.6 20762 L 257615.6 22408.4 L 254394.8 23489.6 L 254393.6 23490.8 Z M 270540.8 22163.6 Q 269018 24842 266681.6 27029.6 Q 269999.6 29733.2 271228.4 31158.8 L 269828 32363.6 Q 268475.6 30692 265451.6 28137.2 Q 261987.2 30987.2 257538.8 32560.4 Q 257218.4 31898 256480.4 31061.6 Q 265402.4 28065.2 268695.2 21527.6 L 270538.4 22166 L 270540.8 22163.6 Z M 271328 13390.4 L 271328 15084.8 L 264323.6 15084.8 Q 262947.2 17494.4 261594.8 19682 L 265502 19461.2 Q 266436.8 18207.2 267027.2 17078 L 268721.6 17692.4 Q 265305.2 23860.4 258546.8 27153.2 Q 258129.2 26514.8 257490.8 25752.8 Q 261201.2 24057.2 264101.6 21082.4 Q 259480.4 21402.8 258816.8 21672.8 Q 258669.2 20788.4 258300.8 19953.2 Q 259504.4 19656.8 259824.8 19215.2 Q 260536.4 18453.2 262404.8 15084.8 L 257810 15084.8 L 257810 13390.4 L 264125.6 13390.4 Q 263732 11964.8 262920.8 10466 L 264616.4 9948.8 Q 265697.6 11718.8 266042 13268 L 265721.6 13391.6 L 271326.8 13391.6 L 271328 13390.4 Z M 295731.2 22754 L 285704 22754 L 285704 30077.6 Q 285704 31773.2 284451.2 32141.6 Q 283467.2 32486 279633.2 32486 Q 279412.4 31553.6 278847.2 30618.8 Q 281525.6 30716 283172 30642.8 Q 283835.6 30618.8 283835.6 30053.6 L 283835.6 22754 L 273708.8 22754 L 273708.8 20934.8 L 283835.6 20934.8 L 283835.6 17396 Q 287104.4 15897.2 289979.6 13512.8 L 276142.4 13512.8 L 276142.4 11718.8 L 291969.2 11718.8 L 292362.8 11621.6 L 293739.2 12653.6 Q 290421.2 15922.4 285702.8 18330.8 L 285702.8 20936 L 295730 20936 L 295730 22755.2 L 295731.2 22754 Z M 300743.6 18968 L 299000 18968 L 299000 14126 L 303054.8 14126 Q 302392.4 12725.6 300941.6 11006 L 302466.8 10292 Q 304161.2 12234.8 304800.8 13635.2 L 303866 14126 L 309248 14126 Q 308657.6 12332 307404.8 10464.8 L 308978 9874.4 Q 310500.8 11987.6 310967.6 13610 L 309714.8 14124.8 L 313721.6 14124.8 Q 315219.2 12257.6 316203.2 10217.6 L 318046.4 10857.2 Q 316890.8 12576.8 315662 14123.6 L 319668.8 14123.6 L 319668.8 18965.6 L 317873.6 18965.6 L 317873.6 15772.4 L 300743.6 15772.4 L 300743.6 18965.6 L 300743.6 18968 Z M 320110.4 25554.8 L 310108.4 25554.8 L 310108.4 30249.2 Q 310108.4 31772 308927.6 32140.4 Q 307968.8 32460.8 304406 32460.8 Q 304258.4 31870.4 303644 30690.8 Q 306716 30814.4 307650.8 30714.8 Q 308289.2 30690.8 308289.2 30224 L 308289.2 25554.8 L 298508 25554.8 L 298508 23859.2 L 308289.2 23859.2 L 308289.2 22089.2 Q 310402.4 21327.2 312539.6 19901.6 L 302612 19901.6 L 302612 18279.2 L 314630 18279.2 L 314974.4 18182 L 316179.2 19090.4 Q 313893.2 21179.6 310109.6 22875.2 L 310109.6 23858 L 320111.6 23858 L 320111.6 25553.6 L 320110.4 25554.8 Z M 339132.8 24153.2 Q 338886.8 24226.4 324804.8 29117.6 L 324141.2 27274.4 Q 329400.8 25701.2 338789.6 22432.4 L 339134 24152 L 339132.8 24153.2 Z M 328515.2 15626 Q 333062 18723.2 335028.8 20541.2 L 333726.8 21942.8 Q 331734.8 19952 327286.4 16806.8 L 328515.2 15626 Z M 343286 12873.2 Q 343064 29658.8 342008 31084.4 Q 341320.4 32140.4 339968 32240 Q 338812.4 32363.6 336034.4 32214.8 Q 336034.4 31306.4 335445.2 30471.2 Q 337164.8 30594.8 339328.4 30594.8 Q 340016 30594.8 340310 30201.2 Q 341244.8 29193.2 341441.6 13612.4 L 324532.4 13612.4 L 324532.4 11842.4 L 343284.8 11842.4 L 343284.8 12874.4 L 343286 12873.2 Z M 354026 17273.6 L 358302.8 17273.6 L 358302.8 18968 L 354026 18968 L 354026 19607.6 Q 355869.2 21548 358130 24350 L 357024.8 25848.8 Q 356310.8 24669.2 354026 21694.4 L 354026 32435.6 L 352232 32435.6 L 352232 21621.2 Q 350240 26364.8 347831.6 28946 Q 347513.6 28182.8 346823.6 27274.4 Q 349871.6 24226.4 351764 18966.8 L 347438 18966.8 L 347438 17272.4 L 352232 17272.4 L 352232 13192.4 Q 350339.6 13486.4 348176 13780.4 Q 348004.4 12970.4 347660 12330.8 Q 353925.2 11471.6 356900 10290.8 L 358128.8 11716.4 Q 356433.2 12330.8 354024.8 12848 L 354024.8 17272.4 L 354026 17273.6 Z M 366411.2 27618.8 L 366411.2 14078 L 360930.8 14078 L 360930.8 27618.8 L 366411.2 27618.8 Z M 368230.4 12333.2 L 368230.4 31232 L 366411.2 31232 L 366411.2 29388.8 L 360930.8 29388.8 L 360930.8 31404.8 L 359136.8 31404.8 L 359136.8 12333.2 L 368229.2 12333.2 L 368230.4 12333.2 Z M 388235.6 10169.6 Q 391110.8 11620.4 392633.6 12972.8 L 391504.4 14225.6 Q 389931.2 12776 387153.2 11277.2 L 388234.4 10169.6 L 388235.6 10169.6 Z M 392486 18378.8 Q 390888.8 23194.4 388161.2 26684 Q 389610.8 30494 391454 30494 Q 392364.8 30494 392609.6 25948.4 Q 393347.6 26684 394182.8 26930 Q 393938 30051.2 393323.6 31180.4 Q 392709.2 32312 391307.6 32312 Q 388604 32312 386810 28281.2 Q 384573.2 30713.6 381747.2 32361.2 Q 381083.6 31450.4 380421.2 30909.2 Q 383714 29139.2 386072 26363.6 Q 384795.2 22332.8 384278 16016 L 375800 16016 L 375800 19211.6 L 382067.6 19211.6 L 382067.6 19997.6 Q 381894.8 27446 381280.4 28208 Q 380813.6 28822.4 379806.8 28919.6 Q 378822.8 28992.8 376882.4 28919.6 Q 376833.2 27960.8 376366.4 27198.8 Q 377792 27322.4 378971.6 27322.4 Q 379538 27322.4 379709.6 27052.4 Q 380152.4 26585.6 380273.6 20908.4 L 375801.2 20908.4 L 375801.2 21105.2 Q 375801.2 28944.8 373220 32679.2 Q 372532.4 31893.2 371697.2 31450.4 Q 373934 28133.6 373934 21078.8 L 373934 14223.2 L 384182 14223.2 Q 384082.4 12870.8 384033.2 10092.8 L 385925.6 10092.8 Q 385925.6 12453.2 386025.2 14223.2 L 393963.2 14223.2 L 393963.2 16017.2 L 386147.6 16017.2 Q 386541.2 21153.2 387500 24545.6 Q 389516 21597.2 390645.2 17910.8 L 392488.4 18377.6 L 392486 18378.8 Z M 22716.8 47852.8 Q 19275.2 51884.8 13254.8 54808 Q 12713.6 54072.4 11781.2 53358.4 Q 17628.8 50924.8 20897.6 47066.8 L 22716.8 47852.8 Z M 15785.6 57880 Q 18660.8 64517.2 25715.6 66556 Q 25028 67097.2 24437.6 68228.8 Q 16991.6 65771.2 13919.6 57881.2 L 10085.6 57881.2 L 10085.6 66090.4 L 15959.6 64639.6 Q 15959.6 65623.6 16131.2 66361.6 Q 8661.2 68326 7947.2 68819.2 Q 7677.2 67835.2 7211.6 67196.8 Q 8194.4 66706 8194.4 65698 L 8194.4 57882.4 L 3500 57882.4 L 3500 56088.4 L 8194.4 56088.4 L 8194.4 46675.6 L 10086.8 46675.6 L 10086.8 56088.4 L 25150.4 56088.4 L 25150.4 57882.4 L 15786.8 57882.4 L 15785.6 57880 Z M 35667.2 52080.4 L 30507.2 52080.4 L 30507.2 57217.6 L 35667.2 57217.6 L 35667.2 52080.4 Z M 35667.2 64738 L 35667.2 58838.8 L 30507.2 58838.8 L 30507.2 64738 L 35667.2 64738 Z M 34538 46820.8 Q 33456.8 49918 33260 50432.8 L 37340 50432.8 L 37340 66383.2 L 30508.4 66383.2 L 30508.4 68323.6 L 28836.8 68323.6 L 28836.8 50432.8 L 31590.8 50432.8 Q 32328.8 48048.4 32573.6 46451.2 L 34540.4 46819.6 L 34538 46820.8 Z M 49356.8 51294.4 Q 48839.6 66040 47660 67489.6 Q 46972.4 68350 45719.6 68473.6 Q 44711.6 68594.8 42081.2 68447.2 Q 41984 67439.2 41466.8 66653.2 Q 43065.2 66800.8 45105.2 66800.8 Q 45816.8 66800.8 46110.8 66432.4 Q 47168 65300.8 47609.6 52054 L 41368.4 52054 Q 40236.8 54781.6 39057.2 56354.8 Q 38736.8 56060.8 37557.2 55322.8 Q 39965.6 52151.2 41318 46400.8 L 43064 46818.4 Q 42597.2 48734.8 42006.8 50357.2 L 49355.6 50357.2 L 49355.6 51292 L 49356.8 51294.4 Z M 43924.4 62377.6 Q 42795.2 60092.8 40190 56700.4 L 41615.6 55865.2 Q 44318 59305.6 45473.6 61418.8 L 43924.4 62377.6 Z M 68526.8 49475.2 L 72851.6 49475.2 L 73145.6 49427.2 L 74080.4 49745.2 Q 73589.6 54760 72410 58618 Q 73908.8 61837.6 74547.2 63804.4 L 73097.6 64418.8 Q 72654.8 63018.4 71722.4 60682 Q 70665.2 63509.2 69312.8 65228.8 Q 68601.2 64344.4 68110.4 64000 Q 69683.6 62107.6 70839.2 58643.2 Q 69486.8 55668.4 68012 53161.6 L 69340.4 52694.8 Q 70299.2 54366.4 71428.4 56554 Q 72068 54120.4 72412.4 51000.4 L 68529.2 51000.4 L 68529.2 49475.2 L 68526.8 49475.2 Z M 66339.2 49106.8 L 63708.8 49106.8 L 63708.8 51932.8 L 66339.2 51932.8 L 66339.2 49106.8 Z M 63708.8 61542.4 Q 64126.4 61394.8 64986.8 61124.8 L 66339.2 60682 L 66339.2 57930.4 L 63708.8 57930.4 L 63708.8 61543.6 L 63708.8 61542.4 Z M 66339.2 53382.4 L 63708.8 53382.4 L 63708.8 56479.6 L 66339.2 56479.6 L 66339.2 53382.4 Z M 62210 49106.8 L 61080.8 49106.8 L 61080.8 47508.4 L 68895.2 47508.4 L 68895.2 49106.8 L 67839.2 49106.8 L 67839.2 60190 L 68822 59872 L 69092 61248.4 L 67839.2 61690 L 67839.2 65696.8 L 66340.4 65696.8 L 66340.4 62182 L 60934.4 64025.2 L 60491.6 62502.4 L 62211.2 62011.6 L 62211.2 49109.2 L 62210 49106.8 Z M 58572.8 65474.8 Q 60636.8 66554.8 65010.8 66554.8 Q 73367.6 66554.8 74817.2 66506.8 Q 74326.4 67268.8 74080.4 68300.8 L 65012 68300.8 Q 60784.4 68300.8 58623.2 67416.4 Q 56165.6 66433.6 54863.6 63852.4 Q 54322.4 66948.4 53093.6 68915.2 Q 52576.4 68153.2 51864.8 67832.8 Q 53831.6 64466.8 53682.8 57535.6 L 55232 57635.2 Q 55281.2 59378.8 55181.6 60707.2 Q 55845.2 62944 56926.4 64172.8 L 56926.4 55546 L 52478 55546 L 52478 53899.6 L 56409.2 53899.6 L 56409.2 51048.4 L 53116.4 51048.4 L 53116.4 49427.2 L 56409.2 49427.2 L 56409.2 46502.8 L 58080.8 46502.8 L 58080.8 49427.2 L 61005.2 49427.2 L 61005.2 51048.4 L 58080.8 51048.4 L 58080.8 53899.6 L 61422.8 53899.6 L 61422.8 55546 L 58571.6 55546 L 58571.6 58765.6 L 61349.6 58765.6 L 61349.6 60388 L 58571.6 60388 L 58571.6 65476 L 58572.8 65474.8 Z M 79314.8 50507.2 L 79314.8 61198 L 82386.8 61198 L 82386.8 50507.2 L 79314.8 50507.2 Z M 79314.8 62968 L 79314.8 64860.4 L 77643.2 64860.4 L 77643.2 48737.2 L 84083.6 48737.2 L 84083.6 62968 L 79316 62968 L 79314.8 62968 Z M 93396.8 58176.4 Q 95757.2 63509.2 99344 65990.8 Q 98558 66654.4 98016.8 67489.6 Q 95018 65081.2 92684 60166 L 92684 68939.2 L 90888.8 68939.2 L 90888.8 60190 Q 88334 65154.4 84647.6 67538.8 Q 84057.2 66654.4 83369.6 66113.2 Q 87622.4 63728.8 90177.2 58175.2 L 84968 58175.2 L 84968 56429.2 L 90890 56429.2 L 90890 52301.2 L 85901.6 52301.2 L 85901.6 50555.2 L 90890 50555.2 L 90890 46648 L 92685.2 46648 L 92685.2 50555.2 L 98067.2 50555.2 L 98067.2 52301.2 L 92685.2 52301.2 L 92685.2 56429.2 L 99074 56429.2 L 99074 58175.2 L 93396.8 58175.2 L 93396.8 58176.4 Z M 101114 57438.4 Q 102048.8 55152.4 102393.2 51148 L 103769.6 51344.8 Q 103548.8 55128.4 102540.8 57930.4 L 101115.2 57439.6 L 101114 57438.4 Z M 104652.8 46502.8 L 106472 46502.8 L 106472 68939.2 L 104652.8 68939.2 L 104652.8 46502.8 Z M 107921.6 50434 Q 109199.6 52744 109714.4 54538 L 108338 55201.6 Q 107896.4 53506 106642.4 51024.4 L 107920.4 50434 L 107921.6 50434 Z M 123575.6 66360.4 L 123575.6 68104 L 108585.2 68104 L 108585.2 66360.4 L 115613.6 66360.4 L 115613.6 60216.4 L 110402 60216.4 L 110402 58520.8 L 115613.6 58520.8 L 115613.6 53432.8 L 112024.4 53432.8 Q 111262.4 55718.8 110303.6 57241.6 Q 109786.4 56897.2 108681.2 56406.4 Q 110672 53407.6 111656 47632 L 113426 47928.4 Q 113032.4 49967.2 112541.6 51689.2 L 115613.6 51689.2 L 115613.6 46601.2 L 117431.6 46601.2 L 117431.6 51689.2 L 122986.4 51689.2 L 122986.4 53432.8 L 117431.6 53432.8 L 117431.6 58520.8 L 122446.4 58520.8 L 122446.4 60216.4 L 117431.6 60216.4 L 117431.6 66360.4 L 123575.6 66360.4 Z M 131783.6 50827.6 Q 130310 49795.6 127238 48124 L 128246 46822 Q 131021.6 48150.4 132840.8 49354 L 131783.6 50828.8 L 131783.6 50827.6 Z M 130554.8 57487.6 Q 128787.2 56282.8 126033.2 54833.2 L 127041.2 53504.8 Q 130064 55003.6 131589.2 55987.6 L 130556 57486.4 L 130554.8 57487.6 Z M 126623.6 67392.4 Q 128736.8 64441.6 131267.6 59526.4 L 132593.6 60731.2 Q 130529.6 64908.4 128145.2 68620 L 126622.4 67391.2 L 126623.6 67392.4 Z M 145006.4 61148.8 L 136257.2 61148.8 L 136257.2 66211.6 L 145006.4 66211.6 L 145006.4 61148.8 Z M 141614 55422.4 L 141614 59453.2 L 146751.2 59453.2 L 146751.2 68818 L 145005.2 68818 L 145005.2 67907.2 L 136256 67907.2 L 136256 68939.2 L 134584.4 68939.2 L 134584.4 59453.2 L 139869.2 59453.2 L 139869.2 55422.4 L 132790.4 55422.4 L 132790.4 53652.4 L 139869.2 53652.4 L 139869.2 49672 Q 137362.4 50041.6 134463.2 50335.6 Q 134363.6 49745.2 133970 48786.4 Q 142179.2 47927.2 145865.6 46598.8 L 147315.2 48024.4 Q 144981.2 48811.6 141612.8 49400.8 L 141612.8 53652.4 L 148347.2 53652.4 L 148347.2 55422.4 L 141612.8 55422.4 L 141614 55422.4 Z M 161226.8 50162.8 L 151788.8 50162.8 L 151788.8 48516.4 L 161226.8 48516.4 L 161226.8 50162.8 Z M 160466 65425.6 L 160023.2 63827.2 Q 152553.2 65474.8 151790 65940.4 L 151790 65843.2 Q 151766 65867.2 151766 65916.4 Q 151642.4 65252.8 151200.8 64220.8 Q 151618.4 64123.6 152306 62550.4 Q 153485.6 59772.4 154296.8 56012.8 L 150906.8 56012.8 L 150906.8 54342.4 L 161645.6 54342.4 L 161645.6 56012.8 L 156189.2 56012.8 Q 155206.4 59993.2 153681.2 63508 L 159507.2 62279.2 Q 158720 60018.4 158081.6 58543.6 L 159580.4 58126 Q 161324 62106.4 162086 64908.4 L 160464.8 65425.6 L 160466 65425.6 Z M 172654.4 52153.6 L 172630.4 53064.4 Q 172212.8 66335.2 171180.8 67663.6 Q 170541.2 68449.6 169412 68597.2 Q 168330.8 68696.8 166020.8 68573.2 Q 165921.2 67541.2 165455.6 66779.2 Q 166832 66900.4 168650 66900.4 Q 169264.4 66925.6 169584.8 66532 Q 170469.2 65549.2 170837.6 53899.6 L 167176.4 53899.6 Q 166562 64762 162212 68939.2 Q 161597.6 68080 160786.4 67613.2 Q 164866.4 63877.6 165383.6 53899.6 L 161967.2 53899.6 L 161967.2 52153.6 L 165456.8 52153.6 Q 165530 50434 165530 46920.4 L 167324 46920.4 Q 167324 49574.8 167250.8 52153.6 L 172656.8 52153.6 L 172654.4 52153.6 Z M 177398 68398 Q 180321.2 67194.4 180494 64786 Q 180346.4 64810 180076.4 64810 Q 179289.2 64810 178774.4 64367.2 Q 178233.2 63901.6 178233.2 63065.2 Q 178233.2 62230 178798.4 61739.2 Q 179315.6 61296.4 180101.6 61296.4 Q 182190.8 61296.4 182190.8 64123.6 Q 182190.8 68203.6 177939.2 69702.4 L 177398 68398 Z M 214803.2 50089.6 L 214803.2 51884.8 L 218489.6 51884.8 L 218489.6 50089.6 L 214803.2 50089.6 Z M 218489.6 53382.4 L 214803.2 53382.4 L 214803.2 55201.6 L 218489.6 55201.6 L 218489.6 53382.4 Z M 213081.2 50089.6 L 208362.8 50089.6 L 208362.8 48640 L 213081.2 48640 L 213081.2 46624 L 214803.2 46624 L 214803.2 48640 L 220136 48640 L 220136 51884.8 L 221830.4 51884.8 L 221830.4 53382.4 L 220136 53382.4 L 220136 56676.4 L 214803.2 56676.4 L 214803.2 58519.6 L 220601.6 58519.6 L 220601.6 59920 L 214803.2 59920 L 214803.2 61910.8 L 221512.4 61910.8 L 221512.4 63409.6 L 214803.2 63409.6 L 214803.2 65843.2 L 213081.2 65843.2 L 213081.2 63409.6 L 206986.4 63409.6 L 206986.4 61910.8 L 213081.2 61910.8 L 213081.2 59920 L 208018.4 59920 L 208018.4 58519.6 L 213081.2 58519.6 L 213081.2 56676.4 L 208191.2 56676.4 L 208191.2 55201.6 L 213081.2 55201.6 L 213081.2 53382.4 L 206765.6 53382.4 L 206765.6 51884.8 L 213081.2 51884.8 L 213081.2 50089.6 Z M 206889.2 55104.4 Q 206298.8 60240.4 204776 63730 Q 207699.2 66678.4 214727.6 66678.4 Q 220971.2 66678.4 222224 66654.4 Q 221709.2 67440.4 221536.4 68351.2 L 214680.8 68351.2 Q 207234.8 68351.2 204039.2 65230 Q 202737.2 67441.6 200991.2 68819.2 Q 200303.6 67958.8 199640 67565.2 Q 201508.4 66239.2 202860.8 63878.8 Q 201532.4 62084.8 200648 59160.4 L 202000.4 58619.2 Q 202614.8 60732.4 203597.6 62255.2 Q 204605.6 59773.6 205072.4 56480.8 L 201092 56480.8 Q 202665.2 53802.4 204605.6 49673.2 L 200304.8 49673.2 L 200304.8 48050.8 L 207210.8 48050.8 Q 205467.2 51689.2 203795.6 54858.4 L 205541.6 54858.4 L 205859.6 54809.2 L 206892.8 55105.6 L 206889.2 55104.4 Z M 234954.8 50851.6 Q 234658.4 49230.4 233774 46870 L 235544 46403.2 Q 236454.8 48713.2 236823.2 50310.4 L 234956 50851.6 L 234954.8 50851.6 Z M 245423.6 52940.8 L 225689.6 52940.8 L 225689.6 51146.8 L 245423.6 51146.8 L 245423.6 52940.8 Z M 231392 65032 Q 230898.8 60952 229080.8 54710.8 L 230898.8 54268 Q 232668.8 60364 233332.4 64565.2 L 231392 65032 Z M 246406.4 66089.2 L 246406.4 67907.2 L 224633.6 67907.2 L 224633.6 66089.2 L 236528 66089.2 Q 238715.6 60928 240165.2 54266.8 L 242229.2 54660.4 Q 240338 61518.4 238494.8 66089.2 L 246406.4 66089.2 Z M 251715.2 53728 L 249945.2 53728 L 249945.2 48689.2 L 259161.2 48689.2 Q 258719.6 47681.2 258252.8 46894 L 260120 46355.2 Q 260907.2 47558.8 261324.8 48690.4 L 270393.2 48690.4 L 270393.2 53729.2 L 268550 53729.2 L 268550 50387.2 L 251715.2 50387.2 L 251715.2 53729.2 L 251715.2 53728 Z M 268673.6 56454.4 Q 267051.2 57806.8 264887.6 59232.4 Q 266780 64638.4 271425.2 66433.6 Q 270713.6 67072 270246.8 67932.4 Q 265601.6 65843.2 263462 60140.8 Q 262920.8 60510.4 262306.4 60830.8 Q 262920.8 63139.6 262576.4 65252.8 Q 262232 67268.8 261200 68054.8 Q 260192 68915.2 258693.2 68915.2 Q 258154.4 68915.2 256581.2 68866 Q 256581.2 68006.8 256114.4 67146.4 Q 257588 67270 258326 67270 Q 259358 67270 259899.2 66752.8 Q 261227.6 65794 260858 62525.2 Q 256409.6 65917.6 250338.8 67784.8 Q 250018.4 66998.8 249380 66236.8 Q 256335.2 64638.4 260512.4 60830.8 Q 260192 59749.6 259847.6 59110 Q 255989.6 61764.4 250730 63386.8 Q 250263.2 62478.4 249796.4 61961.2 Q 255473.6 60608.8 259112 57881.2 Q 258669.2 57169.6 257931.2 56431.6 Q 255006.8 58078 250854.8 59332 Q 250510.4 58594 249846.8 57880 Q 255327.2 56578 258620 54317.2 L 253017.2 54317.2 L 253017.2 52720 L 267148.4 52720 L 267148.4 54317.2 L 261053.6 54317.2 Q 260291.6 54980.8 259307.6 55619.2 Q 261029.6 57338.8 261815.6 59378.8 Q 264887.6 57414.4 267173.6 55274.8 L 268672.4 56454.4 L 268673.6 56454.4 Z M 293052.8 47852.8 Q 289611.2 51884.8 283590.8 54808 Q 283049.6 54072.4 282117.2 53358.4 Q 287964.8 50924.8 291233.6 47066.8 L 293052.8 47852.8 Z M 286121.6 57880 Q 288996.8 64517.2 296051.6 66556 Q 295364 67097.2 294773.6 68228.8 Q 287327.6 65771.2 284255.6 57881.2 L 280421.6 57881.2 L 280421.6 66090.4 L 286295.6 64639.6 Q 286295.6 65623.6 286467.2 66361.6 Q 278997.2 68326 278283.2 68819.2 Q 278013.2 67835.2 277547.6 67196.8 Q 278530.4 66706 278530.4 65698 L 278530.4 57882.4 L 273836 57882.4 L 273836 56088.4 L 278530.4 56088.4 L 278530.4 46675.6 L 280422.8 46675.6 L 280422.8 56088.4 L 295486.4 56088.4 L 295486.4 57882.4 L 286122.8 57882.4 L 286121.6 57880 Z M 307331.6 48467.2 Q 306003.2 52375.6 305315.6 53874.4 L 304062.8 53480.8 Q 305070.8 51023.2 305709.2 48074.8 L 307331.6 48467.2 Z M 299565.2 53825.2 Q 299244.8 51464.8 298336.4 48541.6 L 299712.8 48245.2 Q 300671.6 51440.8 301016 53431.6 L 299566.4 53825.2 L 299565.2 53825.2 Z M 318464 56209.6 Q 318464 56800 318440 57068.8 Q 317997.2 66727.6 317062.4 67883.2 Q 316523.6 68546.8 315515.6 68668 Q 314753.6 68767.6 312737.6 68668 Q 312688.4 67636 312270.8 66973.6 Q 313599.2 67094.8 314680.4 67094.8 Q 315245.6 67094.8 315515.6 66776.8 Q 316253.6 65965.6 316646 57929.2 L 312984.8 57929.2 Q 312124.4 65744.8 307479.2 68914 Q 307085.6 68299.6 306250.4 67588 Q 310478 65054.8 311240 57928 L 308291.6 57928 L 308291.6 56626 Q 308045.6 56872 307504.4 57313.6 Q 307308.8 56602 306815.6 55741.6 L 306815.6 56626 L 303596 56626 L 303596 57757.6 Q 305882 60190 307061.6 61715.2 L 305930 63139.6 Q 305218.4 61936 303596 59772.4 L 303596 68939.2 L 301876.4 68939.2 L 301876.4 59575.6 Q 300401.6 63558.4 298804.4 65573.2 Q 298337.6 64565.2 297822.8 63827.2 Q 300058.4 61148.8 301509.2 56627.2 L 298167.2 56627.2 L 298167.2 54931.6 L 301877.6 54931.6 L 301877.6 46526.8 L 303597.2 46526.8 L 303597.2 54931.6 L 306816.8 54931.6 L 306816.8 55448.8 Q 309962 52843.6 310920.8 47092 L 312642.8 47338 Q 311535.2 53212 308709.2 56210.8 L 318466.4 56210.8 L 318464 56209.6 Z M 316179.2 46944.4 Q 317408 52720 320651.6 55595.2 Q 319743.2 56306.8 319373.6 57094 Q 315860 53677.6 314582 47237.2 L 316180.4 46943.2 L 316179.2 46944.4 Z M 343948.4 61001.2 Q 343800.8 61763.2 343800.8 62647.6 Q 335396 63114.4 334487.6 63384.4 Q 334191.2 62352.4 333921.2 61714 Q 334560.8 61541.2 336107.6 59918.8 Q 337067.6 59010.4 338984 56528.8 Q 334804.4 56773.6 334263.2 57019.6 Q 333994.4 55987.6 333674 55324 Q 334215.2 55200.4 335198 53774.8 Q 337385.6 50802.4 339008 46574.8 L 340703.6 47262.4 Q 338639.6 51734.8 336182 55052.8 L 340186.4 54905.2 Q 341291.6 53380 342569.6 51242.8 L 344168 52103.2 Q 340899.2 57312.4 336819.2 61343.2 L 343946 60998.8 L 343948.4 61001.2 Z M 333185.6 61100.8 Q 333036.8 62180.8 333062 62722 Q 325198.4 63239.2 324558.8 63533.2 Q 324264.8 62477.2 323920.4 61837.6 Q 324584 61690 326082.8 59970.4 Q 326967.2 59086 328734.8 56677.6 Q 324900.8 56922.4 324238.4 57168.4 Q 323968.4 56136.4 323648 55472.8 Q 324189.2 55349.2 325148 53899.6 Q 327237.2 51048.4 328858.4 46624 L 330578 47314 Q 328539.2 51859.6 326129.6 55201.6 L 329865.2 55054 Q 331266.8 53038 332273.6 51097.6 L 333920 51932.8 Q 330676.4 57365.2 326817.2 61445.2 L 333183.2 61100.8 L 333185.6 61100.8 Z M 344686.4 65819.2 L 344686.4 67513.6 L 322888.4 67513.6 L 322888.4 65819.2 L 344686.4 65819.2 Z M 368721.2 46920.4 Q 367295.6 50065.6 366681.2 51146.8 L 365182.4 50753.2 Q 366314 48640 366952.4 46476.4 L 368722.4 46919.2 L 368721.2 46920.4 Z M 361127.6 51245.2 Q 360759.2 49378 359454.8 47190.4 L 360905.6 46699.6 Q 362306 48812.8 362675.6 50680 L 361126.4 51245.2 L 361127.6 51245.2 Z M 351494 61493.2 L 351494 66016 L 355942.4 66016 L 355942.4 61493.2 L 351494 61493.2 Z M 352722.8 53358.4 Q 352526 54636.4 352280 55765.6 L 355648.4 55765.6 L 355648.4 53357.2 L 352724 53357.2 L 352722.8 53358.4 Z M 353190.8 49327.6 Q 353043.2 50999.2 352943.6 51785.2 L 355647.2 51785.2 L 355647.2 49327.6 L 353189.6 49327.6 L 353190.8 49327.6 Z M 357712.4 59872 L 357712.4 67637.2 L 351495.2 67637.2 L 351495.2 68965.6 L 349823.6 68965.6 L 349823.6 62280.4 Q 349012.4 63582.4 348053.6 64517.2 Q 347588 63730 346874 63188.8 Q 349037.6 61148.8 350193.2 57365.2 L 348398 57365.2 L 348398 55766.8 L 350610.8 55766.8 Q 350855.6 54637.6 351052.4 53359.6 L 347268.8 53359.6 L 347268.8 51786.4 L 351275.6 51786.4 L 351496.4 49328.8 L 348521.6 49328.8 L 348521.6 47731.6 L 357345.2 47731.6 L 357345.2 51786.4 L 358794.8 51786.4 L 358794.8 53359.6 L 357345.2 53359.6 L 357345.2 57366.4 L 351888.8 57366.4 Q 351495.2 58792 351028.4 59873.2 L 357713.6 59873.2 L 357712.4 59872 Z M 369729.2 63238 L 364937.6 63238 L 364937.6 68988.4 L 363167.6 68988.4 L 363167.6 63238 L 358572.8 63238 L 358572.8 61518.4 L 363167.6 61518.4 L 363167.6 57953.2 L 359481.2 57953.2 L 359481.2 56258.8 L 363167.6 56258.8 L 363167.6 52940.8 L 359136.8 52940.8 L 359136.8 51270.4 L 369164 51270.4 L 369164 52940.8 L 364936.4 52940.8 L 364936.4 56258.8 L 368746.4 56258.8 L 368746.4 57953.2 L 364936.4 57953.2 L 364936.4 61518.4 L 369728 61518.4 L 369728 63238 L 369729.2 63238 Z M 374006 68398 Q 376929.2 67194.4 377102 64786 Q 376954.4 64810 376684.4 64810 Q 375897.2 64810 375382.4 64367.2 Q 374841.2 63901.6 374841.2 63065.2 Q 374841.2 62230 375406.4 61739.2 Q 375923.6 61296.4 376709.6 61296.4 Q 378798.8 61296.4 378798.8 64123.6 Q 378798.8 68203.6 374547.2 69702.4 L 374006 68398 Z M 17039.6 86520 Q 16449.2 87528 15293.6 89222.4 L 15293.6 105345.6 L 13353.2 105345.6 L 13353.2 91680 Q 9322.4 96277.2 4455.2 98832 Q 4110.8 98242.8 3226.4 97234.8 Q 10672.4 93499.2 14703.2 86520 L 3840.8 86520 L 3840.8 84700.8 L 24830 84700.8 L 24830 86520 L 17039.6 86520 Z M 17138 90624 Q 22864.4 94334.4 25518.8 97088.4 L 24069.2 98488.8 Q 21118.4 95319.6 15785.6 91804.8 L 17138 90625.2 L 17138 90624 Z M 30507.2 91065.6 L 28713.2 91065.6 L 28713.2 85732.8 L 38247.2 85732.8 Q 37780.4 84529.2 37118 83324.4 L 38888 82809.6 Q 39870.8 84480 40337.6 85732.8 L 49086.8 85732.8 L 49086.8 91065.6 L 47243.6 91065.6 L 47243.6 87478.8 L 30507.2 87478.8 L 30507.2 91065.6 Z M 39820.4 102888 Q 41418.8 103206 43851.2 103206 Q 48939.2 103206 50118.8 103158 Q 49628 103944 49431.2 105001.2 L 43754 105001.2 Q 39550.4 105001.2 37166 104042.4 Q 34316 102886.8 32742.8 99936 Q 31464.8 103426.8 29080.4 105490.8 Q 28442 104752.8 27605.6 104235.6 Q 31317.2 101385.6 32201.6 94233.6 L 34019.6 94430.4 Q 33822.8 96003.6 33454.4 97600.8 Q 34732.4 101163.6 37952 102392.4 L 37952 92244 L 31857.2 92244 L 31857.2 90498 L 46085.6 90498 L 46085.6 92244 L 39818 92244 L 39818 96248.4 L 47093.6 96248.4 L 47093.6 97970.4 L 39818 97970.4 L 39818 102885.6 L 39820.4 102888 Z M 56288 97824 L 60736.4 97824 L 60736.4 95366.4 L 56288 95366.4 L 56288 97824 Z M 56288 87846 L 56288 90009.6 L 60736.4 90009.6 L 60736.4 87846 L 56288 87846 Z M 56288 93892.8 L 60736.4 93892.8 L 60736.4 91484.4 L 56288 91484.4 L 56288 93892.8 Z M 64226 99471.6 L 52232 99471.6 L 52232 97824 L 54616.4 97824 L 54616.4 87846 L 52552.4 87846 L 52552.4 86199.6 L 54616.4 86199.6 L 54616.4 83227.2 L 56288 83227.2 L 56288 86199.6 L 60736.4 86199.6 L 60736.4 83227.2 L 62432 83227.2 L 62432 86199.6 L 64226 86199.6 L 64226 87846 L 62432 87846 L 62432 97824 L 64226 97824 L 64226 99471.6 Z M 57368 100454.4 Q 55991.6 103402.8 53730.8 105418.8 Q 52944.8 104755.2 52254.8 104361.6 Q 54443.6 102567.6 55623.2 99986.4 L 57366.8 100453.2 L 57368 100454.4 Z M 60539.6 99987.6 Q 62406.8 102100.8 63120.8 103623.6 L 61646 104484 Q 60908 102861.6 59114 100748.4 L 60539.6 99986.4 L 60539.6 99987.6 Z M 72162.8 95490 L 72162.8 91411.2 L 67150.4 91411.2 L 67150.4 93057.6 Q 67150.4 93819.6 67101.2 95490 L 72164 95490 L 72162.8 95490 Z M 67150.4 85856.4 L 67150.4 89763.6 L 72162.8 89763.6 L 72162.8 85856.4 L 67150.4 85856.4 Z M 73932.8 103059.6 Q 73932.8 104558.4 72998 104976 Q 72162.8 105320.4 69336.8 105320.4 Q 69189.2 104361.6 68770.4 103550.4 Q 71056.4 103599.6 71646.8 103550.4 Q 72161.6 103550.4 72161.6 103035.6 L 72161.6 97136.4 L 66976.4 97136.4 Q 66534.8 102544.8 64642.4 105543.6 Q 64004 104805.6 63192.8 104461.2 Q 65428.4 100896 65428.4 93057.6 L 65428.4 84186 L 73932.8 84186 L 73932.8 103059.6 Z M 92462 99422.4 L 77274.8 99422.4 L 77274.8 97652.4 L 92462 97652.4 L 92462 99422.4 Z M 97574 92491.2 Q 97550 93130.8 97500.8 93375.6 Q 96592.4 102739.2 95019.2 104238 Q 94257.2 105025.2 92732 105098.4 Q 91037.6 105195.6 88358 105000 Q 88260.8 103992 87670.4 103204.8 Q 89586.8 103377.6 92192 103377.6 Q 93152 103377.6 93446 103083.6 Q 94772 102075.6 95559.2 94212 L 81402.8 94212 L 79880 94186.8 Q 81108.8 89862 82214 83497.2 L 84057.2 83692.8 L 83542.4 86347.2 L 97206.8 86347.2 L 97206.8 88093.2 L 83199.2 88093.2 L 82215.2 92491.2 L 97575.2 92491.2 L 97574 92491.2 Z M 106913.6 87085.2 Q 105021.2 90133.2 103030.4 92124 Q 102195.2 91509.6 101408 91042.8 Q 104946.8 87970.8 107060 82834.8 L 108855.2 83349.6 Q 108141.2 84898.8 107847.2 85440 L 122986.4 85440 L 122986.4 87086.4 L 106912.4 87086.4 L 106913.6 87085.2 Z M 118242.8 100602 Q 118390.4 99028.8 118538 96620.4 L 106767.2 96620.4 Q 106521.2 98340 106152.8 100600.8 L 113746.4 100600.8 Q 112026.8 99003.6 109348.4 97627.2 L 110380.4 96619.2 Q 113476.4 98068.8 115049.6 99691.2 L 114214.4 100599.6 L 118245.2 100599.6 L 118242.8 100602 Z M 107504 91189.2 L 106962.8 95048.4 L 114335.6 95048.4 Q 112565.6 93426 109960.4 92294.4 L 110992.4 91262.4 Q 113818.4 92467.2 115464.8 93966 L 114408.8 95047.2 L 118610 95047.2 L 118758.8 91188 L 107502.8 91188 L 107504 91189.2 Z M 120333.2 96670.8 Q 120136.4 99693.6 120036.8 100602 L 122987.6 100602 L 122987.6 102224.4 L 119840 102224.4 Q 119571.2 103846.8 119128.4 104509.2 Q 118514 105272.4 117408.8 105393.6 Q 116303.6 105466.8 114263.6 105345.6 Q 114214.4 104607.6 113796.8 103893.6 Q 115689.2 104042.4 116648 103993.2 Q 117262.4 103993.2 117556.4 103648.8 Q 117826.4 103328.4 118047.2 102223.2 L 104015.6 102223.2 Q 104580.8 99151.2 104949.2 96669.6 L 101484.8 96669.6 L 101484.8 94998 L 105195.2 94998 Q 105809.6 90255.6 105882.8 89568 L 120579.2 89568 L 120382.4 94998 L 123824 94998 L 123824 96669.6 L 120334.4 96669.6 L 120333.2 96670.8 Z M 148422.8 92958 L 148422.8 94948.8 L 126107.6 94948.8 L 126107.6 92958 L 148422.8 92958 Z M 164643.2 87134.4 Q 164322.8 85388.4 163487.6 83227.2 L 165207.2 82784.4 Q 166215.2 85586.4 166436 86594.4 L 164642 87135.6 L 164643.2 87134.4 Z M 171843.2 89174.4 L 158596.4 89174.4 L 158596.4 87404.4 L 171843.2 87404.4 L 171843.2 89174.4 Z M 161865.2 101510.4 Q 161520.8 96964.8 160194.8 91041.6 L 161841.2 90673.2 Q 163143.2 96129.6 163658 100995.6 L 161864 101510.4 L 161865.2 101510.4 Z M 158302.4 83571.6 Q 157394 86053.2 155820.8 88780.8 L 155820.8 105369.6 L 154001.6 105369.6 L 154001.6 91632 Q 152993.6 93105.6 151568 94604.4 Q 151174.4 93572.4 150536 92810.4 Q 154443.2 89000.4 156582.8 83053.2 L 158302.4 83570.4 L 158302.4 83571.6 Z M 172851.2 102642 L 172851.2 104412 L 157564.4 104412 L 157564.4 102642 L 166142 102642 Q 167640.8 97088.4 168476 90477.6 L 170368.4 90822 Q 169236.8 97456.8 167836.4 102642 L 172848.8 102642 L 172851.2 102642 Z M 177987.2 90182.4 L 176217.2 90182.4 L 176217.2 85143.6 L 185433.2 85143.6 Q 184991.6 84135.6 184524.8 83348.4 L 186392 82809.6 Q 187179.2 84013.2 187596.8 85144.8 L 196665.2 85144.8 L 196665.2 90183.6 L 194822 90183.6 L 194822 86841.6 L 177987.2 86841.6 L 177987.2 90183.6 L 177987.2 90182.4 Z M 194945.6 92908.8 Q 193323.2 94261.2 191159.6 95686.8 Q 193052 101092.8 197697.2 102888 Q 196985.6 103526.4 196518.8 104386.8 Q 191873.6 102297.6 189734 96595.2 Q 189192.8 96964.8 188578.4 97285.2 Q 189192.8 99594 188848.4 101707.2 Q 188504 103723.2 187472 104509.2 Q 186464 105369.6 184965.2 105369.6 Q 184426.4 105369.6 182853.2 105320.4 Q 182853.2 104461.2 182386.4 103600.8 Q 183860 103724.4 184598 103724.4 Q 185630 103724.4 186171.2 103207.2 Q 187499.6 102248.4 187130 98979.6 Q 182681.6 102372 176610.8 104239.2 Q 176290.4 103453.2 175652 102691.2 Q 182607.2 101092.8 186784.4 97285.2 Q 186464 96204 186119.6 95564.4 Q 182261.6 98218.8 177002 99841.2 Q 176535.2 98932.8 176068.4 98415.6 Q 181745.6 97063.2 185384 94335.6 Q 184941.2 93624 184203.2 92886 Q 181278.8 94532.4 177126.8 95786.4 Q 176782.4 95048.4 176118.8 94334.4 Q 181599.2 93032.4 184892 90771.6 L 179289.2 90771.6 L 179289.2 89174.4 L 193420.4 89174.4 L 193420.4 90771.6 L 187325.6 90771.6 Q 186563.6 91435.2 185579.6 92073.6 Q 187301.6 93793.2 188087.6 95833.2 Q 191159.6 93868.8 193445.6 91729.2 L 194944.4 92908.8 L 194945.6 92908.8 Z M 219324.8 84307.2 Q 215883.2 88339.2 209862.8 91262.4 Q 209321.6 90526.8 208389.2 89812.8 Q 214236.8 87379.2 217505.6 83521.2 L 219324.8 84307.2 Z M 212393.6 94334.4 Q 215268.8 100971.6 222323.6 103010.4 Q 221636 103551.6 221045.6 104683.2 Q 213599.6 102225.6 210527.6 94335.6 L 206693.6 94335.6 L 206693.6 102544.8 L 212567.6 101094 Q 212567.6 102078 212739.2 102816 Q 205269.2 104780.4 204555.2 105273.6 Q 204285.2 104289.6 203819.6 103651.2 Q 204802.4 103160.4 204802.4 102152.4 L 204802.4 94336.8 L 200108 94336.8 L 200108 92542.8 L 204802.4 92542.8 L 204802.4 83130 L 206694.8 83130 L 206694.8 92542.8 L 221758.4 92542.8 L 221758.4 94336.8 L 212394.8 94336.8 L 212393.6 94334.4 Z M 243113.6 92197.2 Q 243089.6 92835.6 243065.6 93081.6 Q 242598.8 103108.8 241566.8 104264.4 Q 240876.8 105050.4 239648 105123.6 Q 238371.2 105247.2 235790 105075.6 Q 235740.8 104067.6 235199.6 103256.4 Q 237068 103429.2 238862 103429.2 Q 239573.6 103429.2 239918 103108.8 Q 240778.4 102248.4 241172 93991.2 L 234510.8 93991.2 Q 233921.6 98218.8 232348.4 100701.6 Q 230308.4 103945.2 226055.6 105494.4 Q 225540.8 104486.4 224901.2 103945.2 Q 228857.6 102619.2 230700.8 99792 Q 232102.4 97654.8 232593.2 93992.4 L 227874.8 93992.4 L 227874.8 92296.8 Q 227136.8 93084 225957.2 94092 Q 225245.6 93304.8 224385.2 92690.4 Q 228956 89397.6 231216.8 83450.4 L 233157.2 83991.6 Q 231290 88636.8 227972 92199.6 L 243111.2 92199.6 L 243113.6 92197.2 Z M 239723.6 83398.8 Q 242278.4 88977.6 246752 92319.6 Q 245940.8 92934 245277.2 93868.8 Q 240927.2 90058.8 238076 84086.4 L 239723.6 83398.8 Z M 270688.4 86691.6 L 249454.4 86691.6 L 249454.4 85094.4 L 259308.8 85094.4 Q 258891.2 83989.2 258449.6 83154 L 260268.8 82784.4 Q 260883.2 83841.6 261348.8 85094.4 L 270688.4 85094.4 L 270688.4 86691.6 Z M 254345.6 91828.8 L 265895.6 91828.8 L 265895.6 89616 L 254345.6 89616 L 254345.6 91828.8 Z M 252550.4 93178.8 L 252550.4 88263.6 L 267789.2 88263.6 L 267789.2 93178.8 L 252550.4 93178.8 Z M 270982.4 100700.4 L 261004.4 100700.4 L 261004.4 103550.4 Q 261004.4 104878.8 259848.8 105247.2 Q 259013.6 105468 255400.4 105468 Q 255303.2 104977.2 254786 103945.2 Q 257540 104018.4 258522.8 103969.2 Q 259113.2 103945.2 259113.2 103503.6 L 259113.2 100701.6 L 249233.6 100701.6 L 249233.6 99103.2 L 259113.2 99103.2 L 259113.2 97629.6 Q 261864.8 97039.2 264101.6 96154.8 L 251517.2 96154.8 L 251517.2 94656 L 267000.8 94656 L 267394.4 94558.8 L 268623.2 95590.8 Q 265551.2 97360.8 261004.4 98466 L 261004.4 99104.4 L 270982.4 99104.4 L 270982.4 100702.8 L 270982.4 100700.4 Z M 288185.6 89222.4 Q 288923.6 93646.8 290349.2 97015.2 Q 291750.8 94090.8 292486.4 89223.6 L 288185.6 89223.6 L 288185.6 89222.4 Z M 294354.8 89222.4 Q 293446.4 95293.2 291357.2 99028.8 Q 293273.6 102394.8 296099.6 103869.6 Q 295289.6 104533.2 294822.8 105441.6 Q 292119.2 103844.4 290226.8 100723.2 Q 288015.2 103671.6 284525.6 105490.8 Q 284132 104606.4 283420.4 103844.4 Q 287154.8 102074.4 289268 98902.8 Q 287942 96127.2 287033.6 92096.4 Q 286419.2 93496.8 285386 94971.6 Q 284674.4 94257.6 284060 93840 Q 282561.2 95559.6 280349.6 97058.4 L 280349.6 98239.2 L 282904.4 97993.2 Q 284477.6 97845.6 285485.6 97722 L 285485.6 99295.2 L 280349.6 99860.4 L 280349.6 103473.6 Q 280349.6 104775.6 279489.2 105120 Q 278825.6 105390 276196.4 105390 Q 276096.8 104727.6 275631.2 103792.8 Q 276245.6 103816.8 278210 103816.8 Q 278627.6 103792.8 278627.6 103448.4 L 278627.6 100056 L 273639.2 100597.2 L 273418.4 98926.8 Q 276072.8 98704.8 278627.6 98410.8 L 278627.6 96640.8 L 278603.6 96616.8 Q 280053.2 95732.4 281405.6 94430.4 L 278824.4 94430.4 Q 276957.2 96150 274596.8 97551.6 Q 274106 96937.2 273320 96199.2 Q 274523.6 95559.6 276096.8 94430.4 L 275482.4 94430.4 L 275482.4 92955.6 L 277892 92955.6 Q 278530.4 92390.4 279662 91161.6 L 273468.8 91161.6 L 273468.8 89539.2 L 277720.4 89539.2 L 277720.4 87106.8 L 274500.8 87106.8 L 274500.8 85532.4 L 277720.4 85532.4 L 277720.4 82953.6 L 279416 82953.6 L 279416 85532.4 L 282464 85532.4 L 282464 87106.8 L 279416 87106.8 L 279416 89539.2 L 280965.2 89539.2 Q 283029.2 86664 284184.8 83542.8 L 285904.4 84009.6 Q 284724.8 86934 283029.2 89539.2 L 285290 89539.2 L 285290 91161.6 L 281873.6 91161.6 Q 280668.8 92611.2 280324.4 92955.6 L 282855.2 92955.6 L 283199.6 92858.4 L 284060 93496.8 Q 286690.4 89910 287894 82954.8 L 289713.2 83248.8 Q 289270.4 85609.2 288729.2 87500.4 L 295906.4 87500.4 L 295906.4 89220 L 294357.2 89220 L 294354.8 89222.4 Z M 314950.4 99840 L 314950.4 97923.6 L 303694.4 97923.6 L 303694.4 99840 L 314950.4 99840 Z M 303694.4 94654.8 L 303694.4 96571.2 L 314950.4 96571.2 L 314950.4 94654.8 L 303694.4 94654.8 Z M 316768.4 103378.8 Q 316768.4 104804.4 315588.8 105172.8 Q 314728.4 105418.8 310821.2 105418.8 Q 310697.6 104828.4 310182.8 103893.6 Q 313229.6 103966.8 314286.8 103918.8 Q 314950.4 103893.6 314950.4 103352.4 L 314950.4 101191.2 L 303694.4 101191.2 L 303694.4 105442.8 L 301899.2 105442.8 L 301899.2 93130.8 L 316768.4 93130.8 L 316768.4 103378.8 Z M 313966.4 89568 Q 312837.2 88584 311656.4 87675.6 L 312713.6 87036 L 307749.2 87036 Q 305832.8 88782 303989.6 90060 L 313967.6 89569.2 L 313966.4 89568 Z M 320013.2 87034.8 L 313402.4 87034.8 Q 316892 89738.4 318906.8 91605.6 L 317409.2 92686.8 Q 316646 91875.6 315590 90967.2 Q 301827.2 91778.4 301065.2 92072.4 Q 300844.4 91113.6 300450.8 90205.2 Q 301041.2 90105.6 302073.2 89443.2 Q 303473.6 88484.4 305046.8 87033.6 L 298558.4 87033.6 L 298558.4 85412.4 L 308733.2 85412.4 Q 308242.4 84428.4 307580 83323.2 L 309374 82808.4 Q 310306.4 84306 310896.8 85413.6 L 320015.6 85413.6 L 320015.6 87034.8 L 320013.2 87034.8 Z M 331956.8 89001.6 Q 331833.2 91262.4 331612.4 92884.8 L 342057.2 92884.8 Q 342032 93499.2 341984 93769.2 Q 341369.6 102985.2 340065.2 104287.2 Q 339353.6 105049.2 337952 105148.8 Q 336378.8 105246 333848 105049.2 Q 333750.8 104066.4 333209.6 103279.2 Q 335249.6 103452 337313.6 103452 Q 338148.8 103452 338469.2 103182 Q 339526.4 102273.6 340091.6 94654.8 L 331342.4 94654.8 Q 329940.8 102396 324090.8 105493.2 Q 323552 104608.8 322764.8 104018.4 Q 326942 101930.4 328613.6 97432.8 Q 329669.6 94508.4 329939.6 89002.8 L 323304.8 89002.8 L 323304.8 87208.8 L 334043.6 87208.8 Q 333478.4 85489.2 332373.2 83522.4 L 334116.8 82834.8 Q 335418.8 85095.6 335885.6 86472 L 334190 87210 L 344439.2 87210 L 344439.2 89004 L 331954.4 89004 L 331956.8 89001.6 Z M 351765.2 93819.6 Q 350142.8 92467.2 347218.4 91165.2 L 348202.4 89836.8 Q 351101.6 90992.4 352773.2 92294.4 L 351765.2 93819.6 Z M 348052.4 103846.8 Q 350510 100332 352697.6 95982 L 354026 97186.8 Q 351962 101364 349577.6 105075.6 L 348052.4 103846.8 Z M 349528.4 83227.2 Q 352379.6 84382.8 354197.6 85783.2 L 353141.6 87306 Q 351470 85881.6 348546.8 84553.2 L 349529.6 83227.2 L 349528.4 83227.2 Z M 367542.8 105369.6 Q 367272.8 104607.6 366412.4 102936 Q 356385.2 104190 355599.2 104558.4 Q 355378.4 103599.6 354984.8 102739.2 Q 355550 102591.6 356558 101142 Q 358277.6 98808 359949.2 95048.4 L 354467.6 95048.4 L 354467.6 93302.4 L 360784.4 93302.4 L 360784.4 88928.4 L 355548.8 88928.4 L 355548.8 87184.8 L 360784.4 87184.8 L 360784.4 82957.2 L 362603.6 82957.2 L 362603.6 87184.8 L 368033.6 87184.8 L 368033.6 88928.4 L 362603.6 88928.4 L 362603.6 93302.4 L 369041.6 93302.4 L 369041.6 95048.4 L 362110.4 95048.4 Q 360046.4 99276 357785.6 102322.8 L 365552 101463.6 Q 364347.2 99547.2 363364.4 98293.2 L 364838 97605.6 Q 367935.2 101439.6 369138.8 104560.8 L 367541.6 105372 L 367542.8 105369.6 Z M 378602 90182.4 L 382878.8 90182.4 L 382878.8 91876.8 L 378602 91876.8 L 378602 92516.4 Q 380445.2 94456.8 382706 97258.8 L 381600.8 98757.6 Q 380886.8 97578 378602 94603.2 L 378602 105344.4 L 376808 105344.4 L 376808 94530 Q 374816 99273.6 372407.6 101854.8 Q 372089.6 101091.6 371399.6 100183.2 Q 374447.6 97135.2 376340 91875.6 L 372014 91875.6 L 372014 90181.2 L 376808 90181.2 L 376808 86101.2 Q 374915.6 86395.2 372752 86689.2 Q 372580.4 85879.2 372236 85239.6 Q 378501.2 84380.4 381476 83199.6 L 382704.8 84625.2 Q 381009.2 85239.6 378600.8 85756.8 L 378600.8 90181.2 L 378602 90182.4 Z M 390987.2 100527.6 L 390987.2 86986.8 L 385506.8 86986.8 L 385506.8 100527.6 L 390987.2 100527.6 Z M 392806.4 85242 L 392806.4 104140.8 L 390987.2 104140.8 L 390987.2 102297.6 L 385506.8 102297.6 L 385506.8 104313.6 L 383712.8 104313.6 L 383712.8 85242 L 392805.2 85242 L 392806.4 85242 Z M 6742.4 122801.6 Q 5807.6 124620.8 4751.6 125752.4 Q 4013.6 125285.6 3202.4 124916 Q 5242.4 122802.8 6201.2 119362.4 L 7971.2 119656.4 Q 7725.2 120567.2 7356.8 121426.4 L 13918.4 121426.4 L 13918.4 122802.8 L 10182.8 122802.8 Q 10970 124080.8 11264 124941.2 L 9714.8 125506.4 Q 9420.8 124547.6 8438 122801.6 L 6742.4 122801.6 Z M 9126.8 137253.2 L 9126.8 139613.6 L 20948 139613.6 L 20948 137253.2 L 9126.8 137253.2 Z M 9126.8 130641.2 L 9126.8 132730.4 L 19668.8 132730.4 L 19668.8 130641.2 L 9126.8 130641.2 Z M 9126.8 135827.6 L 22740.8 135827.6 L 22740.8 141824 L 20946.8 141824 L 20946.8 141036.8 L 9125.6 141036.8 L 9125.6 141873.2 L 7306.4 141873.2 L 7306.4 129240.8 L 21461.6 129240.8 L 21461.6 134130.8 L 9125.6 134130.8 L 9125.6 135826.4 L 9126.8 135827.6 Z M 14508.8 124400 Q 15220.4 125579.6 15490.4 126291.2 L 24436.4 126291.2 L 24436.4 130298 L 22617.2 130298 L 22617.2 127743.2 L 6372.8 127743.2 L 6372.8 130298 L 4602.8 130298 L 4602.8 126291.2 L 13623.2 126291.2 Q 13180.4 125235.2 12886.4 124744.4 L 14508.8 124400 Z M 25050.8 121451.6 L 25050.8 122801.6 L 20676.8 122801.6 Q 21611.6 124030.4 22029.2 124890.8 L 20554.4 125578.4 Q 20063.6 124398.8 18810.8 122800.4 L 17088.8 122800.4 Q 16377.2 124102.4 15639.2 124913.6 Q 15148.4 124496 14140.4 124054.4 Q 15786.8 122334.8 16524.8 119384 L 18294.8 119680.4 Q 18074 120466.4 17704.4 121450.4 L 25053.2 121450.4 L 25050.8 121451.6 Z M 35619.2 136785.2 L 28000.4 139342.4 L 27582.8 137499.2 Q 29402 136958 30875.6 136467.2 L 30875.6 129856.4 L 28073.6 129856.4 L 28073.6 128134.4 L 30875.6 128134.4 L 30875.6 122801.6 L 27828.8 122801.6 L 27828.8 121082 L 35446.4 121082 L 35446.4 122801.6 L 32620.4 122801.6 L 32620.4 128134.4 L 35102 128134.4 L 35102 129856.4 L 32620.4 129856.4 L 32620.4 135927.2 L 35298.8 135042.8 L 35619.2 136786.4 L 35619.2 136785.2 Z M 38321.6 129880.4 L 42057.2 129880.4 L 42057.2 126735.2 L 38321.6 126735.2 L 38321.6 129880.4 Z M 38321.6 125235.2 L 42057.2 125235.2 L 42057.2 122139.2 L 38321.6 122139.2 L 38321.6 125235.2 Z M 47390 122139.2 L 43630.4 122139.2 L 43630.4 125235.2 L 47390 125235.2 L 47390 122139.2 Z M 47390 126734 L 43630.4 126734 L 43630.4 129879.2 L 47390 129879.2 L 47390 126734 Z M 50291.6 139390.4 L 50291.6 141062 L 34464.8 141062 L 34464.8 139390.4 L 41934.8 139390.4 L 41934.8 136024.4 L 36357.2 136024.4 L 36357.2 134354 L 41934.8 134354 L 41934.8 131477.6 L 36651.2 131477.6 L 36651.2 120542 L 49136 120542 L 49136 131477.6 L 43778 131477.6 L 43778 134354 L 49504.4 134354 L 49504.4 136024.4 L 43778 136024.4 L 43778 139390.4 L 50291.6 139390.4 Z M 61620.8 125456 Q 61497.2 127716.8 61276.4 129339.2 L 71721.2 129339.2 Q 71696 129953.6 71648 130223.6 Q 71033.6 139439.6 69729.2 140741.6 Q 69017.6 141503.6 67616 141603.2 Q 66042.8 141700.4 63512 141503.6 Q 63414.8 140520.8 62873.6 139733.6 Q 64913.6 139906.4 66977.6 139906.4 Q 67812.8 139906.4 68133.2 139636.4 Q 69190.4 138728 69755.6 131109.2 L 61006.4 131109.2 Q 59604.8 138850.4 53754.8 141947.6 Q 53216 141063.2 52428.8 140472.8 Q 56606 138384.8 58277.6 133887.2 Q 59333.6 130962.8 59603.6 125457.2 L 52968.8 125457.2 L 52968.8 123663.2 L 63707.6 123663.2 Q 63142.4 121943.6 62037.2 119976.8 L 63780.8 119289.2 Q 65082.8 121550 65549.6 122926.4 L 63854 123664.4 L 74103.2 123664.4 L 74103.2 125458.4 L 61618.4 125458.4 L 61620.8 125456 Z M 81429.2 130274 Q 79806.8 128921.6 76882.4 127619.6 L 77866.4 126291.2 Q 80765.6 127446.8 82437.2 128748.8 L 81429.2 130274 Z M 77716.4 140301.2 Q 80174 136786.4 82361.6 132436.4 L 83690 133641.2 Q 81626 137818.4 79241.6 141530 L 77716.4 140301.2 Z M 79192.4 119681.6 Q 82043.6 120837.2 83861.6 122237.6 L 82805.6 123760.4 Q 81134 122336 78210.8 121007.6 L 79193.6 119681.6 L 79192.4 119681.6 Z M 97206.8 141824 Q 96936.8 141062 96076.4 139390.4 Q 86049.2 140644.4 85263.2 141012.8 Q 85042.4 140054 84648.8 139193.6 Q 85214 139046 86222 137596.4 Q 87941.6 135262.4 89613.2 131502.8 L 84131.6 131502.8 L 84131.6 129756.8 L 90448.4 129756.8 L 90448.4 125382.8 L 85212.8 125382.8 L 85212.8 123639.2 L 90448.4 123639.2 L 90448.4 119411.6 L 92267.6 119411.6 L 92267.6 123639.2 L 97697.6 123639.2 L 97697.6 125382.8 L 92267.6 125382.8 L 92267.6 129756.8 L 98705.6 129756.8 L 98705.6 131502.8 L 91774.4 131502.8 Q 89710.4 135730.4 87449.6 138777.2 L 95216 137918 Q 94011.2 136001.6 93028.4 134747.6 L 94502 134060 Q 97599.2 137894 98802.8 141015.2 L 97205.6 141826.4 L 97206.8 141824 Z M 103670 141306.8 Q 106593.2 140103.2 106766 137694.8 Q 106618.4 137718.8 106348.4 137718.8 Q 105561.2 137718.8 105046.4 137276 Q 104505.2 136810.4 104505.2 135974 Q 104505.2 135138.8 105070.4 134648 Q 105587.6 134205.2 106373.6 134205.2 Q 108462.8 134205.2 108462.8 137032.4 Q 108462.8 141112.4 104211.2 142611.2 L 103670 141306.8 Z M 146382.8 137229.2 Q 144368 134230.4 140018 129683.6 Q 138468.8 135041.6 133996.4 137399.6 Q 133479.2 136564.4 132741.2 135999.2 Q 137976.8 133319.6 138911.6 125996 L 132915.2 125996 L 132915.2 124226 L 139108.4 124226 Q 139205.6 123144.8 139305.2 119483.6 L 141148.4 119483.6 Q 141048.8 122652.8 140925.2 124226 L 147953.6 124226 L 147953.6 125996 L 140728.4 125996 Q 140680.4 126537.2 140483.6 127742 Q 145472 132584 147905.6 136073.6 L 146380.4 137229.2 L 146382.8 137229.2 Z M 129990.8 125456 Q 129155.6 123465.2 126992 120713.6 L 128541.2 119951.6 Q 130654.4 122409.2 131613.2 124570.4 L 129990.8 125454.8 L 129990.8 125456 Z M 131416.4 136884.8 Q 131637.2 137006 132203.6 137472.8 Q 132792.8 137939.6 133235.6 138209.6 Q 135102.8 139438.4 139673.6 139438.4 Q 144515.6 139438.4 148496 138971.6 Q 147981.2 140103.2 147956 140889.2 Q 144393.2 141159.2 139625.6 141159.2 Q 134932.4 141159.2 132792.8 139733.6 Q 130508 138186.8 130458.8 138186.8 Q 129500 138186.8 127166 141479.6 L 125912 139808 Q 128025.2 137375.6 129598.4 136761.2 L 129598.4 130296.8 L 126208.4 130296.8 L 126208.4 128526.8 L 131417.6 128526.8 L 131417.6 136883.6 L 131416.4 136884.8 Z M 158499.2 137646.8 L 163611.2 136688 L 163732.4 138285.2 Q 153557.6 140228 151518.8 140645.6 L 151125.2 138926 L 156752 137942 L 156752 133814 L 151960.4 133814 L 151960.4 132191.6 L 156752 132191.6 L 156752 129537.2 L 158498 129537.2 L 158498 132191.6 L 163388 132191.6 L 163388 133814 L 158498 133814 L 158498 137648 L 158499.2 137646.8 Z M 151323.2 121031.6 L 163881.2 121031.6 L 163881.2 122654 L 157244 122654 Q 155894 125259.2 154419.2 127226 L 160686.8 126684.8 Q 159924.8 125555.6 158867.6 124253.6 L 160169.6 123466.4 Q 162824 126638 163881.2 128726 L 162479.6 129634.4 Q 162135.2 128898.8 161618 128111.6 Q 153116 128922.8 152501.6 129216.8 Q 152280.8 128332.4 151887.2 127497.2 Q 152354 127400 153065.6 126416 Q 154170.8 124942.4 155204 122656.4 L 151320.8 122656.4 L 151320.8 121034 L 151323.2 121031.6 Z M 166953.2 136318.4 L 165231.2 136318.4 L 165231.2 121548.8 L 166953.2 121548.8 L 166953.2 136318.4 Z M 171843.2 119829.2 L 171843.2 138999.2 Q 171843.2 140620.4 170835.2 140990 Q 169952 141334.4 167001.2 141334.4 Q 166880 140499.2 166338.8 139540.4 Q 168623.6 139613.6 169532 139564.4 Q 170049.2 139540.4 170049.2 139023.2 L 170049.2 119829.2 L 171843.2 119829.2 Z M 193002.8 120099.2 Q 190815.2 121180.4 190815.2 123120.8 Q 191061.2 122924 191502.8 122924 Q 192166.4 122924 192608 123366.8 Q 193026.8 123832.4 193026.8 124496 Q 193026.8 125110.4 192608 125577.2 Q 192142.4 126094.4 191355.2 126094.4 Q 190544 126094.4 190002.8 125430.8 Q 189437.6 124767.2 189437.6 123759.2 Q 189437.6 122212.4 190372.4 120910.4 Q 191207.6 119729.6 192485.6 119164.4 L 193000.4 120099.2 L 193002.8 120099.2 Z M 197721.2 120099.2 Q 195533.6 121180.4 195533.6 123120.8 Q 195779.6 122924 196197.2 122924 Q 196884.8 122924 197327.6 123366.8 Q 197745.2 123832.4 197745.2 124496 Q 197745.2 125110.4 197327.6 125577.2 Q 196860.8 126094.4 196073.6 126094.4 Q 195262.4 126094.4 194697.2 125430.8 Q 194132 124767.2 194132 123759.2 Q 194132 122212.4 195090.8 120910.4 Q 195926 119754.8 197204 119164.4 L 197718.8 120099.2 L 197721.2 120099.2 Z M 202563.2 126636.8 L 200793.2 126636.8 L 200793.2 121598 L 210009.2 121598 Q 209567.6 120590 209100.8 119802.8 L 210968 119264 Q 211755.2 120467.6 212172.8 121599.2 L 221241.2 121599.2 L 221241.2 126638 L 219398 126638 L 219398 123296 L 202563.2 123296 L 202563.2 126638 L 202563.2 126636.8 Z M 219521.6 129363.2 Q 217899.2 130715.6 215735.6 132141.2 Q 217628 137547.2 222273.2 139342.4 Q 221561.6 139980.8 221094.8 140841.2 Q 216449.6 138752 214310 133049.6 Q 213768.8 133419.2 213154.4 133739.6 Q 213768.8 136048.4 213424.4 138161.6 Q 213080 140177.6 212048 140963.6 Q 211040 141824 209541.2 141824 Q 209002.4 141824 207429.2 141774.8 Q 207429.2 140915.6 206962.4 140055.2 Q 208436 140178.8 209174 140178.8 Q 210206 140178.8 210747.2 139661.6 Q 212075.6 138702.8 211706 135434 Q 207257.6 138826.4 201186.8 140693.6 Q 200866.4 139907.6 200228 139145.6 Q 207183.2 137547.2 211360.4 133739.6 Q 211040 132658.4 210695.6 132018.8 Q 206837.6 134673.2 201578 136295.6 Q 201111.2 135387.2 200644.4 134870 Q 206321.6 133517.6 209960 130790 Q 209517.2 130078.4 208779.2 129340.4 Q 205854.8 130986.8 201702.8 132240.8 Q 201358.4 131502.8 200694.8 130788.8 Q 206175.2 129486.8 209468 127226 L 203865.2 127226 L 203865.2 125628.8 L 217996.4 125628.8 L 217996.4 127226 L 211901.6 127226 Q 211139.6 127889.6 210155.6 128528 Q 211877.6 130247.6 212663.6 132287.6 Q 215735.6 130323.2 218021.6 128183.6 L 219520.4 129363.2 L 219521.6 129363.2 Z M 246482 124718 L 233086.4 124718 L 233086.4 123023.6 L 239279.6 123023.6 Q 238517.6 121352 237338 119951.6 L 238860.8 119288 Q 240237.2 120786.8 240924.8 122285.6 L 239327.6 123023.6 L 246479.6 123023.6 L 246479.6 124718 L 246482 124718 Z M 242130.8 125235.2 Q 245153.6 128086.4 246431.6 130274 L 245079.2 131403.2 Q 243826.4 129094.4 240875.6 126194 L 242129.6 125235.2 L 242130.8 125235.2 Z M 237977.6 126095.6 Q 236134.4 129315.2 233603.6 131552 Q 233160.8 131058.8 232325.6 130444.4 Q 234783.2 128429.6 236332.4 125357.6 L 237978.8 126095.6 L 237977.6 126095.6 Z M 231513.2 133468.4 Q 231195.2 132632 229720.4 129683.6 L 229720.4 141848 L 228050 141848 L 228050 129953.6 Q 226672.4 134868.8 225026 137375.6 Q 224657.6 136440.8 224043.2 135629.6 Q 226476.8 132312.8 227705.6 126316.4 L 224854.4 126316.4 L 224854.4 124596.8 L 228050 124596.8 L 228050 119411.6 L 229720.4 119411.6 L 229720.4 124596.8 L 232472 124596.8 L 232472 126316.4 L 229720.4 126316.4 L 229720.4 127299.2 Q 230655.2 128627.6 232622 132092 L 231514.4 133469.6 L 231513.2 133468.4 Z M 243630.8 130101.2 Q 242646.8 133590.8 240632 136270.4 Q 243310.4 138924.8 246873.2 140128.4 Q 246210.8 140669.6 245644.4 141701.6 Q 242081.6 140399.6 239452.4 137648 Q 236945.6 140253.2 233308.4 141899.6 Q 232742 141015.2 232152.8 140524.4 Q 235814 138927.2 238296.8 136296.8 Q 236280.8 133715.6 235028 130202 L 236601.2 129759.2 Q 237633.2 132659.6 239427.2 134920.4 Q 241073.6 132610.4 241884.8 129662 L 243630.8 130103.6 L 243630.8 130101.2 Z M 257614.4 132066.8 Q 257565.2 132902 257712.8 133664 Q 250192.4 135016.4 249454.4 135410 Q 249257.6 134698.4 248840 133641.2 Q 249527.6 133493.6 250756.4 132068 Q 251837.6 130986.8 253360.4 128849.6 Q 249797.6 129243.2 249282.8 129513.2 Q 248816 128062.4 248643.2 127670 Q 249160.4 127570.4 250044.8 126244.4 Q 252011.6 123369.2 253337.6 119583.2 L 255180.8 120345.2 Q 253485.2 124253.6 251248.4 127473.2 L 254517.2 127176.8 Q 255353.6 125900 256065.2 124571.6 L 257711.6 125579.6 Q 255180.8 129708.8 252158 132976.4 L 257614.4 132068 L 257614.4 132066.8 Z M 248790.8 138628.4 Q 250265.6 138383.6 257662.4 136884.8 L 257811.2 138579.2 Q 255131.6 139193.6 249087.2 140498 L 248790.8 138629.6 L 248790.8 138628.4 Z M 260883.2 134157.2 L 260883.2 139145.6 L 268059.2 139145.6 L 268059.2 134157.2 L 260883.2 134157.2 Z M 259113.2 132484.4 L 269876 132484.4 L 269876 141749.6 L 268058 141749.6 L 268058 140814.8 L 260882 140814.8 L 260882 141846.8 L 259112 141846.8 L 259112 132483.2 L 259113.2 132484.4 Z M 265355.6 124448 L 265355.6 128258 L 270491.6 128258 L 270491.6 130004 L 258500 130004 L 258500 128258 L 263488.4 128258 L 263488.4 124448 L 257859.2 124448 L 257859.2 122680.4 L 263488.4 122680.4 L 263488.4 119411.6 L 265355.6 119411.6 L 265355.6 122680.4 L 270885.2 122680.4 L 270885.2 124448 L 265355.6 124448 Z M 279093.2 133664 L 279093.2 138752 L 290496.8 138752 L 290496.8 133664 L 279093.2 133664 Z M 277250 132042.8 L 292389.2 132042.8 L 292389.2 141725.6 L 290496.8 141725.6 L 290496.8 140447.6 L 279093.2 140447.6 L 279093.2 141824 L 277250 141824 L 277250 132042.8 Z M 290792 127398.8 Q 287423.6 125333.6 284818.4 122558 Q 282533.6 125212.4 279191.6 127400 L 290792 127400 L 290792 127398.8 Z M 286662.8 120147.2 L 285876.8 121254.8 Q 289660.4 125259.2 296074.4 127962.8 Q 295288.4 128626.4 294821.6 129609.2 Q 292314.8 128380.4 290840 127421.6 L 290840 129093.2 L 278528 129093.2 L 278528 127839.2 Q 276438.8 129093.2 274768.4 129828.8 Q 274054.4 128723.6 273440 128232.8 Q 281279.6 125111.6 285065.6 119361.2 L 286662.8 120147.2 Z M 302613.2 125259.2 Q 304800.8 124154 304800.8 122237.6 Q 304506.8 122434.4 304113.2 122434.4 Q 303449.6 122434.4 303008 121967.6 Q 302589.2 121526 302589.2 120862.4 Q 302589.2 120224 303008 119757.2 Q 303473.6 119266.4 304260.8 119266.4 Q 305072 119266.4 305637.2 119928.8 Q 306202.4 120592.4 306202.4 121600.4 Q 306202.4 123147.2 305270 124449.2 Q 304409.6 125580.8 303131.6 126195.2 L 302616.8 125260.4 L 302613.2 125259.2 Z M 297894.8 125259.2 Q 300082.4 124154 300082.4 122237.6 Q 299786 122434.4 299417.6 122434.4 Q 298730 122434.4 298287.2 121967.6 Q 297869.6 121526 297869.6 120862.4 Q 297869.6 120224 298287.2 119757.2 Q 298754 119266.4 299541.2 119266.4 Q 300352.4 119266.4 300917.6 119928.8 Q 301482.8 120592.4 301482.8 121600.4 Q 301482.8 123147.2 300550.4 124449.2 Q 299690 125580.8 298412 126195.2 L 297897.2 125260.4 L 297894.8 125259.2 Z M 324854 141306.8 Q 327777.2 140103.2 327950 137694.8 Q 327802.4 137718.8 327532.4 137718.8 Q 326745.2 137718.8 326230.4 137276 Q 325689.2 136810.4 325689.2 135974 Q 325689.2 135138.8 326254.4 134648 Q 326771.6 134205.2 327557.6 134205.2 Q 329646.8 134205.2 329646.8 137032.4 Q 329646.8 141112.4 325395.2 142611.2 L 324854 141306.8 Z M 356139.2 136097.6 Q 353361.2 139463.6 349160 141897.2 Q 348569.6 141258.8 347709.2 140595.2 Q 352010 138358.4 354246.8 135359.6 L 356139.2 136097.6 Z M 362110.4 135335.6 Q 366534.8 138456.8 368968.4 140741.6 L 367248.8 141873.2 Q 364864.4 139488.8 360538.4 136269.2 L 362111.6 135334.4 L 362110.4 135335.6 Z M 354910.4 132166.4 L 361889.6 132166.4 L 361889.6 126366.8 L 354910.4 126366.8 L 354910.4 132166.4 Z M 369508.4 132166.4 L 369508.4 133934 L 347414 133934 L 347414 132166.4 L 353067.2 132166.4 L 353067.2 126366.8 L 348396.8 126366.8 L 348396.8 124596.8 L 353067.2 124596.8 L 353067.2 119632.4 L 354910.4 119632.4 L 354910.4 124596.8 L 361889.6 124596.8 L 361889.6 119632.4 L 363756.8 119632.4 L 363756.8 124596.8 L 368624 124596.8 L 368624 126366.8 L 363756.8 126366.8 L 363756.8 132166.4 L 369508.4 132166.4 Z M 379756.4 130691.6 L 379756.4 135336.8 L 386194.4 135336.8 L 386194.4 130691.6 L 379756.4 130691.6 Z M 379756.4 136908.8 L 379756.4 138678.8 L 378060.8 138678.8 L 378060.8 129142.4 L 387915.2 129142.4 L 387915.2 136908.8 L 379756.4 136908.8 Z M 389217.2 126587.6 L 376832 126587.6 L 376832 124989.2 L 389217.2 124989.2 L 389217.2 126587.6 Z M 393076.4 139563.2 Q 393076.4 141112.4 392068.4 141554 Q 391184 141898.4 387964.4 141898.4 Q 387840.8 140990 387299.6 140105.6 Q 389782.4 140178.8 390690.8 140129.6 Q 391281.2 140105.6 391281.2 139564.4 L 391281.2 122434.4 L 374692.4 122434.4 L 374692.4 141922.4 L 372922.4 141922.4 L 372922.4 120688.4 L 393074 120688.4 L 393074 139563.2 L 393076.4 139563.2 Z M 10011.2 165893.2 Q 8633.6 168668.8 5120 170094.4 Q 4653.2 169430.8 3842 168768.4 Q 6545.6 167884 7922 165893.2 L 3351.2 165893.2 L 3351.2 164442.4 L 8610.8 164442.4 Q 8831.6 163706.8 8831.6 163067.2 L 8831.6 162526 L 4260.8 162526 L 4260.8 161100.4 L 8831.6 161100.4 L 8831.6 159330.4 L 3744.8 159330.4 L 3744.8 157831.6 L 8831.6 157831.6 L 8831.6 155891.2 L 10674.8 155891.2 L 10674.8 157831.6 L 15148.4 157831.6 L 15148.4 159330.4 L 10674.8 159330.4 L 10674.8 161100.4 L 14657.6 161100.4 L 14657.6 162526 L 10674.8 162526 L 10674.8 163092.4 Q 10674.8 163754.8 10503.2 164442.4 L 15318.8 164442.4 L 15318.8 165893.2 L 10011.2 165893.2 Z M 23231.6 174985.6 Q 23231.6 176311.6 22224.8 176681.2 Q 21461.6 176951.2 18119.6 176951.2 Q 17998.4 176311.6 17481.2 175379.2 Q 20184.8 175427.2 20872.4 175379.2 Q 21387.2 175354 21387.2 174960.4 L 21387.2 171643.6 L 15195.2 171643.6 L 15195.2 178278.4 L 13326.8 178278.4 L 13326.8 171643.6 L 7625.6 171643.6 L 7625.6 177000.4 L 5806.4 177000.4 L 5806.4 169972 L 13326.8 169972 L 13326.8 168055.6 L 15195.2 168055.6 L 15195.2 169972 L 23230.4 169972 L 23230.4 174986.8 L 23231.6 174985.6 Z M 25026.8 157585.6 Q 23207.6 160116.4 22002.8 161591.2 Q 24804.8 163310.8 24804.8 165154 Q 24830 166676.8 23601.2 167315.2 Q 22986.8 167635.6 22150.4 167735.2 Q 20800.4 167856.4 19301.6 167735.2 Q 19252.4 166997.2 18735.2 166186 Q 20308.4 166333.6 21365.6 166260.4 Q 21930.8 166211.2 22397.6 166063.6 Q 23012 165793.6 23012 165007.6 Q 22962.8 163434.4 20039.6 161812 Q 21144.8 160362.4 22324.4 158494 L 18147.2 158494 L 18147.2 168964 L 16377.2 168964 L 16377.2 156896.8 L 23429.6 156896.8 L 23750 156823.6 L 25028 157585.6 L 25026.8 157585.6 Z M 30974 173387.2 L 35568.8 172404.4 L 35568.8 169159.6 L 30974 169159.6 L 30974 173387.2 Z M 30974 158741.2 L 30974 162328 L 35568.8 162328 L 35568.8 158741.2 L 30974 158741.2 Z M 35570 163974.4 L 30975.2 163974.4 L 30975.2 167513.2 L 35570 167513.2 L 35570 163974.4 Z M 38764.4 173387.2 Q 32817.2 174788.8 27876.8 175918 L 27558.8 174074.8 L 29302.4 173730.4 L 29302.4 157068.4 L 37289.6 157068.4 L 37289.6 172036 L 38642 171739.6 L 38765.6 173386 L 38764.4 173387.2 Z M 49406 161419.6 L 49380.8 162328 Q 49062.8 175894 48078.8 177196 Q 47513.6 177983.2 46308.8 178130.8 Q 45573.2 178204 42942.8 178104.4 Q 42845.6 176999.2 42402.8 176360.8 Q 43804.4 176458 45598.4 176458 Q 46236.8 176507.2 46506.8 176089.6 Q 47318 175106.8 47612 163163.2 L 43778 163163.2 Q 43460 168544 42158 171936.4 Q 40559.6 176089.6 37094 178374.4 Q 36552.8 177466 35766.8 177024.4 Q 39010.4 174984.4 40509.2 171198.4 Q 41714 168151.6 42008 163163.2 L 38100.8 163163.2 L 38100.8 161417.2 L 42081.2 161417.2 Q 42156.8 159623.2 42156.8 155887.6 L 43924.4 155887.6 Q 43924.4 159623.2 43851.2 161417.2 L 49406 161417.2 L 49406 161419.6 Z M 57785.6 169308.4 L 57785.6 176188 Q 57785.6 177589.6 56853.2 177934 Q 56091.2 178254.4 53289.2 178254.4 Q 53116.4 177418 52649.6 176608 Q 54762.8 176681.2 55524.8 176632 Q 56018 176608 56018 176165.2 L 56018 169897.6 L 52625.6 171002.8 L 52232 169159.6 Q 55010 168373.6 56018 168053.2 L 56018 163580.8 Q 57418.4 161785.6 58574 159230.8 L 52798.4 159230.8 L 52798.4 157511.2 L 59582 157511.2 L 59950.4 157411.6 L 61130 158272 Q 59729.6 161123.2 57786.8 163704.4 L 57786.8 167512 L 60785.6 166579.6 L 61007.6 168226 L 57786.8 169307.2 L 57785.6 169308.4 Z M 73932.8 167981.2 Q 72410 170659.6 70073.6 172847.2 Q 73391.6 175550.8 74620.4 176976.4 L 73220 178181.2 Q 71867.6 176509.6 68843.6 173954.8 Q 65379.2 176804.8 60930.8 178378 Q 60610.4 177715.6 59872.4 176879.2 Q 68794.4 173882.8 72087.2 167345.2 L 73930.4 167983.6 L 73932.8 167981.2 Z M 74720 159208 L 74720 160902.4 L 67715.6 160902.4 Q 66339.2 163312 64986.8 165499.6 L 68894 165278.8 Q 69828.8 164024.8 70419.2 162895.6 L 72113.6 163510 Q 68697.2 169678 61938.8 172970.8 Q 61521.2 172332.4 60882.8 171570.4 Q 64593.2 169874.8 67493.6 166900 Q 62872.4 167220.4 62208.8 167490.4 Q 62061.2 166606 61692.8 165770.8 Q 62896.4 165474.4 63216.8 165032.8 Q 63928.4 164270.8 65796.8 160902.4 L 61202 160902.4 L 61202 159208 L 67517.6 159208 Q 67124 157782.4 66312.8 156283.6 L 68008.4 155766.4 Q 69089.6 157536.4 69434 159085.6 L 69113.6 159209.2 L 74718.8 159209.2 L 74720 159208 Z M 99123.2 168571.6 L 89096 168571.6 L 89096 175895.2 Q 89096 177590.8 87843.2 177959.2 Q 86859.2 178303.6 83025.2 178303.6 Q 82804.4 177371.2 82239.2 176436.4 Q 84917.6 176533.6 86564 176460.4 Q 87227.6 176436.4 87227.6 175871.2 L 87227.6 168571.6 L 77100.8 168571.6 L 77100.8 166752.4 L 87227.6 166752.4 L 87227.6 163213.6 Q 90496.4 161714.8 93371.6 159330.4 L 79534.4 159330.4 L 79534.4 157536.4 L 95361.2 157536.4 L 95754.8 157439.2 L 97131.2 158471.2 Q 93813.2 161740 89094.8 164148.4 L 89094.8 166753.6 L 99122 166753.6 L 99122 168572.8 L 99123.2 168571.6 Z M 107627.6 156480.4 Q 106937.6 158938 105758 161713.6 L 105758 178302.4 L 103988 178302.4 L 103988 165278.8 Q 103176.8 166703.2 102292.4 167858.8 Q 101924 166826.8 101309.6 166015.6 Q 104160.8 162354.4 105954.8 156013.6 L 107626.4 156480.4 L 107627.6 156480.4 Z M 108707.6 160805.2 L 110477.6 160805.2 L 110477.6 178328.8 L 108707.6 178328.8 L 108707.6 160805.2 Z M 111141.2 155890 Q 113205.2 158692 114065.6 160584.4 L 112566.8 161443.6 Q 111658.4 159282.4 109715.6 156652 L 111141.2 155890 Z M 122912 175993.6 Q 122912 177516.4 121929.2 177934 Q 121143.2 178254.4 118022 178254.4 Q 117898.4 177418 117431.6 176509.6 Q 119348 176609.2 120576.8 176533.6 Q 121118 176509.6 121118 175968.4 L 121118 158444.8 L 114483.2 158444.8 L 114483.2 156774.4 L 122912 156774.4 L 122912 175993.6 Z M 142893.2 161198.8 L 145179.2 161198.8 L 145179.2 159330.4 L 142893.2 159330.4 L 142893.2 161198.8 Z M 145179.2 162624.4 L 142893.2 162624.4 L 142893.2 164540.8 L 145179.2 164540.8 L 145179.2 162624.4 Z M 141320 162624.4 L 136995.2 162624.4 L 136995.2 161198.8 L 141320 161198.8 L 141320 159330.4 L 138124.4 159330.4 L 138124.4 157930 L 141320 157930 L 141320 155890 L 142893.2 155890 L 142893.2 157930 L 146628.8 157930 L 146628.8 161198.8 L 148348.4 161198.8 L 148348.4 162624.4 L 146628.8 162624.4 L 146628.8 165941.2 L 142893.2 165941.2 L 142893.2 167736.4 L 147120.8 167736.4 L 147120.8 169235.2 L 142893.2 169235.2 L 142893.2 171151.6 L 147908 171151.6 L 147908 172650.4 L 142893.2 172650.4 L 142893.2 175598.8 L 141320 175598.8 L 141320 172650.4 L 137092.4 172650.4 L 137092.4 171151.6 L 141320 171151.6 L 141320 169235.2 L 137706.8 169235.2 L 137706.8 167736.4 L 141320 167736.4 L 141320 165941.2 L 138124.4 165941.2 L 138124.4 164540.8 L 141320 164540.8 L 141320 162624.4 Z M 131932.4 156380.8 Q 131292.8 158690.8 130187.6 161296 L 130187.6 178278.4 L 128565.2 178278.4 L 128565.2 164515.6 Q 127706 165990.4 126771.2 167195.2 Q 126525.2 166384 125862.8 165326.8 Q 128738 161862.4 130311.2 155939.2 L 131933.6 156380.8 L 131932.4 156380.8 Z M 137166.8 165007.6 Q 136676 170315.2 135323.6 173460.4 Q 138174.8 176459.2 144294.8 176459.2 Q 147563.6 176459.2 148472 176435.2 Q 148005.2 177197.2 147908 177984.4 L 144196.4 177984.4 Q 137734.4 177984.4 134662.4 174912.4 Q 133457.6 177100 131738 178328.8 Q 131320.4 177689.2 130557.2 177174.4 Q 132400.4 175945.6 133581.2 173635.6 Q 132228.8 171792.4 131417.6 169088.8 L 132743.6 168547.6 Q 133310 170539.6 134242.4 172062.4 Q 135078.8 169850.8 135496.4 166285.6 L 131784.8 166285.6 Q 133162.4 163386.4 134661.2 159257.2 L 131957.6 159257.2 L 131957.6 157660 L 136922 157660 Q 135372.8 161837.2 134046.8 164812 L 136037.6 164812 L 136209.2 164786.8 L 137168 165008.8 L 137166.8 165007.6 Z M 164102 168030.4 L 168844.4 168030.4 L 168844.4 166114 L 164102 166114 L 164102 168030.4 Z M 164102 164737.6 L 168844.4 164737.6 L 168844.4 162942.4 L 164102 162942.4 L 164102 164737.6 Z M 171622.4 170808.4 Q 169902.8 172061.2 167469.2 173363.2 Q 169926.8 175033.6 173171.6 175747.6 Q 172508 176338 172090.4 177197.2 Q 166954.4 175820.8 164103.2 172183.6 L 164103.2 176214.4 Q 164103.2 177688 163046 178057.6 Q 162234.8 178327.6 158894 178327.6 Q 158745.2 177565.6 158303.6 176754.4 Q 160416.8 176851.6 161694.8 176778.4 Q 162284 176754.4 162284 176213.2 L 162284 173632 Q 158646.8 175254.4 154911.2 176827.6 L 154173.2 175328.8 Q 156509.6 174517.6 162284 172183.6 L 162284 169356.4 L 155795.6 169356.4 L 155795.6 168030.4 L 162284 168030.4 L 162284 166114 L 154838 166114 L 154838 164737.6 L 162284 164737.6 L 162284 162942.4 L 156016.4 162942.4 L 156016.4 161616.4 L 162284 161616.4 L 162284 159649.6 L 154247.6 159649.6 L 154247.6 165252.4 Q 154247.6 174050.8 151865.6 178327.6 Q 151275.2 177737.2 150390.8 177343.6 Q 152504 173436.4 152504 165252.4 L 152504 158027.2 L 162137.6 158027.2 Q 161523.2 156847.6 161056.4 156160 L 162802.4 155642.8 Q 163637.6 156823.6 164252 158027.2 L 172730 158027.2 L 172730 159649.6 L 164104.4 159649.6 L 164104.4 161616.4 L 170592.8 161616.4 L 170592.8 164615.2 L 173001.2 164615.2 L 173001.2 166212.4 L 170592.8 166212.4 L 170592.8 169357.6 L 164104.4 169357.6 L 164104.4 169751.2 Q 164915.6 171176.8 166316 172454.8 Q 168773.6 170980 170272.4 169727.2 L 171624.8 170808.4 L 171622.4 170808.4 Z M 156508.4 169603.6 Q 158842.4 170980 160120.4 172111.6 L 159063.2 173240.8 Q 157810.4 172037.2 155474 170611.6 L 156507.2 169603.6 L 156508.4 169603.6 Z M 174867.2 166850.8 Q 175775.6 164588.8 176120 160608.4 L 177520.4 160781.2 Q 177226.4 164737.6 176291.6 167366.8 L 174867.2 166852 L 174867.2 166850.8 Z M 178331.6 155866 L 180126.8 155866 L 180126.8 178302.4 L 178331.6 178302.4 L 178331.6 155866 Z M 181994 164934.4 Q 181600.4 163262.8 180200 160387.6 L 181476.8 159797.2 Q 182927.6 162551.2 183369.2 164270.8 L 181992.8 164934.4 L 181994 164934.4 Z M 190151.6 164023.6 Q 190151.6 165769.6 190030.4 167095.6 L 193814 167095.6 L 193814 161492.8 L 190151.6 161492.8 L 190151.6 164023.6 Z M 190841.6 168841.6 Q 193002.8 174912.4 197918 176706.4 Q 197180 177370 196614.8 178402 Q 191799.2 176288.8 189513.2 170045.2 Q 188087.6 175453.6 182705.6 178426 Q 182190.8 177664 181428.8 177000.4 Q 186834.8 174298 187964 168841.6 L 182213.6 168841.6 L 182213.6 167095.6 L 188210 167095.6 Q 188333.6 165769.6 188333.6 164023.6 L 188333.6 161492.8 L 183542 161492.8 L 183542 159773.2 L 188333.6 159773.2 L 188333.6 155866 L 190151.6 155866 L 190151.6 159773.2 L 195608 159773.2 L 195608 167096.8 L 197721.2 167096.8 L 197721.2 168842.8 L 190841.6 168842.8 L 190841.6 168841.6 Z M 206274.8 170167.6 Q 204087.2 173879.2 201186.8 176778.4 Q 200645.6 176237.2 199710.8 175598.8 Q 202661.6 172944.4 204504.8 169578.4 L 206274.8 170167.6 Z M 212369.6 167465.2 L 212369.6 175943.2 Q 212369.6 177540.4 211312.4 177910 Q 210380 178302.4 207160.4 178254.4 Q 206963.6 177295.6 206520.8 176435.2 Q 209003.6 176508.4 209936 176459.2 Q 210526.4 176435.2 210526.4 175918 L 210526.4 167465.2 L 204776 167465.2 Q 202245.2 167465.2 201900.8 167783.2 Q 201728 167071.6 201286.4 166087.6 Q 201678.8 165940 202048.4 164514.4 Q 202907.6 161491.6 202932.8 157756 Q 214113.2 157462 219028.4 156160 L 220085.6 157757.2 Q 214532 159134.8 204725.6 159355.6 Q 204381.2 162845.2 203619.2 165647.2 L 210525.2 165647.2 L 210525.2 160756 L 212368.4 160756 L 212368.4 165647.2 L 221314.4 165647.2 L 221314.4 167466.4 L 212368.4 167466.4 L 212369.6 167465.2 Z M 217211.6 169603.6 Q 220652 173339.2 222177.2 175820.8 L 220481.6 176705.2 Q 218859.2 173854 215639.6 170340.4 L 217212.8 169602.4 L 217211.6 169603.6 Z M 229203.2 170585.2 Q 231342.8 169652.8 232006.4 169406.8 L 232374.8 171029.2 Q 230703.2 171815.2 224829.2 174420.4 L 224117.6 172602.4 Q 225470 172135.6 227484.8 171275.2 L 227484.8 163484.8 L 224339.6 163484.8 L 224339.6 161741.2 L 227484.8 161741.2 L 227484.8 156162.4 L 229204.4 156162.4 L 229204.4 161741.2 L 232080.8 161741.2 L 232080.8 163484.8 L 229204.4 163484.8 L 229204.4 170587.6 L 229203.2 170585.2 Z M 243359.6 176114.8 Q 244415.6 176114.8 244760 175427.2 Q 245080.4 174788.8 245204 172625.2 Q 245966 173166.4 246850.4 173339.2 Q 246629.6 175944.4 245990 176803.6 Q 245278.4 177762.4 243411.2 177762.4 L 237388.4 177762.4 Q 235275.2 177762.4 234539.6 177100 Q 233776.4 176412.4 233776.4 174469.6 L 233776.4 166728.4 L 231836 167539.6 L 231124.4 165966.4 L 233777.6 164834.8 L 233777.6 158149.6 L 235523.6 158149.6 L 235523.6 164096.8 L 238816.4 162696.4 L 238816.4 155864.8 L 240562.4 155864.8 L 240562.4 161983.6 L 243806 160607.2 L 244544 159992.8 L 245822 160483.6 L 245722.4 160828 Q 245722.4 168840.4 245477.6 170020 Q 245304.8 171346 244175.6 171642.4 Q 243488 171814 241865.6 171814 Q 241692.8 170732.8 241422.8 170242 Q 242013.2 170267.2 243070.4 170267.2 Q 243659.6 170267.2 243807.2 169627.6 Q 243980 168792.4 243980 162402.4 L 240563.6 163853.2 L 240563.6 172872.4 L 238817.6 172872.4 L 238817.6 164588.8 L 235524.8 165990.4 L 235524.8 174494.8 Q 235524.8 175477.6 235893.2 175798 Q 236262.8 176116 237442.4 176116 L 243365.6 176116 L 243359.6 176114.8 Z M 265355.6 155987.2 Q 268230.8 157438 269753.6 158790.4 L 268624.4 160043.2 Q 267051.2 158593.6 264273.2 157094.8 L 265354.4 155987.2 L 265355.6 155987.2 Z M 269606 164196.4 Q 268008.8 169012 265281.2 172501.6 Q 266730.8 176311.6 268574 176311.6 Q 269484.8 176311.6 269729.6 171766 Q 270467.6 172501.6 271302.8 172747.6 Q 271058 175868.8 270443.6 176998 Q 269829.2 178129.6 268427.6 178129.6 Q 265724 178129.6 263930 174098.8 Q 261693.2 176531.2 258867.2 178178.8 Q 258203.6 177268 257541.2 176726.8 Q 260834 174956.8 263192 172181.2 Q 261915.2 168150.4 261398 161833.6 L 252920 161833.6 L 252920 165029.2 L 259187.6 165029.2 L 259187.6 165815.2 Q 259014.8 173263.6 258400.4 174025.6 Q 257933.6 174640 256926.8 174737.2 Q 255942.8 174810.4 254002.4 174737.2 Q 253953.2 173778.4 253486.4 173016.4 Q 254912 173140 256091.6 173140 Q 256658 173140 256829.6 172870 Q 257272.4 172403.2 257393.6 166726 L 252921.2 166726 L 252921.2 166922.8 Q 252921.2 174762.4 250340 178496.8 Q 249652.4 177710.8 248817.2 177268 Q 251054 173951.2 251054 166896.4 L 251054 160040.8 L 261302 160040.8 Q 261202.4 158688.4 261153.2 155910.4 L 263045.6 155910.4 Q 263045.6 158270.8 263145.2 160040.8 L 271083.2 160040.8 L 271083.2 161834.8 L 263267.6 161834.8 Q 263661.2 166970.8 264620 170363.2 Q 266636 167414.8 267765.2 163728.4 L 269608.4 164195.2 L 269606 164196.4 Z M 293052.8 157216 Q 289611.2 161248 283590.8 164171.2 Q 283049.6 163435.6 282117.2 162721.6 Q 287964.8 160288 291233.6 156430 L 293052.8 157216 Z M 286121.6 167243.2 Q 288996.8 173880.4 296051.6 175919.2 Q 295364 176460.4 294773.6 177592 Q 287327.6 175134.4 284255.6 167244.4 L 280421.6 167244.4 L 280421.6 175453.6 L 286295.6 174002.8 Q 286295.6 174986.8 286467.2 175724.8 Q 278997.2 177689.2 278283.2 178182.4 Q 278013.2 177198.4 277547.6 176560 Q 278530.4 176069.2 278530.4 175061.2 L 278530.4 167245.6 L 273836 167245.6 L 273836 165451.6 L 278530.4 165451.6 L 278530.4 156038.8 L 280422.8 156038.8 L 280422.8 165451.6 L 295486.4 165451.6 L 295486.4 167245.6 L 286122.8 167245.6 L 286121.6 167243.2 Z " fill-rule="nonzero" style="fill:#000000;;fill-opacity:1;"/>
</svg>