<svg version="1.1" x="0" y="0" width="100%" height="100%" viewBox="0 0 194713.6 38963.2" xmlns="http://www.w3.org/2000/svg">
  <path d="M 22467.4 13209.45 Q 21714.15 12054.85 20159.35 10618.5 L 21336.95 9959.55 Q 22844.6 11255.6 23692.15 12480.35 L 22467.4 13210.6 L 22467.4 13209.45 Z M 8266.05 15304.75 Q 7041.3 13679.8 4404.35 11371.75 L 5534.8 10264.3 Q 8267.2 12524.05 9467.8 14031.7 L 8267.2 15304.75 L 8266.05 15304.75 Z M 24115.35 17965.85 Q 23033.2 22630.25 20866.6 26163.05 Q 21831.45 29341.65 22774.45 29341.65 Q 23386.25 29341.65 23481.7 25785.85 Q 24023.35 26351.65 24753.6 26656.4 Q 24565 29130.05 24094.65 30048.9 Q 23647.3 30967.75 22588.15 30967.75 Q 20963.2 30967.75 19762.6 27789.15 Q 18372.25 29648.7 16605.85 31085.05 Q 16064.2 30426.1 15475.4 30071.9 Q 17619 28400.95 19173.8 25975.6 Q 18066.35 21877 17619 15235.75 L 12601.55 15235.75 L 12601.55 18484.5 L 16911.75 18484.5 L 16911.75 19191.75 Q 16723.15 26753 16204.5 27434.95 Q 15804.3 28023.75 15003.9 28119.2 Q 14249.5 28189.35 12930.45 28119.2 Q 12884.45 27246.35 12530.25 26611.55 Q 13284.65 26704.7 14273.65 26704.7 Q 14696.85 26704.7 14862.45 26422.95 Q 15239.65 25927.3 15355.8 19969.15 L 12600.4 19969.15 L 12600.4 19992.15 Q 12600.4 27482.1 10503.95 31296.65 Q 9915.15 30543.4 9161.9 30166.2 Q 9892.15 28752.85 10292.35 26986.45 Q 6429.5 30143.2 6076.45 30613.55 Q 6052.3 30636.55 6052.3 30706.7 L 6005.15 30636.55 Q 5558.95 29929.3 5086.3 29529.1 Q 6240.9 28563.1 6240.9 27173.9 L 6240.9 18719.1 L 3085.3 18719.1 L 3085.3 17022.85 L 7842.85 17022.85 L 7842.85 26939.3 L 9773.7 25407.5 Q 9915.15 25926.15 10339.5 26773.7 Q 10904.15 24111.45 10904.15 19966.85 L 10904.15 13655.65 L 17523.55 13655.65 Q 17428.1 11157.85 17405.1 9745.65 L 19053.05 9745.65 Q 19053.05 11746.65 19123.2 13655.65 L 24563.85 13655.65 L 24563.85 15233.45 L 19217.5 15233.45 Q 19524.55 20225.6 20349.1 23970 Q 21879.75 20837.4 22538.7 17374.75 L 24116.5 17963.55 L 24115.35 17965.85 Z M 37328.85 14621.65 Q 38271.85 15046 39002.1 15446.2 Q 39260.85 14410.05 39402.3 13350.9 L 36388.15 13350.9 L 36388.15 11937.55 L 39520.75 11937.55 Q 39566.75 11230.3 39613.9 9699.65 L 41191.7 9699.65 Q 41145.7 11254.45 41075.55 11936.4 L 45431.75 11936.4 Q 45408.75 16482.35 45550.2 17659.95 Q 45785.95 19402.2 46656.5 19402.2 Q 47126.85 19402.2 47197 17071.15 Q 47904.25 17778.4 48281.45 17965.85 Q 48163 19616.1 47808.8 20227.9 Q 47432.75 20863.85 46536.9 20863.85 Q 44793.5 20863.85 44251.85 19120.45 Q 43828.65 17707.1 43781.5 13350.9 L 40955.95 13350.9 Q 40767.35 14998.85 40367.15 16246.6 Q 42086.4 17259.75 43028.25 18153.3 L 42134.7 19378.05 Q 41121.55 18459.2 39825.5 17588.65 Q 38601.9 19848.4 36010.95 20932.85 Q 35680.9 20248.6 35069.1 19755.25 Q 37517.45 18742.1 38506.45 16764.1 Q 37328.85 16082.15 36481.3 15680.8 L 37328.85 14621.65 Z M 27036.35 16223.6 Q 28284.1 16035 31016.5 15564.65 L 31016.5 13373.9 L 27342.25 13373.9 L 27342.25 11937.55 L 31016.5 11937.55 L 31016.5 9677.8 L 32594.3 9677.8 L 32594.3 11937.55 L 35631.45 11937.55 L 35631.45 13373.9 L 32594.3 13373.9 L 32594.3 15305.9 L 35656.75 14787.25 L 35749.9 16176.45 L 32594.3 16742.25 L 32594.3 19167.6 Q 32594.3 20321.05 31793.9 20628.1 Q 31109.65 20909.85 28731.45 20863.85 Q 28613 20204.9 28235.8 19497.65 Q 30167.8 19544.8 30615.15 19497.65 Q 31015.35 19497.65 31015.35 19143.45 L 31015.35 17024 Q 29201.8 17377.05 27365.25 17661.1 L 27035.2 16224.75 L 27036.35 16223.6 Z M 38223.55 26491.95 L 47903.1 26491.95 L 47903.1 27788 L 38223.55 27788 L 38223.55 29458.95 Q 38223.55 30683.7 37281.7 30988.45 Q 36527.3 31201.2 33464.85 31201.2 Q 33323.4 30730.85 32900.2 29858 Q 34925.35 29928.15 36007.5 29858 Q 36503.15 29835 36503.15 29410.65 L 36503.15 27786.85 L 26869.6 27786.85 L 26869.6 26490.8 L 36503.15 26490.8 L 36503.15 25147.6 L 28518.7 25147.6 L 28518.7 23899.85 L 36503.15 23899.85 L 36503.15 22510.65 Q 32757.6 22722.25 29013.2 22722.25 Q 28990.2 22322.05 28708.45 21591.8 Q 38999.8 21450.35 44180.55 20672.95 L 45169.55 21755.1 Q 42579.75 22132.3 38222.4 22414.05 L 38222.4 23898.7 L 46418.45 23898.7 L 46418.45 25146.45 L 38222.4 25146.45 L 38222.4 26489.65 L 38223.55 26491.95 Z M 61823.85 12925.4 L 57936.85 12925.4 L 57936.85 14315.75 L 61823.85 14315.75 L 61823.85 12925.4 Z M 61823.85 15469.2 L 57936.85 15469.2 L 57936.85 16905.55 L 61823.85 16905.55 L 61823.85 15469.2 Z M 63330.35 18083.15 L 56499.35 18083.15 L 56499.35 11747.8 L 58854.55 11747.8 Q 59231.75 10405.75 59373.2 9698.5 L 61069.45 9934.25 L 60316.2 11746.65 L 63330.35 11746.65 L 63330.35 18059 Q 64955.3 15279.45 65802.85 9791.65 L 67238.05 10004.4 Q 66956.3 11700.65 66556.1 13396.9 L 71455.1 13396.9 L 71455.1 14904.55 L 70441.95 14904.55 Q 69925.6 19260.75 68748 22251.9 Q 70490.25 25077.45 71197.5 26609.25 L 69878.45 27455.65 Q 69431.1 26396.5 67994.75 23876.85 Q 66581.4 26443.65 64344.65 28068.6 Q 63803 27384.35 63261.35 26938.15 Q 65758 25264.9 67100.05 22391.05 Q 65710.85 20177.3 64698.85 18740.95 L 65922.45 18033.7 Q 66770 19235.45 67759 20743.1 Q 68560.55 18410.9 68936.6 14902.25 L 66158.2 14902.25 Q 65427.95 17421.9 64414.8 19165.3 Q 63873.15 18669.65 63165.9 18339.6 L 63331.5 18080.85 L 63330.35 18083.15 Z M 59114.45 23523.8 Q 58502.65 26303.35 56666.1 27599.4 Q 56336.05 26963.45 55723.1 26539.1 Q 57725.25 25102.75 58007 20911 L 55721.95 20911 L 55721.95 19640.25 L 59301.9 19640.25 Q 59137.45 19310.2 58664.8 18579.95 L 60031 18084.3 Q 60643.95 18908.85 60997 19639.1 L 63941 19639.1 L 63941 20909.85 L 59489.35 20909.85 Q 59442.2 21641.25 59349.05 22253.05 L 63282.05 22253.05 Q 63282.05 22630.25 63259.05 22841.85 Q 63000.3 26444.8 62504.65 27010.6 Q 62104.45 27456.8 61397.2 27480.95 Q 61044.15 27528.1 59725.1 27480.95 Q 59677.95 26726.55 59370.9 26256.2 Q 60006.85 26326.35 60760.1 26326.35 Q 61137.3 26326.35 61278.75 26137.75 Q 61585.8 25784.7 61751.4 23522.65 L 59112.15 23522.65 L 59114.45 23523.8 Z M 53980.85 15587.65 Q 53108 13891.4 50848.25 11466.05 L 52214.45 10688.65 Q 54545.5 12973.7 55464.35 14669.95 L 53982 15588.8 L 53980.85 15587.65 Z M 54851.4 26537.95 Q 55063 26656.4 55605.8 27080.75 Q 56194.6 27528.1 56617.8 27786.85 Q 58479.65 28917.3 62931.3 28917.3 Q 67499.1 28917.3 71739.15 28446.95 Q 71268.8 29554.4 71245.8 30213.35 Q 67454.25 30472.1 62862.3 30472.1 Q 58268.05 30472.1 56242.9 29176.05 Q 54006.15 27762.7 53983.15 27762.7 Q 53182.75 27762.7 51343.9 30753.85 L 50166.3 29199.05 Q 51886.7 27102.6 53157.45 26466.65 L 53157.45 19943.85 L 50354.9 19943.85 L 50354.9 18293.6 L 54853.7 18293.6 L 54853.7 26536.8 L 54851.4 26537.95 Z M 78780.6 14904.55 Q 77814.6 13561.35 75294.95 11276.3 L 76425.4 10240.15 Q 79015.2 12430.9 79981.2 13678.65 L 78780.6 14903.4 L 78780.6 14904.55 Z M 81370.4 25290.2 Q 81536 25974.45 81983.35 26751.85 Q 77531.7 30189.2 77084.35 30755 Q 76754.3 29954.6 76165.5 29270.35 Q 77272.95 28634.4 77272.95 27269.35 L 77272.95 18719.1 L 73763.15 18719.1 L 73763.15 17045.85 L 78969.2 17045.85 L 78969.2 27079.6 L 81370.4 25289.05 L 81370.4 25290.2 Z M 91687.05 26279.2 L 91687.05 24371.35 L 84339.7 24371.35 L 84339.7 26279.2 L 91687.05 26279.2 Z M 84338.55 21334.2 L 84338.55 23147.75 L 91685.9 23147.75 L 91685.9 21334.2 L 84338.55 21334.2 Z M 93359.15 29223.2 Q 93359.15 30496.25 92534.6 30826.3 Q 91757.2 31133.35 89143.25 31086.2 Q 89024.8 30450.25 88624.6 29579.7 Q 90603.75 29649.85 91238.55 29602.7 Q 91685.9 29602.7 91685.9 29202.5 L 91685.9 27554.55 L 84338.55 27554.55 L 84338.55 31180.5 L 82690.6 31180.5 L 82690.6 19970.3 L 93359.15 19970.3 L 93359.15 29225.5 L 93359.15 29223.2 Z M 95196.85 17282.75 L 95196.85 18624.8 L 81018.5 18624.8 L 81018.5 17282.75 L 87142.25 17282.75 L 87142.25 15634.8 L 82290.4 15634.8 L 82290.4 14361.75 L 87142.25 14361.75 L 87142.25 12879.4 L 81724.6 12879.4 L 81724.6 11536.2 L 87142.25 11536.2 L 87142.25 9699.65 L 88861.5 9699.65 L 88861.5 11536.2 L 94513.75 11536.2 L 94513.75 12879.4 L 88861.5 12879.4 L 88861.5 14361.75 L 93807.65 14361.75 L 93807.65 15634.8 L 88861.5 15634.8 L 88861.5 17282.75 L 95196.85 17282.75 Z M 107301.75 13421.05 Q 106194.3 15257.6 104851.1 16576.65 Q 104357.75 16035 103533.2 15469.2 Q 106006.85 13302.6 107277.6 9722.65 L 108902.55 10124 Q 108549.5 10994.55 108125.15 11890.4 L 116934.15 11890.4 L 117215.9 11817.95 L 118417.65 12148 Q 117004.3 15234.6 116510.95 16035 L 115026.3 15727.95 Q 115544.95 14834.4 116156.75 13421.05 L 107301.75 13421.05 Z M 115144.75 16105.15 Q 117145.75 18460.35 118111.75 20768.4 L 116604.1 21545.8 Q 115708.25 19260.75 113730.25 16764.1 L 115143.6 16105.15 L 115144.75 16105.15 Z M 109328.05 27386.65 Q 108409.2 25620.25 106006.85 23265.05 L 107350.05 22488.8 Q 109728.25 24701.4 110787.4 26537.95 L 109328.05 27385.5 L 109328.05 27386.65 Z M 108856.55 16600.8 Q 107608.8 19567.8 105629.65 21522.8 Q 105088 21004.15 104310.6 20533.8 Q 106218.45 18813.4 107254.6 16153.45 L 108856.55 16600.8 Z M 112435.35 21122.6 Q 112435.35 22346.2 111611.95 22676.25 Q 110999 22960.3 108573.65 22960.3 Q 108455.2 22371.5 108009 21428.5 Q 109891.55 21475.65 110364.2 21428.5 Q 110740.25 21428.5 110740.25 21098.45 L 110740.25 14221.45 L 112436.5 14221.45 L 112436.5 21122.6 L 112435.35 21122.6 Z M 97456.6 29481.95 Q 98776.8 27528.1 99835.95 24418.5 L 101413.75 25054.45 Q 99788.8 29105.9 99106.85 30236.35 L 97456.6 29481.95 Z M 104333.6 10147 Q 103603.35 11654.65 102261.3 13514.2 L 102261.3 23077.6 L 100565.05 23077.6 L 100565.05 15610.65 Q 99480.6 16812.4 98303 17824.4 Q 97691.2 16953.85 97149.55 16458.2 Q 100612.2 13868.4 102778.8 9628.35 L 104332.45 10147 L 104333.6 10147 Z M 111471.65 29130.05 Q 112436.5 29130.05 112720.55 28659.7 Q 113002.3 28189.35 113095.45 26398.8 Q 113708.4 26869.15 114720.4 27057.75 Q 114531.8 29296.8 113943 30027.05 Q 113331.2 30757.3 111587.8 30757.3 L 105958.55 30757.3 Q 103887.4 30757.3 103180.15 30261.65 Q 102472.9 29791.3 102472.9 28354.95 L 102472.9 24280.5 L 104216.3 24280.5 L 104216.3 28331.95 Q 104216.3 28850.6 104546.35 28992.05 Q 104876.4 29133.5 106054 29133.5 L 111471.65 29133.5 L 111471.65 29130.05 Z M 115827.85 23996.45 Q 117805.85 26986.45 118441.8 29271.5 L 116770.85 29955.75 Q 116252.2 27646.55 114297.2 24586.4 L 115827.85 23997.6 L 115827.85 23996.45 Z M 128474.4 15021.85 L 123529.4 15021.85 L 123529.4 19945 L 128474.4 19945 L 128474.4 15021.85 Z M 128474.4 27152.05 L 128474.4 21498.65 L 123529.4 21498.65 L 123529.4 27152.05 L 128474.4 27152.05 Z M 127392.25 9981.4 Q 126356.1 12949.55 126167.5 13442.9 L 130077.5 13442.9 L 130077.5 28728.7 L 123530.55 28728.7 L 123530.55 30588.25 L 121928.6 30588.25 L 121928.6 13442.9 L 124567.85 13442.9 Q 125275.1 11157.85 125509.7 9627.2 L 127394.55 9980.25 L 127392.25 9981.4 Z M 141593.6 14268.6 Q 141097.95 28399.8 139967.5 29789 Q 139308.55 30613.55 138107.95 30732 Q 137141.95 30848.15 134621.15 30706.7 Q 134528 29740.7 134032.35 28987.45 Q 135564.15 29128.9 137519.15 29128.9 Q 138201.1 29128.9 138482.85 28775.85 Q 139496 27691.4 139919.2 14996.55 L 133938.05 14996.55 Q 132853.6 17610.5 131723.15 19118.15 Q 131416.1 18836.4 130285.65 18129.15 Q 132593.7 15089.7 133889.75 9578.9 L 135563 9979.1 Q 135115.65 11815.65 134549.85 13370.45 L 141592.45 13370.45 L 141592.45 14266.3 L 141593.6 14268.6 Z M 136387.55 24890 Q 135305.4 22700.4 132808.75 19449.35 L 134174.95 18648.95 Q 136764.75 21946 137872.2 23971.15 L 136387.55 24890 Z M 151980.4 27152.05 L 156879.4 26233.2 L 156995.55 27763.85 Q 147244.7 29625.7 145290.85 30025.9 L 144913.65 28377.95 L 150306 27434.95 L 150306 23478.95 L 145714.05 23478.95 L 145714.05 21924.15 L 150306 21924.15 L 150306 19380.35 L 151979.25 19380.35 L 151979.25 21924.15 L 156665.5 21924.15 L 156665.5 23478.95 L 151979.25 23478.95 L 151979.25 27153.2 L 151980.4 27152.05 Z M 145103.4 11229.15 L 157138.15 11229.15 L 157138.15 12783.95 L 150777.5 12783.95 Q 149483.75 15280.6 148070.4 17165.45 L 154076.85 16646.8 Q 153346.6 15564.65 152333.45 14316.9 L 153581.2 13562.5 Q 156125 16601.95 157138.15 18602.95 L 155794.95 19473.5 Q 155464.9 18768.55 154969.25 18014.15 Q 146821.5 18791.55 146232.7 19073.3 Q 146021.1 18225.75 145643.9 17425.35 Q 146091.25 17332.2 146773.2 16389.2 Q 147832.35 14977 148822.5 12786.25 L 145101.1 12786.25 L 145101.1 11231.45 L 145103.4 11229.15 Z M 160082.15 25879 L 158431.9 25879 L 158431.9 11724.8 L 160082.15 11724.8 L 160082.15 25879 Z M 164768.4 10076.85 L 164768.4 28448.1 Q 164768.4 30001.75 163802.4 30355.95 Q 162956 30686 160128.15 30686 Q 160012 29885.6 159493.35 28966.75 Q 161682.95 29036.9 162553.5 28989.75 Q 163049.15 28966.75 163049.15 28471.1 L 163049.15 10076.85 L 164768.4 10076.85 Z M 180784.45 21734.4 Q 184364.4 26537.95 189593.45 28777 Q 188839.05 29481.95 188368.7 30259.35 Q 183351.25 27762.7 179583.85 22652.1 L 179583.85 31177.05 L 177770.3 31177.05 L 177770.3 22699.25 Q 174144.35 27644.25 169056.75 30165.05 Q 168538.1 29387.65 167830.85 28728.7 Q 173059.9 26466.65 176592.7 21733.25 L 168326.5 21733.25 L 168326.5 20060 L 177770.3 20060 L 177770.3 14196.15 L 169433.95 14196.15 L 169433.95 12522.9 L 177770.3 12522.9 L 177770.3 9697.35 L 179583.85 9697.35 L 179583.85 12522.9 L 188108.8 12522.9 L 188108.8 14196.15 L 179583.85 14196.15 L 179583.85 20060 L 189097.8 20060 L 189097.8 21733.25 L 180784.45 21733.25 L 180784.45 21734.4 Z M 172870.15 14738.95 Q 174589.4 17235.6 175108.05 19143.45 L 173460.1 19779.4 Q 172918.45 17659.95 171340.65 15327.75 L 172871.3 14738.95 L 172870.15 14738.95 Z M 182313.95 19332.05 Q 183704.3 17142.45 184693.3 14645.8 L 186482.7 15210.45 Q 184881.9 18320.05 183774.45 19827.7 L 182312.8 19332.05 L 182313.95 19332.05 Z " fill-rule="nonzero" style="fill:#f64747;;fill-opacity:1;"/>
</svg>