<svg version="1.1" x="0" y="0" width="100%" height="100%" viewBox="0 0 60006.4 40550.4" xmlns="http://www.w3.org/2000/svg">
  <path d="M 40965.2 15354.8 L 27569.6 15354.8 L 27569.6 13660.4 L 33762.8 13660.4 Q 33000.8 11988.8 31821.2 10588.4 L 33344 9924.8 Q 34720.4 11423.6 35408 12922.4 L 33810.8 13660.4 L 40962.8 13660.4 L 40962.8 15354.8 L 40965.2 15354.8 Z M 36614 15872 Q 39636.8 18723.2 40914.8 20910.8 L 39562.4 22040 Q 38309.6 19731.2 35358.8 16830.8 L 36612.8 15872 L 36614 15872 Z M 32460.8 16732.4 Q 30617.6 19952 28086.8 22188.8 Q 27644 21695.6 26808.8 21081.2 Q 29266.4 19066.4 30815.6 15994.4 L 32462 16732.4 L 32460.8 16732.4 Z M 25996.4 24105.2 Q 25678.4 23268.8 24203.6 20320.4 L 24203.6 32484.8 L 22533.2 32484.8 L 22533.2 20590.4 Q 21155.6 25505.6 19509.2 28012.4 Q 19140.8 27077.6 18526.4 26266.4 Q 20960 22949.6 22188.8 16953.2 L 19337.6 16953.2 L 19337.6 15233.6 L 22533.2 15233.6 L 22533.2 10048.4 L 24203.6 10048.4 L 24203.6 15233.6 L 26955.2 15233.6 L 26955.2 16953.2 L 24203.6 16953.2 L 24203.6 17936 Q 25138.4 19264.4 27105.2 22728.8 L 25997.6 24106.4 L 25996.4 24105.2 Z M 38114 20738 Q 37130 24227.6 35115.2 26907.2 Q 37793.6 29561.6 41356.4 30765.2 Q 40694 31306.4 40127.6 32338.4 Q 36564.8 31036.4 33935.6 28284.8 Q 31428.8 30890 27791.6 32536.4 Q 27225.2 31652 26636 31161.2 Q 30297.2 29564 32780 26933.6 Q 30764 24352.4 29511.2 20838.8 L 31084.4 20396 Q 32116.4 23296.4 33910.4 25557.2 Q 35556.8 23247.2 36368 20298.8 L 38114 20740.4 L 38114 20738 Z " fill-rule="nonzero" style="fill:#000000;;fill-opacity:1;"/>
</svg>