<svg version="1.1" x="0" y="0" width="100%" height="100%" viewBox="0 0 55859.2 302182.4" xmlns="http://www.w3.org/2000/svg">
  <path d="M 25092 22813.6 Q 26168.25 29265.85 28247.25 34178.1 Q 30291.25 29913.35 31364 22815.35 L 25092 22815.35 L 25092 22813.6 Z M 34088.75 22813.6 Q 32764 31666.85 29717.25 37114.6 Q 32512 42023.35 36633.25 44174.1 Q 35452 45141.85 34771.25 46466.6 Q 30828.5 44137.35 28068.75 39585.6 Q 24843.5 43885.35 19754.5 46538.35 Q 19180.5 45248.6 18142.75 44137.35 Q 23588.75 41556.1 26670.5 36930.85 Q 24736.75 32883.1 23412 27004.85 Q 22516 29047.1 21009.25 31197.85 Q 19971.5 30156.6 19075.5 29547.6 Q 16889.75 32055.35 13664.5 34241.1 L 13664.5 35963.1 L 17390.25 35604.35 Q 19684.5 35389.1 21154.5 35208.85 L 21154.5 37503.1 L 13664.5 38327.35 L 13664.5 43596.6 Q 13664.5 45495.35 12409.75 45997.6 Q 11442 46391.35 7607.75 46391.35 Q 7462.5 45425.35 6783.5 44062.1 Q 7679.5 44097.1 10544.25 44097.1 Q 11153.25 44062.1 11153.25 43559.85 L 11153.25 38612.6 L 3878.5 39401.85 L 3556.5 36965.85 Q 7427.5 36642.1 11153.25 36213.35 L 11153.25 33632.1 L 11118.25 33597.1 Q 13232.25 32307.35 15204.5 30408.6 L 11440.25 30408.6 Q 8717.25 32916.35 5275 34960.35 Q 4559.25 34064.35 3413 32988.1 Q 5168.25 32055.35 7462.5 30408.6 L 6566.5 30408.6 L 6566.5 28257.85 L 10080.5 28257.85 Q 11011.5 27433.6 12661.75 25641.6 L 3630 25641.6 L 3630 23275.6 L 9830.25 23275.6 L 9830.25 19728.35 L 5135 19728.35 L 5135 17432.35 L 9830.25 17432.35 L 9830.25 13671.6 L 12303 13671.6 L 12303 17432.35 L 16748 17432.35 L 16748 19728.35 L 12303 19728.35 L 12303 23275.6 L 14562.25 23275.6 Q 17572.25 19082.6 19257.5 14530.85 L 21765.25 15211.6 Q 20045 19476.35 17572.25 23275.6 L 20869.25 23275.6 L 20869.25 25641.6 L 15887 25641.6 Q 14130 27755.6 13627.75 28257.85 L 17318.5 28257.85 L 17820.75 28116.1 L 19075.5 29047.1 Q 22911.5 23816.35 24666.75 13673.35 L 27319.75 14102.1 Q 26674 17544.35 25884.75 20302.35 L 36351.5 20302.35 L 36351.5 22810.1 L 34092.25 22810.1 L 34088.75 22813.6 Z M 7565.75 75683 L 5023 75683 L 5023 68621.75 L 10936.25 68621.75 Q 9970.25 66579.5 7854.5 64071.75 L 10078.75 63030.5 Q 12549.75 65863.75 13482.5 67906 L 12119.25 68621.75 L 19968 68621.75 Q 19107 66005.5 17280 63282.5 L 19574.25 62421.5 Q 21795 65503.25 22475.75 67869.25 L 20648.75 68620 L 26492 68620 Q 28676 65897 30111 62922 L 32799 63854.75 Q 31113.75 66362.5 29321.75 68618.25 L 35165 68618.25 L 35165 75679.5 L 32547 75679.5 L 32547 71022.75 L 7565.75 71022.75 L 7565.75 75679.5 L 7565.75 75683 Z M 35809 85288.75 L 21222.75 85288.75 L 21222.75 92134.75 Q 21222.75 94355.5 19500.75 94892.75 Q 18102.5 95360 12906.75 95360 Q 12691.5 94499 11795.5 92778.75 Q 16275.5 92959 17638.75 92813.75 Q 18569.75 92778.75 18569.75 92098 L 18569.75 85288.75 L 4305.5 85288.75 L 4305.5 82816 L 18569.75 82816 L 18569.75 80234.75 Q 21651.5 79123.5 24768.25 77044.5 L 10290.5 77044.5 L 10290.5 74678.5 L 27816.75 74678.5 L 28319 74536.75 L 30076 75861.5 Q 26742.25 78908.25 21224.5 81381 L 21224.5 82814.25 L 35810.75 82814.25 L 35810.75 85287 L 35809 85288.75 Z M 27638.25 111850.4 Q 31831.25 113966.15 34052 115938.4 L 32405.25 117765.4 Q 30111 115651.4 26059.75 113465.65 L 27636.5 111850.4 L 27638.25 111850.4 Z M 33836.75 123822.15 Q 31507.5 130844.9 27529.75 135933.9 Q 29643.75 141490.15 32331.75 141490.15 Q 33660 141490.15 34017 134861.15 Q 35093.25 135933.9 36311.25 136292.65 Q 35954.25 140844.4 35058.25 142491.15 Q 34162.25 144141.4 32118.25 144141.4 Q 28175.5 144141.4 25559.25 138263.15 Q 22297.25 141810.4 18176 144213.15 Q 17208.25 142884.9 16242.25 142095.65 Q 21044.25 139514.4 24483 135466.65 Q 22621 129588.4 21866.75 120376.4 L 9503 120376.4 L 9503 125036.65 L 18643.25 125036.65 L 18643.25 126182.9 Q 18391.25 137045.15 17495.25 138156.4 Q 16814.5 139052.4 15346.25 139194.15 Q 13911.25 139300.9 11081.5 139194.15 Q 11009.75 137795.9 10329 136684.65 Q 12408 136864.9 14128.25 136864.9 Q 14954.25 136864.9 15204.5 136471.15 Q 15850.25 135790.4 16027 127511.15 L 9504.75 127511.15 L 9504.75 127798.15 Q 9504.75 139230.9 5740.5 144676.9 Q 4737.75 143530.65 3519.75 142884.9 Q 6781.75 138047.9 6781.75 127759.65 L 6781.75 117761.9 L 21726.75 117761.9 Q 21581.5 115789.65 21509.75 111738.4 L 24269.5 111738.4 Q 24269.5 115180.65 24414.75 117761.9 L 35991 117761.9 L 35991 120378.15 L 24593.25 120378.15 Q 25167.25 127868.15 26565.5 132815.4 Q 29505.5 128515.65 31152.25 123139.65 L 33840.25 123820.4 L 33836.75 123822.15 Z M 18604.75 174253.8 L 18604.75 170563.05 L 10540.75 170563.05 L 10540.75 174253.8 L 18604.75 174253.8 Z M 10540.75 168375.55 L 18604.75 168375.55 L 18604.75 164719.8 L 10540.75 164719.8 L 10540.75 168375.55 Z M 29502 164719.8 L 21366.25 164719.8 L 21366.25 168375.55 L 29502 168375.55 L 29502 164719.8 Z M 29502 170563.05 L 21366.25 170563.05 L 21366.25 174253.8 L 29502 174253.8 L 29502 170563.05 Z M 23587 182030.8 Q 28856.25 187265.05 36526.5 189846.3 Q 35523.75 190742.3 34699.5 192067.05 Q 26885.75 188911.8 21368 182963.55 L 21368 193428.55 L 18608.25 193428.55 L 18608.25 183140.3 Q 13269 189197.05 5275 192207.05 Q 4596 191095.8 3483 190023.05 Q 11331.75 187476.8 16385.75 182029.05 L 4379 182029.05 L 4379 179556.3 L 18608.25 179556.3 L 18608.25 176546.3 L 7856.25 176546.3 L 7856.25 162390.55 L 32335.25 162390.55 L 32335.25 176546.3 L 21368 176546.3 L 21368 179556.3 L 35597.25 179556.3 L 35597.25 182029.05 L 23590.5 182029.05 L 23587 182030.8 Z M 9860 213718.2 L 9860 217373.95 L 31187.25 217373.95 L 31187.25 213718.2 L 9860 213718.2 Z M 9860 219703.2 L 9860 221818.95 Q 9860 235761.2 5667 242461.95 Q 4555.75 241494.2 3337.75 241100.45 Q 7208.75 235008.7 7208.75 221820.7 L 7208.75 211390.7 L 33836.75 211390.7 L 33836.75 219704.95 L 9860 219704.95 L 9860 219703.2 Z M 18891.75 229343.95 L 26024.75 229343.95 L 26024.75 225583.2 L 18891.75 225583.2 L 18891.75 229343.95 Z M 34088.75 233253.45 Q 31542.5 235187.2 28390.75 236872.45 Q 31651 239273.45 36383 240241.2 Q 35415.25 241100.45 34734.5 242463.7 Q 25093.75 240027.7 21403 231676.7 L 16459.25 231676.7 L 16459.25 238986.45 L 24164.5 237266.2 Q 23949.25 238629.45 24056 239488.7 Q 14058.25 241926.45 13269 242463.7 Q 13088.75 241425.95 12227.75 240206.2 Q 13949.75 239240.2 13949.75 237483.2 L 13949.75 231678.45 L 10078.75 231678.45 L 10078.75 229347.45 L 16385.75 229347.45 L 16385.75 225586.7 L 11044.75 225586.7 L 11044.75 223290.7 L 16385.75 223290.7 L 16385.75 220065.45 L 18893.5 220065.45 L 18893.5 223290.7 L 26026.5 223290.7 L 26026.5 220065.45 L 28534.25 220065.45 L 28534.25 223290.7 L 34556 223290.7 L 34556 225586.7 L 28534.25 225586.7 L 28534.25 229347.45 L 35989.25 229347.45 L 35989.25 231678.45 L 23874 231678.45 Q 25092 233899.2 26742.25 235475.95 Q 30291.25 233361.95 32083.25 231891.95 L 34090.5 233255.2 L 34088.75 233253.45 Z M 32512 263971.35 L 7495.75 263971.35 L 7495.75 261355.1 L 32512 261355.1 L 32512 263971.35 Z M 13267.25 276802.35 Q 10472.5 283790.1 5847.25 288163.35 Q 4809.5 287267.35 3446.25 286551.6 Q 7998 282608.85 10540.75 276086.6 L 13265.5 276802.35 L 13267.25 276802.35 Z M 28928 276121.6 Q 33730 282251.85 35380.25 287017.1 L 32764 288165.1 Q 31078.75 283217.85 26492 277126.1 L 28928 276123.35 L 28928 276121.6 Z M 35667.25 269991.35 L 35667.25 272609.35 L 21438 272609.35 L 21438 287948.1 Q 21438 290314.1 19752.75 290886.35 Q 18389.5 291353.6 13265.5 291353.6 Q 13013.5 290063.85 12297.75 288593.85 Q 16275.5 288700.6 17708.75 288630.6 Q 18604.75 288630.6 18604.75 287876.35 L 18604.75 272609.35 L 4305.5 272609.35 L 4305.5 269991.35 L 35665.5 269991.35 L 35667.25 269991.35 Z " fill-rule="nonzero" style="fill:#000000;;fill-opacity:1;"/>
</svg>