<svg version="1.1" x="0" y="0" width="100%" height="100%" viewBox="0 0 140032 40550.4" xmlns="http://www.w3.org/2000/svg">
  <path d="M 3129.2 29291.6 Q 11386.4 22066.4 11386.4 17666 Q 11386.4 16044.8 10575.2 15110 Q 9690.8 14102 8068.4 14102 Q 6077.6 14102 4331.6 16191.2 L 3029.6 14913.2 Q 5487.2 12258.8 8338.4 12258.8 Q 10746.8 12258.8 12172.4 13708.4 Q 13574 15159.2 13574 17591.6 Q 13574 22162.4 6521.6 28847.6 Q 8709.2 28676 9471.2 28676 L 14459.6 28676 L 14459.6 30616.4 L 3130.4 30616.4 L 3130.4 29290.4 L 3129.2 29291.6 Z M 18343.6 28601.6 Q 16820.8 26144 16820.8 21549.2 Q 16820.8 16954.4 18343.6 14546 Q 19793.2 12260 22447.6 12260 Q 25078 12260 26527.6 14570 Q 28050.4 16978.4 28050.4 21549.2 Q 28050.4 26144 26527.6 28601.6 Q 25078 30938 22447.6 30938 Q 19818.4 30938 18343.6 28601.6  Z M 25864 21549.2 Q 25864 14079.2 22447.6 14079.2 Q 19007.2 14079.2 19007.2 21549.2 Q 19007.2 29142.8 22447.6 29142.8 Q 25864 29142.8 25864 21549.2  Z M 40660.8 19385.6 L 40660.8 17027.6 L 36310.8 17027.6 L 36310.8 15552.8 L 40660.8 15552.8 L 40660.8 13439.6 L 42406.8 13439.6 L 42406.8 15552.8 L 47025.6 15552.8 L 47025.6 17027.6 L 42406.8 17027.6 L 42406.8 19385.6 L 47640 19385.6 L 47640 20910.8 L 35696.4 20910.8 L 35696.4 19385.6 L 40660.8 19385.6 Z M 38572.8 24424.4 L 38572.8 27914 L 44667.6 27914 L 44667.6 24424.4 L 38572.8 24424.4 Z M 38572.8 29364.8 L 38572.8 30741.2 L 36901.2 30741.2 L 36901.2 22974.8 L 46387.2 22974.8 L 46387.2 29364.8 L 38572.8 29364.8 Z M 50737.2 30176 Q 50737.2 31722.8 49656 32165.6 Q 48820.8 32483.6 45404.4 32483.6 Q 45280.8 31721.6 44790 30762.8 Q 47074.8 30836 48303.6 30762.8 Q 48918 30762.8 48918 30173.6 L 48918 12945.2 L 34689.6 12945.2 L 34689.6 19114.4 Q 34689.6 28305.2 31518 32655.2 Q 30879.6 31868 30068.4 31475.6 Q 32894.4 27567.2 32894.4 19114.4 L 32894.4 11224.4 L 50737.2 11224.4 L 50737.2 30173.6 L 50737.2 30176 Z M 66368.4 25112 L 66368.4 20246 L 60862.8 20246 L 60862.8 25112 L 66368.4 25112 Z M 77107.2 26882 L 68211.6 26882 L 68211.6 32511.2 L 66368.4 32511.2 L 66368.4 26882 L 55012.8 26882 L 55012.8 25112 L 59043.6 25112 L 59043.6 18526.4 L 66368.4 18526.4 L 66368.4 14790.8 L 60396 14790.8 Q 58725.6 17642 56660.4 19632.8 Q 55677.6 18772.4 55087.2 18478.4 Q 58773.6 15258.8 60616.8 9999.2 L 62460 10440.8 Q 61994.4 11621.6 61330.8 13022 L 75976.8 13022 L 75976.8 14792 L 68211.6 14792 L 68211.6 18527.6 L 75411.6 18527.6 L 75411.6 20247.2 L 68211.6 20247.2 L 68211.6 25113.2 L 77107.2 25113.2 L 77107.2 26883.2 L 77107.2 26882 Z M 101586 15354.8 L 88190.4 15354.8 L 88190.4 13660.4 L 94383.6 13660.4 Q 93621.6 11988.8 92442 10588.4 L 93964.8 9924.8 Q 95341.2 11423.6 96028.8 12922.4 L 94431.6 13660.4 L 101583.6 13660.4 L 101583.6 15354.8 L 101586 15354.8 Z M 97234.8 15872 Q 100257.6 18723.2 101535.6 20910.8 L 100183.2 22040 Q 98930.4 19731.2 95979.6 16830.8 L 97233.6 15872 L 97234.8 15872 Z M 93081.6 16732.4 Q 91238.4 19952 88707.6 22188.8 Q 88264.8 21695.6 87429.6 21081.2 Q 89887.2 19066.4 91436.4 15994.4 L 93082.8 16732.4 L 93081.6 16732.4 Z M 86617.2 24105.2 Q 86299.2 23268.8 84824.4 20320.4 L 84824.4 32484.8 L 83154 32484.8 L 83154 20590.4 Q 81776.4 25505.6 80130 28012.4 Q 79761.6 27077.6 79147.2 26266.4 Q 81580.8 22949.6 82809.6 16953.2 L 79958.4 16953.2 L 79958.4 15233.6 L 83154 15233.6 L 83154 10048.4 L 84824.4 10048.4 L 84824.4 15233.6 L 87576 15233.6 L 87576 16953.2 L 84824.4 16953.2 L 84824.4 17936 Q 85759.2 19264.4 87726 22728.8 L 86618.4 24106.4 L 86617.2 24105.2 Z M 98734.8 20738 Q 97750.8 24227.6 95736 26907.2 Q 98414.4 29561.6 101977.2 30765.2 Q 101314.8 31306.4 100748.4 32338.4 Q 97185.6 31036.4 94556.4 28284.8 Q 92049.6 30890 88412.4 32536.4 Q 87846 31652 87256.8 31161.2 Q 90918 29564 93400.8 26933.6 Q 91384.8 24352.4 90132 20838.8 L 91705.2 20396 Q 92737.2 23296.4 94531.2 25557.2 Q 96177.6 23247.2 96988.8 20298.8 L 98734.8 20740.4 L 98734.8 20738 Z M 107654.4 14864 L 107654.4 19682 Q 107654.4 28258.4 105272.4 32462 Q 104558.4 31750.4 103723.2 31454 Q 105836.4 27694.4 105836.4 19683.2 L 105836.4 13121.6 L 115716 13121.6 Q 115125.6 11892.8 114166.8 10688 L 115740 10049.6 Q 117066 11548.4 117780 13121.6 L 126184.8 13121.6 L 126184.8 14865.2 L 107653.2 14865.2 L 107654.4 14864 Z M 117781.2 21328.4 Q 120607.2 28184 126457.2 30765.2 Q 125695.2 31428.8 125154 32337.2 Q 120018 29756 116920.8 23588 Q 114980.4 29756 109230 32435.6 Q 108811.2 31672.4 108025.2 31034 Q 114096 28404.8 115642.8 21326 L 109033.2 21326 L 109033.2 19606.4 L 115912.8 19606.4 Q 116085.6 18352.4 116306.4 15624.8 L 118222.8 15624.8 Q 118051.2 17910.8 117805.2 19606.4 L 125743.2 19606.4 L 125743.2 21326 L 117781.2 21326 L 117781.2 21328.4 Z " fill-rule="nonzero" style="fill:#f64747;;fill-opacity:1;"/>
</svg>