<svg version="1.1" x="0" y="0" width="100%" height="100%" viewBox="0 0 60006.4 40550.4" xmlns="http://www.w3.org/2000/svg">
  <path d="M 34280 15160.4 Q 33026 18944 31306.4 22040 Q 34230.8 25775.6 35729.6 28430 L 34058 29412.8 Q 32854.4 27251.6 30347.6 23686.4 Q 27840.8 27642.8 25014.8 29756 Q 24300.8 28823.6 23638.4 28356.8 Q 26610.8 26316.8 29216 22188.8 Q 27028.4 19238 24694.4 16510.4 L 26193.2 15724.4 Q 28380.8 18231.2 30176 20540 Q 31698.8 17690 32681.6 14739.2 L 34280 15158 L 34280 15160.4 Z M 38163.2 11226.8 Q 38087.6 21598.4 38309.6 25137.2 Q 38603.6 30370.4 39735.2 30370.4 Q 40176.8 30370.4 40274 26684 Q 40888.4 27520.4 41478.8 27962 Q 41331.2 30419.6 40962.8 31304 Q 40569.2 32238.8 39585.2 32238.8 Q 37397.6 32238.8 36808.4 27371.6 Q 36390.8 24128 36365.6 12995.6 L 23536.4 12995.6 L 23536.4 18501.2 Q 23536.4 28011.2 20292.8 32556.8 Q 19653.2 31770.8 18768.8 31328 Q 21693.2 27273.2 21693.2 18500 L 21693.2 11224.4 L 38160.8 11224.4 L 38163.2 11226.8 Z " fill-rule="nonzero" style="fill:#000000;;fill-opacity:1;"/>
</svg>