<svg version="1.1" x="0" y="0" width="100%" height="100%" viewBox="0 0 41932.8 198451.2" xmlns="http://www.w3.org/2000/svg">
  <path d="M 30654.4 19988.8 Q 28918.4 17563.2 25379.2 14614.4 L 27150.4 13435.2 Q 30689.6 16219.2 32556.8 18676.8 L 30656 19988.8 L 30654.4 19988.8 Z M 14630.4 13828.8 Q 13352 16908.8 11124.8 20448 L 11124.8 42598.4 L 8667.2 42598.4 L 8667.2 23953.6 Q 6601.6 26641.6 4273.6 28771.2 Q 3716.8 27524.8 2865.6 26411.2 Q 8992 21201.6 12334.4 13107.2 L 14627.2 13828.8 L 14630.4 13828.8 Z M 23281.6 24904 Q 25116.8 39321.6 30032 39780.8 Q 31344 39878.4 31835.2 34144 Q 32556.8 34798.4 33868.8 35420.8 Q 32916.8 42793.6 30132.8 42628.8 Q 22956.8 42105.6 20891.2 25228.8 L 13027.2 26212.8 L 12699.2 23920 L 20628.8 22936 Q 20169.6 17692.8 20004.8 13236.8 L 22430.4 13236.8 Q 22595.2 18512 23054.4 22608 L 32851.2 21364.8 L 33179.2 23657.6 L 23283.2 24904 L 23281.6 24904 Z M 31668.8 78801.6 Q 29014.4 81094.4 25345.6 83355.2 Q 28851.2 86664 33569.6 88040 Q 32652.8 88924.8 31966.4 90136 Q 22070.4 86795.2 18171.2 76112 Q 16105.6 78372.8 13059.2 80438.4 L 13059.2 87678.4 L 20988.8 85286.4 Q 21086.4 86270.4 21380.8 87384 Q 11158.4 90660.8 10371.2 91217.6 Q 10044.8 90038.4 9323.2 88990.4 Q 10569.6 88368 10569.6 86859.2 L 10569.6 82009.6 Q 8014.4 83483.2 4934.4 84662.4 Q 4377.6 83646.4 3360 82697.6 Q 10144 80566.4 15124.8 76110.4 L 4310.4 76110.4 L 4310.4 74012.8 L 17155.2 74012.8 L 17155.2 71096 L 7259.2 71096 L 7259.2 69065.6 L 17155.2 69065.6 L 17155.2 66313.6 L 5588.8 66313.6 L 5588.8 64216 L 17155.2 64216 L 17155.2 61299.2 L 19580.8 61299.2 L 19580.8 64216 L 31508.8 64216 L 31508.8 66313.6 L 19580.8 66313.6 L 19580.8 69065.6 L 30032 69065.6 L 30032 71096 L 19580.8 71096 L 19580.8 74012.8 L 32523.2 74012.8 L 32523.2 76110.4 L 20529.6 76110.4 Q 21873.6 79387.2 24003.2 81910.4 Q 27476.8 79550.4 29672 77387.2 L 31670.4 78796.8 L 31668.8 78801.6 Z M 28196.8 116347.2 Q 27017.6 114675.2 24068.8 111531.2 L 25936 110352 Q 28918.4 113398.4 30164.8 115004.8 L 28198.4 116348.8 L 28196.8 116347.2 Z M 16072 125489.6 Q 17972.8 129420.8 21315.2 132238.4 Q 24624 129356.8 26328 125489.6 L 16070.4 125489.6 L 16072 125489.6 Z M 29606.4 123819.2 Q 27673.6 129750.4 23249.6 133713.6 Q 27574.4 136664 33539.2 137777.6 Q 32688 138596.8 32030.4 139940.8 Q 25772.8 138564.8 21380.8 135254.4 Q 17088 138334.4 11289.6 139907.2 Q 10828.8 138827.2 10009.6 137809.6 Q 15352 136566.4 19448 133681.6 Q 16531.2 130961.6 14566.4 127292.8 Q 11059.2 133518.4 4996.8 137288 Q 4310.4 136238.4 3196.8 135419.2 Q 11518.4 130339.2 14924.8 119657.6 L 10369.6 119657.6 Q 7355.2 119657.6 6896 120214.4 Q 6372.8 118576 6076.8 117921.6 Q 6699.2 117756.8 7256 116609.6 Q 8600 114350.4 9451.2 110811.2 L 12006.4 111302.4 Q 11288 114022.4 9649.6 117299.2 L 15545.6 117299.2 Q 16497.6 113760 16921.6 109796.8 L 19641.6 110188.8 Q 19084.8 114120 18331.2 117299.2 L 32454.4 117299.2 L 32422.4 119659.2 L 17676.8 119659.2 Q 17152 121329.6 16529.6 123132.8 L 27507.2 123132.8 L 27966.4 123003.2 L 29604.8 123822.4 L 29606.4 123819.2 Z M 10764.8 180270.4 L 10764.8 184956.8 L 26164.8 184956.8 L 26164.8 180270.4 L 10764.8 180270.4 Z M 8371.2 178174.4 L 28622.4 178174.4 L 28622.4 188299.2 L 26164.8 188299.2 L 26164.8 187020.8 L 10764.8 187020.8 L 10764.8 188396.8 L 8371.2 188396.8 L 8371.2 178174.4 Z M 8667.2 173062.4 L 28262.4 173062.4 L 28262.4 175092.8 L 8667.2 175092.8 L 8667.2 173062.4 Z M 28262.4 170212.8 L 8667.2 170212.8 L 8667.2 168179.2 L 28262.4 168179.2 L 28262.4 170212.8 Z M 33080 163396.8 L 33080 165526.4 L 3948.8 165526.4 L 3948.8 163396.8 L 18561.6 163396.8 Q 17283.2 161100.8 15612.8 159168 L 17905.6 158446.4 Q 20233.6 160904 21182.4 163001.6 L 20036.8 163396.8 L 33078.4 163396.8 L 33080 163396.8 Z " fill-rule="nonzero" style="fill:#000000;;fill-opacity:1;"/>
</svg>