<svg version="1.1" x="0" y="0" width="100%" height="100%" viewBox="0 0 429312 149913.6" xmlns="http://www.w3.org/2000/svg">
  <path d="M 21045.2 29438 L 21045.2 25799.6 L 7946 25799.6 L 7946 29438 L 21045.2 29438 Z M 7946 20517.2 L 7946 24080 L 21045.2 24080 L 21045.2 20517.2 L 7946 20517.2 Z M 7946 15134 L 7946 18796.4 L 21045.2 18796.4 L 21045.2 15134 L 7946 15134 Z M 22937.6 13390.4 L 22937.6 32411.6 L 21045.2 32411.6 L 21045.2 31158.8 L 7946 31158.8 L 7946 32535.2 L 6128 32535.2 L 6128 13391.6 L 12296 13391.6 Q 12959.6 11424.8 13253.6 10023.2 L 15342.8 10293.2 Q 14776.4 11891.6 14114 13390.4 L 22936.4 13390.4 L 22937.6 13390.4 Z M 36798.8 19706 Q 36430.4 14028.8 32865.2 14028.8 Q 31563.2 14028.8 30704 15134 Q 29819.6 16289.6 29819.6 18108.8 Q 29819.6 19976 30630.8 21033.2 Q 31466 22113.2 33039.2 22113.2 Q 35103.2 22113.2 36798.8 19704.8 L 36798.8 19706 Z M 29278.4 27693.2 Q 30507.2 29069.6 32301.2 29069.6 Q 36602 29069.6 36822.8 21549.2 Q 35028.8 23786 32670.8 23786 Q 30360.8 23786 29058.8 22336.4 Q 27706.4 20861.6 27706.4 18110 Q 27706.4 15552.8 29229.2 13882.4 Q 30704 12260 32865.2 12260 Q 35568.8 12260 37191.2 14397.2 Q 38910.8 16683.2 38910.8 20836.4 Q 38910.8 25972.4 36920 28626.8 Q 35174 30936.8 32372 30936.8 Q 29817.2 30936.8 28047.2 29093.6 L 29276 27692 L 29278.4 27693.2 Z M 50366.8 19706 Q 49998.4 14028.8 46433.2 14028.8 Q 45131.2 14028.8 44272 15134 Q 43387.6 16289.6 43387.6 18108.8 Q 43387.6 19976 44198.8 21033.2 Q 45034 22113.2 46607.2 22113.2 Q 48671.2 22113.2 50366.8 19704.8 L 50366.8 19706 Z M 42846.4 27693.2 Q 44075.2 29069.6 45869.2 29069.6 Q 50170 29069.6 50390.8 21549.2 Q 48596.8 23786 46238.8 23786 Q 43928.8 23786 42626.8 22336.4 Q 41274.4 20861.6 41274.4 18110 Q 41274.4 15552.8 42797.2 13882.4 Q 44272 12260 46433.2 12260 Q 49136.8 12260 50759.2 14397.2 Q 52478.8 16683.2 52478.8 20836.4 Q 52478.8 25972.4 50488 28626.8 Q 48742 30936.8 45940 30936.8 Q 43385.2 30936.8 41615.2 29093.6 L 42844 27692 L 42846.4 27693.2 Z M 66368.4 25112 L 66368.4 20246 L 60862.8 20246 L 60862.8 25112 L 66368.4 25112 Z M 77107.2 26882 L 68211.6 26882 L 68211.6 32511.2 L 66368.4 32511.2 L 66368.4 26882 L 55012.8 26882 L 55012.8 25112 L 59043.6 25112 L 59043.6 18526.4 L 66368.4 18526.4 L 66368.4 14790.8 L 60396 14790.8 Q 58725.6 17642 56660.4 19632.8 Q 55677.6 18772.4 55087.2 18478.4 Q 58773.6 15258.8 60616.8 9999.2 L 62460 10440.8 Q 61994.4 11621.6 61330.8 13022 L 75976.8 13022 L 75976.8 14792 L 68211.6 14792 L 68211.6 18527.6 L 75411.6 18527.6 L 75411.6 20247.2 L 68211.6 20247.2 L 68211.6 25113.2 L 77107.2 25113.2 L 77107.2 26883.2 L 77107.2 26882 Z M 96841.2 14570 L 96817.2 15578 Q 96300 29512.4 95096.4 30986 Q 94333.2 31920.8 93031.2 32020.4 Q 91999.2 32141.6 89100 31994 Q 89050.8 31035.2 88460.4 30052.4 Q 90106.8 30200 92246.4 30200 Q 92934 30224 93302.4 29830.4 Q 94359.6 28725.2 94801.2 16389.2 L 89812.8 16389.2 Q 89346 27324.8 80941.2 32608.4 Q 80302.8 31724 79467.6 31109.6 Q 87405.6 26243.6 87872.4 16389.2 L 80547.6 16389.2 L 80547.6 14570 L 87920.4 14570 L 87920.4 10096.4 L 89863.2 10096.4 L 89863.2 14570 L 96842.4 14570 L 96841.2 14570 Z M 84553.2 19140.8 Q 82956 23735.6 81210 26021.6 L 79539.6 25037.6 Q 81627.6 22653.2 82905.6 18452 L 84552 19139.6 L 84553.2 19140.8 Z M 99078 18256.4 Q 101092.8 22484 101856 25826 L 100036.8 26464.4 Q 99471.6 23268.8 97431.6 18820.4 L 99078 18255.2 L 99078 18256.4 Z M 106695.6 18968 L 104952 18968 L 104952 14126 L 109006.8 14126 Q 108344.4 12725.6 106893.6 11006 L 108418.8 10292 Q 110113.2 12234.8 110752.8 13635.2 L 109818 14126 L 115200 14126 Q 114609.6 12332 113356.8 10464.8 L 114930 9874.4 Q 116452.8 11987.6 116919.6 13610 L 115666.8 14124.8 L 119673.6 14124.8 Q 121171.2 12257.6 122155.2 10217.6 L 123998.4 10857.2 Q 122842.8 12576.8 121614 14123.6 L 125620.8 14123.6 L 125620.8 18965.6 L 123825.6 18965.6 L 123825.6 15772.4 L 106695.6 15772.4 L 106695.6 18965.6 L 106695.6 18968 Z M 126062.4 25554.8 L 116060.4 25554.8 L 116060.4 30249.2 Q 116060.4 31772 114879.6 32140.4 Q 113920.8 32460.8 110358 32460.8 Q 110210.4 31870.4 109596 30690.8 Q 112668 30814.4 113602.8 30714.8 Q 114241.2 30690.8 114241.2 30224 L 114241.2 25554.8 L 104460 25554.8 L 104460 23859.2 L 114241.2 23859.2 L 114241.2 22089.2 Q 116354.4 21327.2 118491.6 19901.6 L 108564 19901.6 L 108564 18279.2 L 120582 18279.2 L 120926.4 18182 L 122131.2 19090.4 Q 119845.2 21179.6 116061.6 22875.2 L 116061.6 23858 L 126063.6 23858 L 126063.6 25553.6 L 126062.4 25554.8 Z M 140390.4 19017.2 Q 139210.8 16313.6 136704 13168.4 L 138253.2 12358.4 Q 140858.4 15478.4 142038 18059.6 L 140391.6 19018.4 L 140390.4 19017.2 Z M 139137.6 23883.2 Q 139234.8 24522.8 139603.2 25604 Q 131862 29314.4 131026.8 30052.4 Q 130780.8 29388.8 130018.8 28553.6 Q 131493.6 27718.4 131493.6 26340.8 L 131493.6 11964.8 L 133434 11964.8 L 133434 26537.6 L 139136.4 23883.2 L 139137.6 23883.2 Z M 149557.2 32436.8 Q 148010.4 29954 144594 26588 Q 142233.6 30446 137391.6 32658.8 Q 136850.4 31823.6 136039.2 31085.6 Q 141618 28872.8 143829.6 23957.6 Q 145698 19829.6 146164.8 11031.2 L 148081.2 11130.8 Q 147514.8 20494.4 145450.8 24966.8 Q 149383.2 28726.4 151126.8 31257.2 L 149553.6 32438 L 149557.2 32436.8 Z M 166539.6 22630.4 Q 170275.2 27642.8 175731.6 29979.2 Q 174944.4 30714.8 174453.6 31526 Q 169218 28920.8 165286.8 23588 L 165286.8 32483.6 L 163394.4 32483.6 L 163394.4 23637.2 Q 159610.8 28797.2 154302 31427.6 Q 153760.8 30616.4 153022.8 29928.8 Q 158479.2 27568.4 162165.6 22629.2 L 153540 22629.2 L 153540 20883.2 L 163394.4 20883.2 L 163394.4 14764.4 L 154695.6 14764.4 L 154695.6 13018.4 L 163394.4 13018.4 L 163394.4 10070 L 165286.8 10070 L 165286.8 13018.4 L 174182.4 13018.4 L 174182.4 14764.4 L 165286.8 14764.4 L 165286.8 20883.2 L 175214.4 20883.2 L 175214.4 22629.2 L 166539.6 22629.2 L 166539.6 22630.4 Z M 158281.2 15330.8 Q 160075.2 17936 160616.4 19926.8 L 158896.8 20590.4 Q 158331.6 18378.8 156685.2 15945.2 L 158282.4 15330.8 L 158281.2 15330.8 Z M 168135.6 20123.6 Q 169586.4 17838.8 170618.4 15233.6 L 172485.6 15822.8 Q 170815.2 19067.6 169659.6 20640.8 L 168134.4 20123.6 L 168135.6 20123.6 Z M 194678.4 30003.2 Q 196645.2 30003.2 197259.6 29094.8 Q 197824.8 28258.4 198094.8 25235.6 Q 198882 25776.8 199938 25973.6 Q 199569.6 29463.2 198634.8 30568.4 Q 197578.8 31797.2 194654.4 31797.2 L 185462.4 31797.2 Q 182463.6 31797.2 181407.6 31085.6 Q 180302.4 30323.6 180302.4 28086.8 L 180302.4 15798.8 L 182145.6 15798.8 L 182145.6 19829.6 L 194974.8 19829.6 L 194974.8 13391.6 L 179000.4 13391.6 L 179000.4 11596.4 L 196842 11596.4 L 196842 22852.4 L 194974.8 22852.4 L 194974.8 21623.6 L 182145.6 21623.6 L 182145.6 28112 Q 182145.6 29267.6 182760 29637.2 Q 183349.2 30005.6 185340 30005.6 L 194679.6 30005.6 L 194678.4 30003.2 Z M 214364.4 30027.2 Q 216231.6 30420.8 218935.2 30420.8 Q 221023.2 30494 224782.8 30396.8 Q 224292 31281.2 224120.4 32189.6 L 218859.6 32189.6 Q 214534.8 32189.6 212004 31206.8 Q 208932 30002 207212.4 26979.2 Q 205836 30689.6 203526 32556.8 Q 202911.6 31894.4 202173.6 31353.2 Q 205933.2 28452.8 206671.2 21179.6 L 208538.4 21424.4 Q 208317.6 22997.6 207900 24792.8 Q 209349.6 28233.2 212521.2 29486 L 212521.2 19731.2 L 202838.4 19731.2 L 202838.4 18009.2 L 212521.2 18009.2 L 212521.2 14643.2 L 204951.6 14643.2 L 204951.6 12947.6 L 212521.2 12947.6 L 212521.2 10096.4 L 214364.4 10096.4 L 214364.4 12947.6 L 222326.4 12947.6 L 222326.4 14643.2 L 214364.4 14643.2 L 214364.4 18009.2 L 224145.6 18009.2 L 224145.6 19731.2 L 214364.4 19731.2 L 214364.4 23565.2 L 222523.2 23565.2 L 222523.2 25235.6 L 214364.4 25235.6 L 214364.4 30027.2 Z M 243462 16192.4 L 234025.2 16192.4 L 234025.2 14446.4 L 243462 14446.4 L 243462 10145.6 L 245280 10145.6 L 245280 14446.4 L 248672.4 14446.4 L 248672.4 16192.4 L 245280 16192.4 L 245280 25899.2 Q 245280 27569.6 244100.4 27939.2 Q 243117.6 28283.6 239455.2 28283.6 Q 239331.6 27423.2 238816.8 26440.4 Q 240586.8 26489.6 242798.4 26489.6 Q 243462 26464.4 243462 25899.2 L 243462 16192.4 Z M 236630.4 18132.8 Q 239259.6 21352.4 240144 22925.6 L 238597.2 23860.4 Q 237368.4 21575.6 235180.8 18921.2 L 236630.4 18134 L 236630.4 18132.8 Z M 231445.2 15848 Q 230313.6 13931.6 227832 11645.6 L 229232.4 10710.8 Q 231862.8 13120.4 232944 14790.8 L 231445.2 15848 Z M 232280.4 27448.4 Q 232453.2 27545.6 233042.4 27987.2 Q 233632.8 28406 234099.6 28700 Q 235990.8 29879.6 240488.4 29879.6 Q 244888.8 29879.6 249410.4 29412.8 Q 248893.2 30470 248845.2 31378.4 Q 245355.6 31624.4 240440.4 31624.4 Q 235795.2 31624.4 233682 30272 Q 231396 28822.4 231322.8 28822.4 Q 230414.4 28822.4 228078 31942.4 L 226801.2 30222.8 Q 228938.4 27912.8 230487.6 27323.6 L 230487.6 20933.6 L 227119.2 20933.6 L 227119.2 19214 L 232280.4 19214 L 232280.4 27447.2 L 232280.4 27448.4 Z M 251449.2 29291.6 Q 259706.4 22066.4 259706.4 17666 Q 259706.4 16044.8 258895.2 15110 Q 258010.8 14102 256388.4 14102 Q 254397.6 14102 252651.6 16191.2 L 251349.6 14913.2 Q 253807.2 12258.8 256658.4 12258.8 Q 259066.8 12258.8 260492.4 13708.4 Q 261894 15159.2 261894 17591.6 Q 261894 22162.4 254841.6 28847.6 Q 257029.2 28676 257791.2 28676 L 262779.6 28676 L 262779.6 30616.4 L 251450.4 30616.4 L 251450.4 29290.4 L 251449.2 29291.6 Z M 266663.6 28601.6 Q 265140.8 26144 265140.8 21549.2 Q 265140.8 16954.4 266663.6 14546 Q 268113.2 12260 270767.6 12260 Q 273398 12260 274847.6 14570 Q 276370.4 16978.4 276370.4 21549.2 Q 276370.4 26144 274847.6 28601.6 Q 273398 30938 270767.6 30938 Q 268138.4 30938 266663.6 28601.6  Z M 274184 21549.2 Q 274184 14079.2 270767.6 14079.2 Q 267327.2 14079.2 267327.2 21549.2 Q 267327.2 29142.8 270767.6 29142.8 Q 274184 29142.8 274184 21549.2  Z M 288833.2 17273.6 L 290700.4 17273.6 L 290700.4 32484.8 L 288833.2 32484.8 L 288833.2 17273.6 Z M 291538 10809.2 Q 290971.6 11768 290874.4 11891.6 Q 294905.2 16683.2 301220.8 19755.2 Q 300361.6 20393.6 299894.8 21377.6 Q 293971.6 18305.6 289818.4 13317.2 Q 285838 18428 279817.6 21352.4 Q 279276.4 20393.6 278465.2 19706 Q 286132 16389.2 289942 10048.4 L 291540.4 10810.4 L 291538 10809.2 Z M 318914.8 29954 L 318914.8 27545.6 L 309894.4 27545.6 L 309894.4 29954 L 318914.8 29954 Z M 318914.8 23883.2 L 309894.4 23883.2 L 309894.4 26120 L 318914.8 26120 L 318914.8 23883.2 Z M 311419.6 20418.8 Q 310732 21450.8 309920.8 22335.2 L 318989.2 22335.2 Q 318325.6 21573.2 317563.6 20417.6 L 311419.6 20417.6 L 311419.6 20418.8 Z M 319553.2 20418.8 Q 322010.8 23638.4 325721.2 25088 Q 324935.2 25751.6 324444.4 26586.8 Q 322501.6 25652 320831.2 24202.4 L 320831.2 32386.4 L 318914.8 32386.4 L 318914.8 31502 L 309894.4 31502 L 309894.4 32484.8 L 308027.2 32484.8 L 308027.2 24227.6 Q 306380.8 25653.2 304316.8 26734.4 Q 303826 25775.6 303062.8 25284.8 Q 306652 23514.8 309158.8 20418.8 L 303481.6 20418.8 L 303481.6 18820.4 L 310264 18820.4 Q 310681.6 18206 311320 16928 L 305593.6 16928 L 305593.6 15430.4 L 311959.6 15430.4 Q 312304 14495.6 312524.8 13635.2 L 304783.6 13635.2 L 304783.6 12062 L 312892 12062 Q 313040.8 11447.6 313188.4 10071.2 L 315079.6 10244 Q 314958.4 11152.4 314785.6 12060.8 L 323904.4 12060.8 L 323904.4 13634 L 314466.4 13634 Q 314098 14912 313901.2 15429.2 L 323166.4 15429.2 L 323166.4 16926.8 L 313336 16926.8 Q 312942.4 17837.6 312401.2 18820.4 L 325254.4 18820.4 L 325254.4 20418.8 L 319553.2 20418.8 Z M 349682.8 15921.2 Q 347912.8 20418.8 346856.8 22359.2 L 345334 21842 Q 346907.2 18845.6 347890 15429.2 L 349684 15920 L 349682.8 15921.2 Z M 337198 21746 Q 338623.6 19829.6 339041.2 15455.6 L 340614.4 15700.4 Q 340296.4 20100.8 338747.2 22434.8 L 337198 21747.2 L 337198 21746 Z M 335872 24497.6 Q 335306.8 23342 333954.4 21278 L 333954.4 32510 L 332160.4 32510 L 332160.4 21671.6 Q 330341.2 26021.6 328350.4 28306.4 Q 328080.4 27520.4 327392.8 26561.6 Q 330120.4 23637.2 331840 18746 L 327932.8 18746 L 327932.8 17050.4 L 332160.4 17050.4 L 332160.4 13046 Q 330709.6 13340 328572.4 13660.4 Q 328400.8 12972.8 328007.2 12258.8 Q 333437.2 11350.4 335944 10293.2 L 337196.8 11669.6 Q 335846.8 12210.8 333954.4 12677.6 L 333954.4 17051.6 L 337591.6 17051.6 L 337591.6 18747.2 L 333954.4 18747.2 L 333954.4 19288.4 Q 335354.8 20811.2 336977.2 23048 L 335872 24497.6 Z M 344350 10072.4 Q 344350 16119.2 344080 19191.2 Q 345432.4 28358 350420.8 31012.4 Q 349682.8 31650.8 349265.2 32462 Q 345088 30028.4 343417.6 23639.6 Q 341892.4 29758.4 337297.6 32536.4 Q 336830.8 31750.4 336044.8 31233.2 Q 340541.2 28652 341843.2 22754 Q 342606.4 19337.6 342630.4 10072.4 L 344350 10072.4 Z M 354550 31943.6 Q 357473.2 30740 357646 28331.6 Q 357498.4 28355.6 357228.4 28355.6 Q 356441.2 28355.6 355926.4 27912.8 Q 355385.2 27447.2 355385.2 26610.8 Q 355385.2 25775.6 355950.4 25284.8 Q 356467.6 24842 357253.6 24842 Q 359342.8 24842 359342.8 27669.2 Q 359342.8 31749.2 355091.2 33248 L 354550 31943.6 Z M 386990.8 26586.8 Q 385712.8 23956.4 383304.4 20736.8 Q 382050.4 28379.6 378660.4 32459.6 Q 378193.6 31968.8 376891.6 31206.8 Q 381610 26218.4 382297.6 10636.4 L 384264.4 10709.6 Q 384043.6 15035.6 383650 18352.4 Q 386795.2 22088 388368.4 25283.6 L 386992 26585.6 L 386990.8 26586.8 Z M 393625.6 10686.8 Q 393305.2 15528.8 392790.4 18724.4 Q 394657.6 27449.6 399252.4 30569.6 Q 398442.4 31331.6 397925.2 32192 Q 394091.2 29217.2 392075.2 22410.8 Q 390454 28899.2 386692 32388.8 Q 386153.2 31847.6 384924.4 31109.6 Q 388340.8 28258.4 389914 22828.4 Q 391216 18428 391657.6 10589.6 L 393624.4 10686.8 L 393625.6 10686.8 Z M 414391.6 25923.2 Q 416972.8 29906 423854.8 30741.2 Q 423092.8 31600.4 422748.4 32436.8 Q 415302.4 31208 412574.8 26120 Q 411616 28626.8 409403.2 30076.4 Q 406994.8 31649.6 402424 32436.8 Q 402178 31649.6 401466.4 30790.4 Q 408962.8 29709.2 410633.2 25923.2 L 402474.4 25923.2 L 402474.4 24276.8 L 411173.2 24276.8 Q 411370 23490.8 411493.6 22383.2 L 401860 22383.2 L 401860 20762 L 411714.4 20762 L 411714.4 18696.8 L 404071.6 18696.8 L 404071.6 17099.6 L 411714.4 17099.6 L 411714.4 15108.8 L 402866.8 15108.8 L 402866.8 13462.4 L 407905.6 13462.4 Q 407267.2 12086 406013.2 10611.2 L 407586.4 9972.8 Q 409037.2 11446.4 409748.8 13068.8 L 408864.4 13462.4 L 415328.8 13462.4 Q 416484.4 11864 417443.2 9972.8 L 419310.4 10538 Q 418548.4 11840 417343.6 13462.4 L 422504.8 13462.4 L 422504.8 15108.8 L 413534.8 15108.8 L 413534.8 17099.6 L 421398.4 17099.6 L 421398.4 18696.8 L 413534.8 18696.8 L 413534.8 20762 L 423635.2 20762 L 423635.2 22383.2 L 413386 22383.2 Q 413264.8 23416.4 413092 24275.6 L 423340 24275.6 L 423340 25922 L 414394 25922 L 414391.6 25923.2 Z M 21315.2 51736 Q 19889.6 50213.2 16941.2 48076 L 18269.6 46970.8 Q 21168.8 48961.6 22691.6 50435.2 L 21315.2 51737.2 L 21315.2 51736 Z M 16106 54490 Q 19940 60830.8 25593.2 64368.4 Q 24782 64982.8 24143.6 65941.6 Q 19376 62525.2 15369.2 56357.2 L 15369.2 68965.6 L 13402.4 68965.6 L 13402.4 57095.2 Q 9618.8 63166 4383.2 66138.4 Q 3768.8 65230 3030.8 64591.6 Q 9298.4 61370.8 12887.6 54491.2 L 3768.8 54491.2 L 3768.8 52696 L 13402.4 52696 L 13402.4 46552 L 15369.2 46552 L 15369.2 52696 L 24758 52696 L 24758 54491.2 L 16107.2 54491.2 L 16106 54490 Z M 46702.4 49327.6 L 39699.2 49327.6 L 39699.2 47681.2 L 48472.4 47681.2 L 48472.4 56036.8 L 41714 56036.8 L 41714 61394.8 Q 41714 61936 41960 62107.6 Q 42180.8 62255.2 43040 62255.2 L 46826 62255.2 Q 47612 62255.2 47834 61666 Q 48054.8 61075.6 48128 58838.8 Q 48766.4 59356 49774.4 59552.8 Q 49577.6 62182 49036.4 63042.4 Q 48495.2 63926.8 46972.4 63926.8 L 42868.4 63926.8 Q 41172.8 63926.8 40558.4 63409.6 Q 39944 62894.8 39944 61396 L 39944 54416.8 L 46702.4 54416.8 L 46702.4 49328.8 L 46702.4 49327.6 Z M 34734.8 65867.2 Q 36627.2 66554.8 40238 66554.8 Q 46702.4 66678.4 50364.8 66506.8 Q 49847.6 67342 49626.8 68324.8 L 40263.2 68324.8 Q 36183.2 68324.8 34046 67489.6 Q 31661.6 66554.8 30359.6 64172.8 Q 29892.8 67292.8 28884.8 69161.2 Q 28122.8 68644 27360.8 68275.6 Q 29007.2 65448.4 29130.8 57560.8 L 30850.4 57682 Q 30801.2 59477.2 30704 61099.6 Q 31490 63678.4 33039.2 64932.4 L 33039.2 55643.2 L 27903.2 55643.2 L 27903.2 53995.6 L 32596.4 53995.6 L 32596.4 50899.6 L 28517.6 50899.6 L 28517.6 49277.2 L 32596.4 49277.2 L 32596.4 46549.6 L 34342.4 46549.6 L 34342.4 49277.2 L 38298.8 49277.2 L 38298.8 50899.6 L 34342.4 50899.6 L 34342.4 53995.6 L 38937.2 53995.6 L 38937.2 55643.2 L 34736 55643.2 L 34736 59280.4 L 38692.4 59280.4 L 38692.4 60902.8 L 34736 60902.8 L 34736 65866 L 34734.8 65867.2 Z M 64544 55718.8 L 64544 63385.6 Q 68526.8 61001.2 70517.6 56994.4 L 72237.2 57805.6 Q 67739.6 66653.2 53484.8 68816.8 Q 53140.4 67783.6 52551.2 67121.2 Q 59948 66113.2 64421.6 63458.8 L 62651.6 63458.8 L 62651.6 55717.6 L 52748 55717.6 L 52748 53971.6 L 56434.4 53971.6 L 56434.4 48442 L 58252.4 48442 L 58252.4 53971.6 L 62823.2 53971.6 L 62823.2 46525.6 L 64715.6 46525.6 L 64715.6 49130.8 L 71891.6 49130.8 L 71891.6 50850.4 L 64715.6 50850.4 L 64715.6 53971.6 L 74128.4 53971.6 L 74128.4 55717.6 L 64542.8 55717.6 L 64544 55718.8 Z M 60146 57365.2 Q 58106 60854.8 54837.2 63436 Q 54099.2 62501.2 53460.8 62059.6 Q 56606 59872 58400 56774.8 L 60146 57365.2 Z M 79094 68398 Q 82017.2 67194.4 82190 64786 Q 82042.4 64810 81772.4 64810 Q 80985.2 64810 80470.4 64367.2 Q 79929.2 63901.6 79929.2 63065.2 Q 79929.2 62230 80494.4 61739.2 Q 81011.6 61296.4 81797.6 61296.4 Q 83886.8 61296.4 83886.8 64123.6 Q 83886.8 68203.6 79635.2 69702.4 L 79094 68398 Z M 121068.8 57462.4 Q 120430.4 56627.2 119495.6 55692.4 Q 104873.6 56406.4 104014.4 56700.4 Q 103768.4 55644.4 103424 54881.2 Q 104038.4 54784 105119.6 53752 Q 106863.2 52277.2 108806 49598.8 L 102317.6 49598.8 L 102317.6 47879.2 L 122789.6 47879.2 L 122789.6 49598.8 L 111189.2 49598.8 Q 108879.2 52621.6 106618.4 54661.6 L 117971.6 54194.8 Q 116252 52648 114923.6 51616 L 116374.4 50681.2 Q 120626 53850.4 122616.8 56357.2 L 121067.6 57462.4 L 121068.8 57462.4 Z M 123575.6 66284.8 L 123575.6 68006.8 L 101777.6 68006.8 L 101777.6 66284.8 L 111681.2 66284.8 L 111681.2 61763.2 L 103914.8 61763.2 L 103914.8 60067.6 L 111681.2 60067.6 L 111681.2 56874.4 L 113524.4 56874.4 L 113524.4 60067.6 L 121511.6 60067.6 L 121511.6 61763.2 L 113524.4 61763.2 L 113524.4 66284.8 L 123575.6 66284.8 Z M 144539.6 58421.2 L 145941.2 59108.8 Q 143139.2 62944 138124.4 69038.8 L 136257.2 68178.4 Q 138665.6 65426.8 142648.4 60364 L 128934.8 60364 L 128934.8 58544.8 L 144221.6 58544.8 L 144539.6 58421.2 Z M 139182.8 58052.8 Q 137757.2 56503.6 134537.6 54022 L 135766.4 52916.8 Q 139156.4 55349.2 140484.8 56774.8 L 139182.8 58052.8 Z M 138813.2 47190.4 L 138347.6 47878 Q 142402.4 52572.4 148546.4 55274.8 Q 147932 55741.6 147120.8 56897.2 Q 141640.4 54145.6 137290.4 49230.4 Q 133235.6 54072.4 127263.2 57044.8 Q 126624.8 56062 125862.8 55471.6 Q 133308.8 52055.2 137092.4 46354 L 138812 47189.2 L 138813.2 47190.4 Z M 167542.4 66457.6 Q 169509.2 66457.6 170123.6 65549.2 Q 170688.8 64712.8 170958.8 61690 Q 171746 62231.2 172802 62428 Q 172433.6 65917.6 171498.8 67022.8 Q 170442.8 68251.6 167518.4 68251.6 L 158326.4 68251.6 Q 155327.6 68251.6 154271.6 67540 Q 153166.4 66778 153166.4 64541.2 L 153166.4 52253.2 L 155009.6 52253.2 L 155009.6 56284 L 167838.8 56284 L 167838.8 49846 L 151864.4 49846 L 151864.4 48050.8 L 169706 48050.8 L 169706 59306.8 L 167838.8 59306.8 L 167838.8 58078 L 155009.6 58078 L 155009.6 64566.4 Q 155009.6 65722 155624 66091.6 Q 156213.2 66460 158204 66460 L 167543.6 66460 L 167542.4 66457.6 Z M 191627.6 46624 Q 194502.8 48074.8 196025.6 49427.2 L 194896.4 50680 Q 193323.2 49230.4 190545.2 47731.6 L 191626.4 46624 L 191627.6 46624 Z M 195878 54833.2 Q 194280.8 59648.8 191553.2 63138.4 Q 193002.8 66948.4 194846 66948.4 Q 195756.8 66948.4 196001.6 62402.8 Q 196739.6 63138.4 197574.8 63384.4 Q 197330 66505.6 196715.6 67634.8 Q 196101.2 68766.4 194699.6 68766.4 Q 191996 68766.4 190202 64735.6 Q 187965.2 67168 185139.2 68815.6 Q 184475.6 67904.8 183813.2 67363.6 Q 187106 65593.6 189464 62818 Q 188187.2 58787.2 187670 52470.4 L 179192 52470.4 L 179192 55666 L 185459.6 55666 L 185459.6 56452 Q 185286.8 63900.4 184672.4 64662.4 Q 184205.6 65276.8 183198.8 65374 Q 182214.8 65447.2 180274.4 65374 Q 180225.2 64415.2 179758.4 63653.2 Q 181184 63776.8 182363.6 63776.8 Q 182930 63776.8 183101.6 63506.8 Q 183544.4 63040 183665.6 57362.8 L 179193.2 57362.8 L 179193.2 57559.6 Q 179193.2 65399.2 176612 69133.6 Q 175924.4 68347.6 175089.2 67904.8 Q 177326 64588 177326 57533.2 L 177326 50677.6 L 187574 50677.6 Q 187474.4 49325.2 187425.2 46547.2 L 189317.6 46547.2 Q 189317.6 48907.6 189417.2 50677.6 L 197355.2 50677.6 L 197355.2 52471.6 L 189539.6 52471.6 Q 189933.2 57607.6 190892 61000 Q 192908 58051.6 194037.2 54365.2 L 195880.4 54832 L 195878 54833.2 Z M 205266.8 51614.8 Q 204504.8 49967.2 202709.6 47903.2 L 204282.8 47215.6 Q 206004.8 49108 206937.2 50803.6 L 205266.8 51614.8 Z M 220725.2 52399.6 L 220701.2 53358.4 Q 220184 66334 219028.4 67710.4 Q 218292.8 68570.8 216990.8 68668 Q 215638.4 68791.6 213107.6 68620 Q 213008 67636 212466.8 66727.6 Q 214089.2 66899.2 216276.8 66899.2 Q 216990.8 66899.2 217335.2 66530.8 Q 218318 65548 218784.8 54218.8 L 210354.8 54218.8 Q 209199.2 63508 201508.4 68620 Q 201017.6 67882 200082.8 67291.6 Q 207356 62549.2 208487.6 54217.6 L 200770.4 54217.6 L 200770.4 52398.4 L 208684.4 52398.4 Q 208781.6 51022 208781.6 49448.8 L 208781.6 46573.6 L 210600.8 46573.6 L 210600.8 49472.8 Q 210600.8 50849.2 210527.6 52398.4 L 220726.4 52398.4 L 220725.2 52399.6 Z M 214236.8 62771.2 Q 213228.8 60658 210920 57954.4 L 212418.8 57218.8 Q 214803.2 59824 215835.2 61888 L 214236.8 62772.4 L 214236.8 62771.2 Z M 246726.8 56503.6 L 246726.8 58494.4 L 224411.6 58494.4 L 224411.6 56503.6 L 246726.8 56503.6 Z M 259137.2 53728 L 261004.4 53728 L 261004.4 68939.2 L 259137.2 68939.2 L 259137.2 53728 Z M 261842 47263.6 Q 261275.6 48222.4 261178.4 48346 Q 265209.2 53137.6 271524.8 56209.6 Q 270665.6 56848 270198.8 57832 Q 264275.6 54760 260122.4 49771.6 Q 256142 54882.4 250121.6 57806.8 Q 249580.4 56848 248769.2 56160.4 Q 256436 52843.6 260246 46502.8 L 261844.4 47264.8 L 261842 47263.6 Z M 284426 50606.8 L 278478.8 50606.8 L 278478.8 52253.2 L 284426 52253.2 L 284426 50606.8 Z M 284426 53555.2 L 278478.8 53555.2 L 278478.8 55177.6 L 284426 55177.6 L 284426 53555.2 Z M 284426 56479.6 L 278478.8 56479.6 L 278478.8 58175.2 L 284426 58175.2 L 284426 56479.6 Z M 276684.8 52596.4 Q 275849.6 53480.8 274547.6 54586 Q 273981.2 53848 273245.6 53406.4 Q 276906.8 50628.4 278946.8 46475.2 L 280814 46819.6 Q 279881.6 48491.2 279414.8 49129.6 L 284993.6 49129.6 Q 284427.2 47876.8 283862 46918 L 285484.4 46427.2 Q 286492.4 47974 286884.8 49129.6 L 294086 49129.6 L 294086 50604.4 L 286196 50604.4 L 286196 52250.8 L 293102 52250.8 L 293102 53552.8 L 286196 53552.8 L 286196 55175.2 L 293176.4 55175.2 L 293176.4 56477.2 L 286196 56477.2 L 286196 58172.8 L 294897.2 58172.8 L 294897.2 59646.4 L 278480 59646.4 L 278480 60384.4 L 276686 60384.4 L 276686 52594 L 276684.8 52596.4 Z M 287202.8 63041.2 Q 290692.4 65695.6 296050.4 67021.6 Q 295460 67562.8 294894.8 68497.6 Q 289365.2 66875.2 285506 63655.6 L 285506 68939.2 L 283712 68939.2 L 283712 63679.6 Q 279928.4 66948.4 274398.8 68694.4 Q 273832.4 67735.6 273194 67194.4 Q 278526.8 65768.8 282089.6 63041.2 L 273784.4 63041.2 L 273784.4 61542.4 L 283712 61542.4 L 283712 59896 L 285506 59896 L 285506 61542.4 L 295582.4 61542.4 L 295582.4 63041.2 L 287201.6 63041.2 L 287202.8 63041.2 Z M 316179.2 66506.8 Q 317186 66506.8 317555.6 65867.2 Q 317924 65155.6 318023.6 62869.6 Q 318882.8 63362.8 319743.2 63510.4 Q 319521.2 66458.8 318735.2 67417.6 Q 318023.6 68302 316007.6 68302 L 305586.8 68302 Q 301188.8 68302 301188.8 65574.4 Q 301188.8 64272.4 302687.6 62870.8 Q 304924.4 60733.6 311706.8 56629.6 L 300820.4 56629.6 L 300820.4 54910 L 314802.8 54910 L 314802.8 54934 L 315172.4 54836.8 L 316474.4 55795.6 Q 316180.4 56016.4 316056.8 56065.6 Q 303030.8 63732.4 303030.8 65428 Q 303030.8 66509.2 305439.2 66509.2 L 316180.4 66509.2 L 316179.2 66506.8 Z M 319766 49157.2 L 319766 50900.8 L 314360 50900.8 L 314360 53137.6 L 312516.8 53137.6 L 312516.8 50900.8 L 305930 50900.8 L 305930 53137.6 L 304086.8 53137.6 L 304086.8 50900.8 L 298436 50900.8 L 298436 49157.2 L 304086.8 49157.2 L 304086.8 46502.8 L 305930 46502.8 L 305930 49157.2 L 312516.8 49157.2 L 312516.8 46502.8 L 314360 46502.8 L 314360 49157.2 L 319766 49157.2 Z M 340803.2 51736 Q 339377.6 50213.2 336429.2 48076 L 337757.6 46970.8 Q 340656.8 48961.6 342179.6 50435.2 L 340803.2 51737.2 L 340803.2 51736 Z M 335594 54490 Q 339428 60830.8 345081.2 64368.4 Q 344270 64982.8 343631.6 65941.6 Q 338864 62525.2 334857.2 56357.2 L 334857.2 68965.6 L 332890.4 68965.6 L 332890.4 57095.2 Q 329106.8 63166 323871.2 66138.4 Q 323256.8 65230 322518.8 64591.6 Q 328786.4 61370.8 332375.6 54491.2 L 323256.8 54491.2 L 323256.8 52696 L 332890.4 52696 L 332890.4 46552 L 334857.2 46552 L 334857.2 52696 L 344246 52696 L 344246 54491.2 L 335595.2 54491.2 L 335594 54490 Z M 354026 53728 L 358302.8 53728 L 358302.8 55422.4 L 354026 55422.4 L 354026 56062 Q 355869.2 58002.4 358130 60804.4 L 357024.8 62303.2 Q 356310.8 61123.6 354026 58148.8 L 354026 68890 L 352232 68890 L 352232 58075.6 Q 350240 62819.2 347831.6 65400.4 Q 347513.6 64637.2 346823.6 63728.8 Q 349871.6 60680.8 351764 55421.2 L 347438 55421.2 L 347438 53726.8 L 352232 53726.8 L 352232 49646.8 Q 350339.6 49940.8 348176 50234.8 Q 348004.4 49424.8 347660 48785.2 Q 353925.2 47926 356900 46745.2 L 358128.8 48170.8 Q 356433.2 48785.2 354024.8 49302.4 L 354024.8 53726.8 L 354026 53728 Z M 366411.2 64073.2 L 366411.2 50532.4 L 360930.8 50532.4 L 360930.8 64073.2 L 366411.2 64073.2 Z M 368230.4 48787.6 L 368230.4 67686.4 L 366411.2 67686.4 L 366411.2 65843.2 L 360930.8 65843.2 L 360930.8 67859.2 L 359136.8 67859.2 L 359136.8 48787.6 L 368229.2 48787.6 L 368230.4 48787.6 Z M 382902.8 50777.2 Q 382412 49081.6 381083.6 46920.4 L 382976 46379.2 Q 384377.6 48566.8 384892.4 50140 L 382901.6 50778.4 L 382902.8 50777.2 Z M 377692.4 52620.4 Q 379683.2 57487.6 383049.2 60853.6 Q 386268.8 57608.8 388112 52620.4 L 377692.4 52620.4 Z M 390176 52620.4 Q 388112 58322.8 384425.6 62132.8 Q 388678.4 65719.6 394355.6 67121.2 Q 393741.2 67710.4 393101.6 68818 Q 387130.4 67122.4 383026.4 63436 Q 379043.6 66925.6 372802.4 68916.4 Q 372335.6 67957.6 371672 67219.6 Q 377718.8 65500 381699.2 62134 Q 377988.8 58324 375801.2 52621.6 L 372015.2 52621.6 L 372015.2 50827.6 L 394036.4 50827.6 L 394036.4 52621.6 L 390177.2 52621.6 L 390176 52620.4 Z M 404800.4 47090.8 Q 403816.4 49500.4 402317.6 51932.8 L 402317.6 68964.4 L 400426.4 68964.4 L 400426.4 54784 Q 398901.2 56800 397599.2 58003.6 Q 396960.8 56848 396395.6 56258.8 Q 400647.2 52448.8 403005.2 46525.6 L 404800.4 47090.8 Z M 415342.4 66703.6 Q 416277.2 66703.6 416595.2 65646.4 Q 416865.2 64738 417014 61469.2 Q 417922.4 62156.8 418806.8 62353.6 Q 418610 65916.4 417995.6 67145.2 Q 417308 68497.6 415440.8 68497.6 L 411114.8 68497.6 Q 409271.6 68497.6 408633.2 67783.6 Q 407969.6 67072 407969.6 65032 L 407969.6 60804.4 Q 406274 61909.6 404554.4 62770 Q 403890.8 61934.8 403203.2 61393.6 Q 405537.2 60262 407970.8 58591.6 L 407970.8 46967.2 L 409887.2 46967.2 L 409887.2 57142 Q 414064.4 53824 416474 50064.4 L 418268 51244 Q 415072.4 55717.6 409887.2 59477.2 L 409887.2 65080 Q 409887.2 66088 410157.2 66406 Q 410427.2 66702.4 411311.6 66702.4 L 415342.4 66702.4 L 415342.4 66703.6 Z M 8658.8 88069.2 Q 7896.8 86421.6 6101.6 84357.6 L 7674.8 83670 Q 9396.8 85562.4 10329.2 87258 L 8658.8 88069.2 Z M 24117.2 88854 L 24093.2 89812.8 Q 23576 102788.4 22420.4 104164.8 Q 21684.8 105025.2 20382.8 105122.4 Q 19030.4 105246 16499.6 105074.4 Q 16400 104090.4 15858.8 103182 Q 17481.2 103353.6 19668.8 103353.6 Q 20382.8 103353.6 20727.2 102985.2 Q 21710 102002.4 22176.8 90673.2 L 13746.8 90673.2 Q 12591.2 99962.4 4900.4 105074.4 Q 4409.6 104336.4 3474.8 103746 Q 10748 99003.6 11879.6 90672 L 4162.4 90672 L 4162.4 88852.8 L 12076.4 88852.8 Q 12173.6 87476.4 12173.6 85903.2 L 12173.6 83028 L 13992.8 83028 L 13992.8 85927.2 Q 13992.8 87303.6 13919.6 88852.8 L 24118.4 88852.8 L 24117.2 88854 Z M 17628.8 99225.6 Q 16620.8 97112.4 14312 94408.8 L 15810.8 93673.2 Q 18195.2 96278.4 19227.2 98342.4 L 17628.8 99226.8 L 17628.8 99225.6 Z M 50118.8 92958 L 50118.8 94948.8 L 27803.6 94948.8 L 27803.6 92958 L 50118.8 92958 Z M 59138 83571.6 Q 58302.8 86077.2 56950.4 88756.8 L 56950.4 105369.6 L 55206.8 105369.6 L 55206.8 91779.6 Q 54222.8 93302.4 53117.6 94604.4 Q 52602.8 93523.2 52061.6 92811.6 Q 55451.6 89076 57442.4 83055.6 L 59138 83572.8 L 59138 83571.6 Z M 68403.2 89665.2 Q 70860.8 96620.4 75038 99986.4 Q 74226.8 100576.8 73661.6 101436 Q 69729.2 97849.2 67223.6 90673.2 L 67223.6 99201.6 L 71180 99201.6 L 71180 100872 L 67223.6 100872 L 67223.6 105272.4 L 65453.6 105272.4 L 65453.6 100872 L 61446.8 100872 L 61446.8 99201.6 L 65453.6 99201.6 L 65453.6 90844.8 Q 62823.2 97923.6 58940 101486.4 Q 58277.6 100627.2 57614 100110 Q 61767.2 96792 64348.4 89665.2 L 58572.8 89665.2 L 58572.8 87895.2 L 65454.8 87895.2 L 65454.8 83053.2 L 67224.8 83053.2 L 67224.8 87895.2 L 74548.4 87895.2 L 74548.4 89665.2 L 68404.4 89665.2 L 68403.2 89665.2 Z M 84819.2 88534.8 L 79659.2 88534.8 L 79659.2 93672 L 84819.2 93672 L 84819.2 88534.8 Z M 84819.2 101192.4 L 84819.2 95293.2 L 79659.2 95293.2 L 79659.2 101192.4 L 84819.2 101192.4 Z M 83690 83275.2 Q 82608.8 86372.4 82412 86887.2 L 86492 86887.2 L 86492 102837.6 L 79660.4 102837.6 L 79660.4 104778 L 77988.8 104778 L 77988.8 86887.2 L 80742.8 86887.2 Q 81480.8 84502.8 81725.6 82905.6 L 83692.4 83274 L 83690 83275.2 Z M 98508.8 87748.8 Q 97991.6 102494.4 96812 103944 Q 96124.4 104804.4 94871.6 104928 Q 93863.6 105049.2 91233.2 104901.6 Q 91136 103893.6 90618.8 103107.6 Q 92217.2 103255.2 94257.2 103255.2 Q 94968.8 103255.2 95262.8 102886.8 Q 96320 101755.2 96761.6 88508.4 L 90520.4 88508.4 Q 89388.8 91236 88209.2 92809.2 Q 87888.8 92515.2 86709.2 91777.2 Q 89117.6 88605.6 90470 82855.2 L 92216 83272.8 Q 91749.2 85189.2 91158.8 86811.6 L 98507.6 86811.6 L 98507.6 87746.4 L 98508.8 87748.8 Z M 93076.4 98832 Q 91947.2 96547.2 89342 93154.8 L 90767.6 92319.6 Q 93470 95760 94625.6 97873.2 L 93076.4 98832 Z M 112098.8 90082.8 L 110355.2 90082.8 L 110355.2 86002.8 L 116350.4 86002.8 Q 115809.2 84577.2 115121.6 83324.4 L 116867.6 82882.8 Q 117923.6 84774 118366.4 86002.8 L 123354.8 86002.8 L 123354.8 90082.8 L 121560.8 90082.8 L 121560.8 87601.2 L 112098.8 87601.2 L 112098.8 90082.8 Z M 112419.2 91950 L 112419.2 90352.8 L 121265.6 90352.8 L 121265.6 91950 L 112419.2 91950 Z M 109274 95785.2 Q 109174.4 96792 109247.6 97309.2 Q 102858.8 98611.2 102120.8 99004.8 Q 101973.2 98317.2 101579.6 97432.8 Q 102170 97309.2 103398.8 95810.4 Q 104430.8 94654.8 105929.6 92418 Q 102561.2 92860.8 101946.8 93154.8 Q 101825.6 92540.4 101382.8 91484.4 Q 101873.6 91384.8 102710 89984.4 Q 104504 87403.2 105929.6 83029.2 L 107526.8 83791.2 Q 105856.4 87992.4 103692.8 91213.2 L 106936.4 90892.8 Q 108092 88902 108461.6 88214.4 L 109862 89073.6 Q 107504 93226.8 104652.8 96643.2 L 109274 95784 L 109274 95785.2 Z M 109568 101904 L 105513.2 102961.2 Q 103079.6 103575.6 101900 103893.6 L 101530.4 102150 Q 103029.2 101880 109370 100381.2 L 109566.8 101904 L 109568 101904 Z M 114162.8 98562 Q 112492.4 101634 110279.6 103968 Q 109517.6 103280.4 108830 102888 Q 110870 100945.2 112492.4 98020.8 L 114162.8 98562 Z M 117776 96423.6 L 117776 103378.8 Q 117776 104680.8 116940.8 105049.2 Q 116277.2 105345.6 113746.4 105296.4 Q 113622.8 104534.4 113230.4 103699.2 Q 115121.6 103747.2 115588.4 103699.2 Q 116006 103699.2 116006 103353.6 L 116006 96423.6 L 110009.6 96423.6 L 110009.6 94801.2 L 123478.4 94801.2 L 123478.4 96423.6 L 117776 96423.6 Z M 120947.6 97996.8 Q 123159.2 100945.2 124067.6 103009.2 L 122421.2 103796.4 Q 121562 101707.2 119422.4 98660.4 L 120947.6 97996.8 Z M 131637.2 97209.6 L 131637.2 102297.6 L 143040.8 102297.6 L 143040.8 97209.6 L 131637.2 97209.6 Z M 129794 95588.4 L 144933.2 95588.4 L 144933.2 105271.2 L 143040.8 105271.2 L 143040.8 103993.2 L 131637.2 103993.2 L 131637.2 105369.6 L 129794 105369.6 L 129794 95588.4 Z M 143336 90944.4 Q 139967.6 88879.2 137362.4 86103.6 Q 135077.6 88758 131735.6 90945.6 L 143336 90945.6 L 143336 90944.4 Z M 139206.8 83692.8 L 138420.8 84800.4 Q 142204.4 88804.8 148618.4 91508.4 Q 147832.4 92172 147365.6 93154.8 Q 144858.8 91926 143384 90967.2 L 143384 92638.8 L 131072 92638.8 L 131072 91384.8 Q 128982.8 92638.8 127312.4 93374.4 Q 126598.4 92269.2 125984 91778.4 Q 133823.6 88657.2 137609.6 82906.8 L 139206.8 83692.8 Z M 150266 93892.8 Q 151200.8 91606.8 151545.2 87602.4 L 152921.6 87799.2 Q 152700.8 91582.8 151692.8 94384.8 L 150267.2 93894 L 150266 93892.8 Z M 153804.8 82957.2 L 155624 82957.2 L 155624 105393.6 L 153804.8 105393.6 L 153804.8 82957.2 Z M 157073.6 86888.4 Q 158351.6 89198.4 158866.4 90992.4 L 157490 91656 Q 157048.4 89960.4 155794.4 87478.8 L 157072.4 86888.4 L 157073.6 86888.4 Z M 172727.6 102814.8 L 172727.6 104558.4 L 157737.2 104558.4 L 157737.2 102814.8 L 164765.6 102814.8 L 164765.6 96670.8 L 159554 96670.8 L 159554 94975.2 L 164765.6 94975.2 L 164765.6 89887.2 L 161176.4 89887.2 Q 160414.4 92173.2 159455.6 93696 Q 158938.4 93351.6 157833.2 92860.8 Q 159824 89862 160808 84086.4 L 162578 84382.8 Q 162184.4 86421.6 161693.6 88143.6 L 164765.6 88143.6 L 164765.6 83055.6 L 166583.6 83055.6 L 166583.6 88143.6 L 172138.4 88143.6 L 172138.4 89887.2 L 166583.6 89887.2 L 166583.6 94975.2 L 171598.4 94975.2 L 171598.4 96670.8 L 166583.6 96670.8 L 166583.6 102814.8 L 172727.6 102814.8 Z M 196812.8 87404.4 L 183393.2 87404.4 L 183393.2 85758 L 189365.6 85758 Q 189144.8 84553.2 188678 83103.6 L 190300.4 82857.6 Q 190865.6 84332.4 191159.6 85758 L 196812.8 85758 L 196812.8 87404.4 Z M 186417.2 92294.4 Q 186120.8 90378 185064.8 88093.2 L 186563.6 87675.6 Q 187668.8 89887.2 187962.8 91803.6 L 186416 92294.4 L 186417.2 92294.4 Z M 179806.4 98611.2 L 182657.6 97479.6 L 183002 99175.2 Q 181182.8 99937.2 175629.2 102150 L 175062.8 100306.8 Q 177054.8 99619.2 178160 99201.6 L 178160 90648 L 175235.6 90648 L 175235.6 88928.4 L 178160 88928.4 L 178160 83251.2 L 179806.4 83251.2 L 179806.4 88928.4 L 182584.4 88928.4 L 182584.4 90648 L 179806.4 90648 L 179806.4 98611.2 Z M 186270.8 98046 L 186270.8 102691.2 L 193864.4 102691.2 L 193864.4 98046 L 186270.8 98046 Z M 184598 96399.6 L 195608 96399.6 L 195608 105319.2 L 193864.4 105319.2 L 193864.4 104336.4 L 186270.8 104336.4 L 186270.8 105392.4 L 184599.2 105392.4 L 184599.2 96398.4 L 184598 96399.6 Z M 197574.8 92590.8 L 197574.8 94261.2 L 182484.8 94261.2 L 182484.8 92590.8 L 191627.6 92590.8 Q 192732.8 90009.6 193347.2 87576 L 195066.8 88018.8 Q 194108 90673.2 193272.8 92589.6 L 197573.6 92589.6 L 197574.8 92590.8 Z M 205290.8 88756.8 Q 203964.8 87085.2 201113.6 84727.2 L 202245.2 83522.4 Q 205168.4 85807.2 206520.8 87380.4 L 205292 88758 L 205290.8 88756.8 Z M 207257.6 99004.8 Q 207651.2 100036.8 207995.6 100503.6 Q 203398.4 104337.6 203006 104928 Q 202563.2 104116.8 201998 103623.6 Q 203177.6 102640.8 203177.6 101264.4 L 203177.6 92416.8 L 199737.2 92416.8 L 199737.2 90646.8 L 204946.4 90646.8 L 204946.4 100870.8 L 207256.4 99003.6 L 207257.6 99004.8 Z M 209248.4 83692.8 L 211042.4 83692.8 L 211042.4 92173.2 Q 211042.4 101092.8 208389.2 105393.6 Q 207675.2 104779.2 206667.2 104337.6 Q 209248.4 100357.2 209248.4 92173.2 L 209248.4 83692.8 Z M 214384.4 84873.6 L 216106.4 84873.6 L 216106.4 102273.6 L 214384.4 102273.6 L 214384.4 84873.6 Z M 221265.2 83595.6 L 221265.2 105075.6 L 219471.2 105075.6 L 219471.2 83595.6 L 221265.2 83595.6 Z M 227015.6 91876.8 L 225272 91876.8 L 225272 87034.8 L 229326.8 87034.8 Q 228664.4 85634.4 227213.6 83914.8 L 228738.8 83200.8 Q 230433.2 85143.6 231072.8 86544 L 230138 87034.8 L 235520 87034.8 Q 234929.6 85240.8 233676.8 83373.6 L 235250 82783.2 Q 236772.8 84896.4 237239.6 86518.8 L 235986.8 87033.6 L 239993.6 87033.6 Q 241491.2 85166.4 242475.2 83126.4 L 244318.4 83766 Q 243162.8 85485.6 241934 87032.4 L 245940.8 87032.4 L 245940.8 91874.4 L 244145.6 91874.4 L 244145.6 88681.2 L 227015.6 88681.2 L 227015.6 91874.4 L 227015.6 91876.8 Z M 246382.4 98463.6 L 236380.4 98463.6 L 236380.4 103158 Q 236380.4 104680.8 235199.6 105049.2 Q 234240.8 105369.6 230678 105369.6 Q 230530.4 104779.2 229916 103599.6 Q 232988 103723.2 233922.8 103623.6 Q 234561.2 103599.6 234561.2 103132.8 L 234561.2 98463.6 L 224780 98463.6 L 224780 96768 L 234561.2 96768 L 234561.2 94998 Q 236674.4 94236 238811.6 92810.4 L 228884 92810.4 L 228884 91188 L 240902 91188 L 241246.4 91090.8 L 242451.2 91999.2 Q 240165.2 94088.4 236381.6 95784 L 236381.6 96766.8 L 246383.6 96766.8 L 246383.6 98462.4 L 246382.4 98463.6 Z M 271058 88263.6 L 257662.4 88263.6 L 257662.4 86569.2 L 263855.6 86569.2 Q 263093.6 84897.6 261914 83497.2 L 263436.8 82833.6 Q 264813.2 84332.4 265500.8 85831.2 L 263903.6 86569.2 L 271055.6 86569.2 L 271055.6 88263.6 L 271058 88263.6 Z M 266706.8 88780.8 Q 269729.6 91632 271007.6 93819.6 L 269655.2 94948.8 Q 268402.4 92640 265451.6 89739.6 L 266705.6 88780.8 L 266706.8 88780.8 Z M 262553.6 89641.2 Q 260710.4 92860.8 258179.6 95097.6 Q 257736.8 94604.4 256901.6 93990 Q 259359.2 91975.2 260908.4 88903.2 L 262554.8 89641.2 L 262553.6 89641.2 Z M 256089.2 97014 Q 255771.2 96177.6 254296.4 93229.2 L 254296.4 105393.6 L 252626 105393.6 L 252626 93499.2 Q 251248.4 98414.4 249602 100921.2 Q 249233.6 99986.4 248619.2 99175.2 Q 251052.8 95858.4 252281.6 89862 L 249430.4 89862 L 249430.4 88142.4 L 252626 88142.4 L 252626 82957.2 L 254296.4 82957.2 L 254296.4 88142.4 L 257048 88142.4 L 257048 89862 L 254296.4 89862 L 254296.4 90844.8 Q 255231.2 92173.2 257198 95637.6 L 256090.4 97015.2 L 256089.2 97014 Z M 268206.8 93646.8 Q 267222.8 97136.4 265208 99816 Q 267886.4 102470.4 271449.2 103674 Q 270786.8 104215.2 270220.4 105247.2 Q 266657.6 103945.2 264028.4 101193.6 Q 261521.6 103798.8 257884.4 105445.2 Q 257318 104560.8 256728.8 104070 Q 260390 102472.8 262872.8 99842.4 Q 260856.8 97261.2 259604 93747.6 L 261177.2 93304.8 Q 262209.2 96205.2 264003.2 98466 Q 265649.6 96156 266460.8 93207.6 L 268206.8 93649.2 L 268206.8 93646.8 Z M 275702 104852.4 Q 278625.2 103648.8 278798 101240.4 Q 278650.4 101264.4 278380.4 101264.4 Q 277593.2 101264.4 277078.4 100821.6 Q 276537.2 100356 276537.2 99519.6 Q 276537.2 98684.4 277102.4 98193.6 Q 277619.6 97750.8 278405.6 97750.8 Q 280494.8 97750.8 280494.8 100578 Q 280494.8 104658 276243.2 106156.8 L 275702 104852.4 Z M 298041.2 102200.4 Q 306298.4 94975.2 306298.4 90574.8 Q 306298.4 88953.6 305487.2 88018.8 Q 304602.8 87010.8 302980.4 87010.8 Q 300989.6 87010.8 299243.6 89100 L 297941.6 87822 Q 300399.2 85167.6 303250.4 85167.6 Q 305658.8 85167.6 307084.4 86617.2 Q 308486 88068 308486 90500.4 Q 308486 95071.2 301433.6 101756.4 Q 303621.2 101584.8 304383.2 101584.8 L 309371.6 101584.8 L 309371.6 103525.2 L 298042.4 103525.2 L 298042.4 102199.2 L 298041.2 102200.4 Z M 313255.6 101510.4 Q 311732.8 99052.8 311732.8 94458 Q 311732.8 89863.2 313255.6 87454.8 Q 314705.2 85168.8 317359.6 85168.8 Q 319990 85168.8 321439.6 87478.8 Q 322962.4 89887.2 322962.4 94458 Q 322962.4 99052.8 321439.6 101510.4 Q 319990 103846.8 317359.6 103846.8 Q 314730.4 103846.8 313255.6 101510.4  Z M 320776 94458 Q 320776 86988 317359.6 86988 Q 313919.2 86988 313919.2 94458 Q 313919.2 102051.6 317359.6 102051.6 Q 320776 102051.6 320776 94458  Z M 326823.6 101510.4 Q 325300.8 99052.8 325300.8 94458 Q 325300.8 89863.2 326823.6 87454.8 Q 328273.2 85168.8 330927.6 85168.8 Q 333558 85168.8 335007.6 87478.8 Q 336530.4 89887.2 336530.4 94458 Q 336530.4 99052.8 335007.6 101510.4 Q 333558 103846.8 330927.6 103846.8 Q 328298.4 103846.8 326823.6 101510.4  Z M 334344 94458 Q 334344 86988 330927.6 86988 Q 327487.2 86988 327487.2 94458 Q 327487.2 102051.6 330927.6 102051.6 Q 334344 102051.6 334344 94458  Z M 342530 103526.4 Q 342947.6 93942 347592.8 87428.4 L 338870 87428.4 L 338870 85512 L 350150 85512 L 350150 86864.4 Q 347151.2 90722.4 346019.6 94581.6 Q 345087.2 97801.2 344865.2 103527.6 L 342531.2 103527.6 L 342530 103526.4 Z M 363840.4 98020.8 L 363840.4 93154.8 L 358334.8 93154.8 L 358334.8 98020.8 L 363840.4 98020.8 Z M 374579.2 99790.8 L 365683.6 99790.8 L 365683.6 105420 L 363840.4 105420 L 363840.4 99790.8 L 352484.8 99790.8 L 352484.8 98020.8 L 356515.6 98020.8 L 356515.6 91435.2 L 363840.4 91435.2 L 363840.4 87699.6 L 357868 87699.6 Q 356197.6 90550.8 354132.4 92541.6 Q 353149.6 91681.2 352559.2 91387.2 Q 356245.6 88167.6 358088.8 82908 L 359932 83349.6 Q 359466.4 84530.4 358802.8 85930.8 L 373448.8 85930.8 L 373448.8 87700.8 L 365683.6 87700.8 L 365683.6 91436.4 L 372883.6 91436.4 L 372883.6 93156 L 365683.6 93156 L 365683.6 98022 L 374579.2 98022 L 374579.2 99792 L 374579.2 99790.8 Z M 390209.2 93130.8 L 383524 93130.8 L 383524 91459.2 L 390209.2 91459.2 L 390209.2 86199.6 Q 387702.4 86593.2 384557.2 86887.2 Q 384409.6 86002.8 384065.2 85437.6 Q 392642.8 84529.2 396304 83227.2 L 397632.4 84603.6 Q 395492.8 85315.2 392003.2 85929.6 L 392003.2 91459.2 L 399082 91459.2 L 399082 93130.8 L 392003.2 93130.8 L 392003.2 102100.8 L 390209.2 102100.8 L 390209.2 93130.8 Z M 381264.4 88756.8 Q 379912 86740.8 377503.6 84676.8 L 378829.6 83692.8 Q 381460 85905.6 382688.8 87675.6 L 381263.2 88756.8 L 381264.4 88756.8 Z M 382296.4 100675.2 L 384090.4 101929.2 Q 385933.6 103084.8 390504.4 103084.8 Q 395543.2 103084.8 399402.4 102642 Q 398909.2 103797.6 398885.2 104461.2 Q 395444.8 104706 390456.4 104706 Q 385835.2 104706 383671.6 103353.6 Q 381434.8 101904 381361.6 101904 Q 380402.8 101904 378044.8 105001.2 L 376889.2 103452 Q 379002.4 101142 380501.2 100527.6 L 380501.2 94212 L 377084.8 94212 L 377084.8 92490 L 382294 92490 L 382294 100674 L 382296.4 100675.2 Z M 408788.8 83497.2 Q 412548.4 86199.6 416260 93572.4 Q 419773.6 100627.2 423977.2 103132.8 Q 423313.6 104017.2 423067.6 105148.8 Q 419504.8 103158 416974 98978.4 Q 416162.8 97628.4 414983.2 95244 Q 413581.6 92392.8 413066.8 91458 Q 410264.8 101067.6 403136.8 105244.8 Q 402522.4 104506.8 401490.4 103771.2 Q 409159.6 99814.8 411592 89049.6 Q 409848.4 86568 407684.8 85069.2 L 408790 83496 L 408788.8 83497.2 Z M 20997.2 138899.6 L 20997.2 133320.8 L 10085.6 133320.8 L 10085.6 138899.6 L 20997.2 138899.6 Z M 22864.4 141848 L 20997.2 141848 L 20997.2 140571.2 L 10085.6 140571.2 L 10085.6 141848 L 8290.4 141848 L 8290.4 133763.6 Q 6326 134451.2 4212.8 134942 Q 3916.4 133959.2 3278 133271.6 Q 8169.2 132239.6 12321.2 130026.8 Q 10503.2 128380.4 8586.8 127004 L 9963.2 125946.8 Q 12224 127472 14018 129045.2 Q 17950.4 126611.6 20039.6 123539.6 L 10944.8 123539.6 Q 8439.2 125948 5121.2 127694 Q 4530.8 126759.2 3868.4 126317.6 Q 9348.8 123663.2 12076.4 119338.4 L 14116.4 119780 Q 13281.2 121032.8 12518 121869.2 L 21219.2 121869.2 L 21513.2 121769.6 L 22742 122531.6 Q 19916 128013.2 13108.4 131626.4 L 22865.6 131626.4 L 22865.6 141849.2 L 22864.4 141848 Z M 35102 126832.4 Q 36404 125235.2 37240.4 123882.8 L 34364 123882.8 L 34364 126831.2 L 35102 126831.2 L 35102 126832.4 Z M 37535.6 132338 L 32030 132338 L 32030 134722.4 L 37535.6 134722.4 L 37535.6 132338 Z M 37535.6 138776 L 37535.6 136197.2 L 32030 136197.2 L 32030 138776 L 37535.6 138776 Z M 40779.2 120761.6 Q 39429.2 123909.2 37216.4 126832.4 L 40388 126832.4 L 40388 128454.8 L 35890.4 128454.8 Q 34612.4 129904.4 33556.4 130839.2 L 39281.6 130839.2 L 39281.6 141407.6 L 37538 141407.6 L 37538 140302.4 L 32032.4 140302.4 L 32032.4 141752 L 30336.8 141752 L 30336.8 133322 Q 29525.6 133863.2 28396.4 134502.8 Q 27953.6 133764.8 27242 133002.8 Q 30831.2 131232.8 33606.8 128454.8 L 27783.2 128454.8 L 27783.2 126832.4 L 32649.2 126832.4 L 32649.2 123884 L 28889.6 123884 L 28889.6 122261.6 L 32649.2 122261.6 L 32649.2 119632.4 L 34368.8 119632.4 L 34368.8 122261.6 L 37416.8 122261.6 L 37416.8 123614 Q 38252 122312 39136.4 120297.2 L 40782.8 120762.8 L 40779.2 120761.6 Z M 50217.2 121598 Q 48521.6 125381.6 46653.2 128970.8 Q 49898 131846 49898 134918 Q 49947.2 137302.4 48645.2 138113.6 Q 48030.8 138555.2 46997.6 138678.8 Q 46014.8 138776 44712.8 138702.8 Q 44663.6 137696 44172.8 136908.8 Q 45498.8 137032.4 46262 136959.2 Q 46949.6 136910 47416.4 136664 Q 48178.4 136246.4 48129.2 134747.6 Q 48129.2 131996 44787.2 129218 Q 46384.4 126072.8 47786 122559.2 L 43215.2 122559.2 L 43215.2 141875.6 L 41421.2 141875.6 L 41421.2 120813.2 L 48621.2 120813.2 L 48917.6 120740 L 50219.6 121600.4 L 50217.2 121598 Z M 74226.8 124914.8 L 56679.2 124914.8 L 56679.2 130150.4 Q 56679.2 138261.2 53730.8 142144.4 Q 52992.8 141233.6 52230.8 140816 Q 54761.6 137450 54761.6 130150.4 L 54761.6 123122 L 63904.4 123122 Q 63610.4 121942.4 62726 119778.8 L 64569.2 119385.2 Q 65552 121425.2 65896.4 122900 L 65037.2 123120.8 L 74228 123120.8 L 74228 124914.8 L 74226.8 124914.8 Z M 98802.8 127324.4 Q 98778.8 127962.8 98729.6 128183.6 Q 98091.2 139342.4 96862.4 140816 Q 96248 141554 95216 141627.2 Q 94355.6 141726.8 92585.6 141651.2 Q 92537.6 140668.4 92118.8 139906.4 Q 93372.8 140030 94454 140030 Q 95043.2 140030 95289.2 139660.4 Q 96272 138677.6 96911.6 129044 L 95240 129044 Q 92733.2 137669.6 86492 141846.8 Q 85828.4 141184.4 85090.4 140790.8 Q 91161.2 137201.6 93545.6 129042.8 L 91481.6 129042.8 Q 89835.2 133737.2 86025.2 136464.8 Q 85780.4 136168.4 84747.2 135456.8 L 84796.4 135653.6 Q 79217.6 137889.2 77326.4 138603.2 L 76736 136760 Q 78358.4 136242.8 80078 135604.4 L 80078 127100 L 77079.2 127100 L 77079.2 125380.4 L 80078 125380.4 L 80078 119703.2 L 81797.6 119703.2 L 81797.6 125380.4 L 84501.2 125380.4 L 84501.2 127100 L 81797.6 127100 L 81797.6 134990 L 84428 134007.2 L 84746 135407.6 Q 88187.6 133146.8 89734.4 129042.8 L 88014.8 129042.8 Q 86171.6 129042.8 85877.6 129336.8 Q 85631.6 128550.8 85116.8 127616 Q 85878.8 127492.4 87574.4 126411.2 Q 90302 124667.6 92883.2 122307.2 L 84993.2 122307.2 L 84993.2 120563.6 L 94847.6 120563.6 L 95192 120414.8 L 96569.6 121448 Q 92783.6 124864.4 88973.6 127322 L 98804 127322 L 98802.8 127324.4 Z M 103670 141306.8 Q 106593.2 140103.2 106766 137694.8 Q 106618.4 137718.8 106348.4 137718.8 Q 105561.2 137718.8 105046.4 137276 Q 104505.2 136810.4 104505.2 135974 Q 104505.2 135138.8 105070.4 134648 Q 105587.6 134205.2 106373.6 134205.2 Q 108462.8 134205.2 108462.8 137032.4 Q 108462.8 141112.4 104211.2 142611.2 L 103670 141306.8 Z M 133996.4 130691.6 L 133996.4 135336.8 L 140434.4 135336.8 L 140434.4 130691.6 L 133996.4 130691.6 Z M 133996.4 136908.8 L 133996.4 138678.8 L 132300.8 138678.8 L 132300.8 129142.4 L 142155.2 129142.4 L 142155.2 136908.8 L 133996.4 136908.8 Z M 143457.2 126587.6 L 131072 126587.6 L 131072 124989.2 L 143457.2 124989.2 L 143457.2 126587.6 Z M 147316.4 139563.2 Q 147316.4 141112.4 146308.4 141554 Q 145424 141898.4 142204.4 141898.4 Q 142080.8 140990 141539.6 140105.6 Q 144022.4 140178.8 144930.8 140129.6 Q 145521.2 140105.6 145521.2 139564.4 L 145521.2 122434.4 L 128932.4 122434.4 L 128932.4 141922.4 L 127162.4 141922.4 L 127162.4 120688.4 L 147314 120688.4 L 147314 139563.2 L 147316.4 139563.2 Z M 162112.4 134475.2 L 162112.4 129609.2 L 156606.8 129609.2 L 156606.8 134475.2 L 162112.4 134475.2 Z M 172851.2 136245.2 L 163955.6 136245.2 L 163955.6 141874.4 L 162112.4 141874.4 L 162112.4 136245.2 L 150756.8 136245.2 L 150756.8 134475.2 L 154787.6 134475.2 L 154787.6 127889.6 L 162112.4 127889.6 L 162112.4 124154 L 156140 124154 Q 154469.6 127005.2 152404.4 128996 Q 151421.6 128135.6 150831.2 127841.6 Q 154517.6 124622 156360.8 119362.4 L 158204 119804 Q 157738.4 120984.8 157074.8 122385.2 L 171720.8 122385.2 L 171720.8 124155.2 L 163955.6 124155.2 L 163955.6 127890.8 L 171155.6 127890.8 L 171155.6 129610.4 L 163955.6 129610.4 L 163955.6 134476.4 L 172851.2 134476.4 L 172851.2 136246.4 L 172851.2 136245.2 Z M 192708.8 139686.8 Q 194379.2 139686.8 194945.6 138850.4 Q 195436.4 138064.4 195681.2 135360.8 Q 196344.8 135827.6 197376.8 136097.6 Q 197082.8 139169.6 196247.6 140201.6 Q 195312.8 141357.2 192731.6 141357.2 L 184130 141357.2 Q 181378.4 141357.2 180419.6 140571.2 Q 179411.6 139784 179411.6 137499.2 L 179411.6 129830 L 175404.8 131084 L 174914 129437.6 L 179411.6 128060 L 179411.6 121080.8 L 181181.6 121080.8 L 181181.6 127518.8 L 186269.6 125945.6 L 186269.6 119457.2 L 188063.6 119457.2 L 188063.6 125405.6 L 193764.8 123635.6 L 194282 123242 L 195560 123807.2 L 195460.4 124151.6 Q 195336.8 131279.6 194674.4 133146.8 Q 194060 134793.2 192707.6 134990 Q 191626.4 135161.6 189832.4 135113.6 Q 189708.8 134008.4 189364.4 133418 Q 190224.8 133491.2 191822 133491.2 Q 192730.4 133491.2 193100 132335.6 Q 193590.8 130935.2 193664 125405.6 L 188061.2 127149.2 L 188061.2 136635.2 L 186267.2 136635.2 L 186267.2 127713.2 L 181179.2 129286.4 L 181179.2 137543.6 Q 181179.2 138845.6 181720.4 139264.4 Q 182285.6 139682 184055.6 139682 L 192706.4 139682 L 192708.8 139686.8 Z M 214557.2 129732.8 L 214557.2 122777.6 L 207725.6 122777.6 L 207725.6 129732.8 L 214557.2 129732.8 Z M 221879.6 131502.8 L 216423.2 131502.8 L 216423.2 141898.4 L 214556 141898.4 L 214556 131502.8 L 207650 131502.8 Q 207010.4 138531.2 201554 141971.6 Q 200842.4 141112.4 200104.4 140619.2 Q 205167.2 137523.2 205781.6 131502.8 L 200031.2 131502.8 L 200031.2 129732.8 L 205854.8 129732.8 Q 205880 129363.2 205880 128675.6 L 205880 122777.6 L 200939.6 122777.6 L 200939.6 121031.6 L 221117.6 121031.6 L 221117.6 122777.6 L 216423.2 122777.6 L 216423.2 129732.8 L 221879.6 129732.8 L 221879.6 131502.8 Z M 241737.2 123933.2 L 241713.2 124941.2 Q 241196 138875.6 239992.4 140349.2 Q 239229.2 141284 237927.2 141383.6 Q 236895.2 141504.8 233996 141357.2 Q 233946.8 140398.4 233356.4 139415.6 Q 235002.8 139563.2 237142.4 139563.2 Q 237830 139587.2 238198.4 139193.6 Q 239255.6 138088.4 239697.2 125752.4 L 234708.8 125752.4 Q 234242 136688 225837.2 141971.6 Q 225198.8 141087.2 224363.6 140472.8 Q 232301.6 135606.8 232768.4 125752.4 L 225443.6 125752.4 L 225443.6 123933.2 L 232816.4 123933.2 L 232816.4 119459.6 L 234759.2 119459.6 L 234759.2 123933.2 L 241738.4 123933.2 L 241737.2 123933.2 Z M 229449.2 128504 Q 227852 133098.8 226106 135384.8 L 224435.6 134400.8 Q 226523.6 132016.4 227801.6 127815.2 L 229448 128502.8 L 229449.2 128504 Z M 243974 127619.6 Q 245988.8 131847.2 246752 135189.2 L 244932.8 135827.6 Q 244367.6 132632 242327.6 128183.6 L 243974 127618.4 L 243974 127619.6 Z M 269680.4 122260.4 Q 266190.8 126119.6 261128 128847.2 L 261128 139463.6 Q 261128 141159.2 259850 141528.8 Q 258843.2 141846.8 254812.4 141846.8 Q 254639.6 140987.6 254074.4 140028.8 Q 256826 140126 258572 140052.8 Q 259234.4 140028.8 259234.4 139462.4 L 259234.4 127937.6 Q 262847.6 126167.6 266067.2 123119.6 L 250265.6 123119.6 L 250265.6 121325.6 L 267813.2 121325.6 L 268256 121202 L 269680.4 122258 L 269680.4 122260.4 Z M 284598.8 123686 Q 284108 121990.4 282779.6 119829.2 L 284672 119288 Q 286073.6 121475.6 286588.4 123048.8 L 284597.6 123687.2 L 284598.8 123686 Z M 279388.4 125529.2 Q 281379.2 130396.4 284745.2 133762.4 Q 287964.8 130517.6 289808 125529.2 L 279388.4 125529.2 Z M 291872 125529.2 Q 289808 131231.6 286121.6 135041.6 Q 290374.4 138628.4 296051.6 140030 Q 295437.2 140619.2 294797.6 141726.8 Q 288826.4 140031.2 284722.4 136344.8 Q 280739.6 139834.4 274498.4 141825.2 Q 274031.6 140866.4 273368 140128.4 Q 279414.8 138408.8 283395.2 135042.8 Q 279684.8 131232.8 277497.2 125530.4 L 273711.2 125530.4 L 273711.2 123736.4 L 295732.4 123736.4 L 295732.4 125530.4 L 291873.2 125530.4 L 291872 125529.2 Z M 306496.4 119999.6 Q 305512.4 122409.2 304013.6 124841.6 L 304013.6 141873.2 L 302122.4 141873.2 L 302122.4 127692.8 Q 300597.2 129708.8 299295.2 130912.4 Q 298656.8 129756.8 298091.6 129167.6 Q 302343.2 125357.6 304701.2 119434.4 L 306496.4 119999.6 Z M 317038.4 139612.4 Q 317973.2 139612.4 318291.2 138555.2 Q 318561.2 137646.8 318710 134378 Q 319618.4 135065.6 320502.8 135262.4 Q 320306 138825.2 319691.6 140054 Q 319004 141406.4 317136.8 141406.4 L 312810.8 141406.4 Q 310967.6 141406.4 310329.2 140692.4 Q 309665.6 139980.8 309665.6 137940.8 L 309665.6 133713.2 Q 307970 134818.4 306250.4 135678.8 Q 305586.8 134843.6 304899.2 134302.4 Q 307233.2 133170.8 309666.8 131500.4 L 309666.8 119876 L 311583.2 119876 L 311583.2 130050.8 Q 315760.4 126732.8 318170 122973.2 L 319964 124152.8 Q 316768.4 128626.4 311583.2 132386 L 311583.2 137988.8 Q 311583.2 138996.8 311853.2 139314.8 Q 312123.2 139611.2 313007.6 139611.2 L 317038.4 139611.2 L 317038.4 139612.4 Z M 341714 120467.6 Q 340288.4 122434.4 338837.6 123884 L 337364 123318.8 Q 338886.8 121524.8 339821.6 119878.4 L 341714 120467.6 Z M 328662.8 124055.6 Q 327827.6 122360 326057.6 120688.4 L 327582.8 119952.8 Q 329474 121672.4 330261.2 123245.6 L 328662.8 124056.8 L 328662.8 124055.6 Z M 332865.2 126561.2 Q 329547.2 130296.8 324090.8 131870 Q 323625.2 131010.8 322911.2 130396.4 Q 328244 129142.4 331389.2 125873.6 L 323378 125873.6 L 323378 124179.2 L 332864 124179.2 L 332864 119435.6 L 334658 119435.6 L 334658 124179.2 L 344364.8 124179.2 L 344364.8 125873.6 L 335788.4 125873.6 Q 341711.6 128700.8 344266.4 130323.2 L 343382 131796.8 Q 340506.8 129929.6 334656.8 127005.2 L 334656.8 130667.6 L 332862.8 130667.6 L 332862.8 126562.4 L 332865.2 126561.2 Z M 335618 135556.4 Q 338297.6 139390.4 345104 140153.6 Q 344416.4 140841.2 343949.6 141873.2 Q 336503.6 140692.4 333776 135704 Q 331761.2 140447.6 323700.8 141873.2 Q 323404.4 140914.4 322742 140200.4 Q 329868.8 139095.2 331785.2 135556.4 L 323256.8 135556.4 L 323256.8 133836.8 L 332448.8 133836.8 Q 332718.8 132854 332939.6 131206.4 L 334832 131206.4 Q 334635.2 132755.6 334365.2 133836.8 L 344465.6 133836.8 L 344465.6 135556.4 L 335618 135556.4 Z M 362380.4 125652.8 Q 361200.8 124055.6 358473.2 122163.2 L 359628.8 121107.2 Q 362332.4 122826.8 363634.4 124473.2 L 362380.4 125652.8 Z M 361840.4 132141.2 Q 360416 130397.6 357515.6 128554.4 L 358647.2 127473.2 Q 361619.6 129291.2 363045.2 130938.8 L 361840.4 132142.4 L 361840.4 132141.2 Z M 355475.6 134106.8 Q 354934.4 133074.8 353190.8 130444.4 L 353190.8 141824 L 351395.6 141824 L 351395.6 130961.6 Q 349652 135189.2 347832.8 137376.8 Q 347588 136662.8 346924.4 135730.4 Q 349529.6 132782 351152 128014.4 L 347268.8 128014.4 L 347268.8 126292.4 L 351396.8 126292.4 L 351396.8 122582 Q 349602.8 122926.4 348029.6 123147.2 Q 347858 122459.6 347488.4 121724 Q 352773.2 120887.6 355304 119758.4 L 356409.2 121208 Q 355007.6 121773.2 353189.6 122190.8 L 353189.6 126294.8 L 356802.8 126294.8 L 356802.8 128016.8 L 353189.6 128016.8 L 353189.6 128458.4 Q 354048.8 129417.2 356579.6 132686 L 355474.4 134111.6 L 355475.6 134106.8 Z M 366584 135410 L 366584 141824 L 364790 141824 L 364790 135704 L 356777.6 137032.4 L 356483.6 135286.4 L 364791.2 133960.4 L 364791.2 119411.6 L 366585.2 119411.6 L 366585.2 133664 L 369460.4 133222.4 L 369730.4 134892.8 L 366585.2 135410 L 366584 135410 Z M 389292.8 138261.2 L 389292.8 134230.4 L 376438.4 134230.4 L 376438.4 138261.2 L 389292.8 138261.2 Z M 376438.4 128454.8 L 376438.4 132485.6 L 389292.8 132485.6 L 389292.8 128454.8 L 376438.4 128454.8 Z M 376438.4 122728.4 L 376438.4 126711.2 L 389292.8 126711.2 L 389292.8 122728.4 L 376438.4 122728.4 Z M 391184 120958.4 L 391184 141726.8 L 389292.8 141726.8 L 389292.8 140055.2 L 376438.4 140055.2 L 376438.4 141726.8 L 374644.4 141726.8 L 374644.4 120958.4 L 391184 120958.4 Z " fill-rule="nonzero" style="fill:#000000;;fill-opacity:1;"/>
</svg>