<svg version="1.1" x="0" y="0" width="100%" height="100%" viewBox="0 0 185958.4 76902.4" xmlns="http://www.w3.org/2000/svg">
  <path d="M 13091.2 10789.6 Q 12255.2 13312 11108.8 15376 Q 13058.4 17866.4 14057.6 19636 L 12943.2 20291.2 Q 12140.8 18850.4 10469.6 16473.6 Q 8798.4 19111.2 6914.4 20520 Q 6438.4 19898.4 5996.8 19587.2 Q 7978.4 18227.2 9715.2 15475.2 Q 8256.8 13508 6700.8 11689.6 L 7700 11165.6 Q 9158.4 12836.8 10355.2 14376 Q 11370.4 12476 12025.6 10508.8 L 13091.2 10788 L 13091.2 10789.6 Z M 15680 8167.2 Q 15629.6 15081.6 15777.6 17440.8 Q 15973.6 20929.6 16728 20929.6 Q 17022.4 20929.6 17087.2 18472 Q 17496.8 19029.6 17890.4 19324 Q 17792 20962.4 17546.4 21552 Q 17284 22175.2 16628 22175.2 Q 15169.6 22175.2 14776.8 18930.4 Q 14498.4 16768 14481.6 9346.4 L 5928.8 9346.4 L 5928.8 13016.8 Q 5928.8 19356.8 3766.4 22387.2 Q 3340 21863.2 2750.4 21568 Q 4700 18864.8 4700 13016 L 4700 8165.6 L 15678.4 8165.6 L 15680 8167.2 Z M 24560 14639.2 L 24560 17833.6 L 28672 17833.6 L 28672 14639.2 L 24560 14639.2 Z M 24560 18931.2 L 24560 20095.2 L 23445.6 20095.2 L 23445.6 13541.6 L 29803.2 13541.6 L 29803.2 18931.2 L 24560.8 18931.2 L 24560 18931.2 Z M 33226.4 20717.6 Q 33226.4 21864 32473.6 22126.4 Q 31833.6 22338.4 29408.8 22338.4 Q 29277.6 21667.2 28966.4 21093.6 Q 30752.8 21176 31620.8 21127.2 Q 32013.6 21110.4 32013.6 20717.6 L 32013.6 11379.2 L 21299.2 11379.2 L 21299.2 22339.2 L 20103.2 22339.2 L 20103.2 10199.2 L 24576 10199.2 Q 25296.8 8659.2 25624 7348 L 27115.2 7610.4 Q 26525.6 9051.2 25920 10199.2 L 33226.4 10199.2 L 33226.4 20717.6 Z M 49528.8 9789.6 L 42434.4 9789.6 L 42434.4 8641.6 L 49528.8 8641.6 L 49528.8 9789.6 Z M 40844.8 16163.2 Q 40550.4 15573.6 39370.4 13820 L 39370.4 22339.2 L 38157.6 22339.2 L 38157.6 14213.6 Q 37158.4 17212 35962.4 18702.4 Q 35782.4 18260.8 35274.4 17572.8 Q 36979.2 15540.8 37896.8 11985.6 L 35684.8 11985.6 L 35684.8 10839.2 L 38158.4 10839.2 L 38158.4 7398.4 L 39371.2 7398.4 L 39371.2 10839.2 L 41485.6 10839.2 L 41485.6 11985.6 L 39371.2 11985.6 L 39371.2 12411.2 Q 40666.4 13967.2 41566.4 15196 L 40845.6 16163.2 L 40844.8 16163.2 Z M 43974.4 15736.8 Q 43139.2 18833.6 41763.2 20767.2 Q 41140 20291.2 40795.2 20128 Q 42139.2 18407.2 42860 15491.2 L 43973.6 15736.8 L 43974.4 15736.8 Z M 46432 13672.8 L 46432 20800 Q 46432 21798.4 45826.4 22044.8 Q 45334.4 22290.4 43466.4 22290.4 Q 43401.6 21798.4 43090.4 21045.6 Q 44450.4 21094.4 44908.8 21061.6 Q 45220 21045.6 45220 20783.2 L 45220 13672.8 L 41729.6 13672.8 L 41729.6 12526.4 L 50396 12526.4 L 50396 13672.8 L 46431.2 13672.8 L 46432 13672.8 Z M 48562.4 15458.4 Q 49971.2 18292.8 50429.6 20391.2 L 49299.2 20784 Q 48906.4 18621.6 47546.4 15770.4 L 48561.6 15459.2 L 48562.4 15458.4 Z M 59343.2 10231.2 Q 59016 9100.8 58130.4 7660 L 59392 7299.2 Q 60326.4 8757.6 60669.6 9806.4 L 59342.4 10232 L 59343.2 10231.2 Z M 55869.6 11460 Q 57196.8 14704.8 59440.8 16948.8 Q 61587.2 14785.6 62816 11460 L 55869.6 11460 Z M 64192 11460 Q 62816 15261.6 60358.4 17801.6 Q 63193.6 20192.8 66978.4 21127.2 Q 66568.8 21520 66142.4 22258.4 Q 62161.6 21128 59425.6 18670.4 Q 56770.4 20996.8 52609.6 22324 Q 52298.4 21684.8 51856 21192.8 Q 55887.2 20046.4 58540.8 17802.4 Q 56067.2 15262.4 54608.8 11460.8 L 52084.8 11460.8 L 52084.8 10264.8 L 66765.6 10264.8 L 66765.6 11460.8 L 64192.8 11460.8 L 64192 11460 Z M 73941.6 7773.6 Q 73285.6 9380 72286.4 11001.6 L 72286.4 22356 L 71025.6 22356 L 71025.6 12902.4 Q 70008.8 14246.4 69140.8 15048.8 Q 68715.2 14278.4 68338.4 13885.6 Q 71172.8 11345.6 72744.8 7396.8 L 73941.6 7773.6 Z M 80969.6 20848.8 Q 81592.8 20848.8 81804.8 20144 Q 81984.8 19538.4 82084 17359.2 Q 82689.6 17817.6 83279.2 17948.8 Q 83148 20324 82738.4 21143.2 Q 82280 22044.8 81035.2 22044.8 L 78151.2 22044.8 Q 76922.4 22044.8 76496.8 21568.8 Q 76054.4 21094.4 76054.4 19734.4 L 76054.4 16916 Q 74924 17652.8 73777.6 18226.4 Q 73335.2 17669.6 72876.8 17308.8 Q 74432.8 16554.4 76055.2 15440.8 L 76055.2 7691.2 L 77332.8 7691.2 L 77332.8 14474.4 Q 80117.6 12262.4 81724 9756 L 82920 10542.4 Q 80789.6 13524.8 77332.8 16031.2 L 77332.8 19766.4 Q 77332.8 20438.4 77512.8 20650.4 Q 77692.8 20848 78282.4 20848 L 80969.6 20848 L 80969.6 20848.8 Z M 96780.8 20717.6 Q 97452 20717.6 97698.4 20291.2 Q 97944 19816.8 98010.4 18292.8 Q 98583.2 18621.6 99156.8 18720 Q 99008.8 20685.6 98484.8 21324.8 Q 98010.4 21914.4 96666.4 21914.4 L 89719.2 21914.4 Q 86787.2 21914.4 86787.2 20096 Q 86787.2 19228 87786.4 18293.6 Q 89277.6 16868.8 93799.2 14132.8 L 86541.6 14132.8 L 86541.6 12986.4 L 95863.2 12986.4 L 95863.2 13002.4 L 96109.6 12937.6 L 96977.6 13576.8 Q 96781.6 13724 96699.2 13756.8 Q 88015.2 18868 88015.2 19998.4 Q 88015.2 20719.2 89620.8 20719.2 L 96781.6 20719.2 L 96780.8 20717.6 Z M 99172 9151.2 L 99172 10313.6 L 95568 10313.6 L 95568 11804.8 L 94339.2 11804.8 L 94339.2 10313.6 L 89948 10313.6 L 89948 11804.8 L 88719.2 11804.8 L 88719.2 10313.6 L 84952 10313.6 L 84952 9151.2 L 88719.2 9151.2 L 88719.2 7381.6 L 89948 7381.6 L 89948 9151.2 L 94339.2 9151.2 L 94339.2 7381.6 L 95568 7381.6 L 95568 9151.2 L 99172 9151.2 Z M 113196.8 10870.4 Q 112246.4 9855.2 110280.8 8430.4 L 111166.4 7693.6 Q 113099.2 9020.8 114114.4 10003.2 L 113196.8 10871.2 L 113196.8 10870.4 Z M 109724 12706.4 Q 112280 16933.6 116048.8 19292 Q 115508 19701.6 115082.4 20340.8 Q 111904 18063.2 109232.8 13951.2 L 109232.8 22356.8 L 107921.6 22356.8 L 107921.6 14443.2 Q 105399.2 18490.4 101908.8 20472 Q 101499.2 19866.4 101007.2 19440.8 Q 105185.6 17293.6 107578.4 12707.2 L 101499.2 12707.2 L 101499.2 11510.4 L 107921.6 11510.4 L 107921.6 7414.4 L 109232.8 7414.4 L 109232.8 11510.4 L 115492 11510.4 L 115492 12707.2 L 109724.8 12707.2 L 109724 12706.4 Z M 131891.2 10346.4 L 122944.8 10346.4 L 122944.8 9248.8 L 126926.4 9248.8 Q 126779.2 8445.6 126468 7479.2 L 127549.6 7315.2 Q 127926.4 8298.4 128122.4 9248.8 L 131891.2 9248.8 L 131891.2 10346.4 Z M 124960.8 13606.4 Q 124763.2 12328.8 124059.2 10805.6 L 125058.4 10527.2 Q 125795.2 12001.6 125991.2 13279.2 L 124960 13606.4 L 124960.8 13606.4 Z M 120553.6 17817.6 L 122454.4 17063.2 L 122684 18193.6 Q 121471.2 18701.6 117768.8 20176.8 L 117391.2 18948 Q 118719.2 18489.6 119456 18211.2 L 119456 12508.8 L 117506.4 12508.8 L 117506.4 11362.4 L 119456 11362.4 L 119456 7577.6 L 120553.6 7577.6 L 120553.6 11362.4 L 122405.6 11362.4 L 122405.6 12508.8 L 120553.6 12508.8 L 120553.6 17817.6 Z M 124863.2 17440.8 L 124863.2 20537.6 L 129925.6 20537.6 L 129925.6 17440.8 L 124863.2 17440.8 Z M 123748 16343.2 L 131088 16343.2 L 131088 22289.6 L 129925.6 22289.6 L 129925.6 21634.4 L 124863.2 21634.4 L 124863.2 22338.4 L 123748.8 22338.4 L 123748.8 16342.4 L 123748 16343.2 Z M 132399.2 13804 L 132399.2 14917.6 L 122339.2 14917.6 L 122339.2 13804 L 128434.4 13804 Q 129171.2 12083.2 129580.8 10460.8 L 130727.2 10756 Q 130088 12525.6 129531.2 13803.2 L 132398.4 13803.2 L 132399.2 13804 Z M 137543.2 11248 Q 136659.2 10133.6 134758.4 8561.6 L 135512.8 7758.4 Q 137461.6 9281.6 138363.2 10330.4 L 137544 11248.8 L 137543.2 11248 Z M 138854.4 18080 Q 139116.8 18768 139346.4 19079.2 Q 136281.6 21635.2 136020 22028.8 Q 135724.8 21488 135348 21159.2 Q 136134.4 20504 136134.4 19586.4 L 136134.4 13688 L 133840.8 13688 L 133840.8 12508 L 137313.6 12508 L 137313.6 19324 L 138853.6 18079.2 L 138854.4 18080 Z M 140181.6 7872 L 141377.6 7872 L 141377.6 13525.6 Q 141377.6 19472 139608.8 22339.2 Q 139132.8 21929.6 138460.8 21635.2 Q 140181.6 18981.6 140181.6 13525.6 L 140181.6 7872 Z M 143605.6 8659.2 L 144753.6 8659.2 L 144753.6 20259.2 L 143605.6 20259.2 L 143605.6 8659.2 Z M 148192.8 7807.2 L 148192.8 22127.2 L 146996.8 22127.2 L 146996.8 7807.2 L 148192.8 7807.2 Z M 152026.4 13328 L 150864 13328 L 150864 10100 L 153567.2 10100 Q 153125.6 9166.4 152158.4 8020 L 153175.2 7544 Q 154304.8 8839.2 154731.2 9772.8 L 154108 10100 L 157696 10100 Q 157302.4 8904 156467.2 7659.2 L 157516 7265.6 Q 158531.2 8674.4 158842.4 9756 L 158007.2 10099.2 L 160678.4 10099.2 Q 161676.8 8854.4 162332.8 7494.4 L 163561.6 7920.8 Q 162791.2 9067.2 161972 10098.4 L 164643.2 10098.4 L 164643.2 13326.4 L 163446.4 13326.4 L 163446.4 11197.6 L 152026.4 11197.6 L 152026.4 13326.4 L 152026.4 13328 Z M 164937.6 17719.2 L 158269.6 17719.2 L 158269.6 20848.8 Q 158269.6 21864 157482.4 22109.6 Q 156843.2 22323.2 154468 22323.2 Q 154369.6 21929.6 153960 21143.2 Q 156008 21225.6 156631.2 21159.2 Q 157056.8 21143.2 157056.8 20832 L 157056.8 17719.2 L 150536 17719.2 L 150536 16588.8 L 157056.8 16588.8 L 157056.8 15408.8 Q 158465.6 14900.8 159890.4 13950.4 L 153272 13950.4 L 153272 12868.8 L 161284 12868.8 L 161513.6 12804 L 162316.8 13409.6 Q 160792.8 14802.4 158270.4 15932.8 L 158270.4 16588 L 164938.4 16588 L 164938.4 17718.4 L 164937.6 17719.2 Z M 181388 10919.2 L 172457.6 10919.2 L 172457.6 9789.6 L 176586.4 9789.6 Q 176078.4 8675.2 175292 7741.6 L 176307.2 7299.2 Q 177224.8 8298.4 177683.2 9297.6 L 176618.4 9789.6 L 181386.4 9789.6 L 181386.4 10919.2 L 181388 10919.2 Z M 178487.2 11264 Q 180502.4 13164.8 181354.4 14623.2 L 180452.8 15376 Q 179617.6 13836.8 177650.4 11903.2 L 178486.4 11264 L 178487.2 11264 Z M 175718.4 11837.6 Q 174489.6 13984 172802.4 15475.2 Q 172507.2 15146.4 171950.4 14736.8 Q 173588.8 13393.6 174621.6 11345.6 L 175719.2 11837.6 L 175718.4 11837.6 Z M 171408.8 16752.8 Q 171196.8 16195.2 170213.6 14229.6 L 170213.6 22339.2 L 169100 22339.2 L 169100 14409.6 Q 168181.6 17686.4 167084 19357.6 Q 166838.4 18734.4 166428.8 18193.6 Q 168051.2 15982.4 168870.4 11984.8 L 166969.6 11984.8 L 166969.6 10838.4 L 169100 10838.4 L 169100 7381.6 L 170213.6 7381.6 L 170213.6 10838.4 L 172048 10838.4 L 172048 11984.8 L 170213.6 11984.8 L 170213.6 12640 Q 170836.8 13525.6 172148 15835.2 L 171409.6 16753.6 L 171408.8 16752.8 Z M 179487.2 14508 Q 178831.2 16834.4 177488 18620.8 Q 179273.6 20390.4 181648.8 21192.8 Q 181207.2 21553.6 180829.6 22241.6 Q 178454.4 21373.6 176701.6 19539.2 Q 175030.4 21276 172605.6 22373.6 Q 172228 21784 171835.2 21456.8 Q 174276 20392 175931.2 18638.4 Q 174587.2 16917.6 173752 14575.2 L 174800.8 14280 Q 175488.8 16213.6 176684.8 17720.8 Q 177782.4 16180.8 178323.2 14215.2 L 179487.2 14509.6 L 179487.2 14508 Z M 12566.4 34386.4 L 9863.2 34386.4 L 9863.2 35385.6 L 12566.4 35385.6 L 12566.4 34386.4 Z M 12566.4 36172 L 9863.2 36172 L 9863.2 37204.8 L 12566.4 37204.8 L 12566.4 36172 Z M 12566.4 37990.4 L 9863.2 37990.4 L 9863.2 39055.2 L 12566.4 39055.2 L 12566.4 37990.4 Z M 5816.8 40415.2 L 5816.8 45150.4 Q 5816.8 46052 5292 46330.4 Q 4833.6 46576.8 3359.2 46576.8 Q 3260.8 45969.6 2998.4 45428.8 L 4407.2 45428.8 Q 4669.6 45412.8 4669.6 45150.4 L 4669.6 40858.4 L 3080 41464 L 2735.2 40301.6 Q 3227.2 40137.6 4669.6 39613.6 L 4669.6 36074.4 L 2851.2 36074.4 L 2851.2 34944 L 4669.6 34944 L 4669.6 31667.2 L 5816 31667.2 L 5816 34944 L 7274.4 34944 L 7274.4 35714.4 Q 8864 34158.4 9616.8 31652 L 10665.6 31913.6 Q 10453.6 32618.4 10076 33470.4 L 12780 33470.4 Q 12321.6 32568.8 11895.2 32028 L 12976.8 31618.4 Q 13713.6 32552 14058.4 33306.4 L 13664.8 33470.4 L 17121.6 33470.4 L 17121.6 34388 L 13664.8 34388 L 13664.8 35387.2 L 16598.4 35387.2 L 16598.4 36173.6 L 13664.8 36173.6 L 13664.8 37206.4 L 16598.4 37206.4 L 16598.4 37992.8 L 13664.8 37992.8 L 13664.8 39057.6 L 17268.8 39057.6 L 17268.8 39976 L 9864 39976 L 9864 40434.4 L 8815.2 40434.4 L 8815.2 35650.4 Q 8257.6 36387.2 7749.6 36879.2 Q 7635.2 36616.8 7192.8 36076 L 5816.8 36076 L 5816.8 39205.6 L 7192.8 38680.8 L 7406.4 39778.4 L 5816.8 40417.6 L 5816.8 40415.2 Z M 17399.2 42332 Q 17383.2 42643.2 17350.4 42807.2 Q 17056 45674.4 16515.2 46148.8 Q 16188 46493.6 15500 46542.4 Q 14630.4 46575.2 13516.8 46508.8 Q 13452 45903.2 13172.8 45477.6 Q 14205.6 45558.4 15073.6 45558.4 Q 15500 45558.4 15647.2 45427.2 Q 15974.4 45116.8 16204 43248.8 L 12976 43248.8 L 13452 41904.8 L 11304.8 41904.8 Q 10830.4 45345.6 7783.2 46672.8 Q 7504.8 46180.8 6980 45787.2 Q 9716 44788 10093.6 41904.8 L 7832 41904.8 L 7832 40889.6 L 14844 40889.6 Q 14598.4 41692 14352 42331.2 L 17399.2 42331.2 L 17399.2 42332 Z M 33980.8 41283.2 L 27263.2 41283.2 L 27263.2 44920.8 Q 27263.2 46067.2 26395.2 46346.4 Q 25658.4 46592 23020.8 46559.2 Q 22840.8 45920 22496 45347.2 Q 24364 45412 25528 45363.2 Q 26036 45363.2 26036 44904.8 L 26036 41283.2 L 19302.4 41283.2 L 19302.4 40087.2 L 26036 40087.2 L 26036 37433.6 L 20400 37433.6 L 20400 36269.6 L 26036 36269.6 L 26036 33747.2 Q 23824 33992.8 20695.2 34140 Q 20612.8 33632 20383.2 33059.2 Q 28230.4 32698.4 31458.4 31681.6 L 32376 32648.8 Q 30459.2 33238.4 27264.8 33615.2 L 27264.8 36268.8 L 33064 36268.8 L 33064 37432.8 L 27264.8 37432.8 L 27264.8 40086.4 L 33982.4 40086.4 L 33982.4 41282.4 L 33980.8 41283.2 Z M 48300 40103.2 L 48300 35761.6 L 43598.4 35761.6 L 43598.4 40103.2 L 48300 40103.2 Z M 42336 40103.2 L 42336 35761.6 L 37650.4 35761.6 L 37650.4 40103.2 L 42336 40103.2 Z M 49545.6 34566.4 L 49545.6 42233.6 L 48300 42233.6 L 48300 41300 L 43598.4 41300 L 43598.4 46608 L 42336.8 46608 L 42336.8 41300 L 37651.2 41300 L 37651.2 42315.2 L 36455.2 42315.2 L 36455.2 34565.6 L 42336.8 34565.6 L 42336.8 31649.6 L 43598.4 31649.6 L 43598.4 34565.6 L 49546.4 34565.6 L 49545.6 34566.4 Z M 63897.6 42135.2 L 63897.6 43168 L 54968.8 43168 L 54968.8 42135.2 L 58737.6 42135.2 L 58737.6 39383.2 L 55656.8 39383.2 L 55656.8 38334.4 L 58737.6 38334.4 L 58737.6 36007.2 L 55198.4 36007.2 L 55198.4 34909.6 L 63570.4 34909.6 L 63570.4 36007.2 L 59884 36007.2 L 59884 38334.4 L 63160.8 38334.4 L 63160.8 39383.2 L 59884 39383.2 L 59884 42135.2 L 63897.6 42135.2 Z M 61685.6 39677.6 Q 62816 40660.8 63340.8 41463.2 L 62504.8 41955.2 Q 62046.4 41202.4 60916 40104 L 61686.4 39678.4 L 61685.6 39677.6 Z M 64848 44675.2 L 64848 33533.6 L 53887.2 33533.6 L 53887.2 44675.2 L 64848 44675.2 Z M 66109.6 32403.2 L 66109.6 46624.8 L 64848 46624.8 L 64848 45805.6 L 53887.2 45805.6 L 53887.2 46624.8 L 52674.4 46624.8 L 52674.4 32403.2 L 66110.4 32403.2 L 66109.6 32403.2 Z M 83084 40873.6 L 76366.4 40873.6 L 76366.4 46608 L 75121.6 46608 L 75121.6 40873.6 L 68501.6 40873.6 L 68501.6 39677.6 L 75121.6 39677.6 L 75121.6 33959.2 L 69354.4 33959.2 L 69354.4 32763.2 L 82166.4 32763.2 L 82166.4 33959.2 L 76367.2 33959.2 L 76367.2 39677.6 L 83084.8 39677.6 L 83084.8 40873.6 L 83084 40873.6 Z M 71564.8 34762.4 Q 72777.6 36892.8 73122.4 38448.8 L 71974.4 38842.4 Q 71581.6 37155.2 70500 35090.4 L 71564.8 34763.2 L 71564.8 34762.4 Z M 78151.2 38547.2 Q 79168 36844 79920.8 34680.8 L 81198.4 35041.6 Q 80100.8 37483.2 79183.2 38892 L 78150.4 38547.2 L 78151.2 38547.2 Z M 86752.8 36826.4 L 85540.8 36826.4 L 85540.8 33549.6 L 91536.8 33549.6 Q 91160 32698.4 90766.4 31928 L 92012 31632.8 Q 92584.8 32681.6 92962.4 33549.6 L 98777.6 33549.6 L 98777.6 36826.4 L 97516.8 36826.4 L 97516.8 34680 L 86752 34680 L 86752 36826.4 L 86752.8 36826.4 Z M 90341.6 39170.4 Q 89637.6 40332.8 89048 41168.8 Q 90587.2 41660.8 92570.4 42431.2 Q 93995.2 41071.2 94716 39170.4 L 90341.6 39170.4 Z M 96108.8 39170.4 Q 95272.8 41398.4 93765.6 42905.6 Q 97091.2 44314.4 98877.6 45460.8 L 97878.4 46509.6 Q 96108.8 45297.6 92733.6 43822.4 Q 90390.4 45640.8 86131.2 46575.2 Q 85900.8 46034.4 85360.8 45460.8 Q 89259.2 44788.8 91471.2 43281.6 Q 88964.8 42282.4 87146.4 41709.6 L 87162.4 41692.8 Q 87981.6 40661.6 88899.2 39170.4 L 85132 39170.4 L 85132 38006.4 L 89587.2 38006.4 Q 90488.8 36368 90882.4 35368.8 L 92193.6 35648 Q 91685.6 36777.6 91013.6 38006.4 L 99221.6 38006.4 L 99221.6 39170.4 L 96108.8 39170.4 Z M 106053.6 32042.4 Q 105283.2 33943.2 104383.2 35450.4 L 104383.2 46576 L 103219.2 46576 L 103219.2 37236 Q 102448.8 38317.6 101465.6 39334.4 Q 101056 38531.2 100777.6 38154.4 Q 103432.8 35614.4 104907.2 31698.4 L 106053.6 32041.6 L 106053.6 32042.4 Z M 107740.8 36516 L 113820 36516 L 113820 33517.6 L 107740.8 33517.6 L 107740.8 36516 Z M 112050.4 40742.4 Q 113852.8 43609.6 116359.2 44969.6 Q 115900.8 45347.2 115491.2 45936.8 Q 113148 44428.8 111346.4 41496.8 L 111346.4 46625.6 L 110133.6 46625.6 L 110133.6 41546.4 Q 108281.6 44446.4 105759.2 45904.8 Q 105283.2 45248.8 104906.4 44938.4 Q 107626.4 43594.4 109428 40743.2 L 105382.4 40743.2 L 105382.4 39629.6 L 110133.6 39629.6 L 110133.6 37597.6 L 106594.4 37597.6 L 106594.4 32420.8 L 115032.8 32420.8 L 115032.8 37597.6 L 111346.4 37597.6 L 111346.4 39629.6 L 115932.8 39629.6 L 115932.8 40743.2 L 112050.4 40743.2 L 112050.4 40742.4 Z M 124616.8 36794.4 Q 123634.4 37662.4 122978.4 38120.8 Q 122667.2 37531.2 122241.6 37137.6 Q 125600.8 35007.2 127190.4 31534.4 L 128255.2 31911.2 L 127960.8 32484.8 Q 129779.2 35122.4 132727.2 36908 Q 132350.4 37334.4 132088 37989.6 Q 129384.8 36155.2 127385.6 33468 Q 126221.6 35269.6 124682.4 36712 L 130121.6 36712 L 130121.6 37760.8 L 124616.8 37760.8 L 124616.8 36794.4 Z M 127418.4 43004 Q 127303.2 41496.8 126762.4 39088 L 127729.6 38956.8 Q 128302.4 41398.4 128417.6 42840.8 L 127418.4 43004 Z M 124616.8 39301.6 Q 125436 41414.4 125714.4 43200 L 124699.2 43479.2 Q 124535.2 41889.6 123667.2 39546.4 L 124617.6 39300.8 L 124616.8 39301.6 Z M 122764.8 32730.4 Q 121996 34909.6 121144 36974.4 Q 122602.4 38628.8 122602.4 40512.8 Q 122602.4 41971.2 121963.2 42431.2 Q 121636 42660.8 121111.2 42741.6 Q 120668.8 42790.4 120029.6 42758.4 Q 119997.6 42151.2 119719.2 41676.8 Q 120209.6 41725.6 120668 41692.8 Q 120996.8 41692.8 121160 41545.6 Q 121504.8 41316 121504.8 40414.4 Q 121504.8 38727.2 120046.4 37105.6 Q 120767.2 35269.6 121340 33419.2 L 119276 33419.2 L 119276 46575.2 L 118194.4 46575.2 L 118194.4 32320 L 121782.4 32320 L 121978.4 32255.2 L 122764.8 32729.6 L 122764.8 32730.4 Z M 131808.8 39252 Q 130416.8 42708.8 129286.4 44756.8 L 132333.6 44756.8 L 132333.6 45837.6 L 122781.6 45837.6 L 122781.6 44756.8 L 128253.6 44756.8 Q 129712 42135.2 130727.2 38956.8 L 131808.8 39252 Z M 139756 32501.6 Q 138068.8 36597.6 135152.8 39235.2 Q 134644 38760.8 134022.4 38367.2 Q 136889.6 36123.2 138461.6 32141.6 L 139756.8 32502.4 L 139756 32501.6 Z M 144261.6 40349.6 Q 146948.8 43609.6 148160.8 45855.2 L 146982.4 46510.4 Q 146671.2 45904.8 145900.8 44676 Q 136381.6 45331.2 135808 45544.8 Q 135628 44840 135333.6 44267.2 Q 135808 44152 136823.2 42907.2 Q 138855.2 40564.8 140756 36616 L 142067.2 37205.6 Q 139920 41153.6 137511.2 44004.8 L 145130.4 43546.4 Q 144016 41990.4 143132 40876 L 144262.4 40352 L 144261.6 40349.6 Z M 143999.2 32026.4 Q 145801.6 35745.6 148848.8 38203.2 Q 148259.2 38677.6 147832.8 39234.4 Q 144867.2 36498.4 142803.2 32484.8 L 143999.2 32026.4 Z M 153337.6 39513.6 L 153337.6 42560.8 L 158597.6 42560.8 L 158597.6 39513.6 L 153337.6 39513.6 Z M 153337.6 43642.4 L 153337.6 44838.4 L 152141.6 44838.4 L 152141.6 38432.8 L 159792.8 38432.8 L 159792.8 43642.4 L 153337.6 43642.4 Z M 160908 36679.2 L 151109.6 36679.2 L 151109.6 35581.6 L 160908 35581.6 L 160908 36679.2 Z M 164004 44806.4 Q 164004 46002.4 163265.6 46280.8 Q 162644 46510.4 160218.4 46510.4 Q 160120 45773.6 159792.8 45200 Q 161644.8 45248.8 162381.6 45216.8 Q 162775.2 45200 162775.2 44807.2 L 162775.2 33879.2 L 150995.2 33879.2 L 150995.2 32715.2 L 164004 32715.2 L 164004 44807.2 L 164004 44806.4 Z M 5209.6 59129.6 L 5209.6 62341.6 Q 5209.6 68059.2 3621.6 70861.6 Q 3145.6 70387.2 2588.8 70189.6 Q 3997.6 67683.2 3997.6 62342.4 L 3997.6 57968 L 10584 57968 Q 10190.4 57148.8 9551.2 56345.6 L 10600 55920 Q 11484 56919.2 11960 57968 L 17563.2 57968 L 17563.2 59130.4 L 5208.8 59130.4 L 5209.6 59129.6 Z M 11960.8 63439.2 Q 13844.8 68009.6 17744.8 69730.4 Q 17236.8 70172.8 16876 70778.4 Q 13452 69057.6 11387.2 64945.6 Q 10093.6 69057.6 6260 70844 Q 5980.8 70335.2 5456.8 69909.6 Q 9504 68156.8 10535.2 63437.6 L 6128.8 63437.6 L 6128.8 62291.2 L 10715.2 62291.2 Q 10830.4 61455.2 10977.6 59636.8 L 12255.2 59636.8 Q 12140.8 61160.8 11976.8 62291.2 L 17268.8 62291.2 L 17268.8 63437.6 L 11960.8 63437.6 L 11960.8 63439.2 Z M 22495.2 58688 Q 22036.8 57737.6 21005.6 56573.6 L 21905.6 55984 Q 23003.2 57114.4 23445.6 58048 L 22495.2 58688 Z M 24560 65912.8 Q 24231.2 65454.4 22888 63848.8 L 22888 70876.8 L 21724 70876.8 L 21724 64224.8 Q 20659.2 65388.8 19626.4 66159.2 Q 19414.4 65420.8 19053.6 64962.4 Q 21854.4 63078.4 23394.4 59850.4 L 19364.8 59850.4 L 19364.8 58736.8 L 24000.8 58736.8 L 24230.4 58688 L 24886.4 59146.4 Q 24263.2 60816.8 23034.4 62586.4 Q 23936 63422.4 25312 64929.6 L 24559.2 65912 L 24560 65912.8 Z M 26575.2 62292 L 32031.2 62292 L 32031.2 58129.6 L 26575.2 58129.6 L 26575.2 62292 Z M 32703.2 69779.2 Q 32981.6 69779.2 33062.4 69337.6 Q 33144.8 68928 33177.6 67420 Q 33472 67666.4 34210.4 67896 Q 34128 69616.8 33865.6 70206.4 Q 33571.2 70796 32816.8 70796 L 31342.4 70796 Q 30490.4 70796 30195.2 70467.2 Q 29916.8 70140 29916.8 69206.4 L 29916.8 63389.6 L 28327.2 63389.6 Q 28147.2 66470.4 27459.2 68009.6 Q 26591.2 69959.2 24444.8 70942.4 Q 24215.2 70466.4 23691.2 69976 Q 25640 69140 26394.4 67452.8 Q 27000 66141.6 27131.2 63389.6 L 25428 63389.6 L 25428 57016 L 33226.4 57016 L 33226.4 63389.6 L 31096 63389.6 L 31096 69206.4 Q 31096 69567.2 31178.4 69665.6 Q 31260.8 69780 31539.2 69780 L 32703.2 69780 L 32703.2 69779.2 Z M 45580.8 58310.4 L 45580.8 59507.2 L 48038.4 59507.2 L 48038.4 58310.4 L 45580.8 58310.4 Z M 48038.4 60505.6 L 45580.8 60505.6 L 45580.8 61718.4 L 48038.4 61718.4 L 48038.4 60505.6 Z M 44432.8 58310.4 L 41287.2 58310.4 L 41287.2 57344 L 44432.8 57344 L 44432.8 56000 L 45580.8 56000 L 45580.8 57344 L 49136 57344 L 49136 59507.2 L 50265.6 59507.2 L 50265.6 60505.6 L 49136 60505.6 L 49136 62701.6 L 45580.8 62701.6 L 45580.8 63930.4 L 49446.4 63930.4 L 49446.4 64864 L 45580.8 64864 L 45580.8 66191.2 L 50053.6 66191.2 L 50053.6 67190.4 L 45580.8 67190.4 L 45580.8 68812.8 L 44432.8 68812.8 L 44432.8 67190.4 L 40369.6 67190.4 L 40369.6 66191.2 L 44432.8 66191.2 L 44432.8 64864 L 41057.6 64864 L 41057.6 63930.4 L 44432.8 63930.4 L 44432.8 62701.6 L 41172.8 62701.6 L 41172.8 61718.4 L 44432.8 61718.4 L 44432.8 60505.6 L 40222.4 60505.6 L 40222.4 59507.2 L 44432.8 59507.2 L 44432.8 58310.4 Z M 40304.8 61653.6 Q 39911.2 65077.6 38896 67404 Q 40844.8 69369.6 45530.4 69369.6 Q 49692.8 69369.6 50528 69353.6 Q 50184.8 69877.6 50069.6 70484.8 L 45499.2 70484.8 Q 40535.2 70484.8 38404.8 68404 Q 37536.8 69878.4 36372.8 70796.8 Q 35914.4 70223.2 35472 69960.8 Q 36717.6 69076.8 37619.2 67503.2 Q 36733.6 66307.2 36144 64357.6 L 37045.6 63996.8 Q 37455.2 65405.6 38110.4 66420.8 Q 38782.4 64766.4 39093.6 62571.2 L 36440 62571.2 Q 37488.8 60785.6 38782.4 58032.8 L 35915.2 58032.8 L 35915.2 56951.2 L 40519.2 56951.2 Q 39356.8 59376.8 38242.4 61489.6 L 39406.4 61489.6 L 39618.4 61456.8 L 40307.2 61654.4 L 40304.8 61653.6 Z M 66700 59456.8 L 57769.6 59456.8 L 57769.6 58327.2 L 61898.4 58327.2 Q 61390.4 57212.8 60604 56279.2 L 61619.2 55836.8 Q 62536.8 56836 62995.2 57835.2 L 61930.4 58327.2 L 66698.4 58327.2 L 66698.4 59456.8 L 66700 59456.8 Z M 63799.2 59801.6 Q 65814.4 61702.4 66666.4 63160.8 L 65764.8 63913.6 Q 64929.6 62374.4 62962.4 60440.8 L 63798.4 59801.6 L 63799.2 59801.6 Z M 61030.4 60375.2 Q 59801.6 62521.6 58114.4 64012.8 Q 57819.2 63684 57262.4 63274.4 Q 58900.8 61931.2 59933.6 59883.2 L 61031.2 60375.2 L 61030.4 60375.2 Z M 56720.8 65290.4 Q 56508.8 64732.8 55525.6 62767.2 L 55525.6 70876.8 L 54412 70876.8 L 54412 62947.2 Q 53493.6 66224 52396 67895.2 Q 52150.4 67272 51740.8 66731.2 Q 53363.2 64520 54182.4 60522.4 L 52281.6 60522.4 L 52281.6 59376 L 54412 59376 L 54412 55919.2 L 55525.6 55919.2 L 55525.6 59376 L 57360 59376 L 57360 60522.4 L 55525.6 60522.4 L 55525.6 61177.6 Q 56148.8 62063.2 57460 64372.8 L 56721.6 65291.2 L 56720.8 65290.4 Z M 64799.2 63045.6 Q 64143.2 65372 62800 67158.4 Q 64585.6 68928 66960.8 69730.4 Q 66519.2 70091.2 66141.6 70779.2 Q 63766.4 69911.2 62013.6 68076.8 Q 60342.4 69813.6 57917.6 70911.2 Q 57540 70321.6 57147.2 69994.4 Q 59588 68929.6 61243.2 67176 Q 59899.2 65455.2 59064 63112.8 L 60112.8 62817.6 Q 60800.8 64751.2 61996.8 66258.4 Q 63094.4 64718.4 63635.2 62752.8 L 64799.2 63047.2 L 64799.2 63045.6 Z M 68304.8 68748 Q 73809.6 63931.2 73809.6 60997.6 Q 73809.6 59916.8 73268.8 59293.6 Q 72679.2 58621.6 71597.6 58621.6 Q 70270.4 58621.6 69106.4 60014.4 L 68238.4 59162.4 Q 69876.8 57392.8 71777.6 57392.8 Q 73383.2 57392.8 74333.6 58359.2 Q 75268 59326.4 75268 60948 Q 75268 63995.2 70566.4 68452 Q 72024.8 68337.6 72532.8 68337.6 L 75858.4 68337.6 L 75858.4 69631.2 L 68305.6 69631.2 L 68305.6 68747.2 L 68304.8 68748 Z M 78464.8 68288 Q 77449.6 66649.6 77449.6 63586.4 Q 77449.6 60523.2 78464.8 58917.6 Q 79431.2 57393.6 81200.8 57393.6 Q 82954.4 57393.6 83920.8 58933.6 Q 84936 60539.2 84936 63586.4 Q 84936 66649.6 83920.8 68288 Q 82954.4 69845.6 81200.8 69845.6 Q 79448 69845.6 78464.8 68288  Z M 83478.4 63586.4 Q 83478.4 58606.4 81200.8 58606.4 Q 78907.2 58606.4 78907.2 63586.4 Q 78907.2 68648.8 81200.8 68648.8 Q 83478.4 68648.8 83478.4 63586.4  Z M 93360 62144 L 93360 60572 L 90460 60572 L 90460 59588.8 L 93360 59588.8 L 93360 58180 L 94524 58180 L 94524 59588.8 L 97603.2 59588.8 L 97603.2 60572 L 94524 60572 L 94524 62144 L 98012.8 62144 L 98012.8 63160.8 L 90050.4 63160.8 L 90050.4 62144 L 93360 62144 Z M 91968 65503.2 L 91968 67829.6 L 96031.2 67829.6 L 96031.2 65503.2 L 91968 65503.2 Z M 91968 68796.8 L 91968 69714.4 L 90853.6 69714.4 L 90853.6 64536.8 L 97177.6 64536.8 L 97177.6 68796.8 L 91968 68796.8 Z M 100077.6 69337.6 Q 100077.6 70368.8 99356.8 70664 Q 98800 70876 96522.4 70876 Q 96440 70368 96112.8 69728.8 Q 97636 69777.6 98455.2 69728.8 Q 98864.8 69728.8 98864.8 69336 L 98864.8 57850.4 L 89379.2 57850.4 L 89379.2 61963.2 Q 89379.2 68090.4 87264.8 70990.4 Q 86839.2 70465.6 86298.4 70204 Q 88182.4 67598.4 88182.4 61963.2 L 88182.4 56703.2 L 100077.6 56703.2 L 100077.6 69336 L 100077.6 69337.6 Z M 110498.4 65961.6 L 110498.4 62717.6 L 106828 62717.6 L 106828 65961.6 L 110498.4 65961.6 Z M 117657.6 67141.6 L 111727.2 67141.6 L 111727.2 70894.4 L 110498.4 70894.4 L 110498.4 67141.6 L 102928 67141.6 L 102928 65961.6 L 105615.2 65961.6 L 105615.2 61571.2 L 110498.4 61571.2 L 110498.4 59080.8 L 106516.8 59080.8 Q 105403.2 60981.6 104026.4 62308.8 Q 103371.2 61735.2 102977.6 61539.2 Q 105435.2 59392.8 106664 55886.4 L 107892.8 56180.8 Q 107582.4 56968 107140 57901.6 L 116904 57901.6 L 116904 59081.6 L 111727.2 59081.6 L 111727.2 61572 L 116527.2 61572 L 116527.2 62718.4 L 111727.2 62718.4 L 111727.2 65962.4 L 117657.6 65962.4 L 117657.6 67142.4 L 117657.6 67141.6 Z " fill-rule="nonzero" style="fill:#31859b;;fill-opacity:1;"/>
</svg>