<svg version="1.1" x="0" y="0" width="100%" height="100%" viewBox="0 0 60006.4 40550.4" xmlns="http://www.w3.org/2000/svg">
  <path d="M 36934.4 30052.4 Q 37941.2 30052.4 38310.8 29412.8 Q 38679.2 28701.2 38778.8 26415.2 Q 39638 26908.4 40498.4 27056 Q 40276.4 30004.4 39490.4 30963.2 Q 38778.8 31847.6 36762.8 31847.6 L 26342 31847.6 Q 21944 31847.6 21944 29120 Q 21944 27818 23442.8 26416.4 Q 25679.6 24279.2 32462 20175.2 L 21575.6 20175.2 L 21575.6 18455.6 L 35558 18455.6 L 35558 18479.6 L 35927.6 18382.4 L 37229.6 19341.2 Q 36935.6 19562 36812 19611.2 Q 23786 27278 23786 28973.6 Q 23786 30054.8 26194.4 30054.8 L 36935.6 30054.8 L 36934.4 30052.4 Z M 40521.2 12702.8 L 40521.2 14446.4 L 35115.2 14446.4 L 35115.2 16683.2 L 33272 16683.2 L 33272 14446.4 L 26685.2 14446.4 L 26685.2 16683.2 L 24842 16683.2 L 24842 14446.4 L 19191.2 14446.4 L 19191.2 12702.8 L 24842 12702.8 L 24842 10048.4 L 26685.2 10048.4 L 26685.2 12702.8 L 33272 12702.8 L 33272 10048.4 L 35115.2 10048.4 L 35115.2 12702.8 L 40521.2 12702.8 Z " fill-rule="nonzero" style="fill:#000000;;fill-opacity:1;"/>
</svg>