<svg version="1.1" x="0" y="0" width="100%" height="100%" viewBox="0 0 426496 49152" xmlns="http://www.w3.org/2000/svg">
  <path d="M 24944.95 35250.35 L 24944.95 28509.3 L 11760.1 28509.3 L 11760.1 35250.35 L 24944.95 35250.35 Z M 27201.15 38813 L 24944.95 38813 L 24944.95 37270.2 L 11760.1 37270.2 L 11760.1 38813 L 9590.9 38813 L 9590.9 29044.35 Q 7217.25 29875.2 4663.8 30468.25 Q 4305.65 29280.7 3534.25 28449.85 Q 9444.45 27202.85 14461.45 24529.05 Q 12264.7 22539.65 9949.05 20876.5 L 11612.2 19599.05 Q 14344 21442 16511.75 23342.95 Q 21263.4 20402.35 23787.85 16690.35 L 12798.3 16690.35 Q 9770.7 19600.5 5761.45 21710.25 Q 5048.05 20580.7 4247.65 20047.1 Q 10869.8 16839.7 14165.65 11613.9 L 16630.65 12147.5 Q 15621.45 13661.3 14699.25 14671.95 L 25213.2 14671.95 L 25568.45 14551.6 L 27053.25 15472.35 Q 23638.5 22095.95 15412.65 26461.9 L 27202.6 26461.9 L 27202.6 38814.45 L 27201.15 38813 Z M 58173.15 17818.45 L 58173.15 38723.1 L 55916.95 38723.1 L 55916.95 36526.35 L 35041.3 36526.35 L 35041.3 17846 L 37297.5 17846 L 37297.5 34299.15 L 45434.9 34299.15 L 45434.9 12056.15 L 47691.1 12056.15 L 47691.1 34299.15 L 55916.95 34299.15 L 55916.95 17817 L 58173.15 17817 L 58173.15 17818.45 Z M 89591.75 35843.4 L 89591.75 37953.15 L 64409.6 37953.15 L 64409.6 13333.6 L 88849.35 13333.6 L 88849.35 15443.35 L 66577.35 15443.35 L 66577.35 35843.4 L 89591.75 35843.4 Z M 84305.05 33765.55 Q 81989.4 30884.4 77951.15 27083.95 Q 74031.8 31122.2 69961.65 33765.55 Q 68835 32547.55 68210.05 32131.4 Q 72576 29519.95 76405.45 25599.15 Q 72515.1 22007.5 69161.25 19245.25 L 70704.05 17938.8 Q 74031.8 20612.6 77861.25 24056.35 Q 80890.3 20702.5 83087.05 16870.15 L 85135.9 17701 Q 82730.35 21771.15 79434.5 25483.15 Q 83919.35 29611.3 86055.2 32193.75 L 84303.6 33767 L 84305.05 33765.55 Z M 114032.95 35250.35 L 114032.95 28509.3 L 100848.1 28509.3 L 100848.1 35250.35 L 114032.95 35250.35 Z M 116289.15 38813 L 114032.95 38813 L 114032.95 37270.2 L 100848.1 37270.2 L 100848.1 38813 L 98678.9 38813 L 98678.9 29044.35 Q 96305.25 29875.2 93751.8 30468.25 Q 93393.65 29280.7 92622.25 28449.85 Q 98532.45 27202.85 103549.45 24529.05 Q 101352.7 22539.65 99037.05 20876.5 L 100700.2 19599.05 Q 103432 21442 105599.75 23342.95 Q 110351.4 20402.35 112875.85 16690.35 L 101886.3 16690.35 Q 98858.7 19600.5 94849.45 21710.25 Q 94136.05 20580.7 93335.65 20047.1 Q 99957.8 16839.7 103253.65 11613.9 L 105718.65 12147.5 Q 104709.45 13661.3 103787.25 14671.95 L 114301.2 14671.95 L 114656.45 14551.6 L 116141.25 15472.35 Q 112726.5 22095.95 104500.65 26461.9 L 116290.6 26461.9 L 116290.6 38814.45 L 116289.15 38813 Z M 131076.25 20669.15 Q 132649.5 18739.2 133660.15 17105.05 L 130184.5 17105.05 L 130184.5 20667.7 L 131076.25 20667.7 L 131076.25 20669.15 Z M 134016.85 27321.75 L 127364.25 27321.75 L 127364.25 30202.9 L 134016.85 30202.9 L 134016.85 27321.75 Z M 134016.85 35101 L 134016.85 31984.95 L 127364.25 31984.95 L 127364.25 35101 L 134016.85 35101 Z M 137936.2 13333.6 Q 136304.95 17136.95 133631.15 20669.15 L 137463.5 20669.15 L 137463.5 22629.55 L 132028.9 22629.55 Q 130484.65 24381.15 129208.65 25510.7 L 136126.6 25510.7 L 136126.6 38280.85 L 134019.75 38280.85 L 134019.75 36945.4 L 127367.15 36945.4 L 127367.15 38697 L 125318.3 38697 L 125318.3 28510.75 Q 124338.1 29164.7 122973.65 29937.55 Q 122438.6 29045.8 121578.75 28125.05 Q 125915.7 25986.3 129269.55 22629.55 L 122232.7 22629.55 L 122232.7 20669.15 L 128112.45 20669.15 L 128112.45 17106.5 L 123569.6 17106.5 L 123569.6 15146.1 L 128112.45 15146.1 L 128112.45 11969.15 L 130190.3 11969.15 L 130190.3 15146.1 L 133873.3 15146.1 L 133873.3 16780.25 Q 134882.5 15207 135951.15 12772.45 L 137940.55 13335.05 L 137936.2 13333.6 Z M 149340.45 14344.25 Q 147291.6 18916.1 145033.95 23253.05 Q 148954.75 26727.25 148954.75 30439.25 Q 149014.2 33320.4 147440.95 34300.6 Q 146698.55 34834.2 145450.1 34983.55 Q 144262.55 35101 142689.3 35012.55 Q 142629.85 33796 142036.8 32844.8 Q 143639.05 32994.15 144561.25 32905.7 Q 145392.1 32846.25 145956.15 32549 Q 146876.9 32044.4 146817.45 30233.35 Q 146817.45 26908.5 142779.2 23551.75 Q 144709.15 19751.3 146402.75 15505.7 L 140879.7 15505.7 L 140879.7 38846.35 L 138711.95 38846.35 L 138711.95 13395.95 L 147411.95 13395.95 L 147770.1 13307.5 L 149343.35 14347.15 L 149340.45 14344.25 Z M 178352.05 18352.05 L 157148.7 18352.05 L 157148.7 24678.4 Q 157148.7 34478.95 153586.05 39171.15 Q 152694.3 38070.6 151773.55 37566 Q 154831.6 33498.75 154831.6 24678.4 L 154831.6 16185.75 L 165879.15 16185.75 Q 165523.9 14760.4 164455.25 12146.05 L 166682.45 11670.45 Q 167870 14135.45 168286.15 15917.5 L 167247.95 16184.3 L 178353.5 16184.3 L 178353.5 18352.05 L 178352.05 18352.05 Z M 208048.05 21263.65 Q 208019.05 22035.05 207959.6 22301.85 Q 207188.2 35785.4 205703.4 37566 Q 204961 38457.75 203714 38546.2 Q 202674.35 38666.55 200535.6 38575.2 Q 200477.6 37387.65 199971.55 36466.9 Q 201486.8 36616.25 202793.25 36616.25 Q 203505.2 36616.25 203802.45 36169.65 Q 204990 34982.1 205762.85 23341.5 L 203743 23341.5 Q 200713.95 33764.1 193172.5 38811.55 Q 192370.65 38011.15 191478.9 37535.55 Q 198814.45 33198.6 201695.6 23340.05 L 199201.6 23340.05 Q 197212.2 29012.45 192608.45 32308.3 Q 192312.65 31950.15 191064.2 31090.3 L 191123.65 31328.1 Q 184382.6 34029.45 182097.4 34892.2 L 181384 32665 Q 183344.4 32040.05 185422.25 31268.65 L 185422.25 20992.5 L 181798.7 20992.5 L 181798.7 18914.65 L 185422.25 18914.65 L 185422.25 12054.7 L 187500.1 12054.7 L 187500.1 18914.65 L 190766.95 18914.65 L 190766.95 20992.5 L 187500.1 20992.5 L 187500.1 30526.25 L 190678.5 29338.7 L 191062.75 31030.85 Q 195221.35 28299.05 197090.4 23340.05 L 195012.55 23340.05 Q 192785.35 23340.05 192430.1 23695.3 Q 192132.85 22745.55 191510.8 21616 Q 192431.55 21466.65 194480.4 20160.2 Q 197776.25 18053.35 200895.2 15201.2 L 191361.45 15201.2 L 191361.45 13094.35 L 203268.85 13094.35 L 203685 12914.55 L 205349.6 14163 Q 200774.85 18291.15 196171.1 21260.75 L 208049.5 21260.75 L 208048.05 21263.65 Z M 229935.8 17879.35 Q 228420.55 22451.2 226342.7 26192.2 Q 229876.35 30706.05 231687.4 33913.45 L 229667.55 35101 Q 228213.2 32489.55 225184.15 28181.6 Q 222155.1 32962.25 218740.35 35515.7 Q 217877.6 34389.05 217077.2 33825 Q 220668.85 31360 223816.8 26372 Q 221173.45 22806.45 218353.2 19510.6 L 220164.25 18560.85 Q 222807.6 21589.9 224976.8 24379.7 Q 226816.85 20935.95 228004.4 17370.4 L 229935.8 17876.45 L 229935.8 17879.35 Z M 234628 13126.25 Q 234536.65 25658.6 234804.9 29934.65 Q 235160.15 36258.1 236527.5 36258.1 Q 237061.1 36258.1 237178.55 31803.7 Q 237920.95 32814.35 238634.35 33347.95 Q 238456 36317.55 238010.85 37386.2 Q 237535.25 38515.75 236346.25 38515.75 Q 233702.9 38515.75 232990.95 32634.55 Q 232486.35 28715.2 232455.9 15263.55 L 216953.95 15263.55 L 216953.95 21916.15 Q 216953.95 33407.4 213034.6 38900 Q 212261.75 37950.25 211193.1 37415.2 Q 214726.75 32515.65 214726.75 21914.7 L 214726.75 13123.35 L 234625.1 13123.35 L 234628 13126.25 Z M 250723 24856.75 L 250723 30646.6 L 258176 30646.6 L 258176 24856.75 L 250723 24856.75 Z M 250723 32636 L 250723 34745.75 L 248703.15 34745.75 L 248703.15 22867.35 L 260226.3 22867.35 L 260226.3 32636 L 250724.45 32636 L 250723 32636 Z M 266430.85 35873.85 Q 266430.85 37951.7 265066.4 38427.3 Q 263906.4 38811.55 259511.45 38811.55 Q 259273.65 37595 258709.6 36555.35 Q 261947.45 36704.7 263520.7 36616.25 Q 264232.65 36585.8 264232.65 35873.85 L 264232.65 18948 L 244812.8 18948 L 244812.8 38813 L 242645.05 38813 L 242645.05 16809.25 L 250752 16809.25 Q 252058.45 14018 252651.5 11641.45 L 255354.3 12117.05 Q 254285.65 14728.5 253188 16809.25 L 266430.85 16809.25 L 266430.85 35873.85 Z M 295978.95 16066.85 L 283120.35 16066.85 L 283120.35 13986.1 L 295978.95 13986.1 L 295978.95 16066.85 Z M 280239.2 27619 Q 279705.6 26550.35 277566.85 23371.95 L 277566.85 38813 L 275368.65 38813 L 275368.65 24085.35 Q 273557.6 29519.95 271389.85 32221.3 Q 271063.6 31420.9 270142.85 30173.9 Q 273232.8 26490.9 274895.95 20047.1 L 270886.7 20047.1 L 270886.7 17969.25 L 275370.1 17969.25 L 275370.1 11732.8 L 277568.3 11732.8 L 277568.3 17969.25 L 281400.65 17969.25 L 281400.65 20047.1 L 277568.3 20047.1 L 277568.3 20818.5 Q 279915.85 23638.75 281547.1 25865.95 L 280240.65 27619 L 280239.2 27619 Z M 285911.6 26846.15 Q 284397.8 32459.1 281903.8 35963.75 Q 280774.25 35101 280149.3 34805.2 Q 282585.3 31686.25 283891.75 26401 L 285910.15 26846.15 L 285911.6 26846.15 Z M 290366 23105.15 L 290366 36023.2 Q 290366 37832.8 289268.35 38279.4 Q 288376.6 38724.55 284990.85 38724.55 Q 284873.4 37832.8 284309.35 36468.35 Q 286774.35 36556.8 287605.2 36497.35 Q 288169.25 36468.35 288169.25 35992.75 L 288169.25 23105.15 L 281842.9 23105.15 L 281842.9 21027.3 L 297550.75 21027.3 L 297550.75 23105.15 L 290364.55 23105.15 L 290366 23105.15 Z M 294227.35 26341.55 Q 296780.8 31478.9 297611.65 35282.25 L 295562.8 35994.2 Q 294850.85 32074.85 292385.85 26907.05 L 294225.9 26343 L 294227.35 26341.55 Z M 322231.2 35873.85 Q 323447.75 35873.85 323894.35 35101 Q 324339.5 34241.15 324459.85 31478.9 Q 325498.05 32074.85 326537.7 32253.2 Q 326269.45 35815.85 325319.7 36974.4 Q 324459.85 38043.05 322023.85 38043.05 L 309432.05 38043.05 Q 304117.8 38043.05 304117.8 34747.2 Q 304117.8 33173.95 305928.85 31480.35 Q 308631.65 28897.9 316827.05 23938.9 L 303672.65 23938.9 L 303672.65 21861.05 L 320568.05 21861.05 L 320568.05 21890.05 L 321014.65 21772.6 L 322587.9 22931.15 Q 322232.65 23197.95 322083.3 23257.4 Q 306343.55 32521.45 306343.55 34570.3 Q 306343.55 35876.75 309253.7 35876.75 L 322232.65 35876.75 L 322231.2 35873.85 Z M 326565.25 14909.75 L 326565.25 17016.6 L 320033 17016.6 L 320033 19719.4 L 317805.8 19719.4 L 317805.8 17016.6 L 309846.75 17016.6 L 309846.75 19719.4 L 307619.55 19719.4 L 307619.55 17016.6 L 300791.5 17016.6 L 300791.5 14909.75 L 307619.55 14909.75 L 307619.55 11702.35 L 309846.75 11702.35 L 309846.75 14909.75 L 317805.8 14909.75 L 317805.8 11702.35 L 320033 11702.35 L 320033 14909.75 L 326565.25 14909.75 Z M 356797.75 18114.25 L 340611.4 18114.25 L 340611.4 16066.85 L 348094.85 16066.85 Q 347174.1 14047 345748.75 12354.85 L 347588.8 11553 Q 349251.95 13364.05 350082.8 15175.1 L 348152.85 16066.85 L 356794.85 16066.85 L 356794.85 18114.25 L 356797.75 18114.25 Z M 351540.05 18739.2 Q 355192.6 22184.4 356736.85 24827.75 L 355102.7 26192.2 Q 353588.9 23402.4 350023.35 19897.75 L 351538.6 18739.2 L 351540.05 18739.2 Z M 346521.6 19778.85 Q 344294.4 23669.2 341236.35 26372 Q 340701.3 25776.05 339692.1 25033.65 Q 342661.7 22599.1 344533.65 18887.1 L 346523.05 19778.85 L 346521.6 19778.85 Z M 338710.45 28687.65 Q 338326.2 27677 336544.15 24114.35 L 336544.15 38813 L 334525.75 38813 L 334525.75 24440.6 Q 332861.15 30379.8 330871.75 33408.85 Q 330426.6 32279.3 329684.2 31299.1 Q 332624.8 27291.3 334109.6 20045.65 L 330664.4 20045.65 L 330664.4 17967.8 L 334525.75 17967.8 L 334525.75 11702.35 L 336544.15 11702.35 L 336544.15 17967.8 L 339869 17967.8 L 339869 20045.65 L 336544.15 20045.65 L 336544.15 21233.2 Q 337673.7 22838.35 340050.25 27024.5 L 338711.9 28689.1 L 338710.45 28687.65 Z M 353352.55 24618.95 Q 352163.55 28835.55 349729 32073.4 Q 352965.4 35280.8 357270.45 36735.15 Q 356470.05 37389.1 355785.65 38636.1 Q 351480.6 37062.85 348303.65 33738 Q 345274.6 36885.95 340879.65 38875.35 Q 340195.25 37806.7 339483.3 37213.65 Q 343907.25 35283.7 346907.3 32105.3 Q 344471.3 28986.35 342957.5 24740.75 L 344858.45 24205.7 Q 346105.45 27710.35 348273.2 30442.15 Q 350262.6 27650.9 351242.8 24088.25 L 353352.55 24621.85 L 353352.55 24618.95 Z M 384413 14582.05 L 384413 16778.8 L 362141 16778.8 L 362141 14582.05 L 384413 14582.05 Z M 382097.35 24202.8 L 382097.35 26430 L 364041.95 26430 L 364041.95 24202.8 L 382097.35 24202.8 Z M 386018.15 34447.05 L 386018.15 36674.25 L 360450.3 36674.25 L 360450.3 34447.05 L 386018.15 34447.05 Z M 414793.4 13066.8 Q 412804 16124.85 411881.8 17313.85 L 410368 16600.45 Q 411881.8 14373.25 412804 12266.4 L 414793.4 13066.8 Z M 402677.2 17313.85 Q 401608.55 15027.2 400450 13304.6 L 402172.6 12533.2 Q 403774.85 14938.75 404428.8 16423.55 L 402677.2 17315.3 L 402677.2 17313.85 Z M 397480.4 27410.2 Q 397183.15 26667.8 395491 23402.4 L 395491 38813 L 393442.15 38813 L 393442.15 25094.55 Q 392045.8 30053.55 390294.2 32815.8 Q 389789.6 31568.8 389135.65 30677.05 Q 391925.45 26667.8 393321.8 19481.6 L 389847.6 19481.6 L 389847.6 17403.75 L 393442.15 17403.75 L 393442.15 11702.35 L 395491 11702.35 L 395491 17403.75 L 398372.15 17403.75 L 398372.15 19481.6 L 395491 19481.6 L 395491 20640.15 Q 396350.85 21858.15 398844.85 25807.95 L 397480.4 27410.2 Z M 405438 29666.4 Q 404815.95 30795.95 403776.3 32369.2 Q 405825.15 33053.6 407785.55 33765.55 Q 409686.5 32280.75 410607.25 29666.4 L 405439.45 29666.4 L 405438 29666.4 Z M 407457.85 25658.6 Q 406773.45 27172.4 406447.2 27765.45 L 416040.4 27765.45 L 416040.4 29666.4 L 412804 29666.4 Q 411912.25 32666.45 409892.4 34596.4 Q 413128.8 35843.4 415624.25 37120.85 L 414080 38694.1 Q 411735.35 37387.65 408140.8 35931.85 Q 404992.85 37892.25 399232 38784 Q 398965.2 37744.35 398340.25 36913.5 Q 403181.8 36320.45 405796.15 34985 Q 402706.2 33826.45 400745.8 33233.4 Q 401697 31986.4 403122.35 29667.85 L 398788.3 29667.85 L 398788.3 27766.9 L 404163.45 27766.9 Q 404785.5 26579.35 405320.55 25243.9 L 407459.3 25660.05 L 407457.85 25658.6 Z M 409863.4 19332.25 Q 412712.65 22094.5 416424.65 23637.3 Q 415593.8 24321.7 414971.75 25271.45 Q 411555.55 23519.85 408497.5 20312.45 L 408497.5 25212 L 406419.65 25212 L 406419.65 20402.35 Q 403599.4 23550.3 399946.85 25422.25 Q 399471.25 24620.4 398579.5 23849 Q 402142.15 22304.75 405023.3 19335.15 L 399381.35 19335.15 L 399381.35 17466.1 L 406418.2 17466.1 L 406418.2 11705.25 L 408496.05 11705.25 L 408496.05 17466.1 L 415682.25 17466.1 L 415682.25 19335.15 L 409863.4 19335.15 L 409863.4 19332.25 Z " fill-rule="nonzero" style="fill:#000000;;fill-opacity:1;"/>
</svg>