<svg version="1.1" x="0" y="0" width="100%" height="100%" viewBox="0 0 397875.2 186368" xmlns="http://www.w3.org/2000/svg">
  <path d="M 58523.6 14889.2 Q 57639.2 13635.2 55427.6 11277.2 L 56828 10392.8 Q 59064.8 12677.6 59999.6 13882.4 L 58524.8 14890.4 L 58523.6 14889.2 Z M 49430 21746 Q 50855.6 24694.4 53362.4 26807.6 Q 55844 24646.4 57122 21746 L 49428.8 21746 L 49430 21746 Z M 59580.8 20493.2 Q 58131.2 24941.6 54813.2 27914 Q 58056.8 30126.8 62530.4 30962 Q 61892 31576.4 61398.8 32584.4 Q 56705.6 31552.4 53411.6 29069.6 Q 50192 31379.6 45843.2 32559.2 Q 45497.6 31749.2 44883.2 30986 Q 48890 30053.6 51962 27890 Q 49774.4 25850 48300.8 23098.4 Q 45670.4 27767.6 41123.6 30594.8 Q 40608.8 29807.6 39773.6 29193.2 Q 46014.8 25383.2 48569.6 17372 L 45153.2 17372 Q 42892.4 17372 42548 17789.6 Q 42155.6 16560.8 41933.6 16070 Q 42400.4 15946.4 42818 15086 Q 43826 13391.6 44464.4 10737.2 L 46380.8 11105.6 Q 45842 13145.6 44613.2 15603.2 L 49035.2 15603.2 Q 49749.2 12948.8 50067.2 9976.4 L 52107.2 10270.4 Q 51689.6 13218.8 51124.4 15603.2 L 61716.8 15603.2 L 61692.8 17373.2 L 50633.6 17373.2 Q 50240 18626 49773.2 19978.4 L 58006.4 19978.4 L 58350.8 19881.2 L 59579.6 20495.6 L 59580.8 20493.2 Z M 68844.8 12824 L 68844.8 15330.8 L 83469.2 15330.8 L 83469.2 12824 L 68844.8 12824 Z M 68844.8 16928 L 68844.8 18378.8 Q 68844.8 27939.2 65969.6 32534 Q 65207.6 31870.4 64372.4 31600.4 Q 67026.8 27423.2 67026.8 18380 L 67026.8 11228 L 85286 11228 L 85286 16929.2 L 68844.8 16929.2 L 68844.8 16928 Z M 75038 23538.8 L 79929.2 23538.8 L 79929.2 20960 L 75038 20960 L 75038 23538.8 Z M 85458.8 26219.6 Q 83712.8 27545.6 81551.6 28701.2 Q 83787.2 30347.6 87032 31011.2 Q 86368.4 31600.4 85901.6 32535.2 Q 79290.8 30864.8 76760 25138.4 L 73370 25138.4 L 73370 30150.8 L 78653.6 28971.2 Q 78506 29906 78579.2 30495.2 Q 71723.6 32166.8 71182.4 32535.2 Q 71058.8 31823.6 70468.4 30987.2 Q 71649.2 30324.8 71649.2 29120 L 71649.2 25139.6 L 68994.8 25139.6 L 68994.8 23541.2 L 73319.6 23541.2 L 73319.6 20962.4 L 69657.2 20962.4 L 69657.2 19388 L 73319.6 19388 L 73319.6 17176.4 L 75039.2 17176.4 L 75039.2 19388 L 79930.4 19388 L 79930.4 17176.4 L 81650 17176.4 L 81650 19388 L 85779.2 19388 L 85779.2 20962.4 L 81650 20962.4 L 81650 23541.2 L 86762 23541.2 L 86762 25139.6 L 78454.4 25139.6 Q 79289.6 26662.4 80421.2 27743.6 Q 82854.8 26294 84083.6 25286 L 85460 26220.8 L 85458.8 26219.6 Z M 108780.8 21008 Q 108142.4 20172.8 107207.6 19238 Q 92585.6 19952 91726.4 20246 Q 91480.4 19190 91136 18426.8 Q 91750.4 18329.6 92831.6 17297.6 Q 94575.2 15822.8 96518 13144.4 L 90029.6 13144.4 L 90029.6 11424.8 L 110501.6 11424.8 L 110501.6 13144.4 L 98901.2 13144.4 Q 96591.2 16167.2 94330.4 18207.2 L 105683.6 17740.4 Q 103964 16193.6 102635.6 15161.6 L 104086.4 14226.8 Q 108338 17396 110328.8 19902.8 L 108779.6 21008 L 108780.8 21008 Z M 111287.6 29830.4 L 111287.6 31552.4 L 89489.6 31552.4 L 89489.6 29830.4 L 99393.2 29830.4 L 99393.2 25308.8 L 91626.8 25308.8 L 91626.8 23613.2 L 99393.2 23613.2 L 99393.2 20420 L 101236.4 20420 L 101236.4 23613.2 L 109223.6 23613.2 L 109223.6 25308.8 L 101236.4 25308.8 L 101236.4 29830.4 L 111287.6 29830.4 Z M 132251.6 21966.8 L 133653.2 22654.4 Q 130851.2 26489.6 125836.4 32584.4 L 123969.2 31724 Q 126377.6 28972.4 130360.4 23909.6 L 116646.8 23909.6 L 116646.8 22090.4 L 131933.6 22090.4 L 132251.6 21966.8 Z M 126894.8 21598.4 Q 125469.2 20049.2 122249.6 17567.6 L 123478.4 16462.4 Q 126868.4 18894.8 128196.8 20320.4 L 126894.8 21598.4 Z M 126525.2 10736 L 126059.6 11423.6 Q 130114.4 16118 136258.4 18820.4 Q 135644 19287.2 134832.8 20442.8 Q 129352.4 17691.2 125002.4 12776 Q 120947.6 17618 114975.2 20590.4 Q 114336.8 19607.6 113574.8 19017.2 Q 121020.8 15600.8 124804.4 9899.6 L 126524 10734.8 L 126525.2 10736 Z M 140534 31943.6 Q 143457.2 30740 143630 28331.6 Q 143482.4 28355.6 143212.4 28355.6 Q 142425.2 28355.6 141910.4 27912.8 Q 141369.2 27447.2 141369.2 26610.8 Q 141369.2 25775.6 141934.4 25284.8 Q 142451.6 24842 143237.6 24842 Q 145326.8 24842 145326.8 27669.2 Q 145326.8 31749.2 141075.2 33248 L 140534 31943.6 Z M 181994 30150.8 Q 182902.4 30150.8 183172.4 29439.2 Q 183418.4 28775.6 183542 26244.8 Q 184204.4 26735.6 185285.6 27005.6 Q 185088.8 29980.4 184499.6 30939.2 Q 183860 31922 182116.4 31922 L 177545.6 31922 Q 175653.2 31922 174989.6 31331.6 Q 174351.2 30742.4 174351.2 29096 L 174351.2 20715.2 L 173834 20715.2 Q 172016 29316.8 164076.8 32512.4 Q 163511.6 31528.4 162848 31013.6 Q 170172.8 28235.6 172016 20715.2 L 163168.4 20715.2 L 163168.4 18921.2 L 172335.2 18921.2 Q 172631.6 17151.2 172779.2 13488.8 L 164692.4 13488.8 L 164692.4 11718.8 L 183665.6 11718.8 L 183665.6 13488.8 L 174573.2 13488.8 Q 174500 16511.6 174131.6 18921.2 L 185067.2 18921.2 L 185067.2 20715.2 L 176219.6 20715.2 L 176219.6 29096 Q 176219.6 29734.4 176489.6 29955.2 Q 176786 30152 177718.4 30152 L 181995.2 30152 L 181994 30150.8 Z M 193323.2 15896 Q 192070.4 14298.8 189095.6 11817.2 L 190227.2 10612.4 Q 193175.6 12922.4 194552 14519.6 L 193323.2 15896 Z M 195460.4 26193.2 Q 195706.4 27004.4 196124 27692 Q 191454.8 31478 191085.2 31992.8 Q 190691.6 31254.8 190077.2 30689.6 Q 191258 29706.8 191258 28330.4 L 191258 19506.8 L 187448 19506.8 L 187448 17736.8 L 193026.8 17736.8 L 193026.8 28084.4 L 195459.2 26192 L 195460.4 26193.2 Z M 206004.8 30200 Q 206889.2 30200 207183.2 29561.6 Q 207453.2 28971.2 207576.8 26807.6 Q 208264.4 27324.8 209247.2 27521.6 Q 209050.4 30100.4 208461.2 30960.8 Q 207821.6 31845.2 206102 31845.2 L 201039.2 31845.2 Q 199072.4 31845.2 198384.8 31280 Q 197697.2 30689.6 197697.2 29043.2 L 197697.2 19065.2 L 199491.2 19065.2 L 199491.2 24004.4 Q 203398.4 22112 206102 20147.6 L 207306.8 21670.4 Q 204038 23807.6 199491.2 25823.6 L 199491.2 29067.2 Q 199491.2 29781.2 199787.6 29978 Q 200105.6 30198.8 201162.8 30198.8 L 206004.8 30198.8 L 206004.8 30200 Z M 203571.2 10366.4 Q 203325.2 10956.8 203153.6 11250.8 Q 205832 16018.4 210280.4 18770 Q 209618 19336.4 208978.4 20195.6 Q 205144.4 17541.2 202245.2 12896 Q 199491.2 17517.2 195387.2 20417.6 Q 194772.8 19458.8 194158.4 19065.2 Q 199319.6 15599.6 201629.6 10020.8 L 203570 10365.2 L 203571.2 10366.4 Z M 229523.6 12455.6 L 216818 12455.6 L 216818 14446.4 L 229523.6 14446.4 L 229523.6 12455.6 Z M 229523.6 15774.8 L 216818 15774.8 L 216818 17765.6 L 229523.6 17765.6 L 229523.6 15774.8 Z M 231342.8 19164.8 L 215024 19164.8 L 215024 11054 L 231342.8 11054 L 231342.8 19164.8 Z M 224337.2 30150.8 Q 225665.6 30298.4 227238.8 30298.4 Q 233235.2 30298.4 234488 30274.4 Q 234021.2 31060.4 233849.6 32020.4 L 227164.4 32020.4 Q 223208 32020.4 221044.4 31209.2 Q 218537.6 30274.4 217112 27914 Q 215686.4 30741.2 213278 32535.2 Q 212763.2 31847.6 211926.8 31233.2 Q 215662.4 28824.8 216694.4 23246 L 218537.6 23492 Q 218316.8 24647.6 217899.2 25949.6 Q 219201.2 28972.4 222543.2 29856.8 L 222543.2 22458.8 L 212466.8 22458.8 L 212466.8 20812.4 L 234044 20812.4 L 234044 22458.8 L 224337.2 22458.8 L 224337.2 25186.4 L 232448 25186.4 L 232448 26808.8 L 224337.2 26808.8 L 224337.2 30150.8 Z M 243359.6 20517.2 L 240114.8 20517.2 L 240114.8 27766.4 L 243359.6 27766.4 L 243359.6 20517.2 Z M 240114.8 29412.8 L 240114.8 31379.6 L 238541.6 31379.6 L 238541.6 22484 Q 237903.2 23663.6 237215.6 24548 Q 236871.2 23295.2 236404.4 22557.2 Q 238812.8 19288.4 239918 13047.2 L 236822 13047.2 L 236822 11351.6 L 245103.2 11351.6 L 245103.2 13047.2 L 241662.8 13047.2 Q 241048.4 16240.4 240113.6 18894.8 L 244907.6 18894.8 L 244907.6 29412.8 L 240113.6 29412.8 L 240114.8 29412.8 Z M 251174 22876.4 Q 251199.2 22457.6 251199.2 21647.6 L 251199.2 20393.6 L 247709.6 20393.6 L 247709.6 22876.4 L 251174 22876.4 Z M 247710.8 19017.2 L 251200.4 19017.2 L 251200.4 16559.6 L 247710.8 16559.6 L 247710.8 19017.2 Z M 252944 16559.6 L 252944 19017.2 L 256606.4 19017.2 L 256606.4 16559.6 L 252944 16559.6 Z M 256606.4 20393.6 L 252944 20393.6 L 252944 21647.6 Q 252944 22457.6 252920 22876.4 L 256606.4 22876.4 L 256606.4 20393.6 Z M 252796.4 24326 Q 252428 26907.2 251150 28725.2 Q 254222 30544.4 259210.4 30962 Q 258546.8 31625.6 258154.4 32558 Q 253042.4 31919.6 250067.6 29952.8 Q 248324 31624.4 245472.8 32556.8 Q 245055.2 31821.2 244391.6 31107.2 Q 247143.2 30345.2 248741.6 28944.8 Q 247119.2 27543.2 246111.2 25406 L 247660.4 25012.4 Q 248372 26561.6 249797.6 27765.2 Q 250756.4 26339.6 251052.8 24324.8 L 246088.4 24324.8 L 246088.4 15108.8 L 251200.4 15108.8 L 251200.4 12798.8 L 245597.6 12798.8 L 245597.6 11128.4 L 258818 11128.4 L 258818 12798.8 L 252944 12798.8 L 252944 15108.8 L 258302 15108.8 L 258302 24324.8 L 252796.4 24324.8 L 252796.4 24326 Z M 268451.6 10686.8 Q 267322.4 13611.2 266020.4 15995.6 L 266020.4 32460.8 L 264274.4 32460.8 L 264274.4 18820.4 Q 263366 20172.8 262013.6 21695.6 Q 261669.2 20787.2 260981.6 19902.8 Q 264644 16068.8 266732 10145.6 L 268451.6 10686.8 Z M 283394 24032 L 276735.2 24032 L 276735.2 32510 L 274916 32510 L 274916 24032 L 267911.6 24032 L 267911.6 22236.8 L 274916 22236.8 L 274916 16854.8 L 271058 16854.8 Q 270246.8 19116.8 269288 20590.4 Q 268673.6 20123.6 267714.8 19656.8 Q 269753.6 16830.8 270737.6 11277.2 L 272457.2 11645.6 Q 272112.8 13439.6 271646 15062 L 274914.8 15062 L 274914.8 10367.6 L 276734 10367.6 L 276734 15062 L 282336.8 15062 L 282336.8 16856 L 276734 16856 L 276734 22238 L 283392.8 22238 L 283392.8 24033.2 L 283394 24032 Z M 298458.8 13684.4 Q 298458.8 18255.2 294158 20319.2 Q 293667.2 19508 292979.6 18966.8 Q 296739.2 17247.2 296739.2 13634 L 296739.2 10931.6 L 304505.6 10931.6 L 304505.6 16632.8 Q 304505.6 17541.2 304947.2 17541.2 L 306642.8 17541.2 Q 307306.4 17541.2 307797.2 17420 Q 307845.2 18279.2 307968.8 18993.2 Q 307576.4 19116.8 306665.6 19116.8 L 304822.4 19116.8 Q 303618.8 19116.8 303176 18526.4 Q 302782.4 18009.2 302782.4 16583.6 L 302782.4 12652.4 L 298457.6 12652.4 L 298457.6 13684.4 L 298458.8 13684.4 Z M 291454.4 15454.4 Q 290128.4 13734.8 287720 11621.6 L 288899.6 10516.4 Q 291406.4 12555.2 292683.2 14153.6 L 291454.4 15455.6 L 291454.4 15454.4 Z M 293740.4 26316.8 Q 294034.4 27225.2 294404 27815.6 Q 289536.8 31404.8 289022 31994 Q 288652.4 31085.6 288038 30471.2 Q 289266.8 29684 289266.8 28258.4 L 289266.8 19485.2 L 285826.4 19485.2 L 285826.4 17739.2 L 291035.6 17739.2 L 291035.6 28257.2 L 293739.2 26316.8 L 293740.4 26316.8 Z M 296763.2 22557.2 Q 298065.2 25308.8 300596 27422 Q 303153.2 25382 304430 22556 L 296763.2 22556 L 296763.2 22557.2 Z M 306741.2 21278 Q 305388.8 25604 302022.8 28454 Q 304653.2 30176 308266.4 30962 Q 307626.8 31576.4 307136 32584.4 Q 303302 31649.6 300550.4 29585.6 Q 297870.8 31428.8 293987.6 32534 Q 293742.8 31722.8 293079.2 30911.6 Q 296495.6 30125.6 299150 28454 Q 296568.8 26045.6 295046 22679.6 L 295390.4 22556 L 294137.6 22556 L 294137.6 20836.4 L 305294 20836.4 L 305614.4 20763.2 L 306743.6 21278 L 306741.2 21278 Z M 319299.2 19140.8 Q 319299.2 19706 319275.2 19976 Q 319054.4 30568.4 318316.4 31552.4 Q 317825.6 32214.8 316866.8 32338.4 Q 315932 32462 314285.6 32338.4 Q 314236.4 31406 313842.8 30692 Q 315144.8 30791.6 316103.6 30791.6 Q 316596.8 30791.6 316841.6 30471.2 Q 317382.8 29684 317579.6 20812.4 L 314631.2 20812.4 Q 314114 29021.6 311508.8 32511.2 Q 310994 31773.2 310133.6 31306.4 Q 312885.2 27644 313082 15774.8 L 310403.6 15774.8 L 310403.6 14052.8 L 315342.8 14052.8 Q 314974.4 12431.6 313990.4 10563.2 L 315564.8 10096.4 Q 316547.6 11939.6 317014.4 13562 L 315489.2 14052.8 L 320086.4 14052.8 L 320086.4 15774.8 L 314826.8 15774.8 Q 314777.6 18035.6 314728.4 19140.8 L 319299.2 19140.8 Z M 323133.2 15160.4 Q 322077.2 17518.4 320724.8 19116.8 Q 319962.8 18280.4 319324.4 17862.8 Q 321879.2 15084.8 322984.4 10048.4 L 324730.4 10416.8 Q 324410 11818.4 323819.6 13488.8 L 332618 13488.8 L 332618 15160.4 L 323132 15160.4 L 323133.2 15160.4 Z M 329916.8 30814.4 Q 330728 30814.4 330972.8 30297.2 Q 331218.8 29782.4 331316 28012.4 Q 332103.2 28503.2 332865.2 28650.8 Q 332692.4 30863.6 332153.6 31625.6 Q 331563.2 32387.6 330014 32387.6 L 325001.6 32387.6 Q 323182.4 32387.6 322544 31822.4 Q 321904.4 31281.2 321904.4 29658.8 L 321904.4 23662.4 L 320454.8 24326 L 319791.2 22851.2 L 321904.4 21868.4 L 321904.4 18009.2 L 323526.8 18009.2 L 323526.8 21081.2 L 325887.2 19976 L 325887.2 16068.8 L 327460.4 16068.8 L 327460.4 19238 L 330162.8 17985.2 L 330605.6 17616.8 L 331734.8 18058.4 L 331661.6 18352.4 Q 331661.6 24569.6 331514 25602.8 Q 331416.8 26708 330408.8 26928.8 Q 329697.2 27125.6 328565.6 27076.4 Q 328468.4 26265.2 328172 25650.8 Q 328418 25676 329450 25676 Q 329891.6 25676 329964.8 25209.2 Q 330088.4 24644 330088.4 19776.8 L 327459.2 21005.6 L 327459.2 28354.4 L 325886 28354.4 L 325886 21767.6 L 323525.6 22899.2 L 323525.6 29681.6 Q 323525.6 30395.6 323819.6 30592.4 Q 324116 30813.2 325098.8 30813.2 L 329916.8 30813.2 L 329916.8 30814.4 Z M 347979.2 18920 Q 345350 22212.8 342154.4 24376.4 Q 341687.6 23662.4 340779.2 22924.4 Q 346235.6 19558.4 349307.6 13538 L 341861.6 13538 L 341861.6 11744 L 356534 11744 L 356534 13538 L 351348.8 13538 Q 350464.4 15308 349850 16240.4 L 349850 28947.2 L 347981.6 28947.2 L 347981.6 18920 L 347979.2 18920 Z M 351714.8 17591.6 Q 355548.8 21254 357023.6 23024 L 355671.2 24326 Q 354196.4 22433.6 350436.8 18674 L 351714.8 17592.8 L 351714.8 17591.6 Z M 339674 15626 Q 338420 13782.8 335938.4 11424.8 L 337338.8 10440.8 Q 340066.4 12974 341174 14471.6 L 339675.2 15627.2 L 339674 15626 Z M 339968 27890 L 340755.2 28480.4 Q 341344.4 28922 341835.2 29216 Q 343778 30444.8 348447.2 30444.8 Q 353411.6 30444.8 357663.2 29930 Q 357122 31158.8 357098 31970 Q 352306.4 32240 348423.2 32240 Q 343655.6 32240 341370.8 30863.6 Q 339108.8 29314.4 338987.6 29314.4 Q 338151.2 29314.4 335890.4 32558 L 334538 30814.4 Q 336677.6 28356.8 338176.4 27742.4 L 338176.4 20123.6 L 334956.8 20123.6 L 334956.8 18329.6 L 339969.2 18329.6 L 339969.2 27890 L 339968 27890 Z M 376979.6 12455.6 L 364274 12455.6 L 364274 14446.4 L 376979.6 14446.4 L 376979.6 12455.6 Z M 376979.6 15774.8 L 364274 15774.8 L 364274 17765.6 L 376979.6 17765.6 L 376979.6 15774.8 Z M 378798.8 19164.8 L 362480 19164.8 L 362480 11054 L 378798.8 11054 L 378798.8 19164.8 Z M 371793.2 30150.8 Q 373121.6 30298.4 374694.8 30298.4 Q 380691.2 30298.4 381944 30274.4 Q 381477.2 31060.4 381305.6 32020.4 L 374620.4 32020.4 Q 370664 32020.4 368500.4 31209.2 Q 365993.6 30274.4 364568 27914 Q 363142.4 30741.2 360734 32535.2 Q 360219.2 31847.6 359382.8 31233.2 Q 363118.4 28824.8 364150.4 23246 L 365993.6 23492 Q 365772.8 24647.6 365355.2 25949.6 Q 366657.2 28972.4 369999.2 29856.8 L 369999.2 22458.8 L 359922.8 22458.8 L 359922.8 20812.4 L 381500 20812.4 L 381500 22458.8 L 371793.2 22458.8 L 371793.2 25186.4 L 379904 25186.4 L 379904 26808.8 L 371793.2 26808.8 L 371793.2 30150.8 Z M 31612.4 20123.6 Q 32079.2 19656.8 32766.8 19656.8 Q 33454.4 19656.8 33921.2 20123.6 Q 34388 20590.4 34388 21278 Q 34388 21965.6 33921.2 22432.4 Q 33454.4 22899.2 32766.8 22899.2 Q 32079.2 22899.2 31612.4 22432.4 Q 31145.6 21965.6 31145.6 21278 Q 31145.6 20590.4 31612.4 20123.6  Z M 54075.2 51932.8 Q 53140.4 55128.4 51740 57192.4 Q 51222.8 56725.6 50216 56160.4 Q 52500.8 53113.6 53409.2 46502.8 L 55179.2 46772.8 Q 54885.2 48516.4 54516.8 50262.4 L 60978.8 50262.4 L 61175.6 50213.2 L 62355.2 50557.6 Q 61569.2 54564.4 60734 57095.2 L 59259.2 56652.4 Q 59702 55202.8 60364.4 51934 L 54072.8 51934 L 54075.2 51932.8 Z M 47440.4 63606.4 L 47440.4 68818 L 45768.8 68818 L 45768.8 63877.6 L 40362.8 64738 L 39969.2 62894.8 Q 41518.4 62722 45770 62107.6 L 45770 58568.8 L 43164.8 58568.8 Q 41691.2 58568.8 41297.6 58913.2 Q 41051.6 57954.4 40707.2 57292 Q 41224.4 57168.4 42035.6 55349.2 Q 42674 54023.2 43632.8 51172 L 40216.4 51172 L 40216.4 49428.4 L 44172.8 49428.4 Q 44690 47682.4 44910.8 46550.8 L 46680.8 46944.4 Q 46434.8 48001.6 45993.2 49427.2 L 50662.4 49427.2 L 50662.4 51170.8 L 45402.8 51170.8 Q 44420 54169.6 43091.6 56897.2 L 45770 56897.2 L 45770 53284 L 47441.6 53284 L 47441.6 56897.2 L 50513.6 56897.2 L 50513.6 58567.6 L 47441.6 58567.6 L 47441.6 61861.6 L 50685.2 61394.8 L 50760.8 63041.2 L 47442.8 63606.4 L 47440.4 63606.4 Z M 56950.4 55398.4 Q 56950.4 56406.4 56877.2 57635.2 Q 58376 65252.8 62529.2 67440.4 Q 61817.6 68104 61324.4 68915.2 Q 57958.4 66974.8 56212.4 61396 Q 54910.4 65966.8 50979.2 68965.6 Q 50412.8 68227.6 49626.8 67736.8 Q 55205.6 63607.6 55205.6 55375.6 L 55205.6 54244 L 56949.2 54244 L 56949.2 55399.6 L 56950.4 55398.4 Z M 71843.6 47141.2 Q 70714.4 50065.6 69412.4 52450 L 69412.4 68915.2 L 67666.4 68915.2 L 67666.4 55274.8 Q 66758 56627.2 65405.6 58150 Q 65061.2 57241.6 64373.6 56357.2 Q 68036 52523.2 70124 46600 L 71843.6 47141.2 Z M 86786 60486.4 L 80127.2 60486.4 L 80127.2 68964.4 L 78308 68964.4 L 78308 60486.4 L 71303.6 60486.4 L 71303.6 58691.2 L 78308 58691.2 L 78308 53309.2 L 74450 53309.2 Q 73638.8 55571.2 72680 57044.8 Q 72065.6 56578 71106.8 56111.2 Q 73145.6 53285.2 74129.6 47731.6 L 75849.2 48100 Q 75504.8 49894 75038 51516.4 L 78306.8 51516.4 L 78306.8 46822 L 80126 46822 L 80126 51516.4 L 85728.8 51516.4 L 85728.8 53310.4 L 80126 53310.4 L 80126 58692.4 L 86784.8 58692.4 L 86784.8 60487.6 L 86786 60486.4 Z M 101850.8 50138.8 Q 101850.8 54709.6 97550 56773.6 Q 97059.2 55962.4 96371.6 55421.2 Q 100131.2 53701.6 100131.2 50088.4 L 100131.2 47386 L 107897.6 47386 L 107897.6 53087.2 Q 107897.6 53995.6 108339.2 53995.6 L 110034.8 53995.6 Q 110698.4 53995.6 111189.2 53874.4 Q 111237.2 54733.6 111360.8 55447.6 Q 110968.4 55571.2 110057.6 55571.2 L 108214.4 55571.2 Q 107010.8 55571.2 106568 54980.8 Q 106174.4 54463.6 106174.4 53038 L 106174.4 49106.8 L 101849.6 49106.8 L 101849.6 50138.8 L 101850.8 50138.8 Z M 94846.4 51908.8 Q 93520.4 50189.2 91112 48076 L 92291.6 46970.8 Q 94798.4 49009.6 96075.2 50608 L 94846.4 51910 L 94846.4 51908.8 Z M 97132.4 62771.2 Q 97426.4 63679.6 97796 64270 Q 92928.8 67859.2 92414 68448.4 Q 92044.4 67540 91430 66925.6 Q 92658.8 66138.4 92658.8 64712.8 L 92658.8 55939.6 L 89218.4 55939.6 L 89218.4 54193.6 L 94427.6 54193.6 L 94427.6 64711.6 L 97131.2 62771.2 L 97132.4 62771.2 Z M 100155.2 59011.6 Q 101457.2 61763.2 103988 63876.4 Q 106545.2 61836.4 107822 59010.4 L 100155.2 59010.4 L 100155.2 59011.6 Z M 110133.2 57732.4 Q 108780.8 62058.4 105414.8 64908.4 Q 108045.2 66630.4 111658.4 67416.4 Q 111018.8 68030.8 110528 69038.8 Q 106694 68104 103942.4 66040 Q 101262.8 67883.2 97379.6 68988.4 Q 97134.8 68177.2 96471.2 67366 Q 99887.6 66580 102542 64908.4 Q 99960.8 62500 98438 59134 L 98782.4 59010.4 L 97529.6 59010.4 L 97529.6 57290.8 L 108686 57290.8 L 109006.4 57217.6 L 110135.6 57732.4 L 110133.2 57732.4 Z M 122691.2 55595.2 Q 122691.2 56160.4 122667.2 56430.4 Q 122446.4 67022.8 121708.4 68006.8 Q 121217.6 68669.2 120258.8 68792.8 Q 119324 68916.4 117677.6 68792.8 Q 117628.4 67860.4 117234.8 67146.4 Q 118536.8 67246 119495.6 67246 Q 119988.8 67246 120233.6 66925.6 Q 120774.8 66138.4 120971.6 57266.8 L 118023.2 57266.8 Q 117506 65476 114900.8 68965.6 Q 114386 68227.6 113525.6 67760.8 Q 116277.2 64098.4 116474 52229.2 L 113795.6 52229.2 L 113795.6 50507.2 L 118734.8 50507.2 Q 118366.4 48886 117382.4 47017.6 L 118956.8 46550.8 Q 119939.6 48394 120406.4 50016.4 L 118881.2 50507.2 L 123478.4 50507.2 L 123478.4 52229.2 L 118218.8 52229.2 Q 118169.6 54490 118120.4 55595.2 L 122691.2 55595.2 Z M 126525.2 51614.8 Q 125469.2 53972.8 124116.8 55571.2 Q 123354.8 54734.8 122716.4 54317.2 Q 125271.2 51539.2 126376.4 46502.8 L 128122.4 46871.2 Q 127802 48272.8 127211.6 49943.2 L 136010 49943.2 L 136010 51614.8 L 126524 51614.8 L 126525.2 51614.8 Z M 133308.8 67268.8 Q 134120 67268.8 134364.8 66751.6 Q 134610.8 66236.8 134708 64466.8 Q 135495.2 64957.6 136257.2 65105.2 Q 136084.4 67318 135545.6 68080 Q 134955.2 68842 133406 68842 L 128393.6 68842 Q 126574.4 68842 125936 68276.8 Q 125296.4 67735.6 125296.4 66113.2 L 125296.4 60116.8 L 123846.8 60780.4 L 123183.2 59305.6 L 125296.4 58322.8 L 125296.4 54463.6 L 126918.8 54463.6 L 126918.8 57535.6 L 129279.2 56430.4 L 129279.2 52523.2 L 130852.4 52523.2 L 130852.4 55692.4 L 133554.8 54439.6 L 133997.6 54071.2 L 135126.8 54512.8 L 135053.6 54806.8 Q 135053.6 61024 134906 62057.2 Q 134808.8 63162.4 133800.8 63383.2 Q 133089.2 63580 131957.6 63530.8 Q 131860.4 62719.6 131564 62105.2 Q 131810 62130.4 132842 62130.4 Q 133283.6 62130.4 133356.8 61663.6 Q 133480.4 61098.4 133480.4 56231.2 L 130851.2 57460 L 130851.2 64808.8 L 129278 64808.8 L 129278 58222 L 126917.6 59353.6 L 126917.6 66136 Q 126917.6 66850 127211.6 67046.8 Q 127508 67267.6 128490.8 67267.6 L 133308.8 67267.6 L 133308.8 67268.8 Z M 140534 68398 Q 143457.2 67194.4 143630 64786 Q 143482.4 64810 143212.4 64810 Q 142425.2 64810 141910.4 64367.2 Q 141369.2 63901.6 141369.2 63065.2 Q 141369.2 62230 141934.4 61739.2 Q 142451.6 61296.4 143237.6 61296.4 Q 145326.8 61296.4 145326.8 64123.6 Q 145326.8 68203.6 141075.2 69702.4 L 140534 68398 Z M 170270 53923.6 Q 171572 52326.4 172408.4 50974 L 169532 50974 L 169532 53922.4 L 170270 53922.4 L 170270 53923.6 Z M 172703.6 59429.2 L 167198 59429.2 L 167198 61813.6 L 172703.6 61813.6 L 172703.6 59429.2 Z M 172703.6 65867.2 L 172703.6 63288.4 L 167198 63288.4 L 167198 65867.2 L 172703.6 65867.2 Z M 175947.2 47852.8 Q 174597.2 51000.4 172384.4 53923.6 L 175556 53923.6 L 175556 55546 L 171058.4 55546 Q 169780.4 56995.6 168724.4 57930.4 L 174449.6 57930.4 L 174449.6 68498.8 L 172706 68498.8 L 172706 67393.6 L 167200.4 67393.6 L 167200.4 68843.2 L 165504.8 68843.2 L 165504.8 60413.2 Q 164693.6 60954.4 163564.4 61594 Q 163121.6 60856 162410 60094 Q 165999.2 58324 168774.8 55546 L 162951.2 55546 L 162951.2 53923.6 L 167817.2 53923.6 L 167817.2 50975.2 L 164057.6 50975.2 L 164057.6 49352.8 L 167817.2 49352.8 L 167817.2 46723.6 L 169536.8 46723.6 L 169536.8 49352.8 L 172584.8 49352.8 L 172584.8 50705.2 Q 173420 49403.2 174304.4 47388.4 L 175950.8 47854 L 175947.2 47852.8 Z M 185385.2 48689.2 Q 183689.6 52472.8 181821.2 56062 Q 185066 58937.2 185066 62009.2 Q 185115.2 64393.6 183813.2 65204.8 Q 183198.8 65646.4 182165.6 65770 Q 181182.8 65867.2 179880.8 65794 Q 179831.6 64787.2 179340.8 64000 Q 180666.8 64123.6 181430 64050.4 Q 182117.6 64001.2 182584.4 63755.2 Q 183346.4 63337.6 183297.2 61838.8 Q 183297.2 59087.2 179955.2 56309.2 Q 181552.4 53164 182954 49650.4 L 178383.2 49650.4 L 178383.2 68966.8 L 176589.2 68966.8 L 176589.2 47904.4 L 183789.2 47904.4 L 184085.6 47831.2 L 185387.6 48691.6 L 185385.2 48689.2 Z M 204406.4 66457.6 Q 206373.2 66457.6 206987.6 65549.2 Q 207552.8 64712.8 207822.8 61690 Q 208610 62231.2 209666 62428 Q 209297.6 65917.6 208362.8 67022.8 Q 207306.8 68251.6 204382.4 68251.6 L 195190.4 68251.6 Q 192191.6 68251.6 191135.6 67540 Q 190030.4 66778 190030.4 64541.2 L 190030.4 52253.2 L 191873.6 52253.2 L 191873.6 56284 L 204702.8 56284 L 204702.8 49846 L 188728.4 49846 L 188728.4 48050.8 L 206570 48050.8 L 206570 59306.8 L 204702.8 59306.8 L 204702.8 58078 L 191873.6 58078 L 191873.6 64566.4 Q 191873.6 65722 192488 66091.6 Q 193077.2 66460 195068 66460 L 204407.6 66460 L 204406.4 66457.6 Z M 233579.6 58028.8 Q 231269.6 56479.6 227238.8 54709.6 Q 224338.4 56749.6 220872.8 58051.6 Q 220382 57167.2 219767.6 56552.8 Q 226673.6 54218.8 229991.6 49500.4 L 221366 49500.4 L 221366 47804.8 L 231171.2 47804.8 L 231491.6 47731.6 L 232793.6 48443.2 Q 231441.2 51194.8 228665.6 53579.2 Q 232744.4 55349.2 234612.8 56530 L 233580.8 58028.8 L 233579.6 58028.8 Z M 220283.6 59158 Q 220210.4 59945.2 220258.4 60780.4 Q 213304.4 62180.8 212614.4 62550.4 Q 212442.8 61739.2 212025.2 60830.8 Q 212639.6 60682 213941.6 59232.4 Q 214850 58324 216569.6 55963.6 Q 212932.4 56454.4 212465.6 56700.4 Q 212244.8 55792 211851.2 54931.6 Q 212368.4 54834.4 213303.2 53432.8 Q 215416.4 50410 216766.4 46502.8 L 218512.4 47314 Q 216645.2 51491.2 214383.2 54636.4 L 217751.6 54266.8 Q 218513.6 53137.6 219348.8 51638.8 L 220947.2 52646.8 Q 218169.2 57068.8 215417.6 60019.6 L 220283.6 59159.2 L 220283.6 59158 Z M 220406 65302 L 212393.6 67415.2 L 212025.2 65596 Q 214016 65178.4 220209.2 63728.8 L 220406 65302 Z M 228220.4 66554.8 L 234488 66554.8 L 234488 68276.8 L 220086.8 68276.8 L 220086.8 66554.8 L 226427.6 66554.8 L 226427.6 60607.6 L 221585.6 60607.6 L 221585.6 58912 L 233332.4 58912 L 233332.4 60607.6 L 228220.4 60607.6 L 228220.4 66554.8 Z M 252206 62968 L 237018.8 62968 L 237018.8 61198 L 252206 61198 L 252206 62968 Z M 257318 56036.8 Q 257294 56676.4 257244.8 56921.2 Q 256336.4 66284.8 254763.2 67783.6 Q 254001.2 68570.8 252476 68644 Q 250781.6 68741.2 248102 68545.6 Q 248004.8 67537.6 247414.4 66750.4 Q 249330.8 66923.2 251936 66923.2 Q 252896 66923.2 253190 66629.2 Q 254516 65621.2 255303.2 57757.6 L 241146.8 57757.6 L 239624 57732.4 Q 240852.8 53407.6 241958 47042.8 L 243801.2 47238.4 L 243286.4 49892.8 L 256950.8 49892.8 L 256950.8 51638.8 L 242943.2 51638.8 L 241959.2 56036.8 L 257319.2 56036.8 L 257318 56036.8 Z M 279142.4 62230 L 279142.4 63779.2 L 265749.2 63779.2 L 265749.2 62230 L 271402.4 62230 L 271402.4 58102 L 266781.2 58102 L 266781.2 56528.8 L 271402.4 56528.8 L 271402.4 53038 L 266093.6 53038 L 266093.6 51391.6 L 278651.6 51391.6 L 278651.6 53038 L 273122 53038 L 273122 56528.8 L 278037.2 56528.8 L 278037.2 58102 L 273122 58102 L 273122 62230 L 279142.4 62230 Z M 275824.4 58543.6 Q 277520 60018.4 278307.2 61222 L 277053.2 61960 Q 276365.6 60830.8 274670 59183.2 L 275825.6 58544.8 L 275824.4 58543.6 Z M 280568 66040 L 280568 49327.6 L 264126.8 49327.6 L 264126.8 66040 L 280568 66040 Z M 282460.4 47632 L 282460.4 68964.4 L 280568 68964.4 L 280568 67735.6 L 264126.8 67735.6 L 264126.8 68964.4 L 262307.6 68964.4 L 262307.6 47632 L 282461.6 47632 L 282460.4 47632 Z M 306790.4 66530.8 Q 306790.4 68202.4 305685.2 68594.8 Q 304824.8 68915.2 301114.4 68915.2 Q 300966.8 67907.2 300500 67072 Q 303105.2 67195.6 304407.2 67122.4 Q 304997.6 67097.2 304997.6 66508 L 304997.6 52500.4 L 297869.6 52500.4 Q 297796.4 54220 297428 55693.6 Q 302146.4 59822.8 304358 62525.2 L 302859.2 63706 Q 301065.2 61321.6 296888 57438.4 Q 295365.2 61394.8 290915.6 64024 Q 290376.8 63212.8 289613.6 62647.6 Q 295733.6 59378.8 296054 52499.2 L 288975.2 52499.2 L 288975.2 68988.4 L 287181.2 68988.4 L 287181.2 50704 L 296076.8 50704 L 296076.8 46502.8 L 297896 46502.8 L 297896 50704 L 306791.6 50704 L 306791.6 66530.8 L 306790.4 66530.8 Z M 317898.8 62647.6 L 317898.8 64933.6 L 324902 64933.6 L 324902 62647.6 L 317898.8 62647.6 Z M 326548.4 66310 L 317898.8 66310 L 317898.8 67513.6 L 316203.2 67513.6 L 316203.2 61272.4 L 326548.4 61272.4 L 326548.4 66311.2 L 326548.4 66310 Z M 331415.6 67022.8 Q 331415.6 68203.6 330531.2 68521.6 Q 329769.2 68791.6 327286.4 68742.4 Q 327138.8 68128 326697.2 67392.4 Q 327238.4 67416.4 329178.8 67416.4 Q 329596.4 67392.4 329596.4 67022.8 L 329596.4 59822.8 L 313450.4 59822.8 L 313450.4 68939.2 L 311680.4 68939.2 L 311680.4 58273.6 L 331414.4 58273.6 L 331414.4 67022.8 L 331415.6 67022.8 Z M 326892.8 53382.4 L 316300.4 53382.4 L 316300.4 55595.2 L 326892.8 55595.2 L 326892.8 53382.4 Z M 328761.2 52032.4 L 328761.2 56947.6 L 314506.4 56947.6 L 314506.4 52032.4 L 328761.2 52032.4 Z M 332201.6 49081.6 L 332201.6 50656 L 310797.2 50656 L 310797.2 49081.6 L 320848.4 49081.6 Q 320602.4 48295.6 320087.6 46846 L 321857.6 46428.4 Q 322275.2 47460.4 322840.4 49081.6 L 332204 49081.6 L 332201.6 49081.6 Z M 343851.2 53161.6 Q 342131.6 62450.8 336332 66530.8 Q 335741.6 65695.6 334881.2 65154.4 Q 339896 61885.6 341666 54586 L 335669.6 54586 L 335669.6 52766.8 L 342304.4 52766.8 L 342674 52693.6 L 343853.6 53160.4 L 343851.2 53161.6 Z M 355475.6 52277.2 Q 352527.2 55669.6 349996.4 57806.8 Q 353436.8 62771.2 357689.6 64762 Q 356902.4 65449.6 356337.2 66408.4 Q 350880.8 63533.2 347121.2 56087.2 L 347121.2 66458.8 Q 347121.2 68129.2 346113.2 68572 Q 345278 68965.6 342279.2 68965.6 Q 342155.6 67981.6 341590.4 66974.8 Q 342990.8 67022.8 344637.2 67022.8 Q 345203.6 66998.8 345203.6 66457.6 L 345203.6 46576 L 347120 46576 L 347120 52474 Q 347955.2 54563.2 349086.8 56454.4 Q 351862.4 53899.6 353829.2 51097.6 L 355475.6 52277.2 Z M 381650 60337.6 L 371573.6 60337.6 L 371573.6 68939.2 L 369706.4 68939.2 L 369706.4 60337.6 L 359776.4 60337.6 L 359776.4 58543.6 L 369706.4 58543.6 L 369706.4 49966 L 361055.6 49966 L 361055.6 48172 L 380273.6 48172 L 380273.6 49966 L 371574.8 49966 L 371574.8 58543.6 L 381651.2 58543.6 L 381651.2 60337.6 L 381650 60337.6 Z M 364371.2 51170.8 Q 366190.4 54366.4 366707.6 56700.4 L 364985.6 57290.8 Q 364396.4 54760 362774 51662.8 L 364371.2 51172 L 364371.2 51170.8 Z M 374250.8 56848 Q 375776 54293.2 376905.2 51048.4 L 378821.6 51589.6 Q 377175.2 55252 375798.8 57365.2 L 374249.6 56848 L 374250.8 56848 Z M 61644.8 87404.4 L 48225.2 87404.4 L 48225.2 85758 L 54197.6 85758 Q 53976.8 84553.2 53510 83103.6 L 55132.4 82857.6 Q 55697.6 84332.4 55991.6 85758 L 61644.8 85758 L 61644.8 87404.4 Z M 51249.2 92294.4 Q 50952.8 90378 49896.8 88093.2 L 51395.6 87675.6 Q 52500.8 89887.2 52794.8 91803.6 L 51248 92294.4 L 51249.2 92294.4 Z M 44638.4 98611.2 L 47489.6 97479.6 L 47834 99175.2 Q 46014.8 99937.2 40461.2 102150 L 39894.8 100306.8 Q 41886.8 99619.2 42992 99201.6 L 42992 90648 L 40067.6 90648 L 40067.6 88928.4 L 42992 88928.4 L 42992 83251.2 L 44638.4 83251.2 L 44638.4 88928.4 L 47416.4 88928.4 L 47416.4 90648 L 44638.4 90648 L 44638.4 98611.2 Z M 51102.8 98046 L 51102.8 102691.2 L 58696.4 102691.2 L 58696.4 98046 L 51102.8 98046 Z M 49430 96399.6 L 60440 96399.6 L 60440 105319.2 L 58696.4 105319.2 L 58696.4 104336.4 L 51102.8 104336.4 L 51102.8 105392.4 L 49431.2 105392.4 L 49431.2 96398.4 L 49430 96399.6 Z M 62406.8 92590.8 L 62406.8 94261.2 L 47316.8 94261.2 L 47316.8 92590.8 L 56459.6 92590.8 Q 57564.8 90009.6 58179.2 87576 L 59898.8 88018.8 Q 58940 90673.2 58104.8 92589.6 L 62405.6 92589.6 L 62406.8 92590.8 Z M 70122.8 88756.8 Q 68796.8 87085.2 65945.6 84727.2 L 67077.2 83522.4 Q 70000.4 85807.2 71352.8 87380.4 L 70124 88758 L 70122.8 88756.8 Z M 72089.6 99004.8 Q 72483.2 100036.8 72827.6 100503.6 Q 68230.4 104337.6 67838 104928 Q 67395.2 104116.8 66830 103623.6 Q 68009.6 102640.8 68009.6 101264.4 L 68009.6 92416.8 L 64569.2 92416.8 L 64569.2 90646.8 L 69778.4 90646.8 L 69778.4 100870.8 L 72088.4 99003.6 L 72089.6 99004.8 Z M 74080.4 83692.8 L 75874.4 83692.8 L 75874.4 92173.2 Q 75874.4 101092.8 73221.2 105393.6 Q 72507.2 104779.2 71499.2 104337.6 Q 74080.4 100357.2 74080.4 92173.2 L 74080.4 83692.8 Z M 79216.4 84873.6 L 80938.4 84873.6 L 80938.4 102273.6 L 79216.4 102273.6 L 79216.4 84873.6 Z M 86097.2 83595.6 L 86097.2 105075.6 L 84303.2 105075.6 L 84303.2 83595.6 L 86097.2 83595.6 Z M 91847.6 91876.8 L 90104 91876.8 L 90104 87034.8 L 94158.8 87034.8 Q 93496.4 85634.4 92045.6 83914.8 L 93570.8 83200.8 Q 95265.2 85143.6 95904.8 86544 L 94970 87034.8 L 100352 87034.8 Q 99761.6 85240.8 98508.8 83373.6 L 100082 82783.2 Q 101604.8 84896.4 102071.6 86518.8 L 100818.8 87033.6 L 104825.6 87033.6 Q 106323.2 85166.4 107307.2 83126.4 L 109150.4 83766 Q 107994.8 85485.6 106766 87032.4 L 110772.8 87032.4 L 110772.8 91874.4 L 108977.6 91874.4 L 108977.6 88681.2 L 91847.6 88681.2 L 91847.6 91874.4 L 91847.6 91876.8 Z M 111214.4 98463.6 L 101212.4 98463.6 L 101212.4 103158 Q 101212.4 104680.8 100031.6 105049.2 Q 99072.8 105369.6 95510 105369.6 Q 95362.4 104779.2 94748 103599.6 Q 97820 103723.2 98754.8 103623.6 Q 99393.2 103599.6 99393.2 103132.8 L 99393.2 98463.6 L 89612 98463.6 L 89612 96768 L 99393.2 96768 L 99393.2 94998 Q 101506.4 94236 103643.6 92810.4 L 93716 92810.4 L 93716 91188 L 105734 91188 L 106078.4 91090.8 L 107283.2 91999.2 Q 104997.2 94088.4 101213.6 95784 L 101213.6 96766.8 L 111215.6 96766.8 L 111215.6 98462.4 L 111214.4 98463.6 Z M 135890 88263.6 L 122494.4 88263.6 L 122494.4 86569.2 L 128687.6 86569.2 Q 127925.6 84897.6 126746 83497.2 L 128268.8 82833.6 Q 129645.2 84332.4 130332.8 85831.2 L 128735.6 86569.2 L 135887.6 86569.2 L 135887.6 88263.6 L 135890 88263.6 Z M 131538.8 88780.8 Q 134561.6 91632 135839.6 93819.6 L 134487.2 94948.8 Q 133234.4 92640 130283.6 89739.6 L 131537.6 88780.8 L 131538.8 88780.8 Z M 127385.6 89641.2 Q 125542.4 92860.8 123011.6 95097.6 Q 122568.8 94604.4 121733.6 93990 Q 124191.2 91975.2 125740.4 88903.2 L 127386.8 89641.2 L 127385.6 89641.2 Z M 120921.2 97014 Q 120603.2 96177.6 119128.4 93229.2 L 119128.4 105393.6 L 117458 105393.6 L 117458 93499.2 Q 116080.4 98414.4 114434 100921.2 Q 114065.6 99986.4 113451.2 99175.2 Q 115884.8 95858.4 117113.6 89862 L 114262.4 89862 L 114262.4 88142.4 L 117458 88142.4 L 117458 82957.2 L 119128.4 82957.2 L 119128.4 88142.4 L 121880 88142.4 L 121880 89862 L 119128.4 89862 L 119128.4 90844.8 Q 120063.2 92173.2 122030 95637.6 L 120922.4 97015.2 L 120921.2 97014 Z M 133038.8 93646.8 Q 132054.8 97136.4 130040 99816 Q 132718.4 102470.4 136281.2 103674 Q 135618.8 104215.2 135052.4 105247.2 Q 131489.6 103945.2 128860.4 101193.6 Q 126353.6 103798.8 122716.4 105445.2 Q 122150 104560.8 121560.8 104070 Q 125222 102472.8 127704.8 99842.4 Q 125688.8 97261.2 124436 93747.6 L 126009.2 93304.8 Q 127041.2 96205.2 128835.2 98466 Q 130481.6 96156 131292.8 93207.6 L 133038.8 93649.2 L 133038.8 93646.8 Z M 146284.4 94237.2 L 146284.4 98882.4 L 152722.4 98882.4 L 152722.4 94237.2 L 146284.4 94237.2 Z M 146284.4 100454.4 L 146284.4 102224.4 L 144588.8 102224.4 L 144588.8 92688 L 154443.2 92688 L 154443.2 100454.4 L 146284.4 100454.4 Z M 155745.2 90133.2 L 143360 90133.2 L 143360 88534.8 L 155745.2 88534.8 L 155745.2 90133.2 Z M 159604.4 103108.8 Q 159604.4 104658 158596.4 105099.6 Q 157712 105444 154492.4 105444 Q 154368.8 104535.6 153827.6 103651.2 Q 156310.4 103724.4 157218.8 103675.2 Q 157809.2 103651.2 157809.2 103110 L 157809.2 85980 L 141220.4 85980 L 141220.4 105468 L 139450.4 105468 L 139450.4 84234 L 159602 84234 L 159602 103108.8 L 159604.4 103108.8 Z M 175136 92173.2 L 175136 99840 Q 179118.8 97455.6 181109.6 93448.8 L 182829.2 94260 Q 178331.6 103107.6 164076.8 105271.2 Q 163732.4 104238 163143.2 103575.6 Q 170540 102567.6 175013.6 99913.2 L 173243.6 99913.2 L 173243.6 92172 L 163340 92172 L 163340 90426 L 167026.4 90426 L 167026.4 84896.4 L 168844.4 84896.4 L 168844.4 90426 L 173415.2 90426 L 173415.2 82980 L 175307.6 82980 L 175307.6 85585.2 L 182483.6 85585.2 L 182483.6 87304.8 L 175307.6 87304.8 L 175307.6 90426 L 184720.4 90426 L 184720.4 92172 L 175134.8 92172 L 175136 92173.2 Z M 170738 93819.6 Q 168698 97309.2 165429.2 99890.4 Q 164691.2 98955.6 164052.8 98514 Q 167198 96326.4 168992 93229.2 L 170738 93819.6 Z M 189686 104852.4 Q 192609.2 103648.8 192782 101240.4 Q 192634.4 101264.4 192364.4 101264.4 Q 191577.2 101264.4 191062.4 100821.6 Q 190521.2 100356 190521.2 99519.6 Q 190521.2 98684.4 191086.4 98193.6 Q 191603.6 97750.8 192389.6 97750.8 Q 194478.8 97750.8 194478.8 100578 Q 194478.8 104658 190227.2 106156.8 L 189686 104852.4 Z M 226745.6 89222.4 Q 227483.6 93646.8 228909.2 97015.2 Q 230310.8 94090.8 231046.4 89223.6 L 226745.6 89223.6 L 226745.6 89222.4 Z M 232914.8 89222.4 Q 232006.4 95293.2 229917.2 99028.8 Q 231833.6 102394.8 234659.6 103869.6 Q 233849.6 104533.2 233382.8 105441.6 Q 230679.2 103844.4 228786.8 100723.2 Q 226575.2 103671.6 223085.6 105490.8 Q 222692 104606.4 221980.4 103844.4 Q 225714.8 102074.4 227828 98902.8 Q 226502 96127.2 225593.6 92096.4 Q 224979.2 93496.8 223946 94971.6 Q 223234.4 94257.6 222620 93840 Q 221121.2 95559.6 218909.6 97058.4 L 218909.6 98239.2 L 221464.4 97993.2 Q 223037.6 97845.6 224045.6 97722 L 224045.6 99295.2 L 218909.6 99860.4 L 218909.6 103473.6 Q 218909.6 104775.6 218049.2 105120 Q 217385.6 105390 214756.4 105390 Q 214656.8 104727.6 214191.2 103792.8 Q 214805.6 103816.8 216770 103816.8 Q 217187.6 103792.8 217187.6 103448.4 L 217187.6 100056 L 212199.2 100597.2 L 211978.4 98926.8 Q 214632.8 98704.8 217187.6 98410.8 L 217187.6 96640.8 L 217163.6 96616.8 Q 218613.2 95732.4 219965.6 94430.4 L 217384.4 94430.4 Q 215517.2 96150 213156.8 97551.6 Q 212666 96937.2 211880 96199.2 Q 213083.6 95559.6 214656.8 94430.4 L 214042.4 94430.4 L 214042.4 92955.6 L 216452 92955.6 Q 217090.4 92390.4 218222 91161.6 L 212028.8 91161.6 L 212028.8 89539.2 L 216280.4 89539.2 L 216280.4 87106.8 L 213060.8 87106.8 L 213060.8 85532.4 L 216280.4 85532.4 L 216280.4 82953.6 L 217976 82953.6 L 217976 85532.4 L 221024 85532.4 L 221024 87106.8 L 217976 87106.8 L 217976 89539.2 L 219525.2 89539.2 Q 221589.2 86664 222744.8 83542.8 L 224464.4 84009.6 Q 223284.8 86934 221589.2 89539.2 L 223850 89539.2 L 223850 91161.6 L 220433.6 91161.6 Q 219228.8 92611.2 218884.4 92955.6 L 221415.2 92955.6 L 221759.6 92858.4 L 222620 93496.8 Q 225250.4 89910 226454 82954.8 L 228273.2 83248.8 Q 227830.4 85609.2 227289.2 87500.4 L 234466.4 87500.4 L 234466.4 89220 L 232917.2 89220 L 232914.8 89222.4 Z M 239303.6 91876.8 L 237560 91876.8 L 237560 87034.8 L 241614.8 87034.8 Q 240952.4 85634.4 239501.6 83914.8 L 241026.8 83200.8 Q 242721.2 85143.6 243360.8 86544 L 242426 87034.8 L 247808 87034.8 Q 247217.6 85240.8 245964.8 83373.6 L 247538 82783.2 Q 249060.8 84896.4 249527.6 86518.8 L 248274.8 87033.6 L 252281.6 87033.6 Q 253779.2 85166.4 254763.2 83126.4 L 256606.4 83766 Q 255450.8 85485.6 254222 87032.4 L 258228.8 87032.4 L 258228.8 91874.4 L 256433.6 91874.4 L 256433.6 88681.2 L 239303.6 88681.2 L 239303.6 91874.4 L 239303.6 91876.8 Z M 258670.4 98463.6 L 248668.4 98463.6 L 248668.4 103158 Q 248668.4 104680.8 247487.6 105049.2 Q 246528.8 105369.6 242966 105369.6 Q 242818.4 104779.2 242204 103599.6 Q 245276 103723.2 246210.8 103623.6 Q 246849.2 103599.6 246849.2 103132.8 L 246849.2 98463.6 L 237068 98463.6 L 237068 96768 L 246849.2 96768 L 246849.2 94998 Q 248962.4 94236 251099.6 92810.4 L 241172 92810.4 L 241172 91188 L 253190 91188 L 253534.4 91090.8 L 254739.2 91999.2 Q 252453.2 94088.4 248669.6 95784 L 248669.6 96766.8 L 258671.6 96766.8 L 258671.6 98462.4 L 258670.4 98463.6 Z M 268991.6 98635.2 Q 266706.8 101683.2 263511.2 103944 Q 262576.4 103059.6 261914 102739.2 Q 265107.2 100822.8 267172.4 97996.8 L 268990.4 98635.2 L 268991.6 98635.2 Z M 273539.6 96423.6 L 273539.6 102985.2 Q 273539.6 104434.8 272507.6 104804.4 Q 271720.4 105122.4 268697.6 105122.4 Q 268600.4 104336.4 268010 103328.4 Q 269484.8 103377.6 271204.4 103377.6 Q 271695.2 103352.4 271695.2 102960 L 271695.2 96570 Q 264273.2 97111.2 263340.8 97479.6 Q 263192 96693.6 262774.4 95785.2 Q 263782.4 95661.6 266190.8 94456.8 Q 267789.2 93694.8 270934.4 91802.4 Q 265305.2 92146.8 264690.8 92392.8 Q 264372.8 91261.2 264150.8 90746.4 Q 264790.4 90697.2 265946 89762.4 Q 267567.2 88755.6 269976.8 86248.8 Q 266634.8 86542.8 263266.4 86690.4 Q 263193.2 85904.4 262800.8 85093.2 Q 274522.4 84454.8 279758 83152.8 L 281060 84651.6 Q 277570.4 85486.8 272507.6 86001.6 Q 269976.8 88656 267371.6 90524.4 L 273318.8 90228 Q 275456 88802.4 277226 87352.8 L 278626.4 88532.4 Q 273366.8 92539.2 267616.4 95290.8 L 278355.2 94603.2 Q 277716.8 93867.6 276390.8 92613.6 L 277767.2 91902 Q 281036 94752 282779.6 97309.2 L 281330 98193.6 Q 280691.6 97258.8 279610.4 95980.8 L 273539.6 96423.6 Z M 277151.6 97873.2 Q 280738.4 100503.6 283000.4 102888 L 281451.2 103993.2 Q 279435.2 101683.2 275700.8 98808 L 277150.4 97873.2 L 277151.6 97873.2 Z M 306372.8 95515.2 Q 306052.4 94827.6 305388.8 93720 Q 295558.4 94654.8 294822.8 94975.2 Q 294626 94114.8 294208.4 93206.4 Q 295289.6 92910 295731.2 92444.4 Q 296739.2 91509.6 299123.6 88167.6 L 294699.2 88167.6 L 294699.2 86521.2 L 300622.4 86521.2 Q 300352.4 85586.4 299295.2 83374.8 L 300966.8 82908 Q 301925.6 84654 302440.4 86030.4 L 300893.6 86521.2 L 307872.8 86521.2 L 307872.8 88167.6 L 301262 88167.6 Q 299246 90993.6 297748.4 92836.8 L 304481.6 92271.6 Q 303646.4 90993.6 302859.2 89961.6 L 304284.8 89250 Q 306890 92690.4 307898 94633.2 L 306375.2 95517.6 L 306372.8 95515.2 Z M 293740.4 95515.2 Q 293640.8 96423.6 293789.6 97111.2 Q 287079.2 98586 286391.6 99003.6 Q 286170.8 98192.4 285802.4 97257.6 Q 286416.8 97110 287645.6 95635.2 Q 288530 94702.8 290076.8 92416.8 Q 286686.8 92907.6 286220 93153.6 Q 286047.2 92367.6 285580.4 91260 Q 286146.8 91138.8 287006 89786.4 Q 288948.8 87108 290471.6 82880.4 L 292338.8 83739.6 Q 290471.6 87892.8 288210.8 91062 L 291183.2 90744 Q 291870.8 89712 292731.2 88065.6 L 294353.6 89024.4 Q 292019.6 93079.2 289144.4 96421.2 L 293739.2 95512.8 L 293740.4 95515.2 Z M 294011.6 101462.4 Q 292683.2 101904 289907.6 102788.4 L 286221.2 103968 L 285803.6 102150 Q 288161.6 101535.6 293715.2 99864 L 294011.6 101462.4 Z M 299024 94900.8 Q 298852.4 99422.4 297917.6 101510.4 Q 296762 104067.6 293616.8 105320.4 Q 293175.2 104337.6 292511.6 103870.8 Q 295313.6 102814.8 296296.4 100627.2 Q 297083.6 98905.2 297231.2 94900.8 L 299025.2 94900.8 L 299024 94900.8 Z M 305882 103329.6 Q 306274.4 103329.6 306398 102739.2 Q 306521.6 102124.8 306570.8 99937.2 Q 307061.6 100380 308142.8 100674 Q 308019.2 103180.8 307625.6 104041.2 Q 307208 104900.4 306078.8 104900.4 L 303939.2 104900.4 Q 302662.4 104900.4 302219.6 104409.6 Q 301802 103942.8 301802 102590.4 L 301802 94873.2 L 303596 94873.2 L 303596 102590.4 Q 303596 103083.6 303695.6 103204.8 Q 303816.8 103328.4 304210.4 103328.4 L 305882 103328.4 L 305882 103329.6 Z M 318784.4 83545.2 Q 317800.4 85954.8 316301.6 88387.2 L 316301.6 105418.8 L 314410.4 105418.8 L 314410.4 91238.4 Q 312885.2 93254.4 311583.2 94458 Q 310944.8 93302.4 310379.6 92713.2 Q 314631.2 88903.2 316989.2 82980 L 318784.4 83545.2 Z M 329326.4 103158 Q 330261.2 103158 330579.2 102100.8 Q 330849.2 101192.4 330998 97923.6 Q 331906.4 98611.2 332790.8 98808 Q 332594 102370.8 331979.6 103599.6 Q 331292 104952 329424.8 104952 L 325098.8 104952 Q 323255.6 104952 322617.2 104238 Q 321953.6 103526.4 321953.6 101486.4 L 321953.6 97258.8 Q 320258 98364 318538.4 99224.4 Q 317874.8 98389.2 317187.2 97848 Q 319521.2 96716.4 321954.8 95046 L 321954.8 83421.6 L 323871.2 83421.6 L 323871.2 93596.4 Q 328048.4 90278.4 330458 86518.8 L 332252 87698.4 Q 329056.4 92172 323871.2 95931.6 L 323871.2 101534.4 Q 323871.2 102542.4 324141.2 102860.4 Q 324411.2 103156.8 325295.6 103156.8 L 329326.4 103156.8 L 329326.4 103158 Z M 340533.2 104902.8 Q 338124.8 101880 335102 99422.4 L 336699.2 98020.8 Q 339450.8 100233.6 342204.8 103477.2 L 340533.2 104902.8 Z M 371843.6 97112.4 L 370097.6 97112.4 L 370097.6 84160.8 L 380421.2 84160.8 L 380421.2 97112.4 L 378626 97112.4 L 378626 85783.2 L 371843.6 85783.2 L 371843.6 97112.4 Z M 367812.8 101806.8 Q 367050.8 100528.8 364740.8 97629.6 Q 363756.8 102421.2 360660.8 105148.8 Q 360219.2 104410.8 359382.8 103893.6 Q 362996 100970.4 363489.2 94407.6 L 359532.8 94407.6 L 359532.8 92688 L 363563.6 92688 Q 363587.6 92173.2 363587.6 91165.2 L 363587.6 88731.6 L 360072.8 88731.6 L 360072.8 87036 L 363587.6 87036 L 363587.6 83228.4 L 365307.2 83228.4 L 365307.2 87036 L 368649.2 87036 L 368649.2 88731.6 L 365307.2 88731.6 L 365307.2 91141.2 Q 365307.2 92173.2 365283.2 92688 L 368920.4 92688 L 368920.4 94407.6 L 365210 94407.6 L 365062.4 95760 Q 366905.6 97702.8 369093.2 100430.4 L 367815.2 101806.8 L 367812.8 101806.8 Z M 379413.2 103429.2 Q 379978.4 103429.2 380151.2 102691.2 Q 380322.8 101977.2 380396 99398.4 Q 381083.6 99937.2 381894.8 100110 Q 381747.2 103058.4 381329.6 103918.8 Q 380862.8 104877.6 379388 104877.6 L 377447.6 104877.6 Q 376218.8 104877.6 375728 104460 Q 375210.8 103993.2 375210.8 102788.4 L 375210.8 98193.6 Q 373540.4 102814.8 368625.2 105393.6 Q 368108 104534.4 367493.6 104067.6 Q 371622.8 101954.4 373244 98538 Q 374399.6 96129.6 374399.6 92540.4 L 374399.6 87871.2 L 376121.6 87871.2 L 376121.6 92564.4 Q 376121.6 94629.6 375728 96399.6 L 376857.2 96399.6 L 376857.2 102616.8 Q 376857.2 103107.6 377030 103279.2 Q 377201.6 103428 377694.8 103428 L 379414.4 103428 L 379413.2 103429.2 Z M 41393.6 130444.4 Q 44344.4 131722.4 45990.8 132681.2 L 44982.8 134082.8 Q 43581.2 133172 40412 131673.2 L 41394.8 130444.4 L 41393.6 130444.4 Z M 46308.8 129782 Q 44441.6 128453.6 41836.4 127028 L 42892.4 125848.4 Q 45989.6 127470.8 47366 128429.6 L 46308.8 129782 Z M 40828.4 140301.2 Q 43728.8 137720 46725.2 134157.2 L 47733.2 135507.2 Q 45275.6 138531.2 42106.4 141800 L 40828.4 140301.2 Z M 47759.6 123244.4 L 47759.6 125602.4 L 45916.4 125602.4 L 45916.4 123244.4 L 40434.8 123244.4 L 40434.8 121548.8 L 45916.4 121548.8 L 45916.4 119435.6 L 47759.6 119435.6 L 47759.6 121548.8 L 54566 121548.8 L 54566 119435.6 L 56409.2 119435.6 L 56409.2 121548.8 L 62038.4 121548.8 L 62038.4 123244.4 L 56409.2 123244.4 L 56409.2 125602.4 L 54566 125602.4 L 54566 123244.4 L 47759.6 123244.4 Z M 58818.8 139710.8 Q 59874.8 139710.8 60219.2 139072.4 Q 60539.6 138482 60663.2 136392.8 Q 61498.4 136934 62406.8 137130.8 Q 62210 139688 61522.4 140523.2 Q 60834.8 141431.6 58868 141431.6 L 52749.2 141431.6 Q 50585.6 141431.6 49823.6 140817.2 Q 49012.4 140178.8 49012.4 138335.6 L 49012.4 126711.2 L 60219.2 126711.2 L 60219.2 132903.2 Q 60219.2 134378 59187.2 134746.4 Q 58252.4 135066.8 54910.4 135066.8 Q 54738.8 134304.8 54197.6 133320.8 Q 56925.2 133396.4 57860 133347.2 Q 58425.2 133322 58425.2 132904.4 L 58425.2 128456 L 50879.6 128456 L 50879.6 138335.6 Q 50879.6 139194.8 51249.2 139440.8 Q 51617.6 139710.8 52846.4 139710.8 L 58818.8 139710.8 Z M 73024.4 119999.6 Q 72040.4 122409.2 70541.6 124841.6 L 70541.6 141873.2 L 68650.4 141873.2 L 68650.4 127692.8 Q 67125.2 129708.8 65823.2 130912.4 Q 65184.8 129756.8 64619.6 129167.6 Q 68871.2 125357.6 71229.2 119434.4 L 73024.4 119999.6 Z M 83566.4 139612.4 Q 84501.2 139612.4 84819.2 138555.2 Q 85089.2 137646.8 85238 134378 Q 86146.4 135065.6 87030.8 135262.4 Q 86834 138825.2 86219.6 140054 Q 85532 141406.4 83664.8 141406.4 L 79338.8 141406.4 Q 77495.6 141406.4 76857.2 140692.4 Q 76193.6 139980.8 76193.6 137940.8 L 76193.6 133713.2 Q 74498 134818.4 72778.4 135678.8 Q 72114.8 134843.6 71427.2 134302.4 Q 73761.2 133170.8 76194.8 131500.4 L 76194.8 119876 L 78111.2 119876 L 78111.2 130050.8 Q 82288.4 126732.8 84698 122973.2 L 86492 124152.8 Q 83296.4 128626.4 78111.2 132386 L 78111.2 137988.8 Q 78111.2 138996.8 78381.2 139314.8 Q 78651.2 139611.2 79535.6 139611.2 L 83566.4 139611.2 L 83566.4 139612.4 Z M 94773.2 141357.2 Q 92364.8 138334.4 89342 135876.8 L 90939.2 134475.2 Q 93690.8 136688 96444.8 139931.6 L 94773.2 141357.2 Z M 122224.4 128577.2 L 121316 131280.8 L 131908.4 131280.8 L 132228.8 131181.2 L 133605.2 132016.4 Q 130803.2 134916.8 127092.8 138406.4 Q 129795.2 139538 131097.2 140324 L 129992 141897.2 Q 125864 139342.4 119006 137326.4 L 120038 136000.4 Q 122250.8 136614.8 125273.6 137720 Q 128369.6 134795.6 130115.6 133001.6 L 118712 133001.6 Q 119277.2 131600 120309.2 128577.2 L 114117.2 128577.2 L 114117.2 126807.2 L 120875.6 126807.2 Q 121416.8 125184.8 121809.2 123908 L 116082.8 123908 L 116082.8 122162 L 122326.4 122162 Q 122891.6 120195.2 123064.4 119457.2 L 125004.8 119457.2 Q 124611.2 120882.8 124193.6 122160.8 L 133606.4 122160.8 L 133606.4 123906.8 L 123702.8 123906.8 Q 123482 124569.2 122794.4 126806 L 135376.4 126806 L 135376.4 128576 L 122228 128576 L 122224.4 128577.2 Z M 159776 125898.8 Q 157638.8 130985.6 155550.8 134354 L 154052 133542.8 Q 156630.8 129315.2 158129.6 125087.6 L 159776 125898.8 Z M 142648.4 134157.2 Q 141737.6 130815.2 139305.2 125530.4 L 140999.6 125015.6 Q 143409.2 130054.4 144465.2 133470.8 L 142647.2 134158.4 L 142648.4 134157.2 Z M 160269.2 138776 L 160269.2 140571.2 L 138789.2 140571.2 L 138789.2 138776 L 145620.8 138776 L 145620.8 119729.6 L 147440 119729.6 L 147440 138776 L 151593.2 138776 L 151593.2 119754.8 L 153411.2 119754.8 L 153411.2 138776 L 160269.2 138776 Z M 171328.4 119999.6 Q 170344.4 122409.2 168845.6 124841.6 L 168845.6 141873.2 L 166954.4 141873.2 L 166954.4 127692.8 Q 165429.2 129708.8 164127.2 130912.4 Q 163488.8 129756.8 162923.6 129167.6 Q 167175.2 125357.6 169533.2 119434.4 L 171328.4 119999.6 Z M 181870.4 139612.4 Q 182805.2 139612.4 183123.2 138555.2 Q 183393.2 137646.8 183542 134378 Q 184450.4 135065.6 185334.8 135262.4 Q 185138 138825.2 184523.6 140054 Q 183836 141406.4 181968.8 141406.4 L 177642.8 141406.4 Q 175799.6 141406.4 175161.2 140692.4 Q 174497.6 139980.8 174497.6 137940.8 L 174497.6 133713.2 Q 172802 134818.4 171082.4 135678.8 Q 170418.8 134843.6 169731.2 134302.4 Q 172065.2 133170.8 174498.8 131500.4 L 174498.8 119876 L 176415.2 119876 L 176415.2 130050.8 Q 180592.4 126732.8 183002 122973.2 L 184796 124152.8 Q 181600.4 128626.4 176415.2 132386 L 176415.2 137988.8 Q 176415.2 138996.8 176685.2 139314.8 Q 176955.2 139611.2 177839.6 139611.2 L 181870.4 139611.2 L 181870.4 139612.4 Z M 189686 141306.8 Q 192609.2 140103.2 192782 137694.8 Q 192634.4 137718.8 192364.4 137718.8 Q 191577.2 137718.8 191062.4 137276 Q 190521.2 136810.4 190521.2 135974 Q 190521.2 135138.8 191086.4 134648 Q 191603.6 134205.2 192389.6 134205.2 Q 194478.8 134205.2 194478.8 137032.4 Q 194478.8 141112.4 190227.2 142611.2 L 189686 141306.8 Z M 214533.2 123441.2 L 214533.2 133689.2 L 217456.4 133689.2 L 217456.4 123441.2 L 214533.2 123441.2 Z M 214533.2 135386 L 214533.2 137720 L 212934.8 137720 L 212934.8 121745.6 L 219054.8 121745.6 L 219054.8 135386 L 214533.2 135386 Z M 224436.8 122704.4 Q 224240 126096.8 224067.2 127743.2 Q 225516.8 132558.8 228344 135852.8 Q 230507.6 133049.6 231466.4 129290 L 227116.4 129290 Q 228124.4 126170 228910.4 122704.4 L 224438 122704.4 L 224436.8 122704.4 Z M 233529.2 128061.2 Q 232448 133320.8 229548.8 137106.8 Q 231833.6 139270.4 234635.6 140302.4 Q 233897.6 140916.8 233382.8 141801.2 Q 230580.8 140645.6 228344 138458 Q 226328 140546 223649.6 141898.4 Q 223232 141087.2 222396.8 140522 Q 225099.2 139269.2 227164.4 137204 Q 225075.2 134746.4 223576.4 131256.8 Q 222396.8 138236 218858 141898.4 Q 218046.8 141210.8 217335.2 140793.2 Q 220161.2 138188 221414 133444.4 Q 222422 129561.2 222692 122705.6 L 219940.4 122705.6 L 219940.4 121010 L 231096.8 121010 Q 230188.4 124720.4 229328 127671.2 L 232130 127671.2 L 232426.4 127598 L 233531.6 128063.6 L 233529.2 128061.2 Z M 243507.2 119802.8 L 245301.2 119802.8 L 245301.2 141897.2 L 243507.2 141897.2 L 243507.2 135089.6 Q 238494.8 136932.8 237855.2 137474 Q 237634.4 136614.8 237117.2 135803.6 Q 237953.6 135262.4 237953.6 134157.2 L 237953.6 122139.2 L 239747.6 122139.2 L 239747.6 134598.8 L 243507.2 133346 L 243507.2 119804 L 243507.2 119802.8 Z M 249798.8 126267.2 Q 250954.4 130740.8 252773.6 133886 Q 254444 130740.8 255255.2 125898.8 L 249946.4 125898.8 L 249798.8 126267.2 Z M 257097.2 125898.8 Q 256041.2 131895.2 253828.4 135581.6 Q 256162.4 138825.2 259137.2 140274.8 Q 258228.8 141062 257884.4 141773.6 Q 255057.2 140226.8 252820.4 137129.6 Q 250608.8 140054 247192.4 141897.2 Q 246898.4 141306.8 245987.6 140398.4 Q 249576.8 138628.4 251788.4 135532.4 Q 249970.4 132460.4 248838.8 128528 Q 248003.6 130247.6 246898.4 131673.2 Q 246357.2 130862 245595.2 130150.4 Q 248494.4 126758 249674 119410.4 L 251542.4 119728.4 Q 251198 121720.4 250510.4 124178 L 258915.2 124178 L 258915.2 125897.6 L 257096 125897.6 L 257097.2 125898.8 Z M 278577.2 121524.8 L 266216 121524.8 L 266216 123195.2 L 278577.2 123195.2 L 278577.2 121524.8 Z M 278577.2 124424 L 266216 124424 L 266216 126170 L 278577.2 126170 L 278577.2 124424 Z M 280371.2 127472 L 264470 127472 L 264470 120222.8 L 280371.2 120222.8 L 280371.2 127472 Z M 265404.8 138482 Q 267641.6 138236 269853.2 137966 L 269853.2 136443.2 L 265404.8 136443.2 L 265404.8 138483.2 L 265404.8 138482 Z M 265404.8 130347.2 L 265404.8 131993.6 L 269853.2 131993.6 L 269853.2 130347.2 L 265404.8 130347.2 Z M 265404.8 135089.6 L 269853.2 135089.6 L 269853.2 133370 L 265404.8 133370 L 265404.8 135089.6 Z M 271596.8 139269.2 L 271596.8 141874.4 L 269853.2 141874.4 L 269853.2 139490 L 261521.6 140498 L 261324.8 138875.6 L 263733.2 138629.6 L 263733.2 130348.4 L 261399.2 130348.4 L 261399.2 128825.6 L 283320.8 128825.6 L 283320.8 130348.4 L 271598 130348.4 L 271598 137770.4 L 272926.4 137621.6 L 272926.4 139096.4 L 271598 139269.2 L 271596.8 139269.2 Z M 275135.6 133370 Q 276119.6 135557.6 277790 137156 Q 279584 135386 280518.8 133370 L 275136.8 133370 L 275135.6 133370 Z M 282632 132263.6 Q 281550.8 135704 279020 138186.8 Q 281060 139660.4 283690.4 140348 Q 283076 140938.4 282609.2 141798.8 Q 279831.2 140938.4 277742 139268 Q 275703.2 140865.2 273096.8 141800 Q 272802.8 141086 272164.4 140447.6 Q 274572.8 139660.4 276563.6 138186.8 Q 274696.4 136270.4 273540.8 133516.4 L 274031.6 133368.8 L 272558 133368.8 L 272558 131870 L 281256.8 131870 L 281601.2 131820.8 L 282633.2 132263.6 L 282632 132263.6 Z M 297033.2 123515.6 L 286268 123515.6 L 286268 121990.4 L 291086 121990.4 Q 290520.8 120664.4 290003.6 119756 L 291650 119338.4 Q 292510.4 120885.2 292952 121990.4 L 297032 121990.4 L 297032 123515.6 L 297033.2 123515.6 Z M 289563.2 134548.4 Q 288678.8 137178.8 287032.4 139169.6 Q 286245.2 138531.2 285778.4 138234.8 Q 287253.2 136637.6 288064.4 134156 L 289563.2 134548.4 Z M 289341.2 123686 Q 290201.6 125554.4 290374.4 127127.6 L 288825.2 127545.2 Q 288652.4 125898.8 287866.4 124030.4 L 289340 123686 L 289341.2 123686 Z M 292562 133246.4 L 292562 139490 Q 292562 140693.6 291848 141038 Q 291233.6 141334.4 289266.8 141334.4 Q 289145.6 140572.4 288726.8 139785.2 Q 290128.4 139834.4 290595.2 139785.2 Q 290889.2 139785.2 290889.2 139464.8 L 290889.2 133247.6 L 285998 133247.6 L 285998 131674.4 L 290889.2 131674.4 L 290889.2 129095.6 L 285876.8 129095.6 L 285876.8 127546.4 L 292659.2 127546.4 Q 293494.4 125530.4 293985.2 123639.2 L 295656.8 124007.6 Q 294869.6 126219.2 294304.4 127547.6 L 297425.6 127547.6 L 297425.6 129096.8 L 292559.6 129096.8 L 292559.6 131675.6 L 297130.4 131675.6 L 297130.4 133248.8 L 292559.6 133248.8 L 292562 133246.4 Z M 294796.4 134057.6 Q 296295.2 136343.6 296836.4 137916.8 L 295558.4 138654.8 Q 294896 136884.8 293543.6 134697.2 L 294796.4 134057.6 Z M 308142.8 129363.2 L 305439.2 129363.2 L 305439.2 141750.8 L 303669.2 141750.8 L 303669.2 129363.2 L 299958.8 129363.2 L 299958.8 130150.4 Q 299958.8 138014 297401.6 141627.2 Q 296787.2 140963.6 296001.2 140522 Q 298262 137253.2 298262 130150.4 L 298262 121769.6 Q 303250.4 120958.4 305904.8 119853.2 L 307354.4 121205.6 Q 304528.4 122261.6 299957.6 122975.6 L 299957.6 127644.8 L 308141.6 127644.8 L 308141.6 129364.4 L 308142.8 129363.2 Z M 318291.2 124989.2 L 313131.2 124989.2 L 313131.2 130126.4 L 318291.2 130126.4 L 318291.2 124989.2 Z M 318291.2 137646.8 L 318291.2 131747.6 L 313131.2 131747.6 L 313131.2 137646.8 L 318291.2 137646.8 Z M 317162 119729.6 Q 316080.8 122826.8 315884 123341.6 L 319964 123341.6 L 319964 139292 L 313132.4 139292 L 313132.4 141232.4 L 311460.8 141232.4 L 311460.8 123341.6 L 314214.8 123341.6 Q 314952.8 120957.2 315197.6 119360 L 317164.4 119728.4 L 317162 119729.6 Z M 331980.8 124203.2 Q 331463.6 138948.8 330284 140398.4 Q 329596.4 141258.8 328343.6 141382.4 Q 327335.6 141503.6 324705.2 141356 Q 324608 140348 324090.8 139562 Q 325689.2 139709.6 327729.2 139709.6 Q 328440.8 139709.6 328734.8 139341.2 Q 329792 138209.6 330233.6 124962.8 L 323992.4 124962.8 Q 322860.8 127690.4 321681.2 129263.6 Q 321360.8 128969.6 320181.2 128231.6 Q 322589.6 125060 323942 119309.6 L 325688 119727.2 Q 325221.2 121643.6 324630.8 123266 L 331979.6 123266 L 331979.6 124200.8 L 331980.8 124203.2 Z M 326548.4 135286.4 Q 325419.2 133001.6 322814 129609.2 L 324239.6 128774 Q 326942 132214.4 328097.6 134327.6 L 326548.4 135286.4 Z M 349625.6 125676.8 Q 350363.6 130101.2 351789.2 133469.6 Q 353190.8 130545.2 353926.4 125678 L 349625.6 125678 L 349625.6 125676.8 Z M 355794.8 125676.8 Q 354886.4 131747.6 352797.2 135483.2 Q 354713.6 138849.2 357539.6 140324 Q 356729.6 140987.6 356262.8 141896 Q 353559.2 140298.8 351666.8 137177.6 Q 349455.2 140126 345965.6 141945.2 Q 345572 141060.8 344860.4 140298.8 Q 348594.8 138528.8 350708 135357.2 Q 349382 132581.6 348473.6 128550.8 Q 347859.2 129951.2 346826 131426 Q 346114.4 130712 345500 130294.4 Q 344001.2 132014 341789.6 133512.8 L 341789.6 134693.6 L 344344.4 134447.6 Q 345917.6 134300 346925.6 134176.4 L 346925.6 135749.6 L 341789.6 136314.8 L 341789.6 139928 Q 341789.6 141230 340929.2 141574.4 Q 340265.6 141844.4 337636.4 141844.4 Q 337536.8 141182 337071.2 140247.2 Q 337685.6 140271.2 339650 140271.2 Q 340067.6 140247.2 340067.6 139902.8 L 340067.6 136510.4 L 335079.2 137051.6 L 334858.4 135381.2 Q 337512.8 135159.2 340067.6 134865.2 L 340067.6 133095.2 L 340043.6 133071.2 Q 341493.2 132186.8 342845.6 130884.8 L 340264.4 130884.8 Q 338397.2 132604.4 336036.8 134006 Q 335546 133391.6 334760 132653.6 Q 335963.6 132014 337536.8 130884.8 L 336922.4 130884.8 L 336922.4 129410 L 339332 129410 Q 339970.4 128844.8 341102 127616 L 334908.8 127616 L 334908.8 125993.6 L 339160.4 125993.6 L 339160.4 123561.2 L 335940.8 123561.2 L 335940.8 121986.8 L 339160.4 121986.8 L 339160.4 119408 L 340856 119408 L 340856 121986.8 L 343904 121986.8 L 343904 123561.2 L 340856 123561.2 L 340856 125993.6 L 342405.2 125993.6 Q 344469.2 123118.4 345624.8 119997.2 L 347344.4 120464 Q 346164.8 123388.4 344469.2 125993.6 L 346730 125993.6 L 346730 127616 L 343313.6 127616 Q 342108.8 129065.6 341764.4 129410 L 344295.2 129410 L 344639.6 129312.8 L 345500 129951.2 Q 348130.4 126364.4 349334 119409.2 L 351153.2 119703.2 Q 350710.4 122063.6 350169.2 123954.8 L 357346.4 123954.8 L 357346.4 125674.4 L 355797.2 125674.4 L 355794.8 125676.8 Z M 362183.6 128331.2 L 360440 128331.2 L 360440 123489.2 L 364494.8 123489.2 Q 363832.4 122088.8 362381.6 120369.2 L 363906.8 119655.2 Q 365601.2 121598 366240.8 122998.4 L 365306 123489.2 L 370688 123489.2 Q 370097.6 121695.2 368844.8 119828 L 370418 119237.6 Q 371940.8 121350.8 372407.6 122973.2 L 371154.8 123488 L 375161.6 123488 Q 376659.2 121620.8 377643.2 119580.8 L 379486.4 120220.4 Q 378330.8 121940 377102 123486.8 L 381108.8 123486.8 L 381108.8 128328.8 L 379313.6 128328.8 L 379313.6 125135.6 L 362183.6 125135.6 L 362183.6 128328.8 L 362183.6 128331.2 Z M 381550.4 134918 L 371548.4 134918 L 371548.4 139612.4 Q 371548.4 141135.2 370367.6 141503.6 Q 369408.8 141824 365846 141824 Q 365698.4 141233.6 365084 140054 Q 368156 140177.6 369090.8 140078 Q 369729.2 140054 369729.2 139587.2 L 369729.2 134918 L 359948 134918 L 359948 133222.4 L 369729.2 133222.4 L 369729.2 131452.4 Q 371842.4 130690.4 373979.6 129264.8 L 364052 129264.8 L 364052 127642.4 L 376070 127642.4 L 376414.4 127545.2 L 377619.2 128453.6 Q 375333.2 130542.8 371549.6 132238.4 L 371549.6 133221.2 L 381551.6 133221.2 L 381551.6 134916.8 L 381550.4 134918 Z M 47907.2 173239.6 L 40288.4 175796.8 L 39870.8 173953.6 Q 41690 173412.4 43163.6 172921.6 L 43163.6 166310.8 L 40361.6 166310.8 L 40361.6 164588.8 L 43163.6 164588.8 L 43163.6 159256 L 40116.8 159256 L 40116.8 157536.4 L 47734.4 157536.4 L 47734.4 159256 L 44908.4 159256 L 44908.4 164588.8 L 47390 164588.8 L 47390 166310.8 L 44908.4 166310.8 L 44908.4 172381.6 L 47586.8 171497.2 L 47907.2 173240.8 L 47907.2 173239.6 Z M 50609.6 166334.8 L 54345.2 166334.8 L 54345.2 163189.6 L 50609.6 163189.6 L 50609.6 166334.8 Z M 50609.6 161689.6 L 54345.2 161689.6 L 54345.2 158593.6 L 50609.6 158593.6 L 50609.6 161689.6 Z M 59678 158593.6 L 55918.4 158593.6 L 55918.4 161689.6 L 59678 161689.6 L 59678 158593.6 Z M 59678 163188.4 L 55918.4 163188.4 L 55918.4 166333.6 L 59678 166333.6 L 59678 163188.4 Z M 62579.6 175844.8 L 62579.6 177516.4 L 46752.8 177516.4 L 46752.8 175844.8 L 54222.8 175844.8 L 54222.8 172478.8 L 48645.2 172478.8 L 48645.2 170808.4 L 54222.8 170808.4 L 54222.8 167932 L 48939.2 167932 L 48939.2 156996.4 L 61424 156996.4 L 61424 167932 L 56066 167932 L 56066 170808.4 L 61792.4 170808.4 L 61792.4 172478.8 L 56066 172478.8 L 56066 175844.8 L 62579.6 175844.8 Z M 76931.6 156110.8 Q 76832 156258.4 76538 156602.8 Q 80568.8 160535.2 87057.2 162551.2 Q 86418.8 163116.4 85828.4 164075.2 Q 79857.2 161938 75483.2 157808.8 Q 71796.8 161765.2 65505.2 164322.4 Q 65012 163462 64422.8 162724 Q 71795.6 160217.2 75236 155474.8 L 76931.6 156113.2 L 76931.6 156110.8 Z M 83124.8 165130 Q 81453.2 167957.2 78430.4 170512 Q 77865.2 170045.2 77054 169627.6 Q 78872 168154 80421.2 166040.8 L 67812.8 166040.8 L 67812.8 164418.4 L 81626 164418.4 L 81896 164345.2 L 83124.8 165131.2 L 83124.8 165130 Z M 73785.2 167906.8 Q 76808 170364.4 78060.8 172428.4 L 76636.4 173485.6 Q 75407.6 171396.4 72432.8 168841.6 L 73785.2 167906.8 Z M 76881.2 163853.2 Q 75800 162575.2 73515.2 161322.4 L 74596.4 160265.2 Q 76930.4 161494 78035.6 162722.8 L 76880 163854.4 L 76881.2 163853.2 Z M 64593.2 176362 Q 66068 174224.8 67050.8 170365.6 L 68624 170906.8 Q 67542.8 175084 66192.8 177173.2 L 64594.4 176362 L 64593.2 176362 Z M 79192.4 176041.6 Q 80151.2 176041.6 80445.2 175526.8 Q 80715.2 175033.6 80788.4 173190.4 Q 81452 173633.2 82484 173879.2 Q 82287.2 176188 81672.8 176951.2 Q 81058.4 177713.2 79338.8 177713.2 L 73685.6 177713.2 Q 71597.6 177713.2 70859.6 177196 Q 70148 176681.2 70148 175182.4 L 70148 170194 L 71942 170194 L 71942 175182.4 Q 71942 175723.6 72286.4 175895.2 Q 72606.8 176042.8 73786.4 176042.8 L 79192.4 176042.8 L 79192.4 176041.6 Z M 83345.6 169997.2 Q 86048 173658.4 86908.4 176042.8 L 85262 176804.8 Q 84254 173954.8 81796.4 170636.8 L 83345.6 169998.4 L 83345.6 169997.2 Z M 95978 163091.2 L 100254.8 163091.2 L 100254.8 164785.6 L 95978 164785.6 L 95978 165425.2 Q 97821.2 167365.6 100082 170167.6 L 98976.8 171666.4 Q 98262.8 170486.8 95978 167512 L 95978 178253.2 L 94184 178253.2 L 94184 167438.8 Q 92192 172182.4 89783.6 174763.6 Q 89465.6 174000.4 88775.6 173092 Q 91823.6 170044 93716 164784.4 L 89390 164784.4 L 89390 163090 L 94184 163090 L 94184 159010 Q 92291.6 159304 90128 159598 Q 89956.4 158788 89612 158148.4 Q 95877.2 157289.2 98852 156108.4 L 100080.8 157534 Q 98385.2 158148.4 95976.8 158665.6 L 95976.8 163090 L 95978 163091.2 Z M 108363.2 173436.4 L 108363.2 159895.6 L 102882.8 159895.6 L 102882.8 173436.4 L 108363.2 173436.4 Z M 110182.4 158150.8 L 110182.4 177049.6 L 108363.2 177049.6 L 108363.2 175206.4 L 102882.8 175206.4 L 102882.8 177222.4 L 101088.8 177222.4 L 101088.8 158150.8 L 110181.2 158150.8 L 110182.4 158150.8 Z M 116399.6 163999.6 L 114680 163999.6 L 114680 159133.6 L 118808 159133.6 Q 117972.8 157658.8 117064.4 156650.8 L 118661.6 156012.4 Q 119915.6 157412.8 120578 158593.6 L 119422.4 159134.8 L 123969.2 159134.8 L 123969.2 155866 L 125812.4 155866 L 125812.4 159134.8 L 130310 159134.8 L 129228.8 158692 Q 130506.8 157266.4 131292.8 156013.6 L 133112 156652 Q 132006.8 157980.4 130802 159136 L 135299.6 159136 L 135299.6 164002 L 133505.6 164002 L 133505.6 160684 L 116399.6 160684 L 116399.6 164002 L 116399.6 163999.6 Z M 119889.2 165376 L 130040 165376 L 130040 163435.6 L 119889.2 163435.6 L 119889.2 165376 Z M 118193.6 166628.8 L 118193.6 162180.4 L 131834 162180.4 L 131834 166628.8 L 118193.6 166628.8 Z M 135766.4 174912.4 L 125788.4 174912.4 L 125788.4 176459.2 Q 125788.4 177787.6 124707.2 178105.6 Q 123872 178351.6 120306.8 178351.6 Q 120185.6 177786.4 119668.4 176902 Q 122470.4 176975.2 123405.2 176926 Q 123994.4 176902 123994.4 176435.2 L 123994.4 174912.4 L 114140 174912.4 L 114140 173584 L 123994.4 173584 L 123994.4 171937.6 L 115540.4 171937.6 L 115540.4 170635.6 L 123994.4 170635.6 L 123994.4 169136.8 Q 120063.2 169333.6 116694.8 169333.6 Q 116694.8 168743.2 116350.4 168104.8 Q 126550.4 168007.6 131783.6 167123.2 L 132939.2 168276.4 Q 130260.8 168743.2 125788.4 169039.6 L 125788.4 170636.8 L 134463.2 170636.8 L 134463.2 171938.8 L 125788.4 171938.8 L 125788.4 173585.2 L 135766.4 173585.2 L 135766.4 174913.6 L 135766.4 174912.4 Z M 142769.6 169210 L 142769.6 176041.6 Q 142769.6 177443.2 141934.4 177836.8 Q 141196.4 178229.2 138911.6 178181.2 Q 138764 177296.8 138370.4 176460.4 Q 139402.4 176485.6 140631.2 176485.6 Q 141048.8 176485.6 141048.8 176042.8 L 141048.8 169751.2 L 138443.6 170586.4 L 138002 168890.8 Q 140384 168179.2 141047.6 168007.6 L 141047.6 162502 L 138320 162502 L 138320 160806.4 L 141047.6 160806.4 L 141047.6 155891.2 L 142767.2 155891.2 L 142767.2 160806.4 L 145421.6 160806.4 L 145421.6 162502 L 142767.2 162502 L 142767.2 167466.4 L 145250 166679.2 L 145494.8 168276.4 L 142767.2 169211.2 L 142769.6 169210 Z M 147981.2 158347.6 L 147981.2 160708 L 157811.6 160708 L 157811.6 158347.6 L 147981.2 158347.6 Z M 160736 176287.6 L 160736 177786.4 L 146825.6 177786.4 L 146825.6 176287.6 L 153093.2 176287.6 L 153093.2 173584 L 148299.2 173584 L 148299.2 172134.4 L 153093.2 172134.4 L 153093.2 169849.6 Q 149700.8 170118.4 149013.2 170315.2 L 149013.2 170218 Q 148988 170267.2 148988 170315.2 Q 148694 169356.4 148449.2 168791.2 Q 148890.8 168694 149602.4 167980 Q 150758 166727.2 151668.8 165325.6 L 147982.4 165325.6 Q 147809.6 174100 145007.6 178351.6 Q 144296 177713.2 143508.8 177392.8 Q 146212.4 173288.8 146212.4 164466.4 L 146212.4 156847.6 L 159629.6 156847.6 L 159629.6 162180.4 L 147981.2 162180.4 L 147981.2 163876 L 159702.8 163876 L 159702.8 165325.6 L 153707.6 165325.6 Q 152403.2 167194 151077.2 168544 L 157073.6 168151.6 Q 155942 166799.2 155500.4 166381.6 L 156802.4 165815.2 Q 158966 167831.2 159898.4 169723.6 L 158498 170386 Q 158301.2 169968.4 158007.2 169477.6 L 154886 169698.4 L 154886 172132 L 159701.6 172132 L 159701.6 173581.6 L 154886 173581.6 L 154886 176285.2 L 160736 176285.2 L 160736 176287.6 Z M 180273.2 157979.2 L 167912 157979.2 L 167912 159649.6 L 180273.2 159649.6 L 180273.2 157979.2 Z M 180273.2 160878.4 L 167912 160878.4 L 167912 162624.4 L 180273.2 162624.4 L 180273.2 160878.4 Z M 182067.2 163926.4 L 166166 163926.4 L 166166 156677.2 L 182067.2 156677.2 L 182067.2 163926.4 Z M 167100.8 174936.4 Q 169337.6 174690.4 171549.2 174420.4 L 171549.2 172897.6 L 167100.8 172897.6 L 167100.8 174937.6 L 167100.8 174936.4 Z M 167100.8 166801.6 L 167100.8 168448 L 171549.2 168448 L 171549.2 166801.6 L 167100.8 166801.6 Z M 167100.8 171544 L 171549.2 171544 L 171549.2 169824.4 L 167100.8 169824.4 L 167100.8 171544 Z M 173292.8 175723.6 L 173292.8 178328.8 L 171549.2 178328.8 L 171549.2 175944.4 L 163217.6 176952.4 L 163020.8 175330 L 165429.2 175084 L 165429.2 166802.8 L 163095.2 166802.8 L 163095.2 165280 L 185016.8 165280 L 185016.8 166802.8 L 173294 166802.8 L 173294 174224.8 L 174622.4 174076 L 174622.4 175550.8 L 173294 175723.6 L 173292.8 175723.6 Z M 176831.6 169824.4 Q 177815.6 172012 179486 173610.4 Q 181280 171840.4 182214.8 169824.4 L 176832.8 169824.4 L 176831.6 169824.4 Z M 184328 168718 Q 183246.8 172158.4 180716 174641.2 Q 182756 176114.8 185386.4 176802.4 Q 184772 177392.8 184305.2 178253.2 Q 181527.2 177392.8 179438 175722.4 Q 177399.2 177319.6 174792.8 178254.4 Q 174498.8 177540.4 173860.4 176902 Q 176268.8 176114.8 178259.6 174641.2 Q 176392.4 172724.8 175236.8 169970.8 L 175727.6 169823.2 L 174254 169823.2 L 174254 168324.4 L 182952.8 168324.4 L 183297.2 168275.2 L 184329.2 168718 L 184328 168718 Z M 198729.2 159970 L 187964 159970 L 187964 158444.8 L 192782 158444.8 Q 192216.8 157118.8 191699.6 156210.4 L 193346 155792.8 Q 194206.4 157339.6 194648 158444.8 L 198728 158444.8 L 198728 159970 L 198729.2 159970 Z M 191259.2 171002.8 Q 190374.8 173633.2 188728.4 175624 Q 187941.2 174985.6 187474.4 174689.2 Q 188949.2 173092 189760.4 170610.4 L 191259.2 171002.8 Z M 191037.2 160140.4 Q 191897.6 162008.8 192070.4 163582 L 190521.2 163999.6 Q 190348.4 162353.2 189562.4 160484.8 L 191036 160140.4 L 191037.2 160140.4 Z M 194258 169700.8 L 194258 175944.4 Q 194258 177148 193544 177492.4 Q 192929.6 177788.8 190962.8 177788.8 Q 190841.6 177026.8 190422.8 176239.6 Q 191824.4 176288.8 192291.2 176239.6 Q 192585.2 176239.6 192585.2 175919.2 L 192585.2 169702 L 187694 169702 L 187694 168128.8 L 192585.2 168128.8 L 192585.2 165550 L 187572.8 165550 L 187572.8 164000.8 L 194355.2 164000.8 Q 195190.4 161984.8 195681.2 160093.6 L 197352.8 160462 Q 196565.6 162673.6 196000.4 164002 L 199121.6 164002 L 199121.6 165551.2 L 194255.6 165551.2 L 194255.6 168130 L 198826.4 168130 L 198826.4 169703.2 L 194255.6 169703.2 L 194258 169700.8 Z M 196492.4 170512 Q 197991.2 172798 198532.4 174371.2 L 197254.4 175109.2 Q 196592 173339.2 195239.6 171151.6 L 196492.4 170512 Z M 209838.8 165817.6 L 207135.2 165817.6 L 207135.2 178205.2 L 205365.2 178205.2 L 205365.2 165817.6 L 201654.8 165817.6 L 201654.8 166604.8 Q 201654.8 174468.4 199097.6 178081.6 Q 198483.2 177418 197697.2 176976.4 Q 199958 173707.6 199958 166604.8 L 199958 158224 Q 204946.4 157412.8 207600.8 156307.6 L 209050.4 157660 Q 206224.4 158716 201653.6 159430 L 201653.6 164099.2 L 209837.6 164099.2 L 209837.6 165818.8 L 209838.8 165817.6 Z M 219987.2 161443.6 L 214827.2 161443.6 L 214827.2 166580.8 L 219987.2 166580.8 L 219987.2 161443.6 Z M 219987.2 174101.2 L 219987.2 168202 L 214827.2 168202 L 214827.2 174101.2 L 219987.2 174101.2 Z M 218858 156184 Q 217776.8 159281.2 217580 159796 L 221660 159796 L 221660 175746.4 L 214828.4 175746.4 L 214828.4 177686.8 L 213156.8 177686.8 L 213156.8 159796 L 215910.8 159796 Q 216648.8 157411.6 216893.6 155814.4 L 218860.4 156182.8 L 218858 156184 Z M 233676.8 160657.6 Q 233159.6 175403.2 231980 176852.8 Q 231292.4 177713.2 230039.6 177836.8 Q 229031.6 177958 226401.2 177810.4 Q 226304 176802.4 225786.8 176016.4 Q 227385.2 176164 229425.2 176164 Q 230136.8 176164 230430.8 175795.6 Q 231488 174664 231929.6 161417.2 L 225688.4 161417.2 Q 224556.8 164144.8 223377.2 165718 Q 223056.8 165424 221877.2 164686 Q 224285.6 161514.4 225638 155764 L 227384 156181.6 Q 226917.2 158098 226326.8 159720.4 L 233675.6 159720.4 L 233675.6 160655.2 L 233676.8 160657.6 Z M 228244.4 171740.8 Q 227115.2 169456 224510 166063.6 L 225935.6 165228.4 Q 228638 168668.8 229793.6 170782 L 228244.4 171740.8 Z M 251321.6 162131.2 Q 252059.6 166555.6 253485.2 169924 Q 254886.8 166999.6 255622.4 162132.4 L 251321.6 162132.4 L 251321.6 162131.2 Z M 257490.8 162131.2 Q 256582.4 168202 254493.2 171937.6 Q 256409.6 175303.6 259235.6 176778.4 Q 258425.6 177442 257958.8 178350.4 Q 255255.2 176753.2 253362.8 173632 Q 251151.2 176580.4 247661.6 178399.6 Q 247268 177515.2 246556.4 176753.2 Q 250290.8 174983.2 252404 171811.6 Q 251078 169036 250169.6 165005.2 Q 249555.2 166405.6 248522 167880.4 Q 247810.4 167166.4 247196 166748.8 Q 245697.2 168468.4 243485.6 169967.2 L 243485.6 171148 L 246040.4 170902 Q 247613.6 170754.4 248621.6 170630.8 L 248621.6 172204 L 243485.6 172769.2 L 243485.6 176382.4 Q 243485.6 177684.4 242625.2 178028.8 Q 241961.6 178298.8 239332.4 178298.8 Q 239232.8 177636.4 238767.2 176701.6 Q 239381.6 176725.6 241346 176725.6 Q 241763.6 176701.6 241763.6 176357.2 L 241763.6 172964.8 L 236775.2 173506 L 236554.4 171835.6 Q 239208.8 171613.6 241763.6 171319.6 L 241763.6 169549.6 L 241739.6 169525.6 Q 243189.2 168641.2 244541.6 167339.2 L 241960.4 167339.2 Q 240093.2 169058.8 237732.8 170460.4 Q 237242 169846 236456 169108 Q 237659.6 168468.4 239232.8 167339.2 L 238618.4 167339.2 L 238618.4 165864.4 L 241028 165864.4 Q 241666.4 165299.2 242798 164070.4 L 236604.8 164070.4 L 236604.8 162448 L 240856.4 162448 L 240856.4 160015.6 L 237636.8 160015.6 L 237636.8 158441.2 L 240856.4 158441.2 L 240856.4 155862.4 L 242552 155862.4 L 242552 158441.2 L 245600 158441.2 L 245600 160015.6 L 242552 160015.6 L 242552 162448 L 244101.2 162448 Q 246165.2 159572.8 247320.8 156451.6 L 249040.4 156918.4 Q 247860.8 159842.8 246165.2 162448 L 248426 162448 L 248426 164070.4 L 245009.6 164070.4 Q 243804.8 165520 243460.4 165864.4 L 245991.2 165864.4 L 246335.6 165767.2 L 247196 166405.6 Q 249826.4 162818.8 251030 155863.6 L 252849.2 156157.6 Q 252406.4 158518 251865.2 160409.2 L 259042.4 160409.2 L 259042.4 162128.8 L 257493.2 162128.8 L 257490.8 162131.2 Z M 263879.6 164785.6 L 262136 164785.6 L 262136 159943.6 L 266190.8 159943.6 Q 265528.4 158543.2 264077.6 156823.6 L 265602.8 156109.6 Q 267297.2 158052.4 267936.8 159452.8 L 267002 159943.6 L 272384 159943.6 Q 271793.6 158149.6 270540.8 156282.4 L 272114 155692 Q 273636.8 157805.2 274103.6 159427.6 L 272850.8 159942.4 L 276857.6 159942.4 Q 278355.2 158075.2 279339.2 156035.2 L 281182.4 156674.8 Q 280026.8 158394.4 278798 159941.2 L 282804.8 159941.2 L 282804.8 164783.2 L 281009.6 164783.2 L 281009.6 161590 L 263879.6 161590 L 263879.6 164783.2 L 263879.6 164785.6 Z M 283246.4 171372.4 L 273244.4 171372.4 L 273244.4 176066.8 Q 273244.4 177589.6 272063.6 177958 Q 271104.8 178278.4 267542 178278.4 Q 267394.4 177688 266780 176508.4 Q 269852 176632 270786.8 176532.4 Q 271425.2 176508.4 271425.2 176041.6 L 271425.2 171372.4 L 261644 171372.4 L 261644 169676.8 L 271425.2 169676.8 L 271425.2 167906.8 Q 273538.4 167144.8 275675.6 165719.2 L 265748 165719.2 L 265748 164096.8 L 277766 164096.8 L 278110.4 163999.6 L 279315.2 164908 Q 277029.2 166997.2 273245.6 168692.8 L 273245.6 169675.6 L 283247.6 169675.6 L 283247.6 171371.2 L 283246.4 171372.4 Z M 295092.8 161910.4 Q 294969.2 164171.2 294748.4 165793.6 L 305193.2 165793.6 Q 305168 166408 305120 166678 Q 304505.6 175894 303201.2 177196 Q 302489.6 177958 301088 178057.6 Q 299514.8 178154.8 296984 177958 Q 296886.8 176975.2 296345.6 176188 Q 298385.6 176360.8 300449.6 176360.8 Q 301284.8 176360.8 301605.2 176090.8 Q 302662.4 175182.4 303227.6 167563.6 L 294478.4 167563.6 Q 293076.8 175304.8 287226.8 178402 Q 286688 177517.6 285900.8 176927.2 Q 290078 174839.2 291749.6 170341.6 Q 292805.6 167417.2 293075.6 161911.6 L 286440.8 161911.6 L 286440.8 160117.6 L 297179.6 160117.6 Q 296614.4 158398 295509.2 156431.2 L 297252.8 155743.6 Q 298554.8 158004.4 299021.6 159380.8 L 297326 160118.8 L 307575.2 160118.8 L 307575.2 161912.8 L 295090.4 161912.8 L 295092.8 161910.4 Z M 314901.2 166728.4 Q 313278.8 165376 310354.4 164074 L 311338.4 162745.6 Q 314237.6 163901.2 315909.2 165203.2 L 314901.2 166728.4 Z M 311188.4 176755.6 Q 313646 173240.8 315833.6 168890.8 L 317162 170095.6 Q 315098 174272.8 312713.6 177984.4 L 311188.4 176755.6 Z M 312664.4 156136 Q 315515.6 157291.6 317333.6 158692 L 316277.6 160214.8 Q 314606 158790.4 311682.8 157462 L 312665.6 156136 L 312664.4 156136 Z M 330678.8 178278.4 Q 330408.8 177516.4 329548.4 175844.8 Q 319521.2 177098.8 318735.2 177467.2 Q 318514.4 176508.4 318120.8 175648 Q 318686 175500.4 319694 174050.8 Q 321413.6 171716.8 323085.2 167957.2 L 317603.6 167957.2 L 317603.6 166211.2 L 323920.4 166211.2 L 323920.4 161837.2 L 318684.8 161837.2 L 318684.8 160093.6 L 323920.4 160093.6 L 323920.4 155866 L 325739.6 155866 L 325739.6 160093.6 L 331169.6 160093.6 L 331169.6 161837.2 L 325739.6 161837.2 L 325739.6 166211.2 L 332177.6 166211.2 L 332177.6 167957.2 L 325246.4 167957.2 Q 323182.4 172184.8 320921.6 175231.6 L 328688 174372.4 Q 327483.2 172456 326500.4 171202 L 327974 170514.4 Q 331071.2 174348.4 332274.8 177469.6 L 330677.6 178280.8 L 330678.8 178278.4 Z " fill-rule="nonzero" style="fill:#000000;;fill-opacity:1;"/>
</svg>