<svg version="1.1" x="0" y="0" width="100%" height="100%" viewBox="0 0 342988.8 48128" xmlns="http://www.w3.org/2000/svg">
  <path d="M 43004.6 17879.35 Q 41489.35 22451.2 39411.5 26192.2 Q 42945.15 30706.05 44756.2 33913.45 L 42736.35 35101 Q 41282 32489.55 38252.95 28181.6 Q 35223.9 32962.25 31809.15 35515.7 Q 30946.4 34389.05 30146 33825 Q 33737.65 31360 36885.6 26372 Q 34242.25 22806.45 31422 19510.6 L 33233.05 18560.85 Q 35876.4 21589.9 38045.6 24379.7 Q 39885.65 20935.95 41073.2 17370.4 L 43004.6 17876.45 L 43004.6 17879.35 Z M 47696.8 13126.25 Q 47605.45 25658.6 47873.7 29934.65 Q 48228.95 36258.1 49596.3 36258.1 Q 50129.9 36258.1 50247.35 31803.7 Q 50989.75 32814.35 51703.15 33347.95 Q 51524.8 36317.55 51079.65 37386.2 Q 50604.05 38515.75 49415.05 38515.75 Q 46771.7 38515.75 46059.75 32634.55 Q 45555.15 28715.2 45524.7 15263.55 L 30022.75 15263.55 L 30022.75 21916.15 Q 30022.75 33407.4 26103.4 38900 Q 25330.55 37950.25 24261.9 37415.2 Q 27795.55 32515.65 27795.55 21914.7 L 27795.55 13123.35 L 47693.9 13123.35 L 47696.8 13126.25 Z M 63791.8 24856.75 L 63791.8 30646.6 L 71244.8 30646.6 L 71244.8 24856.75 L 63791.8 24856.75 Z M 63791.8 32636 L 63791.8 34745.75 L 61771.95 34745.75 L 61771.95 22867.35 L 73295.1 22867.35 L 73295.1 32636 L 63793.25 32636 L 63791.8 32636 Z M 79499.65 35873.85 Q 79499.65 37951.7 78135.2 38427.3 Q 76975.2 38811.55 72580.25 38811.55 Q 72342.45 37595 71778.4 36555.35 Q 75016.25 36704.7 76589.5 36616.25 Q 77301.45 36585.8 77301.45 35873.85 L 77301.45 18948 L 57881.6 18948 L 57881.6 38813 L 55713.85 38813 L 55713.85 16809.25 L 63820.8 16809.25 Q 65127.25 14018 65720.3 11641.45 L 68423.1 12117.05 Q 67354.45 14728.5 66256.8 16809.25 L 79499.65 16809.25 L 79499.65 35873.85 Z M 109047.75 16066.85 L 96189.15 16066.85 L 96189.15 13986.1 L 109047.75 13986.1 L 109047.75 16066.85 Z M 93308 27619 Q 92774.4 26550.35 90635.65 23371.95 L 90635.65 38813 L 88437.45 38813 L 88437.45 24085.35 Q 86626.4 29519.95 84458.65 32221.3 Q 84132.4 31420.9 83211.65 30173.9 Q 86301.6 26490.9 87964.75 20047.1 L 83955.5 20047.1 L 83955.5 17969.25 L 88438.9 17969.25 L 88438.9 11732.8 L 90637.1 11732.8 L 90637.1 17969.25 L 94469.45 17969.25 L 94469.45 20047.1 L 90637.1 20047.1 L 90637.1 20818.5 Q 92984.65 23638.75 94615.9 25865.95 L 93309.45 27619 L 93308 27619 Z M 98980.4 26846.15 Q 97466.6 32459.1 94972.6 35963.75 Q 93843.05 35101 93218.1 34805.2 Q 95654.1 31686.25 96960.55 26401 L 98978.95 26846.15 L 98980.4 26846.15 Z M 103434.8 23105.15 L 103434.8 36023.2 Q 103434.8 37832.8 102337.15 38279.4 Q 101445.4 38724.55 98059.65 38724.55 Q 97942.2 37832.8 97378.15 36468.35 Q 99843.15 36556.8 100674 36497.35 Q 101238.05 36468.35 101238.05 35992.75 L 101238.05 23105.15 L 94911.7 23105.15 L 94911.7 21027.3 L 110619.55 21027.3 L 110619.55 23105.15 L 103433.35 23105.15 L 103434.8 23105.15 Z M 107296.15 26341.55 Q 109849.6 31478.9 110680.45 35282.25 L 108631.6 35994.2 Q 107919.65 32074.85 105454.65 26907.05 L 107294.7 26343 L 107296.15 26341.55 Z M 135300 35873.85 Q 136516.55 35873.85 136963.15 35101 Q 137408.3 34241.15 137528.65 31478.9 Q 138566.85 32074.85 139606.5 32253.2 Q 139338.25 35815.85 138388.5 36974.4 Q 137528.65 38043.05 135092.65 38043.05 L 122500.85 38043.05 Q 117186.6 38043.05 117186.6 34747.2 Q 117186.6 33173.95 118997.65 31480.35 Q 121700.45 28897.9 129895.85 23938.9 L 116741.45 23938.9 L 116741.45 21861.05 L 133636.85 21861.05 L 133636.85 21890.05 L 134083.45 21772.6 L 135656.7 22931.15 Q 135301.45 23197.95 135152.1 23257.4 Q 119412.35 32521.45 119412.35 34570.3 Q 119412.35 35876.75 122322.5 35876.75 L 135301.45 35876.75 L 135300 35873.85 Z M 139634.05 14909.75 L 139634.05 17016.6 L 133101.8 17016.6 L 133101.8 19719.4 L 130874.6 19719.4 L 130874.6 17016.6 L 122915.55 17016.6 L 122915.55 19719.4 L 120688.35 19719.4 L 120688.35 17016.6 L 113860.3 17016.6 L 113860.3 14909.75 L 120688.35 14909.75 L 120688.35 11702.35 L 122915.55 11702.35 L 122915.55 14909.75 L 130874.6 14909.75 L 130874.6 11702.35 L 133101.8 11702.35 L 133101.8 14909.75 L 139634.05 14909.75 Z M 169866.55 18114.25 L 153680.2 18114.25 L 153680.2 16066.85 L 161163.65 16066.85 Q 160242.9 14047 158817.55 12354.85 L 160657.6 11553 Q 162320.75 13364.05 163151.6 15175.1 L 161221.65 16066.85 L 169863.65 16066.85 L 169863.65 18114.25 L 169866.55 18114.25 Z M 164608.85 18739.2 Q 168261.4 22184.4 169805.65 24827.75 L 168171.5 26192.2 Q 166657.7 23402.4 163092.15 19897.75 L 164607.4 18739.2 L 164608.85 18739.2 Z M 159590.4 19778.85 Q 157363.2 23669.2 154305.15 26372 Q 153770.1 25776.05 152760.9 25033.65 Q 155730.5 22599.1 157602.45 18887.1 L 159591.85 19778.85 L 159590.4 19778.85 Z M 151779.25 28687.65 Q 151395 27677 149612.95 24114.35 L 149612.95 38813 L 147594.55 38813 L 147594.55 24440.6 Q 145929.95 30379.8 143940.55 33408.85 Q 143495.4 32279.3 142753 31299.1 Q 145693.6 27291.3 147178.4 20045.65 L 143733.2 20045.65 L 143733.2 17967.8 L 147594.55 17967.8 L 147594.55 11702.35 L 149612.95 11702.35 L 149612.95 17967.8 L 152937.8 17967.8 L 152937.8 20045.65 L 149612.95 20045.65 L 149612.95 21233.2 Q 150742.5 22838.35 153119.05 27024.5 L 151780.7 28689.1 L 151779.25 28687.65 Z M 166421.35 24618.95 Q 165232.35 28835.55 162797.8 32073.4 Q 166034.2 35280.8 170339.25 36735.15 Q 169538.85 37389.1 168854.45 38636.1 Q 164549.4 37062.85 161372.45 33738 Q 158343.4 36885.95 153948.45 38875.35 Q 153264.05 37806.7 152552.1 37213.65 Q 156976.05 35283.7 159976.1 32105.3 Q 157540.1 28986.35 156026.3 24740.75 L 157927.25 24205.7 Q 159174.25 27710.35 161342 30442.15 Q 163331.4 27650.9 164311.6 24088.25 L 166421.35 24621.85 L 166421.35 24618.95 Z M 199562.55 18114.25 L 183376.2 18114.25 L 183376.2 16066.85 L 190859.65 16066.85 Q 189938.9 14047 188513.55 12354.85 L 190353.6 11553 Q 192016.75 13364.05 192847.6 15175.1 L 190917.65 16066.85 L 199559.65 16066.85 L 199559.65 18114.25 L 199562.55 18114.25 Z M 194304.85 18739.2 Q 197957.4 22184.4 199501.65 24827.75 L 197867.5 26192.2 Q 196353.7 23402.4 192788.15 19897.75 L 194303.4 18739.2 L 194304.85 18739.2 Z M 189286.4 19778.85 Q 187059.2 23669.2 184001.15 26372 Q 183466.1 25776.05 182456.9 25033.65 Q 185426.5 22599.1 187298.45 18887.1 L 189287.85 19778.85 L 189286.4 19778.85 Z M 181475.25 28687.65 Q 181091 27677 179308.95 24114.35 L 179308.95 38813 L 177290.55 38813 L 177290.55 24440.6 Q 175625.95 30379.8 173636.55 33408.85 Q 173191.4 32279.3 172449 31299.1 Q 175389.6 27291.3 176874.4 20045.65 L 173429.2 20045.65 L 173429.2 17967.8 L 177290.55 17967.8 L 177290.55 11702.35 L 179308.95 11702.35 L 179308.95 17967.8 L 182633.8 17967.8 L 182633.8 20045.65 L 179308.95 20045.65 L 179308.95 21233.2 Q 180438.5 22838.35 182815.05 27024.5 L 181476.7 28689.1 L 181475.25 28687.65 Z M 196117.35 24618.95 Q 194928.35 28835.55 192493.8 32073.4 Q 195730.2 35280.8 200035.25 36735.15 Q 199234.85 37389.1 198550.45 38636.1 Q 194245.4 37062.85 191068.45 33738 Q 188039.4 36885.95 183644.45 38875.35 Q 182960.05 37806.7 182248.1 37213.65 Q 186672.05 35283.7 189672.1 32105.3 Q 187236.1 28986.35 185722.3 24740.75 L 187623.25 24205.7 Q 188870.25 27710.35 191038 30442.15 Q 193027.4 27650.9 194007.6 24088.25 L 196117.35 24621.85 L 196117.35 24618.95 Z M 206895.2 17521.2 L 206895.2 23342.95 Q 206895.2 33706.1 204016.95 38785.45 Q 203154.2 37925.6 202145 37567.45 Q 204698.45 33024.6 204698.45 23344.4 L 204698.45 15415.8 L 216636.3 15415.8 Q 215922.9 13931 214764.35 12475.2 L 216665.3 11703.8 Q 218267.55 13514.85 219130.3 15415.8 L 229286.1 15415.8 L 229286.1 17522.65 L 206893.75 17522.65 L 206895.2 17521.2 Z M 219131.75 25332.35 Q 222546.5 33616.2 229615.25 36735.15 Q 228694.5 37537 228040.55 38634.65 Q 221834.55 35515.7 218092.1 28062.7 Q 215747.45 35515.7 208799.05 38753.55 Q 208293 37831.35 207343.25 37059.95 Q 214678.8 33883 216547.85 25329.45 L 208561.25 25329.45 L 208561.25 23251.6 L 216874.1 23251.6 Q 217082.9 21736.35 217349.7 18440.5 L 219665.35 18440.5 Q 219458 21202.75 219160.75 23251.6 L 228752.5 23251.6 L 228752.5 25329.45 L 219131.75 25329.45 L 219131.75 25332.35 Z M 235582 20432.8 L 233443.25 20432.8 L 233443.25 14344.25 L 244579.25 14344.25 Q 244045.65 13126.25 243481.6 12175.05 L 245737.8 11524 Q 246689 12978.35 247193.6 14345.7 L 258151.25 14345.7 L 258151.25 20434.25 L 255924.05 20434.25 L 255924.05 16396 L 235582 16396 L 235582 20434.25 L 235582 20432.8 Z M 256073.4 23727.2 Q 254113 25361.35 251498.65 27083.95 Q 253785.3 33616.2 259398.25 35785.4 Q 258538.4 36556.8 257974.35 37596.45 Q 252361.4 35072 249776.05 28181.6 Q 249122.1 28628.2 248379.7 29015.35 Q 249122.1 31805.15 248705.95 34358.6 Q 248289.8 36794.6 247042.8 37744.35 Q 245824.8 38784 244013.75 38784 Q 243362.7 38784 241461.75 38724.55 Q 241461.75 37686.35 240897.7 36646.7 Q 242678.3 36796.05 243570.05 36796.05 Q 244817.05 36796.05 245471 36171.1 Q 247076.15 35012.55 246629.55 31062.75 Q 241254.4 35161.9 233918.85 37418.1 Q 233531.7 36468.35 232760.3 35547.6 Q 241164.5 33616.2 246211.95 29015.35 Q 245824.8 27708.9 245408.65 26936.05 Q 240746.9 30143.45 234391.55 32103.85 Q 233827.5 31006.2 233263.45 30381.25 Q 240123.4 28747.1 244519.8 25451.25 Q 243984.75 24591.4 243093 23699.65 Q 239559.35 25689.05 234542.35 27204.3 Q 234126.2 26312.55 233324.35 25449.8 Q 239946.5 23876.55 243925.3 21144.75 L 237155.25 21144.75 L 237155.25 19214.8 L 254230.45 19214.8 L 254230.45 21144.75 L 246865.9 21144.75 Q 245945.15 21946.6 244756.15 22718 Q 246836.9 24795.85 247786.65 27260.85 Q 251498.65 24887.2 254260.9 22301.85 L 256071.95 23727.2 L 256073.4 23727.2 Z M 285531.6 13333.6 Q 281373 18205.6 274098.35 21737.8 Q 273444.4 20848.95 272317.75 19986.2 Q 279383.6 17045.6 283333.4 12383.85 L 285531.6 13333.6 Z M 277156.4 25449.8 Q 280630.6 33469.75 289155.15 35933.3 Q 288324.3 36587.25 287610.9 37954.6 Q 278613.65 34985 274901.65 25451.25 L 270268.9 25451.25 L 270268.9 35370.7 L 277366.65 33617.65 Q 277366.65 34806.65 277574 35698.4 Q 268547.75 38072.05 267685 38668 Q 267358.75 37479 266796.15 36707.6 Q 267983.7 36114.55 267983.7 34896.55 L 267983.7 25452.7 L 262311.3 25452.7 L 262311.3 23284.95 L 267983.7 23284.95 L 267983.7 11911.15 L 270270.35 11911.15 L 270270.35 23284.95 L 288472.2 23284.95 L 288472.2 25452.7 L 277157.85 25452.7 L 277156.4 25449.8 Z M 293013.6 26550.35 L 317395.35 26550.35 L 317395.35 28689.1 L 304448.3 28689.1 Q 301329.35 32817.25 298390.2 35428.7 L 311870.85 34419.5 Q 310268.6 32547.55 308425.65 30855.4 L 310297.6 29846.2 Q 314930.35 34032.35 317040.1 37597.9 L 315079.7 38814.45 Q 314366.3 37597.9 313445.55 36379.9 Q 296044.1 37805.25 295005.9 38192.4 Q 294470.85 36440.8 294263.5 35905.75 Q 295005.9 35756.4 296460.25 34360.05 Q 298570 32608.45 301451.15 28689.1 L 293016.5 28689.1 L 293016.5 26550.35 L 293013.6 26550.35 Z M 307328 12650.65 Q 306940.85 13155.25 306466.7 13839.65 Q 311543.15 19036.45 318759.8 21500 Q 317897.05 22242.4 317214.1 23460.4 Q 310473.05 20728.6 305187.8 15324.45 Q 302396.55 18382.5 298506.2 20876.5 L 312224.65 20876.5 L 312224.65 22925.35 L 298119.05 22925.35 L 298119.05 21114.3 Q 295713.5 22628.1 293219.5 23757.65 Q 292536.55 22660 291615.8 21887.15 Q 301175.65 17788 305213.9 11731.35 L 307323.65 12652.1 L 307328 12650.65 Z " fill-rule="nonzero" style="fill:#000000;;fill-opacity:1;"/>
</svg>