<svg version="1.1" x="0" y="0" width="100%" height="100%" viewBox="0 0 172134.4 40550.4" xmlns="http://www.w3.org/2000/svg">
  <path d="M 5955.2 17273.6 L 4185.2 17273.6 L 4185.2 12234.8 L 13401.2 12234.8 Q 12959.6 11226.8 12492.8 10439.6 L 14360 9900.8 Q 15147.2 11104.4 15564.8 12236 L 24633.2 12236 L 24633.2 17274.8 L 22790 17274.8 L 22790 13932.8 L 5955.2 13932.8 L 5955.2 17274.8 L 5955.2 17273.6 Z M 22913.6 20000 Q 21291.2 21352.4 19127.6 22778 Q 21020 28184 25665.2 29979.2 Q 24953.6 30617.6 24486.8 31478 Q 19841.6 29388.8 17702 23686.4 Q 17160.8 24056 16546.4 24376.4 Q 17160.8 26685.2 16816.4 28798.4 Q 16472 30814.4 15440 31600.4 Q 14432 32460.8 12933.2 32460.8 Q 12394.4 32460.8 10821.2 32411.6 Q 10821.2 31552.4 10354.4 30692 Q 11828 30815.6 12566 30815.6 Q 13598 30815.6 14139.2 30298.4 Q 15467.6 29339.6 15098 26070.8 Q 10649.6 29463.2 4578.8 31330.4 Q 4258.4 30544.4 3620 29782.4 Q 10575.2 28184 14752.4 24376.4 Q 14432 23295.2 14087.6 22655.6 Q 10229.6 25310 4970 26932.4 Q 4503.2 26024 4036.4 25506.8 Q 9713.6 24154.4 13352 21426.8 Q 12909.2 20715.2 12171.2 19977.2 Q 9246.8 21623.6 5094.8 22877.6 Q 4750.4 22139.6 4086.8 21425.6 Q 9567.2 20123.6 12860 17862.8 L 7257.2 17862.8 L 7257.2 16265.6 L 21388.4 16265.6 L 21388.4 17862.8 L 15293.6 17862.8 Q 14531.6 18526.4 13547.6 19164.8 Q 15269.6 20884.4 16055.6 22924.4 Q 19127.6 20960 21413.6 18820.4 L 22912.4 20000 L 22913.6 20000 Z M 47292.8 11398.4 Q 43851.2 15430.4 37830.8 18353.6 Q 37289.6 17618 36357.2 16904 Q 42204.8 14470.4 45473.6 10612.4 L 47292.8 11398.4 Z M 40361.6 21425.6 Q 43236.8 28062.8 50291.6 30101.6 Q 49604 30642.8 49013.6 31774.4 Q 41567.6 29316.8 38495.6 21426.8 L 34661.6 21426.8 L 34661.6 29636 L 40535.6 28185.2 Q 40535.6 29169.2 40707.2 29907.2 Q 33237.2 31871.6 32523.2 32364.8 Q 32253.2 31380.8 31787.6 30742.4 Q 32770.4 30251.6 32770.4 29243.6 L 32770.4 21428 L 28076 21428 L 28076 19634 L 32770.4 19634 L 32770.4 10221.2 L 34662.8 10221.2 L 34662.8 19634 L 49726.4 19634 L 49726.4 21428 L 40362.8 21428 L 40361.6 21425.6 Z M 53484.8 22336.4 L 73662.8 22336.4 L 73662.8 24106.4 L 62948 24106.4 Q 60366.8 27522.8 57934.4 29684 L 69090.8 28848.8 Q 67764.8 27299.6 66239.6 25899.2 L 67788.8 25064 Q 71622.8 28528.4 73368.8 31479.2 L 71746.4 32486 Q 71156 31479.2 70394 30471.2 Q 55992.8 31650.8 55133.6 31971.2 Q 54690.8 30521.6 54519.2 30078.8 Q 55133.6 29955.2 56337.2 28799.6 Q 58083.2 27350 60467.6 24106.4 L 53487.2 24106.4 L 53487.2 22336.4 L 53484.8 22336.4 Z M 65331.2 10833.2 Q 65010.8 11250.8 64618.4 11817.2 Q 68819.6 16118 74792 18156.8 Q 74078 18771.2 73512.8 19779.2 Q 67934 17518.4 63560 13046 Q 61250 15576.8 58030.4 17640.8 L 69383.6 17640.8 L 69383.6 19336.4 L 57710 19336.4 L 57710 17837.6 Q 55719.2 19090.4 53655.2 20025.2 Q 53090 19116.8 52328 18477.2 Q 60239.6 15084.8 63581.6 10072.4 L 65327.6 10834.4 L 65331.2 10833.2 Z M 81747.2 24767.6 Q 83886.8 23835.2 84550.4 23589.2 L 84918.8 25211.6 Q 83247.2 25997.6 77373.2 28602.8 L 76661.6 26784.8 Q 78014 26318 80028.8 25457.6 L 80028.8 17667.2 L 76883.6 17667.2 L 76883.6 15923.6 L 80028.8 15923.6 L 80028.8 10344.8 L 81748.4 10344.8 L 81748.4 15923.6 L 84624.8 15923.6 L 84624.8 17667.2 L 81748.4 17667.2 L 81748.4 24770 L 81747.2 24767.6 Z M 95903.6 30297.2 Q 96959.6 30297.2 97304 29609.6 Q 97624.4 28971.2 97748 26807.6 Q 98510 27348.8 99394.4 27521.6 Q 99173.6 30126.8 98534 30986 Q 97822.4 31944.8 95955.2 31944.8 L 89932.4 31944.8 Q 87819.2 31944.8 87083.6 31282.4 Q 86320.4 30594.8 86320.4 28652 L 86320.4 20910.8 L 84380 21722 L 83668.4 20148.8 L 86321.6 19017.2 L 86321.6 12332 L 88067.6 12332 L 88067.6 18279.2 L 91360.4 16878.8 L 91360.4 10047.2 L 93106.4 10047.2 L 93106.4 16166 L 96350 14789.6 L 97088 14175.2 L 98366 14666 L 98266.4 15010.4 Q 98266.4 23022.8 98021.6 24202.4 Q 97848.8 25528.4 96719.6 25824.8 Q 96032 25996.4 94409.6 25996.4 Q 94236.8 24915.2 93966.8 24424.4 Q 94557.2 24449.6 95614.4 24449.6 Q 96203.6 24449.6 96351.2 23810 Q 96524 22974.8 96524 16584.8 L 93107.6 18035.6 L 93107.6 27054.8 L 91361.6 27054.8 L 91361.6 18771.2 L 88068.8 20172.8 L 88068.8 28677.2 Q 88068.8 29660 88437.2 29980.4 Q 88806.8 30298.4 89986.4 30298.4 L 95909.6 30298.4 L 95903.6 30297.2 Z M 118980.8 19214 L 106226 19214 L 106226 23588 L 118980.8 23588 L 118980.8 19214 Z M 120824 25308.8 L 104480 25308.8 L 104480 17494.4 L 111534.8 17494.4 L 111534.8 10048.4 L 113352.8 10048.4 L 113352.8 12677.6 L 122644.4 12677.6 L 122644.4 14397.2 L 113352.8 14397.2 L 113352.8 17494.4 L 120825.2 17494.4 L 120825.2 25308.8 L 120824 25308.8 Z M 101457.2 31673.6 Q 103400 30027.2 104800.4 26783.6 L 106520 27225.2 Q 105094.4 30593.6 103130 32484.8 L 101458.4 31673.6 L 101457.2 31673.6 Z M 110476.4 27299.6 Q 111042.8 30077.6 111090.8 32044.4 L 109272.8 32289.2 Q 109272.8 30101.6 108731.6 27448.4 L 110475.2 27299.6 L 110476.4 27299.6 Z M 115418 27104 Q 116744 29682.8 117261.2 31796 L 115491.2 32213.6 Q 115048.4 30076.4 113771.6 27471.2 L 115418 27102.8 L 115418 27104 Z M 120357.2 26637.2 Q 122691.2 29536.4 123626 31600.4 L 121906.4 32288 Q 120995.6 30100.4 118760 27250.4 L 120357.2 26636 L 120357.2 26637.2 Z " fill-rule="nonzero" style="fill:#000000;;fill-opacity:1;"/>
</svg>