<svg version="1.1" x="0" y="0" width="100%" height="100%" viewBox="0 0 416614.4 49152" xmlns="http://www.w3.org/2000/svg">
  <path d="M 3354.45 34954.55 Q 13331.9 26224.1 13331.9 20906.95 Q 13331.9 18948 12351.7 17818.45 Q 11283.05 16600.45 9322.65 16600.45 Q 6917.1 16600.45 4807.35 19124.9 L 3234.1 17580.65 Q 6203.7 14373.25 9648.9 14373.25 Q 12559.05 14373.25 14281.65 16124.85 Q 15975.25 17877.9 15975.25 20817.05 Q 15975.25 26340.1 7453.6 34418.05 Q 10096.95 34210.7 11017.7 34210.7 L 17045.35 34210.7 L 17045.35 36555.35 L 3355.9 36555.35 L 3355.9 34953.1 L 3354.45 34954.55 Z M 21779.05 34120.8 Q 19939 31151.2 19939 25599.15 Q 19939 20047.1 21779.05 17136.95 Q 23530.65 14374.7 26738.05 14374.7 Q 29916.45 14374.7 31668.05 17165.95 Q 33508.1 20076.1 33508.1 25599.15 Q 33508.1 31151.2 31668.05 34120.8 Q 29916.45 36943.95 26738.05 36943.95 Q 23561.1 36943.95 21779.05 34120.8  Z M 30866.2 25599.15 Q 30866.2 16572.9 26738.05 16572.9 Q 22580.9 16572.9 22580.9 25599.15 Q 22580.9 34774.75 26738.05 34774.75 Q 30866.2 34774.75 30866.2 25599.15  Z M 37532.75 34300.6 L 42371.4 34300.6 L 42371.4 18056.25 L 38512.95 18056.25 L 38512.95 16333.65 Q 41214.3 15829.05 43025.35 14789.4 L 45103.2 14789.4 L 45103.2 34300.6 L 49469.15 34300.6 L 49469.15 36556.8 L 37532.75 36556.8 L 37532.75 34300.6 Z M 63648.15 23371.95 Q 63203 16512 58895.05 16512 Q 57321.8 16512 56283.6 17847.45 Q 55214.95 19243.8 55214.95 21442 Q 55214.95 23698.2 56195.15 24975.65 Q 57204.35 26280.65 59105.3 26280.65 Q 61599.3 26280.65 63648.15 23370.5 L 63648.15 23371.95 Z M 54561 33023.15 Q 56045.8 34686.3 58213.55 34686.3 Q 63410.35 34686.3 63677.15 25599.15 Q 61509.4 28301.95 58660.15 28301.95 Q 55868.9 28301.95 54295.65 26550.35 Q 52661.5 24768.3 52661.5 21443.45 Q 52661.5 18353.5 54501.55 16335.1 Q 56283.6 14374.7 58895.05 14374.7 Q 62161.9 14374.7 64122.3 16957.15 Q 66200.15 19719.4 66200.15 24737.85 Q 66200.15 30943.85 63794.6 34151.25 Q 61684.85 36942.5 58299.1 36942.5 Q 55212.05 36942.5 53073.3 34715.3 L 54558.1 33021.7 L 54561 33023.15 Z M 83023.95 29904.2 L 83023.95 24024.45 L 76371.35 24024.45 L 76371.35 29904.2 L 83023.95 29904.2 Z M 96000 32042.95 L 85251.15 32042.95 L 85251.15 38844.9 L 83023.95 38844.9 L 83023.95 32042.95 L 69302.6 32042.95 L 69302.6 29904.2 L 74173.15 29904.2 L 74173.15 21946.6 L 83023.95 21946.6 L 83023.95 17432.75 L 75807.3 17432.75 Q 73788.9 20877.95 71293.45 23283.5 Q 70105.9 22243.85 69392.5 21888.6 Q 73846.9 17998.25 76074.1 11642.9 L 78301.3 12176.5 Q 77738.7 13603.3 76936.85 15295.45 L 94634.1 15295.45 L 94634.1 17434.2 L 85251.15 17434.2 L 85251.15 21948.05 L 93951.15 21948.05 L 93951.15 24025.9 L 85251.15 24025.9 L 85251.15 29905.65 L 96000 29905.65 L 96000 32044.4 L 96000 32042.95 Z M 109036.95 33469.75 Q 110105.6 32073.4 110105.6 29875.2 Q 110105.6 25065.55 106184.8 25065.55 Q 103690.8 25065.55 101730.4 27856.8 Q 102236.45 34834.2 106422.6 34834.2 Q 107995.85 34834.2 109035.5 33469.75 L 109036.95 33469.75 Z M 110788.55 18294.05 Q 109424.1 16629.45 107285.35 16629.45 Q 101821.75 16629.45 101672.4 25687.6 Q 103840.15 23044.25 106631.4 23044.25 Q 109451.65 23044.25 111024.9 24766.85 Q 112659.05 26548.9 112659.05 29873.75 Q 112659.05 32960.8 110819 34980.65 Q 109036.95 36941.05 106422.6 36941.05 Q 103157.2 36941.05 101225.8 34238.25 Q 99147.95 31386.1 99147.95 26160.3 Q 99147.95 20161.65 101583.95 17074.6 Q 103722.7 14371.8 107196.9 14371.8 Q 110195.5 14371.8 112273.35 16599 L 110788.55 18292.6 L 110788.55 18294.05 Z M 135925.2 27469.65 L 135925.2 22480.2 L 122353.2 22480.2 Q 122353.2 25065.55 122026.95 27471.1 L 135925.2 27471.1 L 135925.2 27469.65 Z M 122353.2 15443.35 L 122353.2 20373.35 L 135925.2 20373.35 L 135925.2 15443.35 L 122353.2 15443.35 Z M 138210.4 35605.6 Q 138210.4 37774.8 136667.6 38279.4 Q 135449.6 38695.55 130402.15 38695.55 Q 130104.9 37477.55 129450.95 36408.9 Q 131114.1 36468.35 135005.9 36468.35 Q 135926.65 36439.35 135926.65 35576.6 L 135926.65 29637.4 L 121671.7 29637.4 Q 120365.25 35547.6 116564.8 38872.45 Q 116089.2 38130.05 114930.65 37270.2 Q 120127.45 32695.45 120127.45 22361.3 L 120127.45 13274.15 L 138211.85 13274.15 L 138211.85 35604.15 L 138210.4 35605.6 Z M 144922.45 34954.55 Q 154899.9 26224.1 154899.9 20906.95 Q 154899.9 18948 153919.7 17818.45 Q 152851.05 16600.45 150890.65 16600.45 Q 148485.1 16600.45 146375.35 19124.9 L 144802.1 17580.65 Q 147771.7 14373.25 151216.9 14373.25 Q 154127.05 14373.25 155849.65 16124.85 Q 157543.25 17877.9 157543.25 20817.05 Q 157543.25 26340.1 149021.6 34418.05 Q 151664.95 34210.7 152585.7 34210.7 L 158613.35 34210.7 L 158613.35 36555.35 L 144923.9 36555.35 L 144923.9 34953.1 L 144922.45 34954.55 Z M 161357.65 34954.55 Q 171335.1 26224.1 171335.1 20906.95 Q 171335.1 18948 170354.9 17818.45 Q 169286.25 16600.45 167325.85 16600.45 Q 164920.3 16600.45 162810.55 19124.9 L 161237.3 17580.65 Q 164206.9 14373.25 167652.1 14373.25 Q 170562.25 14373.25 172284.85 16124.85 Q 173978.45 17877.9 173978.45 20817.05 Q 173978.45 26340.1 165456.8 34418.05 Q 168100.15 34210.7 169020.9 34210.7 L 175048.55 34210.7 L 175048.55 36555.35 L 161359.1 36555.35 L 161359.1 34953.1 L 161357.65 34954.55 Z M 198787.4 34389.05 L 198787.4 26102.3 L 184059.75 26102.3 L 184059.75 34389.05 L 198787.4 34389.05 Z M 184059.75 15918.95 L 184059.75 23936 L 198787.4 23936 L 198787.4 15918.95 L 184059.75 15918.95 Z M 201103.05 13751.2 L 201103.05 38367.85 L 198787.4 38367.85 L 198787.4 36556.8 L 184059.75 36556.8 L 184059.75 38486.75 L 181832.55 38486.75 L 181832.55 13751.2 L 201104.5 13751.2 L 201103.05 13751.2 Z M 207549.75 27260.85 L 231364.55 27260.85 L 231364.55 29161.8 L 207549.75 29161.8 L 207549.75 27260.85 Z M 234122.55 27260.85 L 257937.35 27260.85 L 257937.35 29161.8 L 234122.55 29161.8 L 234122.55 27260.85 Z M 270880.15 33469.75 Q 271948.8 32073.4 271948.8 29875.2 Q 271948.8 25065.55 268028 25065.55 Q 265534 25065.55 263573.6 27856.8 Q 264079.65 34834.2 268265.8 34834.2 Q 269839.05 34834.2 270878.7 33469.75 L 270880.15 33469.75 Z M 272631.75 18294.05 Q 271267.3 16629.45 269128.55 16629.45 Q 263664.95 16629.45 263515.6 25687.6 Q 265683.35 23044.25 268474.6 23044.25 Q 271294.85 23044.25 272868.1 24766.85 Q 274502.25 26548.9 274502.25 29873.75 Q 274502.25 32960.8 272662.2 34980.65 Q 270880.15 36941.05 268265.8 36941.05 Q 265000.4 36941.05 263069 34238.25 Q 260991.15 31386.1 260991.15 26160.3 Q 260991.15 20161.65 263427.15 17074.6 Q 265565.9 14371.8 269040.1 14371.8 Q 272038.7 14371.8 274116.55 16599 L 272631.75 18292.6 L 272631.75 18294.05 Z M 297768.4 27469.65 L 297768.4 22480.2 L 284196.4 22480.2 Q 284196.4 25065.55 283870.15 27471.1 L 297768.4 27471.1 L 297768.4 27469.65 Z M 284196.4 15443.35 L 284196.4 20373.35 L 297768.4 20373.35 L 297768.4 15443.35 L 284196.4 15443.35 Z M 300053.6 35605.6 Q 300053.6 37774.8 298510.8 38279.4 Q 297292.8 38695.55 292245.35 38695.55 Q 291948.1 37477.55 291294.15 36408.9 Q 292957.3 36468.35 296849.1 36468.35 Q 297769.85 36439.35 297769.85 35576.6 L 297769.85 29637.4 L 283514.9 29637.4 Q 282208.45 35547.6 278408 38872.45 Q 277932.4 38130.05 276773.85 37270.2 Q 281970.65 32695.45 281970.65 22361.3 L 281970.65 13274.15 L 300055.05 13274.15 L 300055.05 35604.15 L 300053.6 35605.6 Z M 306765.65 34954.55 Q 316743.1 26224.1 316743.1 20906.95 Q 316743.1 18948 315762.9 17818.45 Q 314694.25 16600.45 312733.85 16600.45 Q 310328.3 16600.45 308218.55 19124.9 L 306645.3 17580.65 Q 309614.9 14373.25 313060.1 14373.25 Q 315970.25 14373.25 317692.85 16124.85 Q 319386.45 17877.9 319386.45 20817.05 Q 319386.45 26340.1 310864.8 34418.05 Q 313508.15 34210.7 314428.9 34210.7 L 320456.55 34210.7 L 320456.55 36555.35 L 306767.1 36555.35 L 306767.1 34953.1 L 306765.65 34954.55 Z M 322754.25 33974.35 L 324121.6 32192.3 Q 326498.15 34686.3 329527.2 34686.3 Q 331486.15 34686.3 332704.15 33588.65 Q 333951.15 32491 333951.15 30648.05 Q 333951.15 26282.1 327181.1 26282.1 L 327181.1 24204.25 Q 333208.75 24204.25 333208.75 20047.1 Q 333208.75 18473.85 332228.55 17522.65 Q 331219.35 16601.9 329527.2 16542.45 Q 327091.2 16630.9 325013.35 18711.65 L 323557.55 16989.05 Q 326377.8 14374.7 329644.65 14374.7 Q 332464.9 14374.7 334187.5 15800.05 Q 335969.55 17284.85 335969.55 19838.3 Q 335969.55 23638.75 332077.75 25094.55 L 332077.75 25212 Q 334097.6 25687.6 335373.6 27083.95 Q 336711.95 28599.2 336711.95 30735.05 Q 336711.95 33587.2 334663.1 35309.8 Q 332731.7 36943.95 329733.1 36943.95 Q 325487.5 36943.95 322754.25 33974.35  Z M 360630.6 34389.05 L 360630.6 26102.3 L 345902.95 26102.3 L 345902.95 34389.05 L 360630.6 34389.05 Z M 345902.95 15918.95 L 345902.95 23936 L 360630.6 23936 L 360630.6 15918.95 L 345902.95 15918.95 Z M 362946.25 13751.2 L 362946.25 38367.85 L 360630.6 38367.85 L 360630.6 36556.8 L 345902.95 36556.8 L 345902.95 38486.75 L 343675.75 38486.75 L 343675.75 13751.2 L 362947.7 13751.2 L 362946.25 13751.2 Z " fill-rule="nonzero" style="fill:#000000;;fill-opacity:1;"/>
</svg>