<svg version="1.1" x="0" y="0" width="100%" height="100%" viewBox="0 0 172134.4 40550.4" xmlns="http://www.w3.org/2000/svg">
  <path d="M 5955.2 17273.6 L 4185.2 17273.6 L 4185.2 12234.8 L 13401.2 12234.8 Q 12959.6 11226.8 12492.8 10439.6 L 14360 9900.8 Q 15147.2 11104.4 15564.8 12236 L 24633.2 12236 L 24633.2 17274.8 L 22790 17274.8 L 22790 13932.8 L 5955.2 13932.8 L 5955.2 17274.8 L 5955.2 17273.6 Z M 22913.6 20000 Q 21291.2 21352.4 19127.6 22778 Q 21020 28184 25665.2 29979.2 Q 24953.6 30617.6 24486.8 31478 Q 19841.6 29388.8 17702 23686.4 Q 17160.8 24056 16546.4 24376.4 Q 17160.8 26685.2 16816.4 28798.4 Q 16472 30814.4 15440 31600.4 Q 14432 32460.8 12933.2 32460.8 Q 12394.4 32460.8 10821.2 32411.6 Q 10821.2 31552.4 10354.4 30692 Q 11828 30815.6 12566 30815.6 Q 13598 30815.6 14139.2 30298.4 Q 15467.6 29339.6 15098 26070.8 Q 10649.6 29463.2 4578.8 31330.4 Q 4258.4 30544.4 3620 29782.4 Q 10575.2 28184 14752.4 24376.4 Q 14432 23295.2 14087.6 22655.6 Q 10229.6 25310 4970 26932.4 Q 4503.2 26024 4036.4 25506.8 Q 9713.6 24154.4 13352 21426.8 Q 12909.2 20715.2 12171.2 19977.2 Q 9246.8 21623.6 5094.8 22877.6 Q 4750.4 22139.6 4086.8 21425.6 Q 9567.2 20123.6 12860 17862.8 L 7257.2 17862.8 L 7257.2 16265.6 L 21388.4 16265.6 L 21388.4 17862.8 L 15293.6 17862.8 Q 14531.6 18526.4 13547.6 19164.8 Q 15269.6 20884.4 16055.6 22924.4 Q 19127.6 20960 21413.6 18820.4 L 22912.4 20000 L 22913.6 20000 Z M 47292.8 11398.4 Q 43851.2 15430.4 37830.8 18353.6 Q 37289.6 17618 36357.2 16904 Q 42204.8 14470.4 45473.6 10612.4 L 47292.8 11398.4 Z M 40361.6 21425.6 Q 43236.8 28062.8 50291.6 30101.6 Q 49604 30642.8 49013.6 31774.4 Q 41567.6 29316.8 38495.6 21426.8 L 34661.6 21426.8 L 34661.6 29636 L 40535.6 28185.2 Q 40535.6 29169.2 40707.2 29907.2 Q 33237.2 31871.6 32523.2 32364.8 Q 32253.2 31380.8 31787.6 30742.4 Q 32770.4 30251.6 32770.4 29243.6 L 32770.4 21428 L 28076 21428 L 28076 19634 L 32770.4 19634 L 32770.4 10221.2 L 34662.8 10221.2 L 34662.8 19634 L 49726.4 19634 L 49726.4 21428 L 40362.8 21428 L 40361.6 21425.6 Z M 53484.8 22336.4 L 73662.8 22336.4 L 73662.8 24106.4 L 62948 24106.4 Q 60366.8 27522.8 57934.4 29684 L 69090.8 28848.8 Q 67764.8 27299.6 66239.6 25899.2 L 67788.8 25064 Q 71622.8 28528.4 73368.8 31479.2 L 71746.4 32486 Q 71156 31479.2 70394 30471.2 Q 55992.8 31650.8 55133.6 31971.2 Q 54690.8 30521.6 54519.2 30078.8 Q 55133.6 29955.2 56337.2 28799.6 Q 58083.2 27350 60467.6 24106.4 L 53487.2 24106.4 L 53487.2 22336.4 L 53484.8 22336.4 Z M 65331.2 10833.2 Q 65010.8 11250.8 64618.4 11817.2 Q 68819.6 16118 74792 18156.8 Q 74078 18771.2 73512.8 19779.2 Q 67934 17518.4 63560 13046 Q 61250 15576.8 58030.4 17640.8 L 69383.6 17640.8 L 69383.6 19336.4 L 57710 19336.4 L 57710 17837.6 Q 55719.2 19090.4 53655.2 20025.2 Q 53090 19116.8 52328 18477.2 Q 60239.6 15084.8 63581.6 10072.4 L 65327.6 10834.4 L 65331.2 10833.2 Z M 79586 13758.8 L 79586 19116.8 L 83763.2 19116.8 L 83763.2 13758.8 L 79586 13758.8 Z M 83763.2 26316.8 L 83763.2 20763.2 L 79586 20763.2 L 79586 26316.8 L 83763.2 26316.8 Z M 85482.8 27987.2 L 79584.8 27987.2 L 79584.8 29930 L 77865.2 29930 L 77865.2 12112.4 L 85482.8 12112.4 L 85482.8 27987.2 Z M 99320 16756.4 L 96345.2 16756.4 L 96345.2 29782.4 Q 96345.2 31526 95116.4 31919.6 Q 94157.6 32288 90250.4 32240 Q 90029.6 31158.8 89586.8 30420.8 Q 92634.8 30494 93839.6 30444.8 Q 94527.2 30420.8 94527.2 29782.4 L 94527.2 16756.4 L 86588 16756.4 L 86588 14962.4 L 94527.2 14962.4 L 94527.2 10194.8 L 96345.2 10194.8 L 96345.2 14962.4 L 99320 14962.4 L 99320 16756.4 Z M 91160 25505.6 Q 89907.2 23121.2 87425.6 19508 L 88924.4 18722 Q 91847.6 22899.2 92758.4 24569.6 L 91160 25504.4 L 91160 25505.6 Z M 102686 15578 L 104529.2 15578 L 104529.2 32511.2 L 102686 32511.2 L 102686 15578 Z M 104456 10391.6 Q 106619.6 12308 107478.8 13854.8 L 106005.2 14838.8 Q 105070.4 13240.4 103055.6 11249.6 L 104456 10390.4 L 104456 10391.6 Z M 109691.6 26637.2 L 115539.2 26637.2 L 115539.2 23343.2 L 109691.6 23343.2 L 109691.6 26637.2 Z M 109691.6 21819.2 L 115539.2 21819.2 L 115539.2 18550.4 L 109691.6 18550.4 L 109691.6 21819.2 Z M 108045.2 17027.6 L 117261.2 17027.6 L 117261.2 28160 L 108045.2 28160 L 108045.2 17027.6 Z M 122691.2 30273.2 Q 122691.2 31673.6 121832 32067.2 Q 121144.4 32411.6 118661.6 32411.6 Q 118490 31503.2 118072.4 30692 Q 118587.2 30716 120406.4 30716 Q 120824 30716 120824 30274.4 L 120824 13168.4 L 109026.8 13168.4 L 109026.8 11448.8 L 122691.2 11448.8 L 122691.2 30274.4 L 122691.2 30273.2 Z " fill-rule="nonzero" style="fill:#000000;;fill-opacity:1;"/>
</svg>