<svg version="1.1" x="0" y="0" width="100%" height="100%" viewBox="0 0 60006.4 40550.4" xmlns="http://www.w3.org/2000/svg">
  <path d="M 23121.2 15626 Q 22065.2 13856 19976 11620.4 L 21204.8 10685.6 Q 23465.6 12946.4 24424.4 14495.6 L 23122.4 15624.8 L 23121.2 15626 Z M 25554.8 26267.6 Q 25726.4 27078.8 26022.8 27766.4 Q 21942.8 31305.2 21598.4 31846.4 Q 21180.8 31059.2 20541.2 30520.4 Q 21770 29487.2 21770 28062.8 L 21770 19485.2 L 18944 19485.2 L 18944 17739.2 L 23392.4 17739.2 L 23392.4 28110.8 L 25556 26267.6 L 25554.8 26267.6 Z M 27718.4 22876.4 L 31232 22876.4 L 31232 20736.8 L 27718.4 20736.8 L 27718.4 22876.4 Z M 27718.4 17445.2 L 27718.4 19385.6 L 31232 19385.6 L 31232 17445.2 L 27718.4 17445.2 Z M 27718.4 14298.8 L 27718.4 16068.8 L 31232 16068.8 L 31232 14298.8 L 27718.4 14298.8 Z M 32781.2 30371.6 Q 32781.2 31649.6 31994 32043.2 Q 31330.4 32337.2 28898 32337.2 Q 28774.4 31575.2 28332.8 30789.2 Q 29930 30862.4 30814.4 30789.2 Q 31232 30789.2 31232 30346.4 L 31232 25013.6 Q 29044.4 28823.6 25407.2 31478 Q 24890 30690.8 24348.8 30200 Q 27790.4 27987.2 29829.2 24449.6 L 24792.8 24449.6 L 24792.8 22876.4 L 26193.2 22876.4 L 26193.2 12800 L 28406 12800 Q 28920.8 11129.6 29117.6 10048.4 L 30887.6 10366.4 Q 30396.8 11817.2 29930 12800 L 32781.2 12800 L 32781.2 30371.6 Z M 41235.2 17150 L 39686 17150 L 39686 30249.2 Q 39686 31673.6 38801.6 32043.2 Q 38039.6 32387.6 35482.4 32387.6 Q 35310.8 31552.4 34868 30716 Q 36784.4 30791.6 37547.6 30742.4 Q 38013.2 30717.2 38013.2 30251.6 L 38013.2 17152.4 L 33615.2 17152.4 L 33615.2 15456.8 L 38013.2 15456.8 L 38013.2 10247.6 L 39684.8 10247.6 L 39684.8 15456.8 L 41234 15456.8 L 41234 17152.4 L 41235.2 17150 Z M 35483.6 25211.6 Q 35115.2 22728.8 33689.6 19509.2 L 35066 19116.8 Q 36564.8 22286 36982.4 24719.6 L 35483.6 25210.4 L 35483.6 25211.6 Z " fill-rule="nonzero" style="fill:#000000;;fill-opacity:1;"/>
</svg>