<svg version="1.1" x="0" y="0" width="100%" height="100%" viewBox="0 0 172032 40550.4" xmlns="http://www.w3.org/2000/svg">
  <path d="M 7404.8 12824 L 7404.8 15330.8 L 22029.2 15330.8 L 22029.2 12824 L 7404.8 12824 Z M 7404.8 16928 L 7404.8 18378.8 Q 7404.8 27939.2 4529.6 32534 Q 3767.6 31870.4 2932.4 31600.4 Q 5586.8 27423.2 5586.8 18380 L 5586.8 11228 L 23846 11228 L 23846 16929.2 L 7404.8 16929.2 L 7404.8 16928 Z M 13598 23538.8 L 18489.2 23538.8 L 18489.2 20960 L 13598 20960 L 13598 23538.8 Z M 24018.8 26219.6 Q 22272.8 27545.6 20111.6 28701.2 Q 22347.2 30347.6 25592 31011.2 Q 24928.4 31600.4 24461.6 32535.2 Q 17850.8 30864.8 15320 25138.4 L 11930 25138.4 L 11930 30150.8 L 17213.6 28971.2 Q 17066 29906 17139.2 30495.2 Q 10283.6 32166.8 9742.4 32535.2 Q 9618.8 31823.6 9028.4 30987.2 Q 10209.2 30324.8 10209.2 29120 L 10209.2 25139.6 L 7554.8 25139.6 L 7554.8 23541.2 L 11879.6 23541.2 L 11879.6 20962.4 L 8217.2 20962.4 L 8217.2 19388 L 11879.6 19388 L 11879.6 17176.4 L 13599.2 17176.4 L 13599.2 19388 L 18490.4 19388 L 18490.4 17176.4 L 20210 17176.4 L 20210 19388 L 24339.2 19388 L 24339.2 20962.4 L 20210 20962.4 L 20210 23541.2 L 25322 23541.2 L 25322 25139.6 L 17014.4 25139.6 Q 17849.6 26662.4 18981.2 27743.6 Q 21414.8 26294 22643.6 25286 L 24020 26220.8 L 24018.8 26219.6 Z M 41836.4 12309.2 L 41811.2 14103.2 L 47169.2 14103.2 L 47169.2 12309.2 L 41836.4 12309.2 Z M 47169.2 17321.6 L 47169.2 15381.2 L 41763.2 15381.2 Q 41663.6 16634 41590.4 17321.6 L 47169.2 17321.6 Z M 41345.6 18623.6 Q 40731.2 21278 38394.8 22606.4 Q 38026.4 21795.2 37314.8 21228.8 Q 39255.2 20172.8 39746 17936 Q 40115.6 16338.8 40115.6 10932.8 L 48938 10932.8 L 48938 20393.6 Q 48938 21695.6 48029.6 22065.2 Q 47218.4 22383.2 44514.8 22335.2 Q 44391.2 21647.6 43924.4 20787.2 Q 45964.4 20860.4 46702.4 20811.2 Q 47169.2 20787.2 47169.2 20393.6 L 47169.2 18623.6 L 41345.6 18623.6 Z M 30434 14225.6 L 27828.8 14225.6 L 27828.8 12627.2 L 32940.8 12627.2 Q 32498 11522 31907.6 10589.6 L 33530 10096.4 Q 34244 11177.6 34858.4 12627.2 L 38913.2 12627.2 L 38913.2 14225.6 L 32178.8 14225.6 L 32178.8 19091.6 L 38028.8 17691.2 Q 37931.6 18526.4 38028.8 19190 Q 30705.2 21057.2 30090.8 21498.8 Q 29820.8 20590.4 29378 20099.6 Q 30435.2 19608.8 30435.2 18477.2 L 30435.2 14225.6 L 30434 14225.6 Z M 49750.4 30371.6 L 49750.4 31920.8 L 28098.8 31920.8 L 28098.8 30371.6 L 38002.4 30371.6 L 38002.4 28210.4 L 30801.2 28210.4 L 30801.2 26685.2 L 38002.4 26685.2 L 38002.4 24621.2 L 29745.2 24621.2 L 29745.2 23072 L 48250.4 23072 L 48250.4 24621.2 L 39796.4 24621.2 L 39796.4 26685.2 L 47072 26685.2 L 47072 28210.4 L 39796.4 28210.4 L 39796.4 30371.6 L 49750.4 30371.6 Z M 65454.8 21892.4 Q 69165.2 27128 74842.4 29609.6 Q 74154.8 30176 73516.4 31158.8 Q 68280.8 28528.4 64397.6 23220.8 L 64397.6 32510 L 62506.4 32510 L 62506.4 23318 Q 58746.8 28479.2 53462 31133.6 Q 52750.4 30125.6 52136 29634.8 Q 57862.4 27077.6 61473.2 21892.4 L 52798.4 21892.4 L 52798.4 20098.4 L 62507.6 20098.4 L 62507.6 15870.8 L 54568.4 15870.8 L 54568.4 14076.8 L 62507.6 14076.8 L 62507.6 10070 L 64398.8 10070 L 64398.8 14076.8 L 72582.8 14076.8 L 72582.8 15870.8 L 64398.8 15870.8 L 64398.8 20098.4 L 74278.4 20098.4 L 74278.4 21892.4 L 65456 21892.4 L 65454.8 21892.4 Z M 90251.6 22630.4 Q 93987.2 27642.8 99443.6 29979.2 Q 98656.4 30714.8 98165.6 31526 Q 92930 28920.8 88998.8 23588 L 88998.8 32483.6 L 87106.4 32483.6 L 87106.4 23637.2 Q 83322.8 28797.2 78014 31427.6 Q 77472.8 30616.4 76734.8 29928.8 Q 82191.2 27568.4 85877.6 22629.2 L 77252 22629.2 L 77252 20883.2 L 87106.4 20883.2 L 87106.4 14764.4 L 78407.6 14764.4 L 78407.6 13018.4 L 87106.4 13018.4 L 87106.4 10070 L 88998.8 10070 L 88998.8 13018.4 L 97894.4 13018.4 L 97894.4 14764.4 L 88998.8 14764.4 L 88998.8 20883.2 L 98926.4 20883.2 L 98926.4 22629.2 L 90251.6 22629.2 L 90251.6 22630.4 Z M 81993.2 15330.8 Q 83787.2 17936 84328.4 19926.8 L 82608.8 20590.4 Q 82043.6 18378.8 80397.2 15945.2 L 81994.4 15330.8 L 81993.2 15330.8 Z M 91847.6 20123.6 Q 93298.4 17838.8 94330.4 15233.6 L 96197.6 15822.8 Q 94527.2 19067.6 93371.6 20640.8 L 91846.4 20123.6 L 91847.6 20123.6 Z " fill-rule="nonzero" style="fill:#000000;;fill-opacity:1;"/>
</svg>