<svg version="1.1" x="0" y="0" width="100%" height="100%" viewBox="0 0 59852.8 40550.4" xmlns="http://www.w3.org/2000/svg">
  <path d="M 39682 13660.4 L 29040.4 13660.4 L 29040.4 11938.4 L 39682 11938.4 L 39682 13660.4 Z M 26656 23220.8 Q 26214.4 22336.4 24444.4 19706 L 24444.4 32484.8 L 22625.2 32484.8 L 22625.2 20296.4 Q 21126.4 24794 19332.4 27029.6 Q 19062.4 26367.2 18300.4 25335.2 Q 20857.6 22287.2 22234 16954.4 L 18916 16954.4 L 18916 15234.8 L 22626.4 15234.8 L 22626.4 10073.6 L 24445.6 10073.6 L 24445.6 15234.8 L 27617.2 15234.8 L 27617.2 16954.4 L 24445.6 16954.4 L 24445.6 17592.8 Q 26388.4 19926.8 27738.4 21770 L 26657.2 23220.8 L 26656 23220.8 Z M 31350.4 22581.2 Q 30097.6 27226.4 28033.6 30126.8 Q 27098.8 29412.8 26581.6 29168 Q 28597.6 26586.8 29678.8 22212.8 L 31349.2 22581.2 L 31350.4 22581.2 Z M 35036.8 19485.2 L 35036.8 30176 Q 35036.8 31673.6 34128.4 32043.2 Q 33390.4 32411.6 30588.4 32411.6 Q 30491.2 31673.6 30024.4 30544.4 Q 32064.4 30617.6 32752 30568.4 Q 33218.8 30544.4 33218.8 30150.8 L 33218.8 19485.2 L 27983.2 19485.2 L 27983.2 17765.6 L 40982.8 17765.6 L 40982.8 19485.2 L 35035.6 19485.2 L 35036.8 19485.2 Z M 38232.4 22163.6 Q 40345.6 26415.2 41033.2 29562.8 L 39337.6 30152 Q 38748.4 26908.4 36708.4 22631.6 L 38231.2 22164.8 L 38232.4 22163.6 Z " fill-rule="nonzero" style="fill:#000000;;fill-opacity:1;"/>
</svg>